<?xml version="1.0" standalone="no"?>
<!DOCTYPE svg PUBLIC "-//W3C//DTD SVG 1.1//EN" "http://www.w3.org/Graphics/SVG/1.1/DTD/svg11.dtd" >
<svg xmlns="http://www.w3.org/2000/svg" xmlns:xlink="http://www.w3.org/1999/xlink" version="1.1">
<metadata>
Created by FontForge 20170731 at Sun May 22 21:20:23 2016
 By Aleksey,,,
HTF Gotham  Copr. 2002 The Hoefler Type Foundry, Inc. Info: www.typography.com
</metadata>
<defs>
<font id="SVN-GothamLightItalic" horiz-adv-x="846" >
  <font-face 
    font-family="SVN-Gotham Light"
    font-weight="300"
    font-style="italic"
    font-stretch="normal"
    units-per-em="1000"
    panose-1="2 0 6 3 4 0 0 9 0 4"
    ascent="800"
    descent="-200"
    x-height="510"
    cap-height="700"
    bbox="-121 -200 1206 1069"
    underline-thickness="20"
    underline-position="-173"
    slope="-12"
    unicode-range="U+0020-FB02"
  />
<missing-glyph horiz-adv-x="500" 
 />
    <glyph glyph-name="fi" unicode="fi" horiz-adv-x="612" 
d="M394 0l137 510h49l-137 -510h-49zM55 0l125 465h-74l12 45h74l20 74q39 146 163 146q57 0 102 -24l-12 -44q-53 24 -92 24q-87 0 -115 -113l-17 -63h184l-12 -45h-184l-125 -465h-49zM561 643l18 67h61l-18 -67h-61z" />
    <glyph glyph-name="fl" unicode="fl" horiz-adv-x="612" 
d="M55 0l125 465h-74l12 45h74l20 74q39 146 163 146q57 0 102 -24l-12 -44q-53 24 -92 24q-87 0 -115 -113l-17 -63h184l-12 -45h-184l-125 -465h-49zM394 0l196 730h49l-196 -730h-49z" />
    <glyph glyph-name=".notdef" horiz-adv-x="500" 
 />
    <glyph glyph-name=".null" horiz-adv-x="0" 
 />
    <glyph glyph-name="nonmarkingreturn" horiz-adv-x="333" 
 />
    <glyph glyph-name="space" unicode=" " horiz-adv-x="300" 
 />
    <glyph glyph-name="exclam" unicode="!" horiz-adv-x="251" 
d="M24 0l23 85h66l-23 -85h-66zM92 183l105 447l19 70h58l-19 -70l-135 -447h-28z" />
    <glyph glyph-name="quotedbl" unicode="&#x22;" horiz-adv-x="410" 
d="M101 446l93 254h63v-5l-127 -249h-29zM281 446l93 254h63v-5l-127 -249h-29z" />
    <glyph glyph-name="numbersign" unicode="#" horiz-adv-x="678" 
d="M221 234h206l83 236h-207zM91 0l65 187h-121l12 47h125l83 236h-133l12 47h137l64 183h48l-64 -183h207l64 183h48l-64 -183h121l-12 -47h-125l-83 -236h133l-12 -47h-137l-65 -187h-48l65 187h-207l-65 -187h-48z" />
    <glyph glyph-name="dollar" unicode="$" horiz-adv-x="618" 
d="M353 325l-75 -278q90 -4 149 37.5t59 108.5q0 42 -30 72.5t-103 59.5zM325 389l71 262q-86 12 -148 -28t-62 -105q0 -44 31.5 -72.5t107.5 -56.5zM190 -98l28 103q-137 22 -219 117l38 33q72 -86 198 -104l77 288q-98 37 -138.5 75.5t-40.5 98.5q0 81 66.5 134t165.5 53
q14 0 44 -2l16 60h49l-18 -67q104 -21 172 -89l-36 -36q-61 61 -153 80l-73 -272q92 -33 132.5 -73.5t40.5 -102.5q0 -86 -71 -142t-184 -56h-19l-26 -98h-49z" />
    <glyph glyph-name="percent" unicode="%" horiz-adv-x="821" 
d="M592 36q56 0 97 53.5t41 117.5q0 49 -24 77t-68 28q-56 0 -97 -53.5t-41 -117.5q0 -49 24 -77t68 -28zM234 389q56 0 97 53.5t41 117.5q0 49 -24 77t-68 28q-56 0 -97 -53.5t-41 -117.5q0 -49 24 -77t68 -28zM588 -7q-60 0 -98.5 41t-38.5 102q0 86 56 152.5t135 66.5
q60 0 98.5 -41t38.5 -102q0 -86 -56 -152.5t-135 -66.5zM65 0l682 700h60l-682 -700h-60zM230 346q-60 0 -98.5 41t-38.5 102q0 86 56 152.5t135 66.5q60 0 98.5 -41t38.5 -102q0 -86 -56 -152.5t-135 -66.5z" />
    <glyph glyph-name="ampersand" unicode="&#x26;" horiz-adv-x="690" 
d="M237 36q115 0 223 105l-159 225q-109 -26 -163 -78t-54 -117q0 -63 41.5 -99t111.5 -36zM326 411q200 52 200 154q0 46 -31 74.5t-84 28.5t-92 -38.5t-39 -92.5q0 -56 46 -126zM572 -14l-85 121q-61 -61 -120 -89t-136 -28q-87 0 -143.5 46.5t-56.5 128.5q0 86 62 147
t183 91q-47 76 -47 133q0 74 54.5 125t129.5 51t119.5 -39.5t44.5 -105.5q0 -62 -51.5 -110t-174.5 -82l142 -201q58 66 116 167l39 -23q-65 -109 -127 -178l90 -128z" />
    <glyph glyph-name="quotesingle" unicode="'" horiz-adv-x="230" 
d="M101 446l93 254h63v-5l-127 -249h-29z" />
    <glyph glyph-name="parenleft" unicode="(" horiz-adv-x="430" 
d="M301 -111l-28 -29q-174 153 -174 358q0 154 99.5 287t296.5 214l17 -37q-126 -54 -209 -132t-117.5 -159.5t-34.5 -171.5q0 -103 39 -179.5t111 -150.5z" />
    <glyph glyph-name="parenright" unicode=")" horiz-adv-x="430" 
d="M-47 -139l-17 37q126 54 209 132t117.5 159.5t34.5 171.5q0 103 -39 179.5t-111 150.5l28 29q174 -160 174 -358q0 -154 -99.5 -287t-296.5 -214z" />
    <glyph glyph-name="asterisk" unicode="*" horiz-adv-x="430" 
d="M270 406l-41 10l42 121l-121 -42l-12 41l129 24l-100 84l31 30l84 -97l24 125l41 -10l-42 -121l121 42l12 -41l-129 -24l100 -84l-31 -30l-84 97z" />
    <glyph glyph-name="plus" unicode="+" horiz-adv-x="639" 
d="M256 113l58 215h-217l13 48h217l57 215h50l-57 -215h217l-13 -48h-217l-58 -215h-50z" />
    <glyph glyph-name="comma" unicode="," horiz-adv-x="231" 
d="M-32 -106l-7 24q70 24 80 82h-27l23 85h66l-20 -74q-16 -52 -40.5 -77.5t-74.5 -39.5z" />
    <glyph glyph-name="hyphen" unicode="-" horiz-adv-x="409" 
d="M74 269l15 56h268l-15 -56h-268z" />
    <glyph glyph-name="hyphen" unicode="&#xad;" horiz-adv-x="409" 
d="M74 269l15 56h268l-15 -56h-268z" />
    <glyph glyph-name="period" unicode="." horiz-adv-x="231" 
d="M14 0l23 85h66l-23 -85h-66z" />
    <glyph glyph-name="slash" unicode="/" horiz-adv-x="500" 
d="M-121 -128l716 926h54l-716 -926h-54z" />
    <glyph glyph-name="zero" unicode="0" horiz-adv-x="709" 
d="M320 35q79 0 150 61t112 156.5t41 197.5q0 94 -47.5 154.5t-136.5 60.5q-79 0 -150 -61t-112 -156.5t-41 -197.5q0 -94 47.5 -154.5t136.5 -60.5zM317 -12q-113 0 -174 73t-61 189q0 114 46 220t130.5 174t183.5 68q113 0 174 -73t61 -189q0 -114 -45.5 -220t-130 -174
t-184.5 -68z" />
    <glyph glyph-name="one" unicode="1" horiz-adv-x="334" 
d="M93 0l173 645l-147 -46l-2 47l176 59h41l-189 -705h-52z" />
    <glyph glyph-name="two" unicode="2" horiz-adv-x="588" 
d="M-19 0l9 39l418 325q64 51 93.5 91t29.5 87q0 53 -40 87t-110 34q-104 0 -200 -100l-37 32q111 115 239 115q90 0 146 -46t56 -121q0 -58 -36 -107t-109 -106l-362 -280h404l-13 -50h-488z" />
    <glyph glyph-name="three" unicode="3" horiz-adv-x="606" 
d="M250 -12q-176 0 -240 137l43 24q59 -114 200 -114q93 0 154 49.5t61 126.5q0 66 -52 99.5t-144 33.5h-29l-11 26l312 281h-375l14 49h450l-10 -37l-307 -277q89 -4 148 -48.5t59 -122.5q0 -97 -80.5 -162t-192.5 -65z" />
    <glyph glyph-name="four" unicode="4" horiz-adv-x="645" 
d="M99 216h328l109 406zM369 0l46 171h-379l-8 39l533 495h48l-131 -489h114l-12 -45h-114l-46 -171h-51z" />
    <glyph glyph-name="five" unicode="5" horiz-adv-x="601" 
d="M252 -12q-153 0 -236 125l43 27q72 -107 196 -107q99 0 162.5 58.5t63.5 137.5q0 70 -47 110t-121 40q-82 0 -161 -44l-33 26l111 339h378l-14 -50h-332l-86 -257q22 12 64.5 22.5t72.5 10.5q102 0 162 -52.5t60 -142.5q0 -101 -79 -172t-204 -71z" />
    <glyph glyph-name="six" unicode="6" horiz-adv-x="640" 
d="M320 34q90 0 149.5 58t59.5 139q0 62 -45 109t-128 47q-92 0 -153 -56.5t-61 -129.5q0 -72 46 -118q49 -49 132 -49zM317 -12q-102 0 -166 64q-68 68 -68 193q0 112 38.5 208t101.5 159q100 100 224 100q126 0 204 -93l-38 -33q-69 79 -169 79q-99 0 -181 -82
q-49 -49 -82.5 -121t-39.5 -145q35 52 90.5 85t127.5 33q102 0 163 -60t61 -144q0 -100 -76 -171.5t-190 -71.5z" />
    <glyph glyph-name="seven" unicode="7" horiz-adv-x="578" 
d="M80 0l471 650h-403l14 50h464l-11 -38l-475 -662h-60z" />
    <glyph glyph-name="eight" unicode="8" horiz-adv-x="641" 
d="M298 37q98 0 158 43.5t60 112.5q0 59 -55.5 101.5t-146.5 42.5q-99 0 -159.5 -46t-60.5 -112q0 -63 56 -102.5t148 -39.5zM375 380q93 0 146 44.5t53 103.5t-49.5 97t-128.5 38q-87 0 -141 -42t-54 -105q0 -59 48.5 -97.5t125.5 -38.5zM295 -10q-114 0 -184.5 53
t-70.5 130q0 81 59.5 132t154.5 66q-47 17 -77 56t-30 93q0 81 72 135.5t177 54.5q101 0 166.5 -50t65.5 -129q0 -71 -51.5 -119.5t-129.5 -62.5q50 -17 86.5 -59.5t36.5 -98.5q0 -87 -78.5 -144t-196.5 -57z" />
    <glyph glyph-name="nine" unicode="9" horiz-adv-x="640" 
d="M335 304q90 0 151 59t61 137q0 69 -46 115q-50 50 -132 50q-90 0 -150 -59.5t-60 -141.5q0 -65 44.5 -112.5t131.5 -47.5zM243 -13q-129 0 -210 99l38 33q77 -85 175 -85t180 82q49 49 82.5 119.5t39.5 143.5q-83 -123 -220 -123q-103 0 -163 61t-60 147q0 101 77 174
t191 73q101 0 165 -64q68 -68 68 -193q0 -112 -38.5 -208t-101.5 -159q-100 -100 -223 -100z" />
    <glyph glyph-name="colon" unicode=":" horiz-adv-x="241" 
d="M19 0l23 85h66l-23 -85h-66zM133 425l23 85h66l-23 -85h-66z" />
    <glyph glyph-name="semicolon" unicode=";" horiz-adv-x="241" 
d="M-27 -106l-7 24q70 24 80 82h-27l23 85h66l-20 -74q-16 -52 -40.5 -77.5t-74.5 -39.5zM133 425l23 85h66l-23 -85h-66z" />
    <glyph glyph-name="semicolon" unicode="&#x37e;" horiz-adv-x="241" 
d="M-27 -106l-7 24q70 24 80 82h-27l23 85h66l-20 -74q-16 -52 -40.5 -77.5t-74.5 -39.5zM133 425l23 85h66l-23 -85h-66z" />
    <glyph glyph-name="less" unicode="&#x3c;" horiz-adv-x="640" 
d="M478 91l-400 241l11 40l529 241l-15 -59l-458 -206l347 -208z" />
    <glyph glyph-name="equal" unicode="=" horiz-adv-x="640" 
d="M81 214l14 51h454l-14 -51h-454zM142 439l13 51h454l-13 -51h-454z" />
    <glyph glyph-name="greater" unicode="&#x3e;" horiz-adv-x="640" 
d="M51 91l15 59l458 206l-347 208l14 49l400 -241l-11 -40z" />
    <glyph glyph-name="question" unicode="?" horiz-adv-x="534" 
d="M128 0l23 85h66l-23 -85h-66zM194 183l30 162l7 5q113 8 181.5 56.5t68.5 126.5q0 61 -43 95t-109 34q-108 0 -196 -88l-32 34q101 101 232 101q92 0 146.5 -49t54.5 -126q0 -93 -75.5 -152t-189.5 -74l-43 -125h-32z" />
    <glyph glyph-name="at" unicode="@" horiz-adv-x="980" 
d="M445 118q76 0 141 64.5t65 142.5q0 58 -34.5 94t-93.5 36q-78 0 -133.5 -64.5t-55.5 -151.5q0 -56 31 -88.5t80 -32.5zM486 -161q-191 0 -305.5 107.5t-114.5 284.5q0 127 66 238t179.5 177t245.5 66q181 0 286 -100t105 -253q0 -131 -65 -208.5t-141 -77.5
q-106 0 -121 100q-79 -102 -186 -102q-67 0 -112 45.5t-45 120.5q0 107 75 186t168 79q59 0 97.5 -30.5t56.5 -77.5l30 98l47 -13l-75 -242q-16 -54 2.5 -90.5t67.5 -36.5q59 0 112.5 66t53.5 183q0 138 -96 229.5t-260 91.5q-123 0 -228.5 -62t-166.5 -165.5t-61 -221.5
q0 -162 105.5 -261t279.5 -99q108 0 207 45l14 -29q-105 -48 -221 -48z" />
    <glyph glyph-name="A" unicode="A" horiz-adv-x="759" 
d="M200 243h369l-75 405zM-34 0l515 705h50l137 -705h-53l-36 196h-413l-142 -196h-58z" />
    <glyph glyph-name="B" unicode="B" horiz-adv-x="717" 
d="M101 48h253q109 0 172 42t63 116q0 60 -51 91.5t-134 31.5h-228zM189 377h216q106 0 170 44t64 115q0 57 -42.5 86.5t-118.5 29.5h-215zM36 0l188 700h259q96 0 153 -42.5t57 -116.5t-52.5 -124t-132.5 -65q134 -35 134 -146q0 -91 -79 -148.5t-212 -57.5h-315z" />
    <glyph glyph-name="C" unicode="C" horiz-adv-x="738" 
d="M378 -13q-120 0 -203 77.5t-83 206.5q0 112 55.5 214t153 164.5t209.5 62.5q91 0 157 -41.5t100 -109.5l-45 -24q-37 63 -86.5 95.5t-128.5 32.5q-98 0 -182.5 -57t-131.5 -147t-47 -188q0 -108 66.5 -173t170.5 -65q74 0 129.5 26.5t107.5 78.5l35 -32
q-117 -121 -277 -121z" />
    <glyph glyph-name="D" unicode="D" horiz-adv-x="771" 
d="M101 48h171q190 0 310 120q94 94 94 234q0 108 -65 171q-79 79 -233 79h-115zM36 0l188 700h157q178 0 272 -94q77 -77 77 -200q0 -162 -109 -271q-64 -64 -156.5 -99.5t-199.5 -35.5h-229z" />
    <glyph glyph-name="E" unicode="E" horiz-adv-x="649" 
d="M36 0l188 700h493l-13 -48h-441l-74 -275h396l-13 -48h-396l-75 -281h446l-13 -48h-498z" />
    <glyph glyph-name="F" unicode="F" horiz-adv-x="656" 
d="M36 0l188 700h493l-13 -48h-441l-77 -287h396l-13 -48h-396l-85 -317h-52z" />
    <glyph glyph-name="G" unicode="G" horiz-adv-x="786" 
d="M396 -13q-132 0 -217 81t-85 214q0 108 55 206.5t154.5 161t217.5 62.5q173 0 256 -130l-41 -27q-34 52 -84.5 81t-135.5 29q-102 0 -188 -56t-133 -143t-47 -182q0 -115 69 -182.5t182 -67.5q114 0 202 57l64 224h-233l13 48h284l-86 -301q-116 -75 -247 -75z" />
    <glyph glyph-name="H" unicode="H" horiz-adv-x="756" 
d="M36 0l188 700h52l-87 -324h443l87 324h52l-188 -700h-52l88 328h-443l-88 -328h-52z" />
    <glyph glyph-name="I" unicode="I" horiz-adv-x="274" 
d="M43 0l188 700h52l-188 -700h-52z" />
    <glyph glyph-name="J" unicode="J" horiz-adv-x="538" 
d="M196 -10q-83 0 -132 44t-69 117l46 16q21 -66 57.5 -98t95.5 -32q75 0 127 52q48 48 78 153l123 458h52l-125 -465q-31 -117 -93 -179q-66 -66 -160 -66z" />
    <glyph glyph-name="K" unicode="K" horiz-adv-x="714" 
d="M36 0l188 700h52l-122 -455l560 455h77l-389 -313l212 -387h-60l-195 357l-224 -182l-47 -175h-52z" />
    <glyph glyph-name="L" unicode="L" horiz-adv-x="600" 
d="M36 0l188 700h52l-175 -652h411l-13 -48h-463z" />
    <glyph glyph-name="M" unicode="M" horiz-adv-x="869" 
d="M36 0l188 700h43l170 -414l392 414h55l-188 -700h-52l163 608l-385 -403h-4l-169 403l-163 -608h-50z" />
    <glyph glyph-name="N" unicode="N" horiz-adv-x="786" 
d="M36 0l188 700h48l315 -613l165 613h50l-188 -700h-38l-322 626l-168 -626h-50z" />
    <glyph glyph-name="O" unicode="O" 
d="M398 34q144 0 246.5 115t102.5 262q0 109 -69 181.5t-179 72.5q-144 0 -246.5 -115t-102.5 -262q0 -109 69 -181.5t179 -72.5zM398 -13q-131 0 -216.5 87t-85.5 214q0 108 53.5 206t147 158t202.5 60q131 0 216.5 -87t85.5 -214q0 -108 -53.5 -206t-147 -158t-202.5 -60z
" />
    <glyph glyph-name="P" unicode="P" horiz-adv-x="663" 
d="M171 309h168q141 0 216.5 52t75.5 149q0 57 -36 93q-49 49 -154 49h-178zM36 0l188 700h218q130 0 193 -63q48 -48 48 -125q0 -119 -93 -184.5t-253 -65.5h-178l-71 -262h-52z" />
    <glyph glyph-name="Q" unicode="Q" 
d="M398 34q101 0 190 63l-117 130l38 33l114 -134q58 54 91 129.5t33 155.5q0 109 -69 181.5t-179 72.5q-144 0 -246.5 -115t-102.5 -262q0 -109 69 -181.5t179 -72.5zM692 -24l-72 85q-101 -74 -222 -74q-131 0 -216.5 87t-85.5 214q0 108 53.5 206t147 158t202.5 60
q131 0 216.5 -87t85.5 -214q0 -91 -39 -175.5t-107 -145.5l75 -82z" />
    <glyph glyph-name="R" unicode="R" horiz-adv-x="713" 
d="M178 337h210q149 0 220 71q47 47 47 113q0 52 -31 83q-48 48 -151 48h-210zM36 0l188 700h251q126 0 188 -62q44 -44 44 -114q0 -84 -62 -146q-68 -68 -206 -83l154 -295h-60l-150 290h-217l-78 -290h-52z" />
    <glyph glyph-name="S" unicode="S" horiz-adv-x="638" 
d="M299 -10q-184 0 -279 134l40 29q46 -59 104 -87.5t140 -28.5q86 0 144 43.5t58 109.5q0 46 -33.5 76t-119.5 65q-111 43 -155.5 83t-44.5 103q0 81 70 137t181 56q76 0 139.5 -29t103.5 -78l-40 -32q-78 92 -208 92q-87 0 -140 -42t-53 -100q0 -46 38.5 -77.5
t128.5 -65.5q99 -37 142.5 -79t43.5 -105q0 -86 -74 -145t-186 -59z" />
    <glyph glyph-name="T" unicode="T" horiz-adv-x="615" 
d="M209 0l175 652h-244l13 48h540l-13 -48h-244l-175 -652h-52z" />
    <glyph glyph-name="U" unicode="U" horiz-adv-x="756" 
d="M348 -11q-122 0 -187 61.5t-65 158.5q0 54 14 108l102 383h52l-108 -407q-9 -36 -9 -80q0 -79 52 -128t153 -49q99 0 171 72q65 65 98 186l109 406h52l-112 -417q-35 -130 -111 -206q-88 -88 -211 -88z" />
    <glyph glyph-name="V" unicode="V" horiz-adv-x="714" 
d="M259 -5l-117 705h54l99 -644l446 644h59l-495 -705h-46z" />
    <glyph glyph-name="W" unicode="W" horiz-adv-x="1074" 
d="M215 -5l-65 705h54l53 -623l372 625h40l38 -625l387 623h58l-443 -705h-42l-42 608l-368 -608h-42z" />
    <glyph glyph-name="X" unicode="X" horiz-adv-x="692" 
d="M-23 0l366 362l-186 338h56l167 -308l310 308h67l-352 -347l192 -353h-56l-173 323l-324 -323h-67z" />
    <glyph glyph-name="Y" unicode="Y" horiz-adv-x="668" 
d="M234 0l76 284l-183 416h57l161 -376l364 376h70l-421 -429l-72 -271h-52z" />
    <glyph glyph-name="Z" unicode="Z" horiz-adv-x="662" 
d="M-19 0l8 29l636 624h-452l13 47h533l-8 -29l-636 -624h472l-13 -47h-553z" />
    <glyph glyph-name="bracketleft" unicode="[" horiz-adv-x="430" 
d="M16 -130l223 830h273l-11 -38h-227l-202 -754h227l-10 -38h-273z" />
    <glyph glyph-name="backslash" unicode="\" horiz-adv-x="500" 
d="M368 -128l-221 926h44l221 -926h-44z" />
    <glyph glyph-name="bracketright" unicode="]" horiz-adv-x="430" 
d="M-67 -130l11 38h227l202 754h-227l10 38h273l-223 -830h-273z" />
    <glyph glyph-name="asciicircum" unicode="^" horiz-adv-x="500" 
d="M129 493l214 210h44l102 -210h-47l-83 167l-173 -167h-57z" />
    <glyph glyph-name="underscore" unicode="_" horiz-adv-x="600" 
d="M-114 -160l12 44h605l-12 -44h-605z" />
    <glyph glyph-name="grave" unicode="`" horiz-adv-x="500" 
d="M368 595l-79 103l62 30l52 -133h-35z" />
    <glyph glyph-name="a" unicode="a" horiz-adv-x="571" 
d="M199 33q74 0 140.5 47.5t87.5 122.5l12 45q-96 24 -193 24q-76 0 -123.5 -38t-47.5 -97q0 -48 33.5 -76t90.5 -28zM190 -12q-69 0 -118 37.5t-49 105.5q0 84 64 134.5t166 50.5q97 0 196 -29l4 14q7 26 7 51q0 58 -39.5 89t-114.5 31q-70 0 -148 -27l-9 44q78 29 161 29
q93 0 145.5 -42t52.5 -117q0 -34 -10 -67l-78 -292h-48l23 88q-83 -100 -205 -100z" />
    <glyph glyph-name="b" unicode="b" horiz-adv-x="654" 
d="M310 33q102 0 169.5 79.5t67.5 188.5q0 78 -44 126.5t-114 48.5q-96 0 -175.5 -82t-79.5 -183q0 -76 49 -127t127 -51zM312 -13q-80 0 -130 40.5t-73 102.5l-35 -130h-49l196 730h49l-87 -320q94 112 212 112q88 0 146.5 -61t58.5 -154q0 -134 -86 -227t-202 -93z" />
    <glyph glyph-name="c" unicode="c" horiz-adv-x="563" 
d="M272 -12q-89 0 -155.5 60t-66.5 160q0 126 89.5 220t210.5 94q138 0 200 -123l-41 -23q-28 47 -65 73.5t-97 26.5q-97 0 -170.5 -80t-73.5 -185q0 -82 51 -129.5t121 -47.5q87 0 165 73l33 -32q-89 -87 -201 -87z" />
    <glyph glyph-name="d" unicode="d" horiz-adv-x="654" 
d="M265 33q96 0 175.5 82t79.5 183q0 76 -49 127t-127 51q-102 0 -169.5 -79.5t-67.5 -188.5q0 -78 44 -126.5t114 -48.5zM259 -13q-88 0 -146.5 61t-58.5 154q0 134 86 227t202 93q80 0 130 -40.5t73 -102.5l94 351h49l-195 -730h-49l26 99q-94 -112 -211 -112z" />
    <glyph glyph-name="e" unicode="e" horiz-adv-x="583" 
d="M114 282h370q4 12 4 42q0 66 -36.5 109.5t-107.5 43.5q-83 0 -144.5 -56t-85.5 -139zM524 238h-419q-2 -22 -2 -34q0 -77 47 -123.5t122 -46.5q91 0 174 68l29 -35q-95 -79 -203 -79q-98 0 -160 60t-62 154q0 123 87 221.5t208 98.5q92 0 142.5 -56t50.5 -139
q0 -47 -14 -89z" />
    <glyph glyph-name="f" unicode="f" horiz-adv-x="362" 
d="M55 0l125 465h-74l12 45h74l20 74q39 146 163 146q57 0 102 -24l-12 -44q-53 24 -92 24q-87 0 -115 -113l-17 -63h184l-12 -45h-184l-125 -465h-49z" />
    <glyph glyph-name="g" unicode="g" horiz-adv-x="654" 
d="M282 84q95 0 169.5 70.5t74.5 157.5q0 65 -49.5 114t-129.5 49q-93 0 -163.5 -67t-70.5 -169q0 -72 50.5 -113.5t118.5 -41.5zM236 -162q-68 0 -131.5 25t-109.5 70l36 36q92 -85 207 -85q100 0 157 57q45 45 70 134l18 64q-95 -101 -210 -101q-86 0 -149.5 54.5
t-63.5 143.5q0 123 88 204.5t201 81.5q140 0 199 -136l33 124h49l-119 -447q-26 -98 -80 -152q-73 -73 -195 -73z" />
    <glyph glyph-name="h" unicode="h" horiz-adv-x="609" 
d="M25 0l196 730h49l-85 -315q45 52 89 79.5t104 27.5q76 0 121.5 -44t45.5 -118q0 -34 -11 -72l-76 -288h-49l78 292q8 30 8 63q0 57 -35 90t-96 33q-67 0 -129.5 -54t-83.5 -136l-77 -288h-49z" />
    <glyph glyph-name="i" unicode="i" horiz-adv-x="250" 
d="M32 0l137 510h49l-137 -510h-49zM199 643l18 67h61l-18 -67h-61z" />
    <glyph glyph-name="j" unicode="j" horiz-adv-x="249" 
d="M-52 -163q-33 0 -63 10l12 44q30 -8 47 -8q56 0 75 69l150 558h49l-151 -562q-14 -53 -45 -82t-74 -29zM199 643l18 67h61l-18 -67h-61z" />
    <glyph glyph-name="k" unicode="k" horiz-adv-x="560" 
d="M25 0l196 730h49l-145 -541l396 321h71l-284 -228l152 -282h-57l-136 252l-160 -128l-33 -124h-49z" />
    <glyph glyph-name="l" unicode="l" horiz-adv-x="250" 
d="M32 0l196 730h49l-196 -730h-49z" />
    <glyph glyph-name="m" unicode="m" horiz-adv-x="951" 
d="M25 0l136 510h49l-25 -95q45 53 85.5 80t97.5 27q64 0 102 -36.5t47 -88.5q77 125 214 125q69 0 114 -45.5t45 -116.5q0 -27 -13 -72l-76 -288h-49l78 292q8 30 8 63q0 57 -32.5 90t-88.5 33q-62 0 -122 -55t-81 -135l-76 -288h-49l78 292q8 30 8 63q0 57 -32.5 90
t-88.5 33q-62 0 -122 -55t-81 -135l-77 -288h-49z" />
    <glyph glyph-name="n" unicode="n" horiz-adv-x="611" 
d="M25 0l136 510h49l-25 -95q45 52 89 79.5t104 27.5q76 0 121.5 -44t45.5 -118q0 -34 -11 -72l-76 -288h-49l78 292q8 30 8 63q0 57 -35 90t-96 33q-67 0 -129.5 -54t-83.5 -136l-77 -288h-49z" />
    <glyph glyph-name="o" unicode="o" horiz-adv-x="633" 
d="M283 34q94 0 169.5 78t75.5 182q0 86 -48.5 134t-130.5 48q-97 0 -171 -79t-74 -181q0 -86 48.5 -134t130.5 -48zM278 -12q-101 0 -164 63.5t-63 162.5q0 122 91 215t212 93q101 0 164 -63.5t63 -162.5q0 -123 -92 -215.5t-211 -92.5z" />
    <glyph glyph-name="p" unicode="p" horiz-adv-x="654" 
d="M310 33q102 0 169.5 79.5t67.5 188.5q0 78 -44 126.5t-114 48.5q-96 0 -175.5 -82t-79.5 -183q0 -76 49 -127t127 -51zM-18 -160l179 670h49l-27 -100q94 112 212 112q88 0 146.5 -61t58.5 -154q0 -134 -86 -227t-202 -93q-80 0 -130 40.5t-73 102.5l-78 -290h-49z" />
    <glyph glyph-name="q" unicode="q" horiz-adv-x="654" 
d="M265 33q96 0 175.5 82.5t79.5 183.5q0 75 -49.5 126t-126.5 51q-102 0 -169.5 -79.5t-67.5 -188.5q0 -78 44 -126.5t114 -48.5zM391 -200l80 300q-94 -113 -212 -113q-88 0 -146.5 61t-58.5 154q0 134 86 227t202 93q80 0 130 -40t73 -102l35 130h49l-189 -710h-49z" />
    <glyph glyph-name="r" unicode="r" horiz-adv-x="396" 
d="M25 0l136 510h49l-38 -145q114 160 262 153l-14 -54h-4q-93 0 -174 -68.5t-112 -186.5l-56 -209h-49z" />
    <glyph glyph-name="s" unicode="s" horiz-adv-x="495" 
d="M217 -11q-128 0 -216 88l35 35q79 -78 187 -78q51 0 91.5 28.5t40.5 72.5q0 31 -24 54.5t-87 46.5q-76 28 -109.5 58.5t-33.5 78.5q0 62 52.5 105t136.5 43q103 0 184 -68l-32 -37q-73 60 -157 60q-61 0 -96.5 -28t-35.5 -67q0 -31 23 -52t92 -48q76 -30 107.5 -61.5
t31.5 -76.5q0 -66 -55.5 -110t-134.5 -44z" />
    <glyph glyph-name="t" unicode="t" horiz-adv-x="396" 
d="M206 -9q-54 0 -88 25t-34 76q0 23 6 49l87 324h-74l12 45h74l44 163h49l-44 -163h176l-12 -45h-176l-87 -325q-5 -22 -5 -43q0 -61 83 -61q33 0 74 16l-13 -48q-32 -13 -72 -13z" />
    <glyph glyph-name="u" unicode="u" horiz-adv-x="609" 
d="M231 -12q-76 0 -121.5 44t-45.5 118q0 34 11 72l76 288h49l-78 -292q-8 -30 -8 -63q0 -57 35 -90t96 -33q67 0 129.5 54t83.5 136l77 288h49l-136 -510h-49l25 95q-42 -51 -87.5 -79t-105.5 -28z" />
    <glyph glyph-name="v" unicode="v" horiz-adv-x="557" 
d="M179 -4l-90 514h53l71 -455l313 455h59l-364 -514h-42z" />
    <glyph glyph-name="w" unicode="w" horiz-adv-x="845" 
d="M148 -4l-49 514h50l37 -444l273 446h39l35 -446l275 444h54l-325 -514h-43l-35 437l-270 -437h-41z" />
    <glyph glyph-name="x" unicode="x" horiz-adv-x="559" 
d="M-29 0l284 264l-135 246h56l112 -215l224 215h66l-268 -250l141 -260h-56l-118 229l-240 -229h-66z" />
    <glyph glyph-name="y" unicode="y" horiz-adv-x="568" 
d="M20 -163q-58 0 -108 35l27 40q36 -29 87 -29q41 0 79 27t84 93l-104 507h52l89 -456l307 456h59l-363 -528q-55 -79 -104 -112t-105 -33z" />
    <glyph glyph-name="z" unicode="z" horiz-adv-x="546" 
d="M-17 0l8 28l475 438h-344l12 44h424l-8 -28l-475 -438h361l-12 -44h-441z" />
    <glyph glyph-name="braceleft" unicode="{" horiz-adv-x="480" 
d="M326 -110l-14 -31q-82 17 -120 62.5t-38 104.5q0 31 23 120q9 32 9 55q0 67 -95 67h-26l10 38h26q76 0 112 41t57 143q15 72 40.5 116t82.5 74t148 35l-3 -37q-105 -6 -154 -53.5t-66 -139.5q-20 -103 -53.5 -145.5t-99.5 -54.5q69 -21 69 -83q0 -31 -9 -57
q-22 -70 -22 -115q0 -53 28.5 -87.5t94.5 -52.5z" />
    <glyph glyph-name="bar" unicode="|" horiz-adv-x="286" 
d="M141 -128v926h44v-926h-44z" />
    <glyph glyph-name="braceright" unicode="}" horiz-adv-x="480" 
d="M-44 -141l3 37q105 6 154 53t66 140q20 104 53 146t100 54q-69 21 -69 83q0 31 9 57q22 70 22 115q0 106 -123 140l14 31q81 -17 119.5 -62.5t38.5 -104.5q0 -31 -23 -120q-9 -32 -9 -55q0 -67 95 -67h26l-10 -38h-26q-76 0 -112 -41t-57 -143q-21 -108 -80 -162.5
t-191 -62.5z" />
    <glyph glyph-name="asciitilde" unicode="~" horiz-adv-x="460" 
d="M125 245l-38 15q25 50 49 73t55 23q15 0 27.5 -5.5t18 -10t21.5 -19.5q29 -27 39 -29q4 -1 9 -1q15 0 27.5 13.5t31.5 46.5l38 -15q-25 -50 -49 -73t-55 -23q-15 0 -27.5 5.5t-18 10t-21.5 19.5q-29 27 -39 29q-4 1 -9 1q-15 0 -27.5 -14t-31.5 -46z" />
    <glyph glyph-name="nbspace" unicode="&#xa0;" horiz-adv-x="300" 
 />
    <glyph glyph-name="exclamdown" unicode="&#xa1;" horiz-adv-x="251" 
d="M28 0l19 70l135 447h28l-105 -447l-19 -70h-58zM189 615l23 85h66l-23 -85h-66z" />
    <glyph glyph-name="cent" unicode="&#xa2;" horiz-adv-x="558" 
d="M223 148l168 427h-14q-104 0 -176.5 -79.5t-72.5 -191.5q0 -54 25 -95t70 -61zM160 -6l44 111q-60 25 -94.5 77.5t-34.5 120.5q0 130 90 224t215 94q18 0 27 -1l34 86h50l-38 -94q94 -25 135 -113l-41 -23q-42 75 -114 93l-170 -433q17 -3 36 -3q96 0 179 73l33 -32
q-94 -87 -215 -87q-19 0 -47 5l-39 -98h-50z" />
    <glyph glyph-name="sterling" unicode="&#xa3;" horiz-adv-x="624" 
d="M-2 0l7 25l91 20l70 260h-86l13 48h86l35 131q27 102 80 155q68 68 163 68q126 0 186 -110l-43 -26q-28 45 -61.5 67t-84.5 22q-71 0 -121 -50q-46 -46 -70 -135l-33 -122h298l-13 -48h-298l-69 -258h374l-13 -47h-511z" />
    <glyph glyph-name="currency" unicode="&#xa4;" horiz-adv-x="684" 
d="M372 -12q-103 0 -170 69t-73 188h-92l13 48h80q3 65 21 123h-69l13 48h73q44 111 130 179.5t195 68.5q83 0 139.5 -44t79.5 -115l-45 -18q-52 130 -183 130q-82 0 -152 -55.5t-109 -145.5h301l-13 -48h-306q-17 -56 -22 -123h296l-13 -48h-283q4 -94 54.5 -152t135.5 -58
q62 0 109 24.5t92 73.5l35 -30q-51 -55 -106.5 -85t-130.5 -30z" />
    <glyph glyph-name="yen" unicode="&#xa5;" horiz-adv-x="700" 
d="M251 0l33 125h-210l12 45h210l26 98h-210l12 45h190l-170 387h59l161 -376l364 376h68l-380 -387h184l-12 -45h-214l-26 -98h214l-12 -45h-214l-33 -125h-52z" />
    <glyph glyph-name="section" unicode="&#xa7;" horiz-adv-x="632" 
d="M392 245q62 0 104 26t42 63q0 29 -30.5 52t-102.5 48q-57 21 -117 21q-62 0 -104 -26t-42 -63q0 -29 30.5 -52t102.5 -48q56 -21 117 -21zM288 -10q-66 0 -126.5 24t-94.5 58l33 37q33 -32 84.5 -53t110.5 -21q52 0 87 21.5t35 56.5q0 31 -31.5 53t-107.5 50
q-100 35 -144 67t-44 79q0 58 56 93t142 35q-77 36 -77 96q0 56 52 90t129 34q66 0 125.5 -23.5t95.5 -58.5l-33 -37q-33 32 -84.5 53t-110.5 21q-52 0 -87 -21.5t-35 -56.5q0 -31 31.5 -53t107.5 -50q100 -35 144 -67t44 -79q0 -58 -56 -93t-142 -35q77 -36 77 -96
q0 -56 -52 -90t-129 -34z" />
    <glyph glyph-name="dieresis" unicode="&#xa8;" horiz-adv-x="500" 
d="M213 595l22 80h69l-22 -80h-69zM376 595l22 80h69l-22 -80h-69z" />
    <glyph glyph-name="copyright" unicode="&#xa9;" horiz-adv-x="830" 
d="M444 166q-77 0 -129.5 55t-52.5 134t53 134.5t130 55.5t141 -61l-30 -31q-54 52 -112 52q-60 0 -99 -43.5t-39 -105.5t40.5 -106t98.5 -44q60 0 115 52l28 -28q-64 -64 -144 -64zM439 16q141 0 237 98t96 237t-95 236t-236 97t-237 -98t-96 -237t95 -236t236 -97z
M439 -12q-151 0 -256 106t-105 255t105.5 256t257.5 107q151 0 256 -106t105 -255t-105.5 -256t-257.5 -107z" />
    <glyph glyph-name="ordfeminine" unicode="&#xaa;" horiz-adv-x="390" 
d="M201 442q38 0 75 27.5t47 64.5l4 14q-43 12 -90 12q-39 0 -64 -19.5t-25 -51.5q0 -21 14.5 -34t38.5 -13zM58 293l10 40h244l-10 -40h-244zM191 410q-36 0 -60.5 20.5t-24.5 54.5q0 48 36.5 77t94.5 29q39 0 97 -15l2 6q4 9 4 27q0 58 -78 58q-38 0 -80 -15l-7 35
q43 17 94 17q54 0 82.5 -23t28.5 -65q0 -13 -6 -39l-43 -161h-40l14 50q-51 -56 -114 -56z" />
    <glyph glyph-name="guillemotleft" unicode="&#xab;" horiz-adv-x="515" 
d="M149 42l-104 209l2 8l216 209l36 -28l-192 -192l83 -184zM353 42l-104 209l2 8l216 209l36 -28l-192 -192l83 -184z" />
    <glyph glyph-name="registered" unicode="&#xae;" horiz-adv-x="830" 
d="M344 364h114q44 0 70.5 18.5t26.5 52.5q0 32 -24.5 49.5t-67.5 17.5h-119v-138zM301 177v366h164q60 0 97.5 -29t37.5 -77q0 -44 -26.5 -70.5t-73.5 -35.5l122 -154h-56l-116 147h-106v-147h-43zM439 16q141 0 237 98t96 237t-95 236t-236 97t-237 -98t-96 -237t95 -236
t236 -97zM439 -12q-151 0 -256 106t-105 255t105.5 256t257.5 107q151 0 256 -106t105 -255t-105.5 -256t-257.5 -107z" />
    <glyph glyph-name="macron" unicode="&#xaf;" horiz-adv-x="500" 
d="M190 600l14 53h300l-14 -53h-300z" />
    <glyph glyph-name="macron" unicode="&#x2c9;" horiz-adv-x="500" 
d="M190 600l14 53h300l-14 -53h-300z" />
    <glyph glyph-name="degree" unicode="&#xb0;" horiz-adv-x="366" 
d="M219 453q46 0 81 36.5t35 84.5q0 41 -23.5 65t-62.5 24q-46 0 -81 -36.5t-35 -84.5q0 -41 23.5 -65t62.5 -24zM214 411q-55 0 -90.5 36t-35.5 90q0 67 49.5 117.5t116.5 50.5q55 0 90.5 -36t35.5 -90q0 -67 -49.5 -117.5t-116.5 -50.5z" />
    <glyph glyph-name="plusminus" unicode="&#xb1;" horiz-adv-x="600" 
d="M260 -12q-87 0 -152.5 34.5t-100.5 91.5l45 27q70 -106 211 -106q89 0 145.5 44.5t56.5 109.5q0 71 -60 106t-156 35h-30l12 46h40q124 0 194.5 42t70.5 116q0 59 -46.5 94t-117.5 35q-102 0 -190 -69l-32 35q101 81 222 81q92 0 155.5 -46.5t63.5 -126.5
q0 -77 -56 -124.5t-155 -63.5q62 -17 101 -57t39 -101q0 -86 -75.5 -144.5t-184.5 -58.5z" />
    <glyph glyph-name="acute" unicode="&#xb4;" horiz-adv-x="500" 
d="M251 595l124 133l62 -30l-135 -103h-51z" />
    <glyph glyph-name="mu" unicode="&#xb5;" 
d="M398 34q101 0 190 63l-117 130l38 33l114 -134q58 54 91 129.5t33 155.5q0 109 -69 181.5t-179 72.5q-144 0 -246.5 -115t-102.5 -262q0 -109 69 -181.5t179 -72.5zM692 -24l-72 85q-101 -74 -222 -74q-131 0 -216.5 87t-85.5 214q0 108 53.5 206t147 158t202.5 60
q131 0 216.5 -87t85.5 -214q0 -91 -39 -175.5t-107 -145.5l75 -82z" />
    <glyph glyph-name="mu" unicode="&#x3bc;" 
d="M398 34q101 0 190 63l-117 130l38 33l114 -134q58 54 91 129.5t33 155.5q0 109 -69 181.5t-179 72.5q-144 0 -246.5 -115t-102.5 -262q0 -109 69 -181.5t179 -72.5zM692 -24l-72 85q-101 -74 -222 -74q-131 0 -216.5 87t-85.5 214q0 108 53.5 206t147 158t202.5 60
q131 0 216.5 -87t85.5 -214q0 -91 -39 -175.5t-107 -145.5l75 -82z" />
    <glyph glyph-name="paragraph" unicode="&#xb6;" horiz-adv-x="486" 
d="M260 0l70 263q-102 7 -165 51t-63 132q0 119 87 186.5t239 67.5h73l-188 -700h-53z" />
    <glyph glyph-name="periodcentered" unicode="&#xb7;" horiz-adv-x="231" 
d="M82 255l23 85h66l-23 -85h-66z" />
    <glyph glyph-name="periodcentered" unicode="&#x2219;" horiz-adv-x="231" 
d="M82 255l23 85h66l-23 -85h-66z" />
    <glyph glyph-name="cedilla" unicode="&#xb8;" horiz-adv-x="500" 
d="M118 -148l-48 26l125 132h43z" />
    <glyph glyph-name="ordmasculine" unicode="&#xba;" horiz-adv-x="390" 
d="M248 444q50 0 85.5 39t35.5 91q0 42 -25 68t-65 26q-50 0 -86 -39.5t-36 -90.5q0 -42 25.5 -68t65.5 -26zM60 293l10 40h268l-10 -40h-268zM245 407q-59 0 -94.5 36t-35.5 93q0 67 49.5 118t117.5 51q57 0 93.5 -36.5t36.5 -92.5q0 -67 -49.5 -118t-117.5 -51z" />
    <glyph glyph-name="guillemotright" unicode="&#xbb;" horiz-adv-x="515" 
d="M47 41l-36 28l192 192l-83 184l41 22l104 -209l-2 -8zM251 41l-36 28l192 192l-83 184l41 22l104 -209l-2 -8z" />
    <glyph glyph-name="questiondown" unicode="&#xbf;" horiz-adv-x="534" 
d="M252 -9q-92 0 -146.5 49t-54.5 126q0 94 75 151.5t190 74.5l43 125h32l-30 -162l-7 -5q-113 -8 -181.5 -56.5t-68.5 -126.5q0 -61 43 -95t109 -34q108 0 196 88l32 -34q-101 -101 -232 -101zM368 615l23 85h66l-23 -85h-66z" />
    <glyph glyph-name="Agrave" unicode="&#xc0;" horiz-adv-x="759" 
d="M517 765l-79 103l62 30l52 -133h-35zM200 243h369l-75 405zM-34 0l515 705h50l137 -705h-53l-36 196h-413l-142 -196h-58z" />
    <glyph glyph-name="Aacute" unicode="&#xc1;" horiz-adv-x="759" 
d="M489 765l124 133l62 -30l-135 -103h-51zM200 243h369l-75 405zM-34 0l515 705h50l137 -705h-53l-36 196h-413l-142 -196h-58z" />
    <glyph glyph-name="Acircumflex" unicode="&#xc2;" horiz-adv-x="759" 
d="M401 765l133 122h40l67 -122h-44l-52 68l-96 -68h-48zM200 243h369l-75 405zM-34 0l515 705h50l137 -705h-53l-36 196h-413l-142 -196h-58z" />
    <glyph glyph-name="Atilde" unicode="&#xc3;" horiz-adv-x="759" 
d="M413 763l-34 13q22 46 44 66.5t50 20.5q12 0 23 -5t16.5 -9.5t21.5 -18.5q26 -24 36 -26q3 -1 7 -1q14 0 25 12.5t29 42.5l34 -13q-22 -46 -44 -66.5t-50 -20.5q-5 0 -9.5 0.5t-8 1.5t-7.5 3t-6.5 3.5t-6.5 5t-6 5t-7 6.5l-7 7t-6 5.5t-5 5t-4.5 4.5t-5 4t-4 3t-4 3t-4 2
t-4.5 1.5t-4.5 1t-4.5 0.5q-14 0 -25 -12.5t-29 -44.5zM200 243h369l-75 405zM-34 0l515 705h50l137 -705h-53l-36 196h-413l-142 -196h-58z" />
    <glyph glyph-name="Adieresis" unicode="&#xc4;" horiz-adv-x="759" 
d="M412 765l22 80h69l-22 -80h-69zM575 765l22 80h69l-22 -80h-69zM200 243h369l-75 405zM-34 0l515 705h50l137 -705h-53l-36 196h-413l-142 -196h-58z" />
    <glyph glyph-name="Aring" unicode="&#xc5;" horiz-adv-x="759" 
d="M210 243h369l-75 405zM524 702q29 0 49.5 20.5t20.5 49.5q0 22 -15.5 36t-44.5 14t-49.5 -20.5t-20.5 -49.5q0 -22 15.5 -36t44.5 -14zM-24 0l498 681q-46 22 -46 71q0 42 31.5 72t74.5 30q42 0 69 -23t27 -59t-23.5 -64t-59.5 -36l131 -672h-53l-36 196h-413l-142 -196
h-58z" />
    <glyph glyph-name="AE" unicode="&#xc6;" horiz-adv-x="1068" 
d="M242 243h272l110 410h-27zM-32 0l611 700h541l-13 -48h-431l-74 -275h386l-13 -48h-386l-75 -281h436l-13 -48h-488l53 196h-301l-170 -196h-63z" />
    <glyph glyph-name="Ccedilla" unicode="&#xc7;" horiz-adv-x="738" 
d="M374 -13l-103 -135l-48 26l107 113q-103 15 -170.5 90.5t-67.5 189.5q0 112 55.5 214t153 164.5t209.5 62.5q91 0 157 -41.5t100 -109.5l-45 -24q-37 63 -86.5 95.5t-128.5 32.5q-98 0 -182.5 -57t-131.5 -147t-47 -188q0 -108 66.5 -173t170.5 -65q74 0 129.5 26.5
t107.5 78.5l35 -32q-117 -121 -277 -121h-4z" />
    <glyph glyph-name="Egrave" unicode="&#xc8;" horiz-adv-x="649" 
d="M480 765l-79 103l62 30l52 -133h-35zM36 0l188 700h493l-13 -48h-441l-74 -275h396l-13 -48h-396l-75 -281h446l-13 -48h-498z" />
    <glyph glyph-name="Eacute" unicode="&#xc9;" horiz-adv-x="649" 
d="M413 765l124 133l62 -30l-135 -103h-51zM36 0l188 700h493l-13 -48h-441l-74 -275h396l-13 -48h-396l-75 -281h446l-13 -48h-498z" />
    <glyph glyph-name="Ecircumflex" unicode="&#xca;" horiz-adv-x="649" 
d="M355 765l133 122h40l67 -122h-44l-52 68l-96 -68h-48zM36 0l188 700h493l-13 -48h-441l-74 -275h396l-13 -48h-396l-75 -281h446l-13 -48h-498z" />
    <glyph glyph-name="Edieresis" unicode="&#xcb;" horiz-adv-x="649" 
d="M365 765l22 80h69l-22 -80h-69zM528 765l22 80h69l-22 -80h-69zM36 0l188 700h493l-13 -48h-441l-74 -275h396l-13 -48h-396l-75 -281h446l-13 -48h-498z" />
    <glyph glyph-name="Igrave" unicode="&#xcc;" horiz-adv-x="274" 
d="M264 765l-79 103l62 30l52 -133h-35zM43 0l188 700h52l-188 -700h-52z" />
    <glyph glyph-name="Iacute" unicode="&#xcd;" horiz-adv-x="274" 
d="M232 765l124 133l62 -30l-135 -103h-51zM43 0l188 700h52l-188 -700h-52z" />
    <glyph glyph-name="Icircumflex" unicode="&#xce;" horiz-adv-x="274" 
d="M148 765l133 122h40l67 -122h-44l-52 68l-96 -68h-48zM43 0l188 700h52l-188 -700h-52z" />
    <glyph glyph-name="Idieresis" unicode="&#xcf;" horiz-adv-x="274" 
d="M159 765l22 80h69l-22 -80h-69zM322 765l22 80h69l-22 -80h-69zM43 0l188 700h52l-188 -700h-52z" />
    <glyph glyph-name="Eth" unicode="&#xd0;" horiz-adv-x="801" 
d="M131 48h171q190 0 310 120q94 94 94 234q0 108 -65 171q-79 79 -233 79h-115l-74 -276h232l-13 -48h-232zM66 0l88 328h-75l13 48h75l87 324h157q178 0 272 -94q77 -77 77 -200q0 -162 -109 -271q-64 -64 -156.5 -99.5t-199.5 -35.5h-229z" />
    <glyph glyph-name="Ntilde" unicode="&#xd1;" horiz-adv-x="786" 
d="M407 763l-38 15q25 50 49 73t55 23q15 0 27.5 -5.5t18 -10t21.5 -19.5q29 -27 39 -29q4 -1 9 -1q15 0 27.5 13.5t31.5 46.5l38 -15q-25 -50 -49 -73t-55 -23q-15 0 -27.5 5.5t-18 10t-21.5 19.5q-29 27 -39 29q-4 1 -9 1q-15 0 -27.5 -13.5t-31.5 -46.5zM36 0l188 700h48
l315 -613l165 613h50l-188 -700h-38l-322 626l-168 -626h-50z" />
    <glyph glyph-name="Ograve" unicode="&#xd2;" 
d="M546 765l-79 103l62 30l52 -133h-35zM398 34q144 0 246.5 115t102.5 262q0 109 -69 181.5t-179 72.5q-144 0 -246.5 -115t-102.5 -262q0 -109 69 -181.5t179 -72.5zM398 -13q-131 0 -216.5 87t-85.5 214q0 108 53.5 206t147 158t202.5 60q131 0 216.5 -87t85.5 -214
q0 -108 -53.5 -206t-147 -158t-202.5 -60z" />
    <glyph glyph-name="Oacute" unicode="&#xd3;" 
d="M469 765l124 133l62 -30l-135 -103h-51zM398 34q144 0 246.5 115t102.5 262q0 109 -69 181.5t-179 72.5q-144 0 -246.5 -115t-102.5 -262q0 -109 69 -181.5t179 -72.5zM398 -13q-131 0 -216.5 87t-85.5 214q0 108 53.5 206t147 158t202.5 60q131 0 216.5 -87t85.5 -214
q0 -108 -53.5 -206t-147 -158t-202.5 -60z" />
    <glyph glyph-name="Ocircumflex" unicode="&#xd4;" 
d="M420 765l133 122h40l67 -122h-44l-52 68l-96 -68h-48zM398 34q144 0 246.5 115t102.5 262q0 109 -69 181.5t-179 72.5q-144 0 -246.5 -115t-102.5 -262q0 -109 69 -181.5t179 -72.5zM398 -13q-131 0 -216.5 87t-85.5 214q0 108 53.5 206t147 158t202.5 60
q131 0 216.5 -87t85.5 -214q0 -108 -53.5 -206t-147 -158t-202.5 -60z" />
    <glyph glyph-name="Otilde" unicode="&#xd5;" 
d="M398 34q144 0 246.5 115t102.5 262q0 109 -69 181.5t-179 72.5q-144 0 -246.5 -115t-102.5 -262q0 -109 69 -181.5t179 -72.5zM398 -13q-131 0 -216.5 87t-85.5 214q0 108 53.5 206t147 158t202.5 60q131 0 216.5 -87t85.5 -214q0 -108 -53.5 -206t-147 -158t-202.5 -60z
M441 763l-34 13q22 46 44 66.5t50 20.5q12 0 23 -5t16.5 -9.5t21.5 -18.5q26 -24 36 -26q3 -1 7 -1q14 0 25 12.5t29 42.5l34 -13q-22 -46 -44 -66.5t-50 -20.5q-5 0 -9.5 0.5t-8 1.5t-7.5 3t-6.5 3.5t-6.5 5t-6 5t-7 6.5l-7 7t-6 5.5t-5 5t-4.5 4.5t-5 4t-4 3t-4 3t-4 2
t-4.5 1.5t-4.5 1t-4.5 0.5q-14 0 -25 -12.5t-29 -44.5z" />
    <glyph glyph-name="Odieresis" unicode="&#xd6;" 
d="M421 765l22 80h69l-22 -80h-69zM584 765l22 80h69l-22 -80h-69zM398 34q144 0 246.5 115t102.5 262q0 109 -69 181.5t-179 72.5q-144 0 -246.5 -115t-102.5 -262q0 -109 69 -181.5t179 -72.5zM398 -13q-131 0 -216.5 87t-85.5 214q0 108 53.5 206t147 158t202.5 60
q131 0 216.5 -87t85.5 -214q0 -108 -53.5 -206t-147 -158t-202.5 -60z" />
    <glyph glyph-name="Oslash" unicode="&#xd8;" 
d="M398 34q144 0 246.5 115t102.5 262q0 77 -34 136l-509 -425q68 -88 194 -88zM180 159l508 424q-71 82 -189 82q-144 0 -246.5 -115t-102.5 -262q0 -72 30 -129zM398 -13q-143 0 -232 103l-114 -95h-69l157 131q-44 74 -44 162q0 108 53.5 206t147 158t202.5 60
q138 0 227 -97l107 90h69l-149 -125q48 -74 48 -169q0 -108 -53.5 -206t-147 -158t-202.5 -60z" />
    <glyph glyph-name="Ugrave" unicode="&#xd9;" horiz-adv-x="756" 
d="M506 765l-79 103l62 30l52 -133h-35zM348 -11q-122 0 -187 61.5t-65 158.5q0 54 14 108l102 383h52l-108 -407q-9 -36 -9 -80q0 -79 52 -128t153 -49q99 0 171 72q65 65 98 186l109 406h52l-112 -417q-35 -130 -111 -206q-88 -88 -211 -88z" />
    <glyph glyph-name="Uacute" unicode="&#xda;" horiz-adv-x="756" 
d="M439 765l124 133l62 -30l-135 -103h-51zM348 -11q-122 0 -187 61.5t-65 158.5q0 54 14 108l102 383h52l-108 -407q-9 -36 -9 -80q0 -79 52 -128t153 -49q99 0 171 72q65 65 98 186l109 406h52l-112 -417q-35 -130 -111 -206q-88 -88 -211 -88z" />
    <glyph glyph-name="Ucircumflex" unicode="&#xdb;" horiz-adv-x="756" 
d="M387 765l133 122h40l67 -122h-44l-52 68l-96 -68h-48zM348 -11q-122 0 -187 61.5t-65 158.5q0 54 14 108l102 383h52l-108 -407q-9 -36 -9 -80q0 -79 52 -128t153 -49q99 0 171 72q65 65 98 186l109 406h52l-112 -417q-35 -130 -111 -206q-88 -88 -211 -88z" />
    <glyph glyph-name="Udieresis" unicode="&#xdc;" horiz-adv-x="756" 
d="M392 765l22 80h69l-22 -80h-69zM555 765l22 80h69l-22 -80h-69zM348 -11q-122 0 -187 61.5t-65 158.5q0 54 14 108l102 383h52l-108 -407q-9 -36 -9 -80q0 -79 52 -128t153 -49q99 0 171 72q65 65 98 186l109 406h52l-112 -417q-35 -130 -111 -206q-88 -88 -211 -88z" />
    <glyph glyph-name="Yacute" unicode="&#xdd;" horiz-adv-x="668" 
d="M395 765l124 133l62 -30l-135 -103h-51zM234 0l76 284l-183 416h57l161 -376l364 376h70l-421 -429l-72 -271h-52z" />
    <glyph glyph-name="Thorn" unicode="&#xde;" horiz-adv-x="668" 
d="M137 182h168q141 0 216.5 52t75.5 149q0 57 -36 93q-49 49 -154 49h-178zM36 0l188 700h51l-33 -127h166q130 0 193 -63q48 -48 48 -125q0 -119 -93 -184.5t-253 -65.5h-178l-37 -135h-52z" />
    <glyph glyph-name="germandbls" unicode="&#xdf;" horiz-adv-x="620" 
d="M220 -2l12 44q130 2 195.5 47.5t65.5 112.5q0 107 -181 140l12 45q116 27 169 73.5t53 113.5q0 52 -36.5 84.5t-101.5 32.5q-73 0 -125 -54t-79 -152l-130 -485h-49l134 500q31 111 87 167q70 70 166 70q81 0 134 -45.5t53 -115.5q0 -152 -212 -211q159 -43 159 -164
q0 -89 -88 -147t-238 -56z" />
    <glyph glyph-name="agrave" unicode="&#xe0;" horiz-adv-x="571" 
d="M392 595l-79 103l62 30l52 -133h-35zM199 33q74 0 140.5 47.5t87.5 122.5l12 45q-96 24 -193 24q-76 0 -123.5 -38t-47.5 -97q0 -48 33.5 -76t90.5 -28zM190 -12q-69 0 -118 37.5t-49 105.5q0 84 64 134.5t166 50.5q97 0 196 -29l4 14q7 26 7 51q0 58 -39.5 89t-114.5 31
q-70 0 -148 -27l-9 44q78 29 161 29q93 0 145.5 -42t52.5 -117q0 -34 -10 -67l-78 -292h-48l23 88q-83 -100 -205 -100z" />
    <glyph glyph-name="aacute" unicode="&#xe1;" horiz-adv-x="571" 
d="M342 595l124 133l62 -30l-135 -103h-51zM199 33q74 0 140.5 47.5t87.5 122.5l12 45q-96 24 -193 24q-76 0 -123.5 -38t-47.5 -97q0 -48 33.5 -76t90.5 -28zM190 -12q-69 0 -118 37.5t-49 105.5q0 84 64 134.5t166 50.5q97 0 196 -29l4 14q7 26 7 51q0 58 -39.5 89
t-114.5 31q-70 0 -148 -27l-9 44q78 29 161 29q93 0 145.5 -42t52.5 -117q0 -34 -10 -67l-78 -292h-48l23 88q-83 -100 -205 -100z" />
    <glyph glyph-name="acircumflex" unicode="&#xe2;" horiz-adv-x="571" 
d="M257 595l133 122h40l67 -122h-44l-52 68l-96 -68h-48zM199 33q74 0 140.5 47.5t87.5 122.5l12 45q-96 24 -193 24q-76 0 -123.5 -38t-47.5 -97q0 -48 33.5 -76t90.5 -28zM190 -12q-69 0 -118 37.5t-49 105.5q0 84 64 134.5t166 50.5q97 0 196 -29l4 14q7 26 7 51
q0 58 -39.5 89t-114.5 31q-70 0 -148 -27l-9 44q78 29 161 29q93 0 145.5 -42t52.5 -117q0 -34 -10 -67l-78 -292h-48l23 88q-83 -100 -205 -100z" />
    <glyph glyph-name="atilde" unicode="&#xe3;" horiz-adv-x="571" 
d="M199 33q74 0 140.5 47.5t87.5 122.5l12 45q-96 24 -193 24q-76 0 -123.5 -38t-47.5 -97q0 -48 33.5 -76t90.5 -28zM190 -12q-69 0 -118 37.5t-49 105.5q0 84 64 134.5t166 50.5q97 0 196 -29l4 14q7 26 7 51q0 58 -39.5 89t-114.5 31q-70 0 -148 -27l-9 44q78 29 161 29
q93 0 145.5 -42t52.5 -117q0 -34 -10 -67l-78 -292h-48l23 88q-83 -100 -205 -100zM272 600l-34 13q22 46 44 66.5t50 20.5q12 0 23 -5t16.5 -9.5t21.5 -18.5q26 -24 36 -26q3 -1 7 -1q14 0 25 12.5t29 42.5l34 -13q-22 -46 -44 -66.5t-50 -20.5q-5 0 -9.5 0.5t-8 1.5
t-7.5 3t-6.5 3.5t-6.5 5t-6 5t-7 6.5l-7 7t-6 5.5t-5 5t-4.5 4.5t-5 4t-4 3t-4 3t-4 2t-4.5 1.5t-4.5 1t-4.5 0.5q-14 0 -25 -12.5t-29 -44.5z" />
    <glyph glyph-name="adieresis" unicode="&#xe4;" horiz-adv-x="571" 
d="M248 595l22 80h69l-22 -80h-69zM411 595l22 80h69l-22 -80h-69zM199 33q74 0 140.5 47.5t87.5 122.5l12 45q-96 24 -193 24q-76 0 -123.5 -38t-47.5 -97q0 -48 33.5 -76t90.5 -28zM190 -12q-69 0 -118 37.5t-49 105.5q0 84 64 134.5t166 50.5q97 0 196 -29l4 14
q7 26 7 51q0 58 -39.5 89t-114.5 31q-70 0 -148 -27l-9 44q78 29 161 29q93 0 145.5 -42t52.5 -117q0 -34 -10 -67l-78 -292h-48l23 88q-83 -100 -205 -100z" />
    <glyph glyph-name="aring" unicode="&#xe5;" horiz-adv-x="571" 
d="M384 627q29 0 49.5 20.5t20.5 49.5q0 22 -15.5 36t-44.5 14t-49.5 -20.5t-20.5 -49.5q0 -22 15.5 -36t44.5 -14zM384 595q-42 0 -69 23t-27 59q0 42 31.5 72t74.5 30q42 0 69 -23t27 -59q0 -42 -31.5 -72t-74.5 -30zM199 33q74 0 140.5 47.5t87.5 122.5l12 45
q-96 24 -193 24q-76 0 -123.5 -38t-47.5 -97q0 -48 33.5 -76t90.5 -28zM190 -12q-69 0 -118 37.5t-49 105.5q0 84 64 134.5t166 50.5q97 0 196 -29l4 14q7 26 7 51q0 58 -39.5 89t-114.5 31q-70 0 -148 -27l-9 44q78 29 161 29q93 0 145.5 -42t52.5 -117q0 -34 -10 -67
l-78 -292h-48l23 88q-83 -100 -205 -100z" />
    <glyph glyph-name="ae" unicode="&#xe6;" horiz-adv-x="965" 
d="M441 249q-83 23 -191 23q-76 0 -125.5 -37t-49.5 -93q0 -51 33.5 -80t95.5 -29q124 0 238 125q-4 20 -4 48q0 22 3 43zM498 282h370q4 12 4 42q0 66 -36.5 109.5t-107.5 43.5q-83 0 -144.5 -56t-85.5 -139zM455 113q-120 -125 -255 -125q-78 0 -127.5 39t-49.5 109
q0 82 66 131t168 49q97 0 192 -29l4 14q7 26 7 51q0 58 -39.5 89t-114.5 31q-70 0 -148 -27l-9 44q78 29 161 29q80 0 130.5 -32t63.5 -89q42 57 100.5 91t124.5 34q92 0 142.5 -56t50.5 -139q0 -47 -14 -89h-419q-2 -22 -2 -34q0 -77 47 -123.5t122 -46.5q91 0 174 68
l29 -35q-95 -79 -200 -79q-76 0 -128 33.5t-76 91.5z" />
    <glyph glyph-name="ccedilla" unicode="&#xe7;" horiz-adv-x="563" 
d="M118 -122l108 114q-75 15 -125.5 72.5t-50.5 143.5q0 126 89.5 220t210.5 94q138 0 200 -123l-41 -23q-28 47 -65 73.5t-97 26.5q-97 0 -170.5 -80t-73.5 -185q0 -82 51 -129.5t121 -47.5q87 0 165 73l33 -32q-89 -87 -201 -87h-3l-103 -136z" />
    <glyph glyph-name="egrave" unicode="&#xe8;" horiz-adv-x="583" 
d="M367 595l-79 103l62 30l52 -133h-35zM114 282h370q4 12 4 42q0 66 -36.5 109.5t-107.5 43.5q-83 0 -144.5 -56t-85.5 -139zM524 238h-419q-2 -22 -2 -34q0 -77 47 -123.5t122 -46.5q91 0 174 68l29 -35q-95 -79 -203 -79q-98 0 -160 60t-62 154q0 123 87 221.5t208 98.5
q92 0 142.5 -56t50.5 -139q0 -47 -14 -89z" />
    <glyph glyph-name="eacute" unicode="&#xe9;" horiz-adv-x="583" 
d="M310 595l124 133l62 -30l-135 -103h-51zM114 282h370q4 12 4 42q0 66 -36.5 109.5t-107.5 43.5q-83 0 -144.5 -56t-85.5 -139zM524 238h-419q-2 -22 -2 -34q0 -77 47 -123.5t122 -46.5q91 0 174 68l29 -35q-95 -79 -203 -79q-98 0 -160 60t-62 154q0 123 87 221.5
t208 98.5q92 0 142.5 -56t50.5 -139q0 -47 -14 -89z" />
    <glyph glyph-name="ecircumflex" unicode="&#xea;" horiz-adv-x="583" 
d="M244 595l133 122h40l67 -122h-44l-52 68l-96 -68h-48zM114 282h370q4 12 4 42q0 66 -36.5 109.5t-107.5 43.5q-83 0 -144.5 -56t-85.5 -139zM524 238h-419q-2 -22 -2 -34q0 -77 47 -123.5t122 -46.5q91 0 174 68l29 -35q-95 -79 -203 -79q-98 0 -160 60t-62 154
q0 123 87 221.5t208 98.5q92 0 142.5 -56t50.5 -139q0 -47 -14 -89z" />
    <glyph glyph-name="edieresis" unicode="&#xeb;" horiz-adv-x="583" 
d="M252 595l22 80h69l-22 -80h-69zM415 595l22 80h69l-22 -80h-69zM114 282h370q4 12 4 42q0 66 -36.5 109.5t-107.5 43.5q-83 0 -144.5 -56t-85.5 -139zM524 238h-419q-2 -22 -2 -34q0 -77 47 -123.5t122 -46.5q91 0 174 68l29 -35q-95 -79 -203 -79q-98 0 -160 60t-62 154
q0 123 87 221.5t208 98.5q92 0 142.5 -56t50.5 -139q0 -47 -14 -89z" />
    <glyph glyph-name="igrave" unicode="&#xec;" horiz-adv-x="250" 
d="M200 595l-79 103l62 30l52 -133h-35zM32 0l137 510h49l-137 -510h-49z" />
    <glyph glyph-name="iacute" unicode="&#xed;" horiz-adv-x="250" 
d="M181 595l124 133l62 -30l-135 -103h-51zM32 0l137 510h49l-137 -510h-49z" />
    <glyph glyph-name="icircumflex" unicode="&#xee;" horiz-adv-x="250" 
d="M87 595l133 122h40l67 -122h-44l-52 68l-96 -68h-48zM32 0l137 510h49l-137 -510h-49z" />
    <glyph glyph-name="idieresis" unicode="&#xef;" horiz-adv-x="250" 
d="M96 595l22 80h69l-22 -80h-69zM259 595l22 80h69l-22 -80h-69zM32 0l137 510h49l-137 -510h-49z" />
    <glyph glyph-name="eth" unicode="&#xf0;" horiz-adv-x="616" 
d="M276 35q97 0 167.5 69.5t70.5 167.5q0 71 -50.5 120t-135.5 49q-93 0 -160.5 -70.5t-67.5 -165.5q0 -77 49 -123.5t127 -46.5zM271 -11q-96 0 -160 61.5t-64 151.5q0 116 85 199.5t195 83.5q92 0 154 -53l-82 195l-154 -68l-22 40l158 70l-26 61h59l16 -40l111 49l22 -40
l-116 -51l73 -184q47 -122 47 -190q0 -111 -85 -198t-211 -87z" />
    <glyph glyph-name="ntilde" unicode="&#xf1;" horiz-adv-x="611" 
d="M278 593l-38 15q25 50 49 73t55 23q15 0 27.5 -5.5t18 -10t21.5 -19.5q29 -27 39 -29q4 -1 9 -1q15 0 27.5 14t31.5 46l38 -15q-25 -50 -49 -73t-55 -23q-15 0 -27.5 5.5t-18 10t-21.5 19.5q-29 27 -39 29q-4 1 -9 1q-15 0 -27.5 -14t-31.5 -46zM25 0l136 510h49l-25 -95
q45 52 89 79.5t104 27.5q76 0 121.5 -44t45.5 -118q0 -34 -11 -72l-76 -288h-49l78 292q8 30 8 63q0 57 -35 90t-96 33q-67 0 -129.5 -54t-83.5 -136l-77 -288h-49z" />
    <glyph glyph-name="ograve" unicode="&#xf2;" horiz-adv-x="633" 
d="M378 595l-79 103l62 30l52 -133h-35zM283 34q94 0 169.5 78t75.5 182q0 86 -48.5 134t-130.5 48q-97 0 -171 -79t-74 -181q0 -86 48.5 -134t130.5 -48zM278 -12q-101 0 -164 63.5t-63 162.5q0 122 91 215t212 93q101 0 164 -63.5t63 -162.5q0 -123 -92 -215.5t-211 -92.5
z" />
    <glyph glyph-name="oacute" unicode="&#xf3;" horiz-adv-x="633" 
d="M333 595l124 133l62 -30l-135 -103h-51zM283 34q94 0 169.5 78t75.5 182q0 86 -48.5 134t-130.5 48q-97 0 -171 -79t-74 -181q0 -86 48.5 -134t130.5 -48zM278 -12q-101 0 -164 63.5t-63 162.5q0 122 91 215t212 93q101 0 164 -63.5t63 -162.5q0 -123 -92 -215.5
t-211 -92.5z" />
    <glyph glyph-name="ocircumflex" unicode="&#xf4;" horiz-adv-x="633" 
d="M278 595l133 122h40l67 -122h-44l-52 68l-96 -68h-48zM283 34q94 0 169.5 78t75.5 182q0 86 -48.5 134t-130.5 48q-97 0 -171 -79t-74 -181q0 -86 48.5 -134t130.5 -48zM278 -12q-101 0 -164 63.5t-63 162.5q0 122 91 215t212 93q101 0 164 -63.5t63 -162.5
q0 -123 -92 -215.5t-211 -92.5z" />
    <glyph glyph-name="otilde" unicode="&#xf5;" horiz-adv-x="633" 
d="M283 34q94 0 169.5 78t75.5 182q0 86 -48.5 134t-130.5 48q-97 0 -171 -79t-74 -181q0 -86 48.5 -134t130.5 -48zM278 -12q-101 0 -164 63.5t-63 162.5q0 122 91 215t212 93q101 0 164 -63.5t63 -162.5q0 -123 -92 -215.5t-211 -92.5zM292 600l-34 13q22 46 44 66.5
t50 20.5q12 0 23 -5t16.5 -9.5t21.5 -18.5q26 -24 36 -26q3 -1 7 -1q14 0 25 12.5t29 42.5l34 -13q-22 -46 -44 -66.5t-50 -20.5q-5 0 -9.5 0.5t-8 1.5t-7.5 3t-6.5 3.5t-6.5 5t-6 5t-7 6.5l-7 7t-6 5.5t-5 5t-4.5 4.5t-5 4t-4 3t-4 3t-4 2t-4.5 1.5t-4.5 1t-4.5 0.5
q-14 0 -25 -12.5t-29 -44.5z" />
    <glyph glyph-name="odieresis" unicode="&#xf6;" horiz-adv-x="633" 
d="M269 595l22 80h69l-22 -80h-69zM432 595l22 80h69l-22 -80h-69zM283 34q94 0 169.5 78t75.5 182q0 86 -48.5 134t-130.5 48q-97 0 -171 -79t-74 -181q0 -86 48.5 -134t130.5 -48zM278 -12q-101 0 -164 63.5t-63 162.5q0 122 91 215t212 93q101 0 164 -63.5t63 -162.5
q0 -123 -92 -215.5t-211 -92.5z" />
    <glyph glyph-name="oslash" unicode="&#xf8;" horiz-adv-x="633" 
d="M283 34q94 0 169.5 78t75.5 182q0 49 -19 92l-363 -298q48 -54 137 -54zM123 124l363 298q-50 54 -137 54q-97 0 -171 -79t-74 -181q0 -49 19 -92zM278 -12q-104 0 -169 70l-77 -63h-67l118 96q-32 53 -32 123q0 122 91 215t212 93q105 0 169 -69l79 64h67l-120 -98
q32 -53 32 -123q0 -123 -92 -215.5t-211 -92.5z" />
    <glyph glyph-name="ugrave" unicode="&#xf9;" horiz-adv-x="609" 
d="M370 595l-79 103l62 30l52 -133h-35zM231 -12q-76 0 -121.5 44t-45.5 118q0 34 11 72l76 288h49l-78 -292q-8 -30 -8 -63q0 -57 35 -90t96 -33q67 0 129.5 54t83.5 136l77 288h49l-136 -510h-49l25 95q-42 -51 -87.5 -79t-105.5 -28z" />
    <glyph glyph-name="uacute" unicode="&#xfa;" horiz-adv-x="609" 
d="M330 595l124 133l62 -30l-135 -103h-51zM231 -12q-76 0 -121.5 44t-45.5 118q0 34 11 72l76 288h49l-78 -292q-8 -30 -8 -63q0 -57 35 -90t96 -33q67 0 129.5 54t83.5 136l77 288h49l-136 -510h-49l25 95q-42 -51 -87.5 -79t-105.5 -28z" />
    <glyph glyph-name="ucircumflex" unicode="&#xfb;" horiz-adv-x="609" 
d="M263 595l133 122h40l67 -122h-44l-52 68l-96 -68h-48zM231 -12q-76 0 -121.5 44t-45.5 118q0 34 11 72l76 288h49l-78 -292q-8 -30 -8 -63q0 -57 35 -90t96 -33q67 0 129.5 54t83.5 136l77 288h49l-136 -510h-49l25 95q-42 -51 -87.5 -79t-105.5 -28z" />
    <glyph glyph-name="udieresis" unicode="&#xfc;" horiz-adv-x="609" 
d="M268 595l22 80h69l-22 -80h-69zM431 595l22 80h69l-22 -80h-69zM231 -12q-76 0 -121.5 44t-45.5 118q0 34 11 72l76 288h49l-78 -292q-8 -30 -8 -63q0 -57 35 -90t96 -33q67 0 129.5 54t83.5 136l77 288h49l-136 -510h-49l25 95q-42 -51 -87.5 -79t-105.5 -28z" />
    <glyph glyph-name="yacute" unicode="&#xfd;" horiz-adv-x="568" 
d="M295 595l124 133l62 -30l-135 -103h-51zM20 -163q-58 0 -108 35l27 40q36 -29 87 -29q41 0 79 27t84 93l-104 507h52l89 -456l307 456h59l-363 -528q-55 -79 -104 -112t-105 -33z" />
    <glyph glyph-name="thorn" unicode="&#xfe;" horiz-adv-x="654" 
d="M310 33q102 0 169.5 79.5t67.5 188.5q0 78 -44 126.5t-114 48.5q-96 0 -175.5 -82t-79.5 -183q0 -76 49 -127t127 -51zM-18 -160l239 890h49l-87 -320q94 112 212 112q88 0 146.5 -61t58.5 -154q0 -134 -86 -227t-202 -93q-80 0 -130 40.5t-73 102.5l-78 -290h-49z" />
    <glyph glyph-name="ydieresis" unicode="&#xff;" horiz-adv-x="568" 
d="M242 595l22 80h69l-22 -80h-69zM405 595l22 80h69l-22 -80h-69zM20 -163q-58 0 -108 35l27 40q36 -29 87 -29q41 0 79 27t84 93l-104 507h52l89 -456l307 456h59l-363 -528q-55 -79 -104 -112t-105 -33z" />
    <glyph glyph-name="Abreve" unicode="&#x102;" horiz-adv-x="759" 
d="M518 773q-57 0 -86 29.5t-19 82.5h39q-6 -28 13 -47t57 -19t70 18.5t48 47.5h39q-18 -53 -61 -82.5t-100 -29.5zM200 243h369l-75 405zM-34 0l515 705h50l137 -705h-53l-36 196h-413l-142 -196h-58z" />
    <glyph glyph-name="abreve" unicode="&#x103;" horiz-adv-x="573" 
d="M389 593q-57 0 -86 29.5t-19 82.5h39q-6 -28 13 -47t57 -19t70 18.5t48 47.5h39q-18 -53 -61 -82.5t-100 -29.5zM199 33q74 0 140.5 47.5t87.5 122.5l12 45q-96 24 -193 24q-76 0 -123.5 -38t-47.5 -97q0 -48 33.5 -76t90.5 -28zM190 -12q-69 0 -118 37.5t-49 105.5
q0 84 64 134.5t166 50.5q97 0 196 -29l4 14q7 26 7 51q0 58 -39.5 89t-114.5 31q-70 0 -148 -27l-9 44q78 29 161 29q93 0 145.5 -42t52.5 -117q0 -34 -10 -67l-78 -292h-48l23 88q-83 -100 -205 -100z" />
    <glyph glyph-name="Dcroat" unicode="&#x110;" horiz-adv-x="771" 
d="M46 327l15 47h75l88 326h157q178 0 272 -94q77 -77 77 -200q0 -162 -109 -271q-64 -64 -156.5 -99.5t-199.5 -35.5h-229l88 327h-78zM101 48h171q190 0 310 120q94 94 94 234q0 108 -65 171q-79 79 -233 79h-115l-75 -278h205l-15 -47h-202z" />
    <glyph glyph-name="dcroat" unicode="&#x111;" horiz-adv-x="654" 
d="M259 -13q-88 0 -146.5 61t-58.5 154q0 134 86 227t202 93q80 0 130 -40.5t73 -102.5l64 239h-167l15 44h164l18 68h49l-18 -68h88l-15 -44h-85l-165 -618h-49l26 99q-94 -112 -211 -112zM265 33q96 0 175.5 82t79.5 183q0 76 -49 127t-127 51q-102 0 -169.5 -79.5
t-67.5 -188.5q0 -78 44 -126.5t114 -48.5z" />
    <glyph glyph-name="Itilde" unicode="&#x128;" horiz-adv-x="274" 
d="M171 763l-34 13q22 46 44 66.5t50 20.5q12 0 23 -5t16.5 -9.5t21.5 -18.5q26 -24 36 -26q3 -1 7 -1q14 0 25 12.5t29 42.5l34 -13q-22 -46 -44 -66.5t-50 -20.5q-5 0 -9.5 0.5t-8 1.5t-7.5 3t-6.5 3.5t-6.5 5t-6 5t-7 6.5l-7 7t-6 5.5t-5 5t-4.5 4.5t-5 4t-4 3t-4 3t-4 2
t-4.5 1.5t-4.5 1t-4.5 0.5q-14 0 -25 -12.5t-29 -44.5zM43 0l188 700h52l-188 -700h-52z" />
    <glyph glyph-name="itilde" unicode="&#x129;" horiz-adv-x="250" 
d="M32 0l137 510h49l-137 -510h-49zM106 600l-34 13q22 46 44 66.5t50 20.5q12 0 23 -5t16.5 -9.5t21.5 -18.5q26 -24 36 -26q3 -1 7 -1q14 0 25 12.5t29 42.5l34 -13q-22 -46 -44 -66.5t-50 -20.5q-5 0 -9.5 0.5t-8 1.5t-7.5 3t-6.5 3.5t-6.5 5t-6 5t-7 6.5l-7 7t-6 5.5
t-5 5t-4.5 4.5t-5 4t-4 3t-4 3t-4 2t-4.5 1.5t-4.5 1t-4.5 0.5q-14 0 -25 -12.5t-29 -44.5z" />
    <glyph glyph-name="dotlessi" unicode="&#x131;" horiz-adv-x="250" 
d="M32 0l137 510h49l-137 -510h-49z" />
    <glyph glyph-name="Lslash" unicode="&#x141;" horiz-adv-x="650" 
d="M86 0l85 316l-80 -23l12 48l81 23l90 336h52l-86 -320l243 69l-13 -48l-243 -69l-76 -284h411l-13 -48h-463z" />
    <glyph glyph-name="lslash" unicode="&#x142;" horiz-adv-x="309" 
d="M62 0l90 335l-81 -23l13 50l81 23l93 345h49l-89 -330l84 24l-14 -50l-83 -24l-94 -350h-49z" />
    <glyph glyph-name="OE" unicode="&#x152;" horiz-adv-x="1154" 
d="M444 48h105l162 604h-161q-190 0 -310 -120q-94 -94 -94 -234q0 -106 65 -171q79 -79 233 -79zM1023 0h-582q-178 0 -272 94q-77 77 -77 200q0 162 109 271q64 64 156.5 99.5t199.5 35.5h649l-13 -48h-430l-74 -275h385l-13 -48h-385l-75 -281h435z" />
    <glyph glyph-name="oe" unicode="&#x153;" horiz-adv-x="1046" 
d="M283 34q94 0 169.5 77t75.5 178q0 89 -48.5 138t-130.5 49q-97 0 -171 -79t-74 -181q0 -86 48.5 -134t130.5 -48zM579 282h370q4 12 4 42q0 66 -36.5 109.5t-107.5 43.5q-83 0 -144.5 -56t-85.5 -139zM989 238h-419q-2 -22 -2 -34q0 -77 47 -123.5t122 -46.5q91 0 174 68
l29 -35q-95 -79 -200 -79q-81 0 -138 42.5t-73 112.5q-42 -69 -106.5 -112t-147.5 -43q-98 0 -161 64t-63 162q0 122 91 215t212 93q84 0 138 -46t72 -117q38 71 100 117t146 46q92 0 142.5 -56t50.5 -139q0 -47 -14 -89z" />
    <glyph glyph-name="Scaron" unicode="&#x160;" horiz-adv-x="638" 
d="M420 765l-67 122h44l52 -68l96 68h48l-133 -122h-40zM299 -10q-184 0 -279 134l40 29q46 -59 104 -87.5t140 -28.5q86 0 144 43.5t58 109.5q0 46 -33.5 76t-119.5 65q-111 43 -155.5 83t-44.5 103q0 81 70 137t181 56q76 0 139.5 -29t103.5 -78l-40 -32q-78 92 -208 92
q-87 0 -140 -42t-53 -100q0 -46 38.5 -77.5t128.5 -65.5q99 -37 142.5 -79t43.5 -105q0 -86 -74 -145t-186 -59z" />
    <glyph glyph-name="scaron" unicode="&#x161;" horiz-adv-x="495" 
d="M308 595l-67 122h44l52 -68l96 68h48l-133 -122h-40zM217 -11q-128 0 -216 88l35 35q79 -78 187 -78q51 0 91.5 28.5t40.5 72.5q0 31 -24 54.5t-87 46.5q-76 28 -109.5 58.5t-33.5 78.5q0 62 52.5 105t136.5 43q103 0 184 -68l-32 -37q-73 60 -157 60q-61 0 -96.5 -28
t-35.5 -67q0 -31 23 -52t92 -48q76 -30 107.5 -61.5t31.5 -76.5q0 -66 -55.5 -110t-134.5 -44z" />
    <glyph glyph-name="Utilde" unicode="&#x168;" horiz-adv-x="756" 
d="M406 763l-34 13q22 46 44 66.5t50 20.5q12 0 23 -5t16.5 -9.5t21.5 -18.5q26 -24 36 -26q3 -1 7 -1q14 0 25 12.5t29 42.5l34 -13q-22 -46 -44 -66.5t-50 -20.5q-5 0 -9.5 0.5t-8 1.5t-7.5 3t-6.5 3.5t-6.5 5t-6 5t-7 6.5l-7 7t-6 5.5t-5 5t-4.5 4.5t-5 4t-4 3t-4 3t-4 2
t-4.5 1.5t-4.5 1t-4.5 0.5q-14 0 -25 -12.5t-29 -44.5zM348 -11q-122 0 -187 61.5t-65 158.5q0 54 14 108l102 383h52l-108 -407q-9 -36 -9 -80q0 -79 52 -128t153 -49q99 0 171 72q65 65 98 186l109 406h52l-112 -417q-35 -130 -111 -206q-88 -88 -211 -88z" />
    <glyph glyph-name="utilde" unicode="&#x169;" horiz-adv-x="609" 
d="M284 600l-34 13q22 46 44 66.5t50 20.5q12 0 23 -5t16.5 -9.5t21.5 -18.5q26 -24 36 -26q3 -1 7 -1q14 0 25 12.5t29 42.5l34 -13q-22 -46 -44 -66.5t-50 -20.5q-5 0 -9.5 0.5t-8 1.5t-7.5 3t-6.5 3.5t-6.5 5t-6 5t-7 6.5l-7 7t-6 5.5t-5 5t-4.5 4.5t-5 4t-4 3t-4 3t-4 2
t-4.5 1.5t-4.5 1t-4.5 0.5q-14 0 -25 -12.5t-29 -44.5zM231 -12q-76 0 -121.5 44t-45.5 118q0 34 11 72l76 288h49l-78 -292q-8 -30 -8 -63q0 -57 35 -90t96 -33q67 0 129.5 54t83.5 136l77 288h49l-136 -510h-49l25 95q-42 -51 -87.5 -79t-105.5 -28z" />
    <glyph glyph-name="Ydieresis" unicode="&#x178;" horiz-adv-x="668" 
d="M343 765l22 80h69l-22 -80h-69zM506 765l22 80h69l-22 -80h-69zM234 0l76 284l-183 416h57l161 -376l364 376h70l-421 -429l-72 -271h-52z" />
    <glyph glyph-name="Zcaron" unicode="&#x17d;" horiz-adv-x="662" 
d="M426 765l-67 122h44l52 -68l96 68h48l-133 -122h-40zM-19 0l8 29l636 624h-452l13 47h533l-8 -29l-636 -624h472l-13 -47h-553z" />
    <glyph glyph-name="zcaron" unicode="&#x17e;" horiz-adv-x="546" 
d="M330 595l-67 122h44l52 -68l96 68h48l-133 -122h-40zM-17 0l8 28l475 438h-344l12 44h424l-8 -28l-475 -438h361l-12 -44h-441z" />
    <glyph glyph-name="florin" unicode="&#x192;" horiz-adv-x="526" 
d="M33 -10q-30 0 -56 8l13 43q21 -7 47 -7q35 0 61.5 25t51.5 82l107 243h-107l12 45h114l59 134q63 147 178 147q43 0 83 -15l-15 -42q-37 13 -70 13q-81 0 -131 -115l-54 -122h162l-12 -45h-169l-112 -255q-33 -76 -71.5 -107.5t-90.5 -31.5z" />
    <glyph glyph-name="Ohorn" unicode="&#x1a0;" 
d="M398 -13q-131 0 -216.5 87t-85.5 214q0 108 53.5 206t147 158t202.5 60q65 0 121 -24q16 -6 30 -15l1 2q47 2 69.5 13.5t30.5 39.5q7 22 2 74h54q6 -45 -4 -78q-13 -50 -54 -72q-19 -11 -44 -17q6 -5 11 -11q85 -85 85 -213q0 -108 -53.5 -206t-147 -158t-202.5 -60z
M398 34q144 0 246.5 115t102.5 262q0 109 -69 181.5t-179 72.5q-144 0 -246.5 -115t-102.5 -262q0 -109 69 -181.5t179 -72.5z" />
    <glyph glyph-name="ohorn" unicode="&#x1a1;" horiz-adv-x="633" 
d="M278 -12q-101 0 -164 63.5t-63 162.5q0 122 91 215t212 93q50 0 92 -17q9 -4 25 -12l1 1q47 2 69.5 13.5t30.5 39.5q7 22 2 74h54q6 -45 -4 -78q-14 -49 -54 -72q-19 -12 -47 -18q26 -29 41 -67q17 -42 17 -90q0 -123 -92 -215.5t-211 -92.5zM283 34q94 0 169.5 78
t75.5 182q0 86 -48.5 134t-130.5 48q-97 0 -171 -79t-74 -181q0 -86 48.5 -134t130.5 -48z" />
    <glyph glyph-name="Uhorn" unicode="&#x1af;" horiz-adv-x="787" 
d="M348 -11q-122 0 -187 61.5t-65 158.5q0 54 14 108l102 383h52l-108 -407q-9 -36 -9 -80q0 -79 52 -128t153 -49q99 0 171 72q65 65 98 186l109 406h47q18 3 28 9q24 11 32 40q7 22 2 74h54q6 -45 -4 -78q-13 -49 -54 -72q-25 -15 -66 -21l-99 -369q-35 -130 -111 -206
q-88 -88 -211 -88z" />
    <glyph glyph-name="uhorn" unicode="&#x1b0;" horiz-adv-x="618" 
d="M231 -12q-76 0 -121.5 44t-45.5 118q0 34 11 72l76 288h49l-78 -292q-8 -30 -8 -63q0 -57 35 -90t96 -33q67 0 129.5 54t83.5 136l77 288h40q22 3 34 10q24 11 32 40q7 22 2 74h54q6 -45 -4 -78q-13 -50 -54 -72q-26 -16 -68 -22l-123 -462h-49l25 95q-42 -51 -87.5 -79
t-105.5 -28z" />
    <glyph glyph-name="circumflex" unicode="&#x2c6;" horiz-adv-x="500" 
d="M222 595l133 122h40l67 -122h-44l-52 68l-96 -68h-48z" />
    <glyph glyph-name="caron" unicode="&#x2c7;" horiz-adv-x="500" 
d="M321 595l-67 122h44l52 -68l96 68h48l-133 -122h-40z" />
    <glyph glyph-name="breve" unicode="&#x2d8;" horiz-adv-x="500" 
d="M339 593q-49 0 -76.5 23.5t-27.5 67.5q0 18 4 33h40q0 -37 15.5 -55t55.5 -18q70 0 109 73h46q-20 -59 -64.5 -91.5t-101.5 -32.5z" />
    <glyph glyph-name="dotaccent" unicode="&#x2d9;" horiz-adv-x="500" 
d="M307 593l23 85h66l-23 -85h-66z" />
    <glyph glyph-name="ring" unicode="&#x2da;" horiz-adv-x="500" 
d="M359 627q29 0 49.5 20.5t20.5 49.5q0 22 -15.5 36t-44.5 14t-49.5 -20.5t-20.5 -49.5q0 -22 15.5 -36t44.5 -14zM359 595q-42 0 -69 23t-27 59q0 42 31.5 72t74.5 30q42 0 69 -23t27 -59q0 -42 -31.5 -72t-74.5 -30z" />
    <glyph glyph-name="ogonek" unicode="&#x2db;" horiz-adv-x="500" 
d="M234 -133l-8 -31q-72 -2 -108 20t-36 62q0 41 36 92h43q-25 -48 -25 -82q0 -56 98 -61z" />
    <glyph glyph-name="tilde" unicode="&#x2dc;" horiz-adv-x="500" 
d="M233 593l-38 15q25 50 49 73t55 23q15 0 27.5 -5.5t18 -10t21.5 -19.5q29 -27 39 -29q4 -1 9 -1q15 0 27.5 14t31.5 46l38 -15q-25 -50 -49 -73t-55 -23q-15 0 -27.5 5.5t-18 10t-21.5 19.5q-29 27 -39 29q-4 1 -9 1q-15 0 -27.5 -14t-31.5 -46z" />
    <glyph glyph-name="hungarumlaut" unicode="&#x2dd;" horiz-adv-x="500" 
d="M192 595l125 133l47 -29l-129 -104h-43zM344 595l125 133l47 -29l-129 -104h-43z" />
    <glyph glyph-name="Omega" unicode="&#x3a9;" horiz-adv-x="724" 
d="M55 0l125 465h-74l12 45h74l20 74q39 146 163 146q57 0 102 -24l-12 -44q-53 24 -92 24q-87 0 -115 -113l-17 -63h184l-12 -45h-184l-125 -465h-49zM417 0l125 465h-74l12 45h74l20 74q39 146 163 146q57 0 102 -24l-12 -44q-52 24 -92 24q-85 0 -115 -113l-17 -63h184
l-12 -45h-184l-125 -465h-49z" />
    <glyph glyph-name="Omega" unicode="&#x2126;" horiz-adv-x="724" 
d="M55 0l125 465h-74l12 45h74l20 74q39 146 163 146q57 0 102 -24l-12 -44q-53 24 -92 24q-87 0 -115 -113l-17 -63h184l-12 -45h-184l-125 -465h-49zM417 0l125 465h-74l12 45h74l20 74q39 146 163 146q57 0 102 -24l-12 -44q-52 24 -92 24q-85 0 -115 -113l-17 -63h184
l-12 -45h-184l-125 -465h-49z" />
    <glyph glyph-name="pi" unicode="&#x3c0;" horiz-adv-x="830" 
d="M365 344h91q49 0 76.5 20.5t27.5 58.5q0 77 -101 77h-94v-156zM321 175v366h141q66 0 104.5 -30t38.5 -86q0 -59 -43 -90.5t-107 -31.5h-90v-128h-44zM439 16q141 0 237 98t96 237t-95 236t-236 97t-237 -98t-96 -237t95 -236t236 -97zM439 -12q-151 0 -256 106t-105 255
t105.5 256t257.5 107q151 0 256 -106t105 -255t-105.5 -256t-257.5 -107z" />
    <glyph glyph-name="uni1EA0" unicode="&#x1ea0;" horiz-adv-x="759" 
d="M252 -178l27 94h51l-27 -94h-51zM200 243h369l-75 405zM-34 0l515 705h50l137 -705h-53l-36 196h-413l-142 -196h-58z" />
    <glyph glyph-name="uni1EA1" unicode="&#x1ea1;" horiz-adv-x="571" 
d="M146 -178l27 94h51l-27 -94h-51zM199 33q74 0 140.5 47.5t87.5 122.5l12 45q-96 24 -193 24q-76 0 -123.5 -38t-47.5 -97q0 -48 33.5 -76t90.5 -28zM190 -12q-69 0 -118 37.5t-49 105.5q0 84 64 134.5t166 50.5q97 0 196 -29l4 14q7 26 7 51q0 58 -39.5 89t-114.5 31
q-70 0 -148 -27l-9 44q78 29 161 29q93 0 145.5 -42t52.5 -117q0 -34 -10 -67l-78 -292h-48l23 88q-83 -100 -205 -100z" />
    <glyph glyph-name="uni1EA2" unicode="&#x1ea2;" horiz-adv-x="759" 
d="M502 764l23 73q30 2 53 14.5t30 30.5q6 15 -2 25t-28 10q-30 0 -71 -34q-4 2 -14 12q-1 1 -4.5 3t-6.5 4.5t-5 4.5q52 52 117 52q39 0 55.5 -22t4.5 -55q-22 -58 -102 -78q-7 -23 -15 -40h-35zM200 243h369l-75 405zM-34 0l515 705h50l137 -705h-53l-36 196h-413
l-142 -196h-58z" />
    <glyph glyph-name="uni1EA3" unicode="&#x1ea3;" horiz-adv-x="571" 
d="M368 594l23 73q30 2 53 14.5t30 30.5q6 15 -2 25t-28 10q-30 0 -71 -34q-4 2 -14 12l-16 12q52 52 117 52q39 0 55.5 -22t4.5 -55q-22 -58 -102 -78q-7 -23 -15 -40h-35zM199 33q74 0 140.5 47.5t87.5 122.5l12 45q-96 24 -193 24q-76 0 -123.5 -38t-47.5 -97
q0 -48 33.5 -76t90.5 -28zM190 -12q-69 0 -118 37.5t-49 105.5q0 84 64 134.5t166 50.5q97 0 196 -29l4 14q7 26 7 51q0 58 -39.5 89t-114.5 31q-70 0 -148 -27l-9 44q78 29 161 29q93 0 145.5 -42t52.5 -117q0 -34 -10 -67l-78 -292h-48l23 88q-83 -100 -205 -100z" />
    <glyph glyph-name="uni1EA4" unicode="&#x1ea4;" horiz-adv-x="759" 
d="M636 860l124 133l62 -30l-135 -103h-51zM401 765l133 122h40l67 -122h-44l-52 68l-96 -68h-48zM200 243h369l-75 405zM-34 0l515 705h50l137 -705h-53l-36 196h-413l-142 -196h-58z" />
    <glyph glyph-name="uni1EA5" unicode="&#x1ea5;" horiz-adv-x="571" 
d="M492 691l124 133l62 -30l-135 -103h-51zM257 595l133 122h40l67 -122h-44l-52 68l-96 -68h-48zM199 33q74 0 140.5 47.5t87.5 122.5l12 45q-96 24 -193 24q-76 0 -123.5 -38t-47.5 -97q0 -48 33.5 -76t90.5 -28zM190 -12q-69 0 -118 37.5t-49 105.5q0 84 64 134.5
t166 50.5q97 0 196 -29l4 14q7 26 7 51q0 58 -39.5 89t-114.5 31q-70 0 -148 -27l-9 44q78 29 161 29q93 0 145.5 -42t52.5 -117q0 -34 -10 -67l-78 -292h-48l23 88q-83 -100 -205 -100z" />
    <glyph glyph-name="uni1EA6" unicode="&#x1ea6;" horiz-adv-x="759" 
d="M656 860l-79 103l62 30l52 -133h-35zM401 765l133 122h40l67 -122h-44l-52 68l-96 -68h-48zM200 243h369l-75 405zM-34 0l515 705h50l137 -705h-53l-36 196h-413l-142 -196h-58z" />
    <glyph glyph-name="uni1EA7" unicode="&#x1ea7;" horiz-adv-x="571" 
d="M512 690l-79 103l62 30l52 -133h-35zM257 595l133 122h40l67 -122h-44l-52 68l-96 -68h-48zM199 33q74 0 140.5 47.5t87.5 122.5l12 45q-96 24 -193 24q-76 0 -123.5 -38t-47.5 -97q0 -48 33.5 -76t90.5 -28zM190 -12q-69 0 -118 37.5t-49 105.5q0 84 64 134.5t166 50.5
q97 0 196 -29l4 14q7 26 7 51q0 58 -39.5 89t-114.5 31q-70 0 -148 -27l-9 44q78 29 161 29q93 0 145.5 -42t52.5 -117q0 -34 -10 -67l-78 -292h-48l23 88q-83 -100 -205 -100z" />
    <glyph glyph-name="uni1EA8" unicode="&#x1ea8;" horiz-adv-x="759" 
d="M626 860l22 66q27 2 48 14t27 27q5 13 -2 22.5t-25 9.5q-27 0 -65 -31q-1 0 -13 11q-1 1 -6.5 4.5t-7.5 6.5q46 47 107 47q35 0 50 -20t4 -50q-21 -54 -93 -70q-5 -16 -13 -37h-33zM401 765l133 122h40l67 -122h-44l-52 68l-96 -68h-48zM200 243h369l-75 405zM-34 0
l515 705h50l137 -705h-53l-36 196h-413l-142 -196h-58z" />
    <glyph glyph-name="uni1EA9" unicode="&#x1ea9;" horiz-adv-x="571" 
d="M482 690l22 66q27 2 48 14t27 27q5 13 -2 22.5t-25 9.5q-27 0 -65 -31q-1 0 -13 11q-1 1 -6.5 4.5t-7.5 6.5q46 47 107 47q35 0 50 -20t4 -50q-21 -54 -93 -70q-5 -16 -13 -37h-33zM257 595l133 122h40l67 -122h-44l-52 68l-96 -68h-48zM199 33q74 0 140.5 47.5
t87.5 122.5l12 45q-96 24 -193 24q-76 0 -123.5 -38t-47.5 -97q0 -48 33.5 -76t90.5 -28zM190 -12q-69 0 -118 37.5t-49 105.5q0 84 64 134.5t166 50.5q97 0 196 -29l4 14q7 26 7 51q0 58 -39.5 89t-114.5 31q-70 0 -148 -27l-9 44q78 29 161 29q93 0 145.5 -42t52.5 -117
q0 -34 -10 -67l-78 -292h-48l23 88q-83 -100 -205 -100z" />
    <glyph glyph-name="uni1EAA" unicode="&#x1eaa;" horiz-adv-x="759" 
d="M462 921l-33 12q43 78 93 78q5 0 9.5 -0.5t9.5 -2.5t8 -3t8.5 -5t7.5 -5t9 -6.5t9 -6.5q27 -24 41 -24q15 0 26 11t29 38l33 -12q-22 -40 -44 -59t-49 -19q-7 0 -13 1t-9.5 2.5t-9 5t-8 5t-8.5 7.5t-9 8q-32 26 -45 26q-15 0 -26 -11.5t-29 -39.5zM401 765l133 122h40
l67 -122h-44l-52 68l-96 -68h-48zM200 243h369l-75 405zM-34 0l515 705h50l137 -705h-53l-36 196h-413l-142 -196h-58z" />
    <glyph glyph-name="uni1EAB" unicode="&#x1eab;" horiz-adv-x="571" 
d="M257 595l133 122h40l67 -122h-44l-52 68l-96 -68h-48zM199 33q74 0 140.5 47.5t87.5 122.5l12 45q-96 24 -193 24q-76 0 -123.5 -38t-47.5 -97q0 -48 33.5 -76t90.5 -28zM190 -12q-69 0 -118 37.5t-49 105.5q0 84 64 134.5t166 50.5q97 0 196 -29l4 14q7 26 7 51
q0 58 -39.5 89t-114.5 31q-70 0 -148 -27l-9 44q78 29 161 29q93 0 145.5 -42t52.5 -117q0 -34 -10 -67l-78 -292h-48l23 88q-83 -100 -205 -100zM318 750l-33 12q43 78 93 78q5 0 9.5 -0.5t9.5 -2.5t8 -3t8.5 -5t7.5 -5t9 -6.5t9 -6.5q27 -24 41 -24q15 0 26 11t29 38
l33 -12q-22 -40 -44 -59t-49 -19q-7 0 -13 1t-9.5 2.5t-9 5t-8 5t-8.5 7.5t-9 8q-32 26 -45 26q-15 0 -26 -11.5t-29 -39.5z" />
    <glyph glyph-name="uni1EAC" unicode="&#x1eac;" horiz-adv-x="759" 
d="M252 -178l27 94h51l-27 -94h-51zM401 765l133 122h40l67 -122h-44l-52 68l-96 -68h-48zM200 243h369l-75 405zM-34 0l515 705h50l137 -705h-53l-36 196h-413l-142 -196h-58z" />
    <glyph glyph-name="uni1EAD" unicode="&#x1ead;" horiz-adv-x="571" 
d="M146 -178l27 94h51l-27 -94h-51zM257 595l133 122h40l67 -122h-44l-52 68l-96 -68h-48zM199 33q74 0 140.5 47.5t87.5 122.5l12 45q-96 24 -193 24q-76 0 -123.5 -38t-47.5 -97q0 -48 33.5 -76t90.5 -28zM190 -12q-69 0 -118 37.5t-49 105.5q0 84 64 134.5t166 50.5
q97 0 196 -29l4 14q7 26 7 51q0 58 -39.5 89t-114.5 31q-70 0 -148 -27l-9 44q78 29 161 29q93 0 145.5 -42t52.5 -117q0 -34 -10 -67l-78 -292h-48l23 88q-83 -100 -205 -100z" />
    <glyph glyph-name="uni1EAE" unicode="&#x1eae;" horiz-adv-x="759" 
d="M503 885l124 133l62 -30l-135 -103h-51zM518 773q-57 0 -86 29.5t-19 82.5h39q-6 -28 13 -47t57 -19t70 18.5t48 47.5h39q-18 -53 -61 -82.5t-100 -29.5zM200 243h369l-75 405zM-34 0l515 705h50l137 -705h-53l-36 196h-413l-142 -196h-58z" />
    <glyph glyph-name="uni1EAF" unicode="&#x1eaf;" horiz-adv-x="573" 
d="M374 705l124 133l62 -30l-135 -103h-51zM389 593q-57 0 -86 29.5t-19 82.5h39q-6 -28 13 -47t57 -19t70 18.5t48 47.5h39q-18 -53 -61 -82.5t-100 -29.5zM199 33q74 0 140.5 47.5t87.5 122.5l12 45q-96 24 -193 24q-76 0 -123.5 -38t-47.5 -97q0 -48 33.5 -76t90.5 -28z
M190 -12q-69 0 -118 37.5t-49 105.5q0 84 64 134.5t166 50.5q97 0 196 -29l4 14q7 26 7 51q0 58 -39.5 89t-114.5 31q-70 0 -148 -27l-9 44q78 29 161 29q93 0 145.5 -42t52.5 -117q0 -34 -10 -67l-78 -292h-48l23 88q-83 -100 -205 -100z" />
    <glyph glyph-name="uni1EB0" unicode="&#x1eb0;" horiz-adv-x="759" 
d="M538 885l-79 103l62 30l52 -133h-35zM518 773q-57 0 -86 29.5t-19 82.5h39q-6 -28 13 -47t57 -19t70 18.5t48 47.5h39q-18 -53 -61 -82.5t-100 -29.5zM200 243h369l-75 405zM-34 0l515 705h50l137 -705h-53l-36 196h-413l-142 -196h-58z" />
    <glyph glyph-name="uni1EB1" unicode="&#x1eb1;" horiz-adv-x="573" 
d="M409 705l-79 103l62 30l52 -133h-35zM389 593q-57 0 -86 29.5t-19 82.5h39q-6 -28 13 -47t57 -19t70 18.5t48 47.5h39q-18 -53 -61 -82.5t-100 -29.5zM199 33q74 0 140.5 47.5t87.5 122.5l12 45q-96 24 -193 24q-76 0 -123.5 -38t-47.5 -97q0 -48 33.5 -76t90.5 -28z
M190 -12q-69 0 -118 37.5t-49 105.5q0 84 64 134.5t166 50.5q97 0 196 -29l4 14q7 26 7 51q0 58 -39.5 89t-114.5 31q-70 0 -148 -27l-9 44q78 29 161 29q93 0 145.5 -42t52.5 -117q0 -34 -10 -67l-78 -292h-48l23 88q-83 -100 -205 -100z" />
    <glyph glyph-name="uni1EB2" unicode="&#x1eb2;" horiz-adv-x="759" 
d="M524 885l21 69q29 2 50.5 14t27.5 28q6 14 -1.5 23.5t-26.5 9.5q-27 0 -67 -32q-1 1 -13 11q-13 10 -15 12q49 49 110 49q38 0 53 -21t4 -52q-23 -57 -96 -73q-2 -8 -14 -38h-33zM518 773q-57 0 -86 29.5t-19 82.5h39q-6 -28 13 -47t57 -19t70 18.5t48 47.5h39
q-18 -53 -61 -82.5t-100 -29.5zM200 243h369l-75 405zM-34 0l515 705h50l137 -705h-53l-36 196h-413l-142 -196h-58z" />
    <glyph glyph-name="uni1EB3" unicode="&#x1eb3;" horiz-adv-x="573" 
d="M395 705l21 69q29 2 50.5 14t27.5 28q6 14 -1.5 23.5t-26.5 9.5q-27 0 -67 -32q-1 1 -13 11q-14 10 -15 12q49 49 110 49q38 0 53 -21t4 -52q-23 -57 -96 -73q-2 -8 -14 -38h-33zM389 593q-57 0 -86 29.5t-19 82.5h39q-6 -28 13 -47t57 -19t70 18.5t48 47.5h39
q-18 -53 -61 -82.5t-100 -29.5zM199 33q74 0 140.5 47.5t87.5 122.5l12 45q-96 24 -193 24q-76 0 -123.5 -38t-47.5 -97q0 -48 33.5 -76t90.5 -28zM190 -12q-69 0 -118 37.5t-49 105.5q0 84 64 134.5t166 50.5q97 0 196 -29l4 14q7 26 7 51q0 58 -39.5 89t-114.5 31
q-70 0 -148 -27l-9 44q78 29 161 29q93 0 145.5 -42t52.5 -117q0 -34 -10 -67l-78 -292h-48l23 88q-83 -100 -205 -100z" />
    <glyph glyph-name="uni1EB4" unicode="&#x1eb4;" horiz-adv-x="759" 
d="M448 925l-34 13q22 46 44 66.5t50 20.5q12 0 23 -5t16.5 -9.5t21.5 -18.5q26 -24 36 -26q3 -1 7 -1q14 0 25 12.5t29 42.5l34 -13q-22 -46 -44 -66.5t-50 -20.5q-5 0 -9.5 0.5t-8 1.5t-7.5 3t-6.5 3.5t-6.5 5t-6 5t-7 6.5l-7 7t-6 5.5t-5 5t-4.5 4.5t-5 4t-4 3t-4 3t-4 2
t-4.5 1.5t-4.5 1t-4.5 0.5q-14 0 -25 -12.5t-29 -44.5zM518 773q-57 0 -86 29.5t-19 82.5h39q-6 -28 13 -47t57 -19t70 18.5t48 47.5h39q-18 -53 -61 -82.5t-100 -29.5zM200 243h369l-75 405zM-34 0l515 705h50l137 -705h-53l-36 196h-413l-142 -196h-58z" />
    <glyph glyph-name="uni1EB5" unicode="&#x1eb5;" horiz-adv-x="573" 
d="M319 745l-34 13q22 46 44 66.5t50 20.5q12 0 23 -5t16.5 -9.5t21.5 -18.5q26 -24 36 -26q3 -1 7 -1q14 0 25 12.5t29 42.5l34 -13q-22 -46 -44 -66.5t-50 -20.5q-5 0 -9.5 0.5t-8 1.5t-7.5 3t-6.5 3.5t-6.5 5t-6 5t-7 6.5l-7 7t-6 5.5t-5 5t-4.5 4.5t-5 4t-4 3t-4 3t-4 2
t-4.5 1.5t-4.5 1t-4.5 0.5q-14 0 -25 -12.5t-29 -44.5zM389 593q-57 0 -86 29.5t-19 82.5h39q-6 -28 13 -47t57 -19t70 18.5t48 47.5h39q-18 -53 -61 -82.5t-100 -29.5zM199 33q74 0 140.5 47.5t87.5 122.5l12 45q-96 24 -193 24q-76 0 -123.5 -38t-47.5 -97q0 -48 33.5 -76
t90.5 -28zM190 -12q-69 0 -118 37.5t-49 105.5q0 84 64 134.5t166 50.5q97 0 196 -29l4 14q7 26 7 51q0 58 -39.5 89t-114.5 31q-70 0 -148 -27l-9 44q78 29 161 29q93 0 145.5 -42t52.5 -117q0 -34 -10 -67l-78 -292h-48l23 88q-83 -100 -205 -100z" />
    <glyph glyph-name="uni1EB6" unicode="&#x1eb6;" horiz-adv-x="759" 
d="M252 -178l27 94h51l-27 -94h-51zM518 773q-57 0 -86 29.5t-19 82.5h39q-6 -28 13 -47t57 -19t70 18.5t48 47.5h39q-18 -53 -61 -82.5t-100 -29.5zM200 243h369l-75 405zM-34 0l515 705h50l137 -705h-53l-36 196h-413l-142 -196h-58z" />
    <glyph glyph-name="uni1EB7" unicode="&#x1eb7;" horiz-adv-x="573" 
d="M146 -178l27 94h51l-27 -94h-51zM389 593q-57 0 -86 29.5t-19 82.5h39q-6 -28 13 -47t57 -19t70 18.5t48 47.5h39q-18 -53 -61 -82.5t-100 -29.5zM199 33q74 0 140.5 47.5t87.5 122.5l12 45q-96 24 -193 24q-76 0 -123.5 -38t-47.5 -97q0 -48 33.5 -76t90.5 -28zM190 -12
q-69 0 -118 37.5t-49 105.5q0 84 64 134.5t166 50.5q97 0 196 -29l4 14q7 26 7 51q0 58 -39.5 89t-114.5 31q-70 0 -148 -27l-9 44q78 29 161 29q93 0 145.5 -42t52.5 -117q0 -34 -10 -67l-78 -292h-48l23 88q-83 -100 -205 -100z" />
    <glyph glyph-name="uni1EB8" unicode="&#x1eb8;" horiz-adv-x="649" 
d="M211 -178l27 94h51l-27 -94h-51zM36 0l188 700h493l-13 -48h-441l-74 -275h396l-13 -48h-396l-75 -281h446l-13 -48h-498z" />
    <glyph glyph-name="uni1EB9" unicode="&#x1eb9;" horiz-adv-x="583" 
d="M192 -178l27 94h51l-27 -94h-51zM114 282h370q4 12 4 42q0 66 -36.5 109.5t-107.5 43.5q-83 0 -144.5 -56t-85.5 -139zM524 238h-419q-2 -22 -2 -34q0 -77 47 -123.5t122 -46.5q91 0 174 68l29 -35q-95 -79 -203 -79q-98 0 -160 60t-62 154q0 123 87 221.5t208 98.5
q92 0 142.5 -56t50.5 -139q0 -47 -14 -89z" />
    <glyph glyph-name="uni1EBA" unicode="&#x1eba;" horiz-adv-x="649" 
d="M453 764l23 73q30 2 53 14.5t30 30.5q6 15 -2 25t-28 10q-30 0 -71 -34q-4 2 -14 12q-1 1 -4.5 3t-6.5 4.5t-5 4.5q52 52 117 52q39 0 55.5 -22t4.5 -55q-22 -58 -102 -78q-7 -23 -15 -40h-35zM36 0l188 700h493l-13 -48h-441l-74 -275h396l-13 -48h-396l-75 -281h446
l-13 -48h-498z" />
    <glyph glyph-name="uni1EBB" unicode="&#x1ebb;" horiz-adv-x="583" 
d="M363 594l23 73q30 2 53 14.5t30 30.5q6 15 -2 25t-28 10q-30 0 -71 -34q-4 2 -14 12l-16 12q52 52 117 52q39 0 55.5 -22t4.5 -55q-22 -58 -102 -78q-7 -23 -15 -40h-35zM114 282h370q4 12 4 42q0 66 -36.5 109.5t-107.5 43.5q-83 0 -144.5 -56t-85.5 -139zM524 238h-419
q-2 -22 -2 -34q0 -77 47 -123.5t122 -46.5q91 0 174 68l29 -35q-95 -79 -203 -79q-98 0 -160 60t-62 154q0 123 87 221.5t208 98.5q92 0 142.5 -56t50.5 -139q0 -47 -14 -89z" />
    <glyph glyph-name="uni1EBC" unicode="&#x1ebc;" horiz-adv-x="649" 
d="M374 763l-34 13q22 46 44 66.5t50 20.5q12 0 23 -5t16.5 -9.5t21.5 -18.5q26 -24 36 -26q3 -1 7 -1q14 0 25 12.5t29 42.5l34 -13q-22 -46 -44 -66.5t-50 -20.5q-5 0 -9.5 0.5t-8 1.5t-7.5 3t-6.5 3.5t-6.5 5t-6 5t-7 6.5l-7 7t-6 5.5t-5 5t-4.5 4.5t-5 4t-4 3t-4 3t-4 2
t-4.5 1.5t-4.5 1t-4.5 0.5q-14 0 -25 -12.5t-29 -44.5zM36 0l188 700h493l-13 -48h-441l-74 -275h396l-13 -48h-396l-75 -281h446l-13 -48h-498z" />
    <glyph glyph-name="uni1EBD" unicode="&#x1ebd;" horiz-adv-x="583" 
d="M301 600l-34 13q22 46 44 66.5t50 20.5q12 0 23 -5t16.5 -9.5t21.5 -18.5q26 -24 36 -26q3 -1 7 -1q14 0 25 12.5t29 42.5l34 -13q-22 -46 -44 -66.5t-50 -20.5q-5 0 -9.5 0.5t-8 1.5t-7.5 3t-6.5 3.5t-6.5 5t-6 5t-7 6.5l-7 7t-6 5.5t-5 5t-4.5 4.5t-5 4t-4 3t-4 3t-4 2
t-4.5 1.5t-4.5 1t-4.5 0.5q-14 0 -25 -12.5t-29 -44.5zM114 282h370q4 12 4 42q0 66 -36.5 109.5t-107.5 43.5q-83 0 -144.5 -56t-85.5 -139zM524 238h-419q-2 -22 -2 -34q0 -77 47 -123.5t122 -46.5q91 0 174 68l29 -35q-95 -79 -203 -79q-98 0 -160 60t-62 154
q0 123 87 221.5t208 98.5q92 0 142.5 -56t50.5 -139q0 -47 -14 -89z" />
    <glyph glyph-name="uni1EBE" unicode="&#x1ebe;" horiz-adv-x="649" 
d="M590 860l124 133l62 -30l-135 -103h-51zM355 765l133 122h40l67 -122h-44l-52 68l-96 -68h-48zM36 0l188 700h493l-13 -48h-441l-74 -275h396l-13 -48h-396l-75 -281h446l-13 -48h-498z" />
    <glyph glyph-name="uni1EBF" unicode="&#x1ebf;" horiz-adv-x="583" 
d="M479 691l124 133l62 -30l-135 -103h-51zM244 595l133 122h40l67 -122h-44l-52 68l-96 -68h-48zM114 282h370q4 12 4 42q0 66 -36.5 109.5t-107.5 43.5q-83 0 -144.5 -56t-85.5 -139zM524 238h-419q-2 -22 -2 -34q0 -77 47 -123.5t122 -46.5q91 0 174 68l29 -35
q-95 -79 -203 -79q-98 0 -160 60t-62 154q0 123 87 221.5t208 98.5q92 0 142.5 -56t50.5 -139q0 -47 -14 -89z" />
    <glyph glyph-name="uni1EC0" unicode="&#x1ec0;" horiz-adv-x="649" 
d="M610 860l-79 103l62 30l52 -133h-35zM355 765l133 122h40l67 -122h-44l-52 68l-96 -68h-48zM36 0l188 700h493l-13 -48h-441l-74 -275h396l-13 -48h-396l-75 -281h446l-13 -48h-498z" />
    <glyph glyph-name="uni1EC1" unicode="&#x1ec1;" horiz-adv-x="583" 
d="M499 690l-79 103l62 30l52 -133h-35zM244 595l133 122h40l67 -122h-44l-52 68l-96 -68h-48zM114 282h370q4 12 4 42q0 66 -36.5 109.5t-107.5 43.5q-83 0 -144.5 -56t-85.5 -139zM524 238h-419q-2 -22 -2 -34q0 -77 47 -123.5t122 -46.5q91 0 174 68l29 -35
q-95 -79 -203 -79q-98 0 -160 60t-62 154q0 123 87 221.5t208 98.5q92 0 142.5 -56t50.5 -139q0 -47 -14 -89z" />
    <glyph glyph-name="uni1EC2" unicode="&#x1ec2;" horiz-adv-x="649" 
d="M580 860l22 66q27 2 48 14t27 27q5 13 -2 22.5t-25 9.5q-27 0 -65 -31q-1 0 -13 11q-1 1 -6.5 4.5t-7.5 6.5q46 47 107 47q35 0 50 -20t4 -50q-21 -54 -93 -70q-5 -16 -13 -37h-33zM355 765l133 122h40l67 -122h-44l-52 68l-96 -68h-48zM36 0l188 700h493l-13 -48h-441
l-74 -275h396l-13 -48h-396l-75 -281h446l-13 -48h-498z" />
    <glyph glyph-name="uni1EC3" unicode="&#x1ec3;" horiz-adv-x="583" 
d="M469 690l22 66q27 2 48 14t27 27q5 13 -2 22.5t-25 9.5q-27 0 -65 -31q-1 0 -13 11q-1 1 -6.5 4.5t-7.5 6.5q46 47 107 47q35 0 50 -20t4 -50q-21 -54 -93 -70q-5 -16 -13 -37h-33zM244 595l133 122h40l67 -122h-44l-52 68l-96 -68h-48zM114 282h370q4 12 4 42
q0 66 -36.5 109.5t-107.5 43.5q-83 0 -144.5 -56t-85.5 -139zM524 238h-419q-2 -22 -2 -34q0 -77 47 -123.5t122 -46.5q91 0 174 68l29 -35q-95 -79 -203 -79q-98 0 -160 60t-62 154q0 123 87 221.5t208 98.5q92 0 142.5 -56t50.5 -139q0 -47 -14 -89z" />
    <glyph glyph-name="uni1EC4" unicode="&#x1ec4;" horiz-adv-x="649" 
d="M355 765l133 122h40l67 -122h-44l-52 68l-96 -68h-48zM36 0l188 700h493l-13 -48h-441l-74 -275h396l-13 -48h-396l-75 -281h446l-13 -48h-498zM416 921l-33 12q43 78 93 78q5 0 9.5 -0.5t9.5 -2.5t8 -3t8.5 -5t7.5 -5t9 -6.5t9 -6.5q27 -24 41 -24q15 0 26 11t29 38
l33 -12q-22 -40 -44 -59t-49 -19q-7 0 -13 1t-9.5 2.5t-9 5t-8 5t-8.5 7.5t-9 8q-32 26 -45 26q-15 0 -26 -11.5t-29 -39.5z" />
    <glyph glyph-name="uni1EC5" unicode="&#x1ec5;" horiz-adv-x="583" 
d="M244 595l133 122h40l67 -122h-44l-52 68l-96 -68h-48zM114 282h370q4 12 4 42q0 66 -36.5 109.5t-107.5 43.5q-83 0 -144.5 -56t-85.5 -139zM524 238h-419q-2 -22 -2 -34q0 -77 47 -123.5t122 -46.5q91 0 174 68l29 -35q-95 -79 -203 -79q-98 0 -160 60t-62 154
q0 123 87 221.5t208 98.5q92 0 142.5 -56t50.5 -139q0 -47 -14 -89zM305 749l-33 12q43 78 93 78q5 0 9.5 -0.5t9.5 -2.5t8 -3t8.5 -5t7.5 -5t9 -6.5t9 -6.5q27 -24 41 -24q15 0 26 11t29 38l33 -12q-43 -78 -93 -78q-7 0 -13 1t-9.5 2.5t-9 5t-8 5t-8.5 7.5t-9 8
q-32 26 -45 26q-15 0 -26 -11.5t-29 -39.5z" />
    <glyph glyph-name="uni1EC6" unicode="&#x1ec6;" horiz-adv-x="649" 
d="M211 -178l27 94h51l-27 -94h-51zM355 765l133 122h40l67 -122h-44l-52 68l-96 -68h-48zM36 0l188 700h493l-13 -48h-441l-74 -275h396l-13 -48h-396l-75 -281h446l-13 -48h-498z" />
    <glyph glyph-name="uni1EC7" unicode="&#x1ec7;" horiz-adv-x="583" 
d="M192 -178l27 94h51l-27 -94h-51zM244 595l133 122h40l67 -122h-44l-52 68l-96 -68h-48zM114 282h370q4 12 4 42q0 66 -36.5 109.5t-107.5 43.5q-83 0 -144.5 -56t-85.5 -139zM524 238h-419q-2 -22 -2 -34q0 -77 47 -123.5t122 -46.5q91 0 174 68l29 -35q-95 -79 -203 -79
q-98 0 -160 60t-62 154q0 123 87 221.5t208 98.5q92 0 142.5 -56t50.5 -139q0 -47 -14 -89z" />
    <glyph glyph-name="uni1EC8" unicode="&#x1ec8;" horiz-adv-x="274" 
d="M257 764l23 73q30 2 53 14.5t30 30.5q6 15 -2 25t-28 10q-30 0 -71 -34q-4 2 -14 12l-16 12q52 52 117 52q39 0 55.5 -22t4.5 -55q-22 -58 -102 -78q-7 -23 -15 -40h-35zM43 0l188 700h52l-188 -700h-52z" />
    <glyph glyph-name="uni1EC9" unicode="&#x1ec9;" horiz-adv-x="250" 
d="M32 0l137 510h49l-137 -510h-49zM195 594l23 73q30 2 53 14.5t30 30.5q6 15 -2 25t-28 10q-30 0 -71 -34q-4 2 -14 12l-16 12q52 52 117 52q39 0 55.5 -22t4.5 -55q-22 -58 -102 -78q-7 -23 -15 -40h-35z" />
    <glyph glyph-name="uni1ECA" unicode="&#x1eca;" horiz-adv-x="274" 
d="M-1 -178l27 94h51l-27 -94h-51zM43 0l188 700h52l-188 -700h-52z" />
    <glyph glyph-name="uni1ECB" unicode="&#x1ecb;" horiz-adv-x="250" 
d="M-18 -178l27 94h51l-27 -94h-51zM32 0l137 510h49l-137 -510h-49zM199 643l18 67h61l-18 -67h-61z" />
    <glyph glyph-name="uni1ECC" unicode="&#x1ecc;" 
d="M302 -178l27 94h51l-27 -94h-51zM398 34q144 0 246.5 115t102.5 262q0 109 -69 181.5t-179 72.5q-144 0 -246.5 -115t-102.5 -262q0 -109 69 -181.5t179 -72.5zM398 -13q-131 0 -216.5 87t-85.5 214q0 108 53.5 206t147 158t202.5 60q131 0 216.5 -87t85.5 -214
q0 -108 -53.5 -206t-147 -158t-202.5 -60z" />
    <glyph glyph-name="uni1ECD" unicode="&#x1ecd;" horiz-adv-x="633" 
d="M186 -178l27 94h51l-27 -94h-51zM283 34q94 0 169.5 78t75.5 182q0 86 -48.5 134t-130.5 48q-97 0 -171 -79t-74 -181q0 -86 48.5 -134t130.5 -48zM278 -12q-101 0 -164 63.5t-63 162.5q0 122 91 215t212 93q101 0 164 -63.5t63 -162.5q0 -123 -92 -215.5t-211 -92.5z
" />
    <glyph glyph-name="uni1ECE" unicode="&#x1ece;" 
d="M537 764l23 73q30 2 53 14.5t30 30.5q6 15 -2 25t-28 10q-30 0 -71 -34q-4 2 -14 12q-1 1 -4.5 3t-6.5 4.5t-5 4.5q52 52 117 52q39 0 55.5 -22t4.5 -55q-22 -58 -102 -78q-7 -23 -15 -40h-35zM398 34q144 0 246.5 115t102.5 262q0 109 -69 181.5t-179 72.5
q-144 0 -246.5 -115t-102.5 -262q0 -109 69 -181.5t179 -72.5zM398 -13q-131 0 -216.5 87t-85.5 214q0 108 53.5 206t147 158t202.5 60q131 0 216.5 -87t85.5 -214q0 -108 -53.5 -206t-147 -158t-202.5 -60z" />
    <glyph glyph-name="uni1ECF" unicode="&#x1ecf;" horiz-adv-x="633" 
d="M383 594l23 73q30 2 53 14.5t30 30.5q6 15 -2 25t-28 10q-30 0 -71 -34q-4 2 -14 12l-16 12q52 52 117 52q39 0 55.5 -22t4.5 -55q-22 -58 -102 -78q-7 -23 -15 -40h-35zM283 34q94 0 169.5 78t75.5 182q0 86 -48.5 134t-130.5 48q-97 0 -171 -79t-74 -181
q0 -86 48.5 -134t130.5 -48zM278 -12q-101 0 -164 63.5t-63 162.5q0 122 91 215t212 93q101 0 164 -63.5t63 -162.5q0 -123 -92 -215.5t-211 -92.5z" />
    <glyph glyph-name="uni1ED0" unicode="&#x1ed0;" 
d="M655 860l124 133l62 -30l-135 -103h-51zM420 765l133 122h40l67 -122h-44l-52 68l-96 -68h-48zM398 34q144 0 246.5 115t102.5 262q0 109 -69 181.5t-179 72.5q-144 0 -246.5 -115t-102.5 -262q0 -109 69 -181.5t179 -72.5zM398 -13q-131 0 -216.5 87t-85.5 214
q0 108 53.5 206t147 158t202.5 60q131 0 216.5 -87t85.5 -214q0 -108 -53.5 -206t-147 -158t-202.5 -60z" />
    <glyph glyph-name="uni1ED1" unicode="&#x1ed1;" horiz-adv-x="633" 
d="M513 691l124 133l62 -30l-135 -103h-51zM278 595l133 122h40l67 -122h-44l-52 68l-96 -68h-48zM283 34q94 0 169.5 78t75.5 182q0 86 -48.5 134t-130.5 48q-97 0 -171 -79t-74 -181q0 -86 48.5 -134t130.5 -48zM278 -12q-101 0 -164 63.5t-63 162.5q0 122 91 215t212 93
q101 0 164 -63.5t63 -162.5q0 -123 -92 -215.5t-211 -92.5z" />
    <glyph glyph-name="uni1ED2" unicode="&#x1ed2;" 
d="M675 860l-79 103l62 30l52 -133h-35zM420 765l133 122h40l67 -122h-44l-52 68l-96 -68h-48zM398 34q144 0 246.5 115t102.5 262q0 109 -69 181.5t-179 72.5q-144 0 -246.5 -115t-102.5 -262q0 -109 69 -181.5t179 -72.5zM398 -13q-131 0 -216.5 87t-85.5 214
q0 108 53.5 206t147 158t202.5 60q131 0 216.5 -87t85.5 -214q0 -108 -53.5 -206t-147 -158t-202.5 -60z" />
    <glyph glyph-name="uni1ED3" unicode="&#x1ed3;" horiz-adv-x="633" 
d="M533 690l-79 103l62 30l52 -133h-35zM278 595l133 122h40l67 -122h-44l-52 68l-96 -68h-48zM283 34q94 0 169.5 78t75.5 182q0 86 -48.5 134t-130.5 48q-97 0 -171 -79t-74 -181q0 -86 48.5 -134t130.5 -48zM278 -12q-101 0 -164 63.5t-63 162.5q0 122 91 215t212 93
q101 0 164 -63.5t63 -162.5q0 -123 -92 -215.5t-211 -92.5z" />
    <glyph glyph-name="uni1ED4" unicode="&#x1ed4;" 
d="M645 860l22 66q27 2 48 14t27 27q5 13 -2 22.5t-25 9.5q-27 0 -65 -31q-1 0 -13 11q-1 1 -6.5 4.5t-7.5 6.5q46 47 107 47q35 0 50 -20t4 -50q-21 -54 -93 -70q-5 -16 -13 -37h-33zM420 765l133 122h40l67 -122h-44l-52 68l-96 -68h-48zM398 34q144 0 246.5 115
t102.5 262q0 109 -69 181.5t-179 72.5q-144 0 -246.5 -115t-102.5 -262q0 -109 69 -181.5t179 -72.5zM398 -13q-131 0 -216.5 87t-85.5 214q0 108 53.5 206t147 158t202.5 60q131 0 216.5 -87t85.5 -214q0 -108 -53.5 -206t-147 -158t-202.5 -60z" />
    <glyph glyph-name="uni1ED5" unicode="&#x1ed5;" horiz-adv-x="633" 
d="M503 690l22 66q27 2 48 14t27 27q5 13 -2 22.5t-25 9.5q-27 0 -65 -31q-1 0 -13 11q-1 1 -6.5 4.5t-7.5 6.5q46 47 107 47q35 0 50 -20t4 -50q-21 -54 -93 -70q-5 -16 -13 -37h-33zM278 595l133 122h40l67 -122h-44l-52 68l-96 -68h-48zM283 34q94 0 169.5 78t75.5 182
q0 86 -48.5 134t-130.5 48q-97 0 -171 -79t-74 -181q0 -86 48.5 -134t130.5 -48zM278 -12q-101 0 -164 63.5t-63 162.5q0 122 91 215t212 93q101 0 164 -63.5t63 -162.5q0 -123 -92 -215.5t-211 -92.5z" />
    <glyph glyph-name="uni1ED6" unicode="&#x1ed6;" 
d="M420 765l133 122h40l67 -122h-44l-52 68l-96 -68h-48zM398 34q144 0 246.5 115t102.5 262q0 109 -69 181.5t-179 72.5q-144 0 -246.5 -115t-102.5 -262q0 -109 69 -181.5t179 -72.5zM398 -13q-131 0 -216.5 87t-85.5 214q0 108 53.5 206t147 158t202.5 60
q131 0 216.5 -87t85.5 -214q0 -108 -53.5 -206t-147 -158t-202.5 -60zM481 921l-33 12q22 40 44 59t49 19q5 0 9.5 -0.5t9.5 -2.5t8 -3t8.5 -5t7.5 -5t9 -6.5t9 -6.5q27 -24 41 -24q15 0 26 11t29 38l33 -12q-43 -78 -93 -78q-7 0 -13 1t-9.5 2.5t-9 5t-8 5t-8.5 7.5t-9 8
q-32 26 -45 26q-15 0 -26 -11.5t-29 -39.5z" />
    <glyph glyph-name="uni1ED7" unicode="&#x1ed7;" horiz-adv-x="633" 
d="M278 595l133 122h40l67 -122h-44l-52 68l-96 -68h-48zM283 34q94 0 169.5 78t75.5 182q0 86 -48.5 134t-130.5 48q-97 0 -171 -79t-74 -181q0 -86 48.5 -134t130.5 -48zM278 -12q-101 0 -164 63.5t-63 162.5q0 122 91 215t212 93q101 0 164 -63.5t63 -162.5
q0 -123 -92 -215.5t-211 -92.5zM339 750l-33 12q22 40 44 59t49 19q5 0 9.5 -0.5t9.5 -2.5t8 -3t8.5 -5t7.5 -5t9 -6.5t9 -6.5q27 -24 41 -24q15 0 26 11t29 38l33 -12q-43 -78 -93 -78q-7 0 -13 1t-9.5 2.5t-9 5t-8 5t-8.5 7.5t-9 8q-32 26 -45 26q-15 0 -26 -11.5
t-29 -39.5z" />
    <glyph glyph-name="uni1ED8" unicode="&#x1ed8;" 
d="M302 -178l27 94h51l-27 -94h-51zM420 765l133 122h40l67 -122h-44l-52 68l-96 -68h-48zM398 34q144 0 246.5 115t102.5 262q0 109 -69 181.5t-179 72.5q-144 0 -246.5 -115t-102.5 -262q0 -109 69 -181.5t179 -72.5zM398 -13q-131 0 -216.5 87t-85.5 214q0 108 53.5 206
t147 158t202.5 60q131 0 216.5 -87t85.5 -214q0 -108 -53.5 -206t-147 -158t-202.5 -60z" />
    <glyph glyph-name="uni1ED9" unicode="&#x1ed9;" horiz-adv-x="633" 
d="M186 -178l27 94h51l-27 -94h-51zM278 595l133 122h40l67 -122h-44l-52 68l-96 -68h-48zM283 34q94 0 169.5 78t75.5 182q0 86 -48.5 134t-130.5 48q-97 0 -171 -79t-74 -181q0 -86 48.5 -134t130.5 -48zM278 -12q-101 0 -164 63.5t-63 162.5q0 122 91 215t212 93
q101 0 164 -63.5t63 -162.5q0 -123 -92 -215.5t-211 -92.5z" />
    <glyph glyph-name="uni1EDA" unicode="&#x1eda;" 
d="M469 765l124 133l62 -30l-135 -103h-51zM398 -13q-131 0 -216.5 87t-85.5 214q0 108 53.5 206t147 158t202.5 60q65 0 121 -24q16 -6 30 -15l1 2q47 2 69.5 13.5t30.5 39.5q7 22 2 74h54q6 -45 -4 -78q-13 -50 -54 -72q-19 -11 -44 -17q6 -5 11 -11q85 -85 85 -213
q0 -108 -53.5 -206t-147 -158t-202.5 -60zM398 34q144 0 246.5 115t102.5 262q0 109 -69 181.5t-179 72.5q-144 0 -246.5 -115t-102.5 -262q0 -109 69 -181.5t179 -72.5z" />
    <glyph glyph-name="uni1EDB" unicode="&#x1edb;" horiz-adv-x="633" 
d="M333 595l124 133l62 -30l-135 -103h-51zM278 -12q-101 0 -164 63.5t-63 162.5q0 122 91 215t212 93q50 0 92 -17q9 -4 25 -12l1 1q47 2 69.5 13.5t30.5 39.5q7 22 2 74h54q6 -45 -4 -78q-14 -49 -54 -72q-19 -12 -47 -18q26 -29 41 -67q17 -42 17 -90q0 -123 -92 -215.5
t-211 -92.5zM283 34q94 0 169.5 78t75.5 182q0 86 -48.5 134t-130.5 48q-97 0 -171 -79t-74 -181q0 -86 48.5 -134t130.5 -48z" />
    <glyph glyph-name="uni1EDC" unicode="&#x1edc;" 
d="M546 765l-79 103l62 30l52 -133h-35zM398 -13q-131 0 -216.5 87t-85.5 214q0 108 53.5 206t147 158t202.5 60q65 0 121 -24q16 -6 30 -15l1 2q47 2 69.5 13.5t30.5 39.5q7 22 2 74h54q6 -45 -4 -78q-13 -50 -54 -72q-19 -11 -44 -17q6 -5 11 -11q85 -85 85 -213
q0 -108 -53.5 -206t-147 -158t-202.5 -60zM398 34q144 0 246.5 115t102.5 262q0 109 -69 181.5t-179 72.5q-144 0 -246.5 -115t-102.5 -262q0 -109 69 -181.5t179 -72.5z" />
    <glyph glyph-name="uni1EDD" unicode="&#x1edd;" horiz-adv-x="633" 
d="M378 595l-79 103l62 30l52 -133h-35zM278 -12q-101 0 -164 63.5t-63 162.5q0 122 91 215t212 93q50 0 92 -17q9 -4 25 -12l1 1q47 2 69.5 13.5t30.5 39.5q7 22 2 74h54q6 -45 -4 -78q-14 -49 -54 -72q-19 -12 -47 -18q26 -29 41 -67q17 -42 17 -90q0 -123 -92 -215.5
t-211 -92.5zM283 34q94 0 169.5 78t75.5 182q0 86 -48.5 134t-130.5 48q-97 0 -171 -79t-74 -181q0 -86 48.5 -134t130.5 -48z" />
    <glyph glyph-name="uni1EDE" unicode="&#x1ede;" 
d="M537 764l23 73q30 2 53 14.5t30 30.5q6 15 -2 25t-28 10q-30 0 -71 -34q-4 2 -14 12q-1 1 -4.5 3t-6.5 4.5t-5 4.5q52 52 117 52q39 0 55.5 -22t4.5 -55q-22 -58 -102 -78q-7 -23 -15 -40h-35zM398 -13q-131 0 -216.5 87t-85.5 214q0 108 53.5 206t147 158t202.5 60
q65 0 121 -24q16 -6 30 -15l1 2q47 2 69.5 13.5t30.5 39.5q7 22 2 74h54q6 -45 -4 -78q-13 -50 -54 -72q-19 -11 -44 -17q6 -5 11 -11q85 -85 85 -213q0 -108 -53.5 -206t-147 -158t-202.5 -60zM398 34q144 0 246.5 115t102.5 262q0 109 -69 181.5t-179 72.5
q-144 0 -246.5 -115t-102.5 -262q0 -109 69 -181.5t179 -72.5z" />
    <glyph glyph-name="uni1EDF" unicode="&#x1edf;" horiz-adv-x="633" 
d="M383 594l23 73q30 2 53 14.5t30 30.5q6 15 -2 25t-28 10q-30 0 -71 -34q-4 2 -14 12l-16 12q52 52 117 52q39 0 55.5 -22t4.5 -55q-22 -58 -102 -78q-7 -23 -15 -40h-35zM278 -12q-101 0 -164 63.5t-63 162.5q0 122 91 215t212 93q50 0 92 -17q9 -4 25 -12l1 1
q47 2 69.5 13.5t30.5 39.5q7 22 2 74h54q6 -45 -4 -78q-14 -49 -54 -72q-19 -12 -47 -18q26 -29 41 -67q17 -42 17 -90q0 -123 -92 -215.5t-211 -92.5zM283 34q94 0 169.5 78t75.5 182q0 86 -48.5 134t-130.5 48q-97 0 -171 -79t-74 -181q0 -86 48.5 -134t130.5 -48z" />
    <glyph glyph-name="uni1EE0" unicode="&#x1ee0;" 
d="M441 763l-34 13q22 46 44 66.5t50 20.5q12 0 23 -5t16.5 -9.5t21.5 -18.5q26 -24 36 -26q3 -1 7 -1q14 0 25 12.5t29 42.5l34 -13q-22 -46 -44 -66.5t-50 -20.5q-5 0 -9.5 0.5t-8 1.5t-7.5 3t-6.5 3.5t-6.5 5t-6 5t-7 6.5l-7 7t-6 5.5t-5 5t-4.5 4.5t-5 4t-4 3t-4 3t-4 2
t-4.5 1.5t-4.5 1t-4.5 0.5q-14 0 -25 -12.5t-29 -44.5zM398 -13q-131 0 -216.5 87t-85.5 214q0 108 53.5 206t147 158t202.5 60q65 0 121 -24q16 -6 30 -15l1 2q47 2 69.5 13.5t30.5 39.5q7 22 2 74h54q6 -45 -4 -78q-13 -50 -54 -72q-19 -11 -44 -17q6 -5 11 -11
q85 -85 85 -213q0 -108 -53.5 -206t-147 -158t-202.5 -60zM398 34q144 0 246.5 115t102.5 262q0 109 -69 181.5t-179 72.5q-144 0 -246.5 -115t-102.5 -262q0 -109 69 -181.5t179 -72.5z" />
    <glyph glyph-name="uni1EE1" unicode="&#x1ee1;" horiz-adv-x="633" 
d="M292 600l-34 13q22 46 44 66.5t50 20.5q12 0 23 -5t16.5 -9.5t21.5 -18.5q26 -24 36 -26q3 -1 7 -1q14 0 25 12.5t29 42.5l34 -13q-22 -46 -44 -66.5t-50 -20.5q-5 0 -9.5 0.5t-8 1.5t-7.5 3t-6.5 3.5t-6.5 5t-6 5t-7 6.5l-7 7t-6 5.5t-5 5t-4.5 4.5t-5 4t-4 3t-4 3t-4 2
t-4.5 1.5t-4.5 1t-4.5 0.5q-14 0 -25 -12.5t-29 -44.5zM278 -12q-101 0 -164 63.5t-63 162.5q0 122 91 215t212 93q50 0 92 -17q9 -4 25 -12l1 1q47 2 69.5 13.5t30.5 39.5q7 22 2 74h54q6 -45 -4 -78q-14 -49 -54 -72q-19 -12 -47 -18q26 -29 41 -67q17 -42 17 -90
q0 -123 -92 -215.5t-211 -92.5zM283 34q94 0 169.5 78t75.5 182q0 86 -48.5 134t-130.5 48q-97 0 -171 -79t-74 -181q0 -86 48.5 -134t130.5 -48z" />
    <glyph glyph-name="uni1EE2" unicode="&#x1ee2;" 
d="M302 -178l27 94h51l-27 -94h-51zM398 -13q-131 0 -216.5 87t-85.5 214q0 108 53.5 206t147 158t202.5 60q65 0 121 -24q16 -6 30 -15l1 2q47 2 69.5 13.5t30.5 39.5q7 22 2 74h54q6 -45 -4 -78q-13 -50 -54 -72q-19 -11 -44 -17q6 -5 11 -11q85 -85 85 -213
q0 -108 -53.5 -206t-147 -158t-202.5 -60zM398 34q144 0 246.5 115t102.5 262q0 109 -69 181.5t-179 72.5q-144 0 -246.5 -115t-102.5 -262q0 -109 69 -181.5t179 -72.5z" />
    <glyph glyph-name="uni1EE3" unicode="&#x1ee3;" horiz-adv-x="633" 
d="M186 -178l27 94h51l-27 -94h-51zM278 -12q-101 0 -164 63.5t-63 162.5q0 122 91 215t212 93q50 0 92 -17q9 -4 25 -12l1 1q47 2 69.5 13.5t30.5 39.5q7 22 2 74h54q6 -45 -4 -78q-14 -49 -54 -72q-19 -12 -47 -18q26 -29 41 -67q17 -42 17 -90q0 -123 -92 -215.5
t-211 -92.5zM283 34q94 0 169.5 78t75.5 182q0 86 -48.5 134t-130.5 48q-97 0 -171 -79t-74 -181q0 -86 48.5 -134t130.5 -48z" />
    <glyph glyph-name="uni1EE4" unicode="&#x1ee4;" horiz-adv-x="756" 
d="M236 -178l27 94h51l-27 -94h-51zM348 -11q-122 0 -187 61.5t-65 158.5q0 54 14 108l102 383h52l-108 -407q-9 -36 -9 -80q0 -79 52 -128t153 -49q99 0 171 72q65 65 98 186l109 406h52l-112 -417q-35 -130 -111 -206q-88 -88 -211 -88z" />
    <glyph glyph-name="uni1EE5" unicode="&#x1ee5;" horiz-adv-x="609" 
d="M161 -178l27 94h51l-27 -94h-51zM231 -12q-76 0 -121.5 44t-45.5 118q0 34 11 72l76 288h49l-78 -292q-8 -30 -8 -63q0 -57 35 -90t96 -33q67 0 129.5 54t83.5 136l77 288h49l-136 -510h-49l25 95q-42 -51 -87.5 -79t-105.5 -28z" />
    <glyph glyph-name="uni1EE6" unicode="&#x1ee6;" horiz-adv-x="756" 
d="M492 764l23 73q30 2 53 14.5t30 30.5q6 15 -2 25t-28 10q-30 0 -71 -34q-4 2 -14 12q-1 1 -4.5 3t-6.5 4.5t-5 4.5q52 52 117 52q39 0 55.5 -22t4.5 -55q-22 -58 -102 -78q-7 -23 -15 -40h-35zM348 -11q-122 0 -187 61.5t-65 158.5q0 54 14 108l102 383h52l-108 -407
q-9 -36 -9 -80q0 -79 52 -128t153 -49q99 0 171 72q65 65 98 186l109 406h52l-112 -417q-35 -130 -111 -206q-88 -88 -211 -88z" />
    <glyph glyph-name="uni1EE7" unicode="&#x1ee7;" horiz-adv-x="609" 
d="M360 594l23 73q30 2 53 14.5t30 30.5q6 15 -2 25t-28 10q-30 0 -71 -34q-4 2 -14 12l-16 12q52 52 117 52q39 0 55.5 -22t4.5 -55q-22 -58 -102 -78q-7 -23 -15 -40h-35zM231 -12q-76 0 -121.5 44t-45.5 118q0 34 11 72l76 288h49l-78 -292q-8 -30 -8 -63q0 -57 35 -90
t96 -33q67 0 129.5 54t83.5 136l77 288h49l-136 -510h-49l25 95q-42 -51 -87.5 -79t-105.5 -28z" />
    <glyph glyph-name="uni1EE8" unicode="&#x1ee8;" horiz-adv-x="787" 
d="M439 765l124 133l62 -30l-135 -103h-51zM348 -11q-122 0 -187 61.5t-65 158.5q0 54 14 108l102 383h52l-108 -407q-9 -36 -9 -80q0 -79 52 -128t153 -49q99 0 171 72q65 65 98 186l109 406h47q18 3 28 9q24 11 32 40q7 22 2 74h54q6 -45 -4 -78q-13 -49 -54 -72
q-25 -15 -66 -21l-99 -369q-35 -130 -111 -206q-88 -88 -211 -88z" />
    <glyph glyph-name="uni1EE9" unicode="&#x1ee9;" horiz-adv-x="618" 
d="M330 595l124 133l62 -30l-135 -103h-51zM231 -12q-76 0 -121.5 44t-45.5 118q0 34 11 72l76 288h49l-78 -292q-8 -30 -8 -63q0 -57 35 -90t96 -33q67 0 129.5 54t83.5 136l77 288h40q22 3 34 10q24 11 32 40q7 22 2 74h54q6 -45 -4 -78q-13 -50 -54 -72q-26 -16 -68 -22
l-123 -462h-49l25 95q-42 -51 -87.5 -79t-105.5 -28z" />
    <glyph glyph-name="uni1EEA" unicode="&#x1eea;" horiz-adv-x="787" 
d="M506 765l-79 103l62 30l52 -133h-35zM348 -11q-122 0 -187 61.5t-65 158.5q0 54 14 108l102 383h52l-108 -407q-9 -36 -9 -80q0 -79 52 -128t153 -49q99 0 171 72q65 65 98 186l109 406h47q18 3 28 9q24 11 32 40q7 22 2 74h54q6 -45 -4 -78q-13 -49 -54 -72
q-25 -15 -66 -21l-99 -369q-35 -130 -111 -206q-88 -88 -211 -88z" />
    <glyph glyph-name="uni1EEB" unicode="&#x1eeb;" horiz-adv-x="618" 
d="M370 595l-79 103l62 30l52 -133h-35zM231 -12q-76 0 -121.5 44t-45.5 118q0 34 11 72l76 288h49l-78 -292q-8 -30 -8 -63q0 -57 35 -90t96 -33q67 0 129.5 54t83.5 136l77 288h40q22 3 34 10q24 11 32 40q7 22 2 74h54q6 -45 -4 -78q-13 -50 -54 -72q-26 -16 -68 -22
l-123 -462h-49l25 95q-42 -51 -87.5 -79t-105.5 -28z" />
    <glyph glyph-name="uni1EEC" unicode="&#x1eec;" horiz-adv-x="787" 
d="M492 764l23 73q30 2 53 14.5t30 30.5q6 15 -2 25t-28 10q-30 0 -71 -34q-4 2 -14 12q-1 1 -4.5 3t-6.5 4.5t-5 4.5q52 52 117 52q39 0 55.5 -22t4.5 -55q-22 -58 -102 -78q-7 -23 -15 -40h-35zM348 -11q-122 0 -187 61.5t-65 158.5q0 54 14 108l102 383h52l-108 -407
q-9 -36 -9 -80q0 -79 52 -128t153 -49q99 0 171 72q65 65 98 186l109 406h47q18 3 28 9q24 11 32 40q7 22 2 74h54q6 -45 -4 -78q-13 -49 -54 -72q-25 -15 -66 -21l-99 -369q-35 -130 -111 -206q-88 -88 -211 -88z" />
    <glyph glyph-name="uni1EED" unicode="&#x1eed;" horiz-adv-x="618" 
d="M360 594l23 73q30 2 53 14.5t30 30.5q6 15 -2 25t-28 10q-30 0 -71 -34q-4 2 -14 12l-16 12q52 52 117 52q39 0 55.5 -22t4.5 -55q-22 -58 -102 -78q-7 -23 -15 -40h-35zM231 -12q-76 0 -121.5 44t-45.5 118q0 34 11 72l76 288h49l-78 -292q-8 -30 -8 -63q0 -57 35 -90
t96 -33q67 0 129.5 54t83.5 136l77 288h40q22 3 34 10q24 11 32 40q7 22 2 74h54q6 -45 -4 -78q-13 -50 -54 -72q-26 -16 -68 -22l-123 -462h-49l25 95q-42 -51 -87.5 -79t-105.5 -28z" />
    <glyph glyph-name="uni1EEE" unicode="&#x1eee;" horiz-adv-x="787" 
d="M406 763l-34 13q22 46 44 66.5t50 20.5q12 0 23 -5t16.5 -9.5t21.5 -18.5q26 -24 36 -26q3 -1 7 -1q14 0 25 12.5t29 42.5l34 -13q-22 -46 -44 -66.5t-50 -20.5q-5 0 -9.5 0.5t-8 1.5t-7.5 3t-6.5 3.5t-6.5 5t-6 5t-7 6.5l-7 7t-6 5.5t-5 5t-4.5 4.5t-5 4t-4 3t-4 3t-4 2
t-4.5 1.5t-4.5 1t-4.5 0.5q-14 0 -25 -12.5t-29 -44.5zM348 -11q-122 0 -187 61.5t-65 158.5q0 54 14 108l102 383h52l-108 -407q-9 -36 -9 -80q0 -79 52 -128t153 -49q99 0 171 72q65 65 98 186l109 406h47q18 3 28 9q24 11 32 40q7 22 2 74h54q6 -45 -4 -78
q-13 -49 -54 -72q-25 -15 -66 -21l-99 -369q-35 -130 -111 -206q-88 -88 -211 -88z" />
    <glyph glyph-name="uni1EEF" unicode="&#x1eef;" horiz-adv-x="618" 
d="M284 600l-34 13q22 46 44 66.5t50 20.5q12 0 23 -5t16.5 -9.5t21.5 -18.5q26 -24 36 -26q3 -1 7 -1q14 0 25 12.5t29 42.5l34 -13q-22 -46 -44 -66.5t-50 -20.5q-5 0 -9.5 0.5t-8 1.5t-7.5 3t-6.5 3.5t-6.5 5t-6 5t-7 6.5l-7 7t-6 5.5t-5 5t-4.5 4.5t-5 4t-4 3t-4 3t-4 2
t-4.5 1.5t-4.5 1t-4.5 0.5q-14 0 -25 -12.5t-29 -44.5zM231 -12q-76 0 -121.5 44t-45.5 118q0 34 11 72l76 288h49l-78 -292q-8 -30 -8 -63q0 -57 35 -90t96 -33q67 0 129.5 54t83.5 136l77 288h40q22 3 34 10q24 11 32 40q7 22 2 74h54q6 -45 -4 -78q-13 -50 -54 -72
q-26 -16 -68 -22l-123 -462h-49l25 95q-42 -51 -87.5 -79t-105.5 -28z" />
    <glyph glyph-name="uni1EF0" unicode="&#x1ef0;" horiz-adv-x="787" 
d="M236 -178l27 94h51l-27 -94h-51zM348 -11q-122 0 -187 61.5t-65 158.5q0 54 14 108l102 383h52l-108 -407q-9 -36 -9 -80q0 -79 52 -128t153 -49q99 0 171 72q65 65 98 186l109 406h47q18 3 28 9q24 11 32 40q7 22 2 74h54q6 -45 -4 -78q-13 -49 -54 -72q-25 -15 -66 -21
l-99 -369q-35 -130 -111 -206q-88 -88 -211 -88z" />
    <glyph glyph-name="uni1EF1" unicode="&#x1ef1;" horiz-adv-x="618" 
d="M161 -178l27 94h51l-27 -94h-51zM231 -12q-76 0 -121.5 44t-45.5 118q0 34 11 72l76 288h49l-78 -292q-8 -30 -8 -63q0 -57 35 -90t96 -33q67 0 129.5 54t83.5 136l77 288h40q22 3 34 10q24 11 32 40q7 22 2 74h54q6 -45 -4 -78q-13 -50 -54 -72q-26 -16 -68 -22
l-123 -462h-49l25 95q-42 -51 -87.5 -79t-105.5 -28z" />
    <glyph glyph-name="Ygrave" unicode="&#x1ef2;" horiz-adv-x="668" 
d="M442 765l-79 103l62 30l52 -133h-35zM234 0l76 284l-183 416h57l161 -376l364 376h70l-421 -429l-72 -271h-52z" />
    <glyph glyph-name="ygrave" unicode="&#x1ef3;" horiz-adv-x="568" 
d="M343 595l-79 103l62 30l52 -133h-35zM20 -163q-58 0 -108 35l27 40q36 -29 87 -29q41 0 79 27t84 93l-104 507h52l89 -456l307 456h59l-363 -528q-55 -79 -104 -112t-105 -33z" />
    <glyph glyph-name="uni1EF4" unicode="&#x1ef4;" horiz-adv-x="668" 
d="M188 -178l27 94h51l-27 -94h-51zM234 0l76 284l-183 416h57l161 -376l364 376h70l-421 -429l-72 -271h-52z" />
    <glyph glyph-name="uni1EF5" unicode="&#x1ef5;" horiz-adv-x="568" 
d="M237 -178l27 94h51l-27 -94h-51zM20 -163q-58 0 -108 35l27 40q36 -29 87 -29q41 0 79 27t84 93l-104 507h52l89 -456l307 456h59l-363 -528q-55 -79 -104 -112t-105 -33z" />
    <glyph glyph-name="uni1EF6" unicode="&#x1ef6;" horiz-adv-x="668" 
d="M429 764l23 73q30 2 53 14.5t30 30.5q6 15 -2 25t-28 10q-30 0 -71 -34q-4 2 -14 12q-1 1 -4.5 3t-6.5 4.5t-5 4.5q52 52 117 52q39 0 55.5 -22t4.5 -55q-22 -58 -102 -78q-7 -23 -15 -40h-35zM234 0l76 284l-183 416h57l161 -376l364 376h70l-421 -429l-72 -271h-52z
" />
    <glyph glyph-name="uni1EF7" unicode="&#x1ef7;" horiz-adv-x="568" 
d="M318 594l23 73q30 2 53 14.5t30 30.5q6 15 -2 25t-28 10q-30 0 -71 -34q-4 2 -14 12l-16 12q52 52 117 52q39 0 55.5 -22t4.5 -55q-22 -58 -102 -78q-7 -23 -15 -40h-35zM20 -163q-58 0 -108 35l27 40q36 -29 87 -29q41 0 79 27t84 93l-104 507h52l89 -456l307 456h59
l-363 -528q-55 -79 -104 -112t-105 -33z" />
    <glyph glyph-name="uni1EF8" unicode="&#x1ef8;" horiz-adv-x="668" 
d="M358 763l-34 13q22 46 44 66.5t50 20.5q12 0 23 -5t16.5 -9.5t21.5 -18.5q26 -24 36 -26q3 -1 7 -1q14 0 25 12.5t29 42.5l34 -13q-22 -46 -44 -66.5t-50 -20.5q-5 0 -9.5 0.5t-8 1.5t-7.5 3t-6.5 3.5t-6.5 5t-6 5t-7 6.5l-7 7t-6 5.5t-5 5t-4.5 4.5t-5 4t-4 3t-4 3t-4 2
t-4.5 1.5t-4.5 1t-4.5 0.5q-14 0 -25 -12.5t-29 -44.5zM234 0l76 284l-183 416h57l161 -376l364 376h70l-421 -429l-72 -271h-52z" />
    <glyph glyph-name="uni1EF9" unicode="&#x1ef9;" horiz-adv-x="568" 
d="M249 600l-34 13q22 46 44 66.5t50 20.5q12 0 23 -5t16.5 -9.5t21.5 -18.5q26 -24 36 -26q3 -1 7 -1q14 0 25 12.5t29 42.5l34 -13q-22 -46 -44 -66.5t-50 -20.5q-5 0 -9.5 0.5t-8 1.5t-7.5 3t-6.5 3.5t-6.5 5t-6 5t-7 6.5l-7 7t-6 5.5t-5 5t-4.5 4.5t-5 4t-4 3t-4 3t-4 2
t-4.5 1.5t-4.5 1t-4.5 0.5q-14 0 -25 -12.5t-29 -44.5zM20 -163q-58 0 -108 35l27 40q36 -29 87 -29q41 0 79 27t84 93l-104 507h52l89 -456l307 456h59l-363 -528q-55 -79 -104 -112t-105 -33z" />
    <glyph glyph-name="endash" unicode="&#x2013;" horiz-adv-x="528" 
d="M74 271l14 52h388l-14 -52h-388z" />
    <glyph glyph-name="emdash" unicode="&#x2014;" horiz-adv-x="898" 
d="M74 271l14 52h758l-14 -52h-758z" />
    <glyph glyph-name="quoteleft" unicode="&#x2018;" horiz-adv-x="231" 
d="M147 513l20 74q14 52 39.5 77.5t75.5 39.5l7 -24q-70 -24 -80 -82h27l-23 -85h-66z" />
    <glyph glyph-name="quoteright" unicode="&#x2019;" horiz-adv-x="231" 
d="M138 509l-7 24q70 24 80 82h-27l23 85h66l-20 -74q-16 -52 -40.5 -77.5t-74.5 -39.5z" />
    <glyph glyph-name="quotesinglbase" unicode="&#x201a;" horiz-adv-x="231" 
d="M-32 -106l-7 24q70 24 80 82h-27l23 85h66l-20 -74q-16 -52 -40.5 -77.5t-74.5 -39.5z" />
    <glyph glyph-name="quotedblleft" unicode="&#x201c;" horiz-adv-x="411" 
d="M146 513l20 74q14 52 39.5 77.5t75.5 39.5l7 -24q-70 -24 -80 -82h27l-23 -85h-66zM326 513l20 74q14 52 39.5 77.5t75.5 39.5l7 -24q-70 -24 -80 -82h27l-23 -85h-66z" />
    <glyph glyph-name="quotedblright" unicode="&#x201d;" horiz-adv-x="411" 
d="M127 509l-7 24q70 24 80 82h-27l23 85h66l-20 -74q-16 -52 -40.5 -77.5t-74.5 -39.5zM307 509l-7 24q70 24 80 82h-27l23 85h66l-20 -74q-16 -52 -40.5 -77.5t-74.5 -39.5z" />
    <glyph glyph-name="quotedblbase" unicode="&#x201e;" horiz-adv-x="412" 
d="M-32 -106l-7 24q70 24 80 82h-27l23 85h66l-20 -74q-16 -52 -40.5 -77.5t-74.5 -39.5zM149 -106l-7 24q70 24 80 82h-27l23 85h66l-20 -74q-16 -52 -40.5 -77.5t-74.5 -39.5z" />
    <glyph glyph-name="dagger" unicode="&#x2020;" horiz-adv-x="410" 
d="M160 238l81 286l-126 -7l12 45l122 -7l32 145h50l-46 -145l126 7l-12 -45l-124 7l-71 -286h-44z" />
    <glyph glyph-name="daggerdbl" unicode="&#x2021;" horiz-adv-x="430" 
d="M103 0l46 145l-126 -7l12 45l123 -7l42 174l51 174l-126 -7l12 45l122 -7l32 145h50l-46 -145l126 7l-12 -45l-124 7l-41 -174l-52 -174l127 7l-12 -45l-122 7l-32 -145h-50z" />
    <glyph glyph-name="bullet" unicode="&#x2022;" horiz-adv-x="470" 
d="M232 222q-47 0 -76 29.5t-29 79.5q0 61 42.5 106t100.5 45q47 0 76 -29.5t29 -79.5q0 -61 -42.5 -106t-100.5 -45z" />
    <glyph glyph-name="ellipsis" unicode="&#x2026;" horiz-adv-x="683" 
d="M14 0l23 85h66l-23 -85h-66zM240 0l23 85h66l-23 -85h-66zM466 0l23 85h66l-23 -85h-66z" />
    <glyph glyph-name="perthousand" unicode="&#x2030;" horiz-adv-x="1203" 
d="M592 36q56 0 97 53.5t41 117.5q0 49 -24 77t-68 28q-56 0 -97 -53.5t-41 -117.5q0 -49 24 -77t68 -28zM974 36q56 0 97 53.5t41 117.5q0 49 -24 77t-68 28q-56 0 -97 -53.5t-41 -117.5q0 -49 24 -77t68 -28zM234 389q56 0 97 53.5t41 117.5q0 49 -24 77t-68 28
q-56 0 -97 -53.5t-41 -117.5q0 -49 24 -77t68 -28zM588 -7q-60 0 -98.5 41t-38.5 102q0 86 56 152.5t135 66.5q60 0 98.5 -41t38.5 -102q0 -86 -56 -152.5t-135 -66.5zM970 -7q-60 0 -98.5 41t-38.5 102q0 86 56 152.5t135 66.5q60 0 98.5 -41t38.5 -102q0 -86 -56 -152.5
t-135 -66.5zM65 0l682 700h60l-682 -700h-60zM230 346q-60 0 -98.5 41t-38.5 102q0 86 56 152.5t135 66.5q60 0 98.5 -41t38.5 -102q0 -86 -56 -152.5t-135 -66.5z" />
    <glyph glyph-name="guilsinglleft" unicode="&#x2039;" horiz-adv-x="311" 
d="M149 42l-104 209l2 8l216 209l36 -28l-192 -192l83 -184z" />
    <glyph glyph-name="guilsinglright" unicode="&#x203a;" horiz-adv-x="311" 
d="M47 41l-36 28l192 192l-83 184l41 22l104 -209l-2 -8z" />
    <glyph glyph-name="fraction" unicode="&#x2044;" horiz-adv-x="550" 
d="M-83 -98l697 856h59l-697 -856h-59z" />
    <glyph glyph-name="fraction" unicode="&#x2215;" horiz-adv-x="550" 
d="M-83 -98l697 856h59l-697 -856h-59z" />
    <glyph glyph-name="trademark" unicode="&#x2122;" horiz-adv-x="690" 
d="M154 392l78 274h-101l10 34h237l-10 -34h-101l-78 -274h-35zM360 392l88 308h32l72 -183l168 183h41l-88 -308h-35l71 246l-167 -178h-5l-71 178l-71 -246h-35z" />
    <glyph glyph-name="radical" unicode="&#x221a;" horiz-adv-x="974" 
d="M55 0l125 465h-74l12 45h74l20 74q39 146 163 146q57 0 102 -24l-12 -44q-53 24 -92 24q-87 0 -115 -113l-17 -63h184l-12 -45h-184l-125 -465h-49zM417 0l125 465h-74l12 45h74l20 74q39 146 163 146q57 0 102 -24l-12 -44q-52 24 -92 24q-85 0 -115 -113l-17 -63h184
l-12 -45h-184l-125 -465h-49zM756 0l196 730h49l-196 -730h-49z" />
    <glyph glyph-name="approxequal" unicode="&#x2248;" horiz-adv-x="974" 
d="M756 0l137 510h49l-137 -510h-49zM55 0l125 465h-74l12 45h74l20 74q39 146 163 146q57 0 102 -24l-12 -44q-53 24 -92 24q-87 0 -115 -113l-17 -63h184l-12 -45h-184l-125 -465h-49zM417 0l125 465h-74l12 45h74l20 74q39 146 163 146q57 0 102 -24l-12 -44
q-52 24 -92 24q-85 0 -115 -113l-17 -63h184l-12 -45h-184l-125 -465h-49zM923 643l18 67h61l-18 -67h-61z" />
    <glyph glyph-name="NUL" horiz-adv-x="0" 
 />
    <glyph glyph-name="CR" horiz-adv-x="300" 
 />
    <glyph glyph-name="apple" horiz-adv-x="967" 
d="M417 64q0 -17 -12 -17t-12 17q0 16 12 16t12 -16zM352 74v-10h-3q-8 0 -8 8q0 6 7 6q4 0 4 -4zM553 79q5 0 0 -9q-5 9 0 9zM384 217l9 -35q0 -7 -4 -7h-5q-11 0 -18.5 10t-7.5 22q0 17 14 17h6q3 -1 6 -7zM716 187q0 -13 -11 -13q-9 0 -17 11.5t-8 26.5q0 14 11 14
q9 0 17 -12t8 -27zM280 200h-5q-15 0 -15 15q0 9 8 9q7 0 9 -5zM392 384h-11q-13 0 -13 11t13 11h11v-22zM684 535q0 -13 -11 -13q-9 0 -17 11.5t-8 26.5q0 14 11 14q9 0 17 -12t8 -27zM272 553q-3 -4 -7 -4t-4 2q0 3 4 3q6 0 7 -1zM566 553q-3 -4 -7 -4t-4 2q0 3 4 3
q6 0 7 -1zM176 548h-5q-15 0 -15 15q0 9 8 9q7 0 9 -5zM441 -88q0 13 -11 13t-11 -12q0 -13 11 -13t11 12zM800 -88q0 13 -11 13t-11 -12q0 -13 11 -13t11 12zM564 -92l-5 12l-5 -12h10zM394 -83q0 9 -11 7v-13q11 0 11 6zM525 -82q0 8 -11 6v-12q11 -2 11 6zM606 -83
q0 9 -11 7v-13q11 0 11 6zM309 46v2q-2 0 -3 1q-3 1 -3 5v20q0 2 3 4q1 1 3 1v2h-18v-2q2 0 3 -1q3 -3 3 -4v-9q-2 0 -4 2l-8 8q-3 1 -1 3q1 1 2 1v2h-14v-2q2 0 3 -1q1 0 2 -1t3 -2l10 -9l-13 -13l-2 -2t-2 -1t-1 -1l-2 -1v-2h17v2q-2 0 -3 1t1 4l8 8q2 2 4 2v-9
q0 -2 -3 -5q-1 -1 -3 -1v-2h18zM364 46v2q-2 0 -3 1q-2 2 -2 4v20q0 3 2 5q1 1 3 1v2h-18q-13 0 -13 -9q0 -4 9 -9l-7 -10q-2 -2 -4 -3l-2 -1l-2 -1v-2h11l7 12q3 4 7 4v-9q0 -1 -3 -4q-1 -1 -2 -1v-2h17zM425 64q0 18 -20 18t-20 -18q0 -19 20 -19t20 19zM480 79v2h-15v-2
q1 0 2 -1t-1 -4l-6 -9l-6 9q-2 2 0 4q1 1 3 1v2h-15v-2q2 0 3 -1l2 -2q2 -1 3 -2l8 -12v-8q0 -2 -3 -5q-1 -1 -2 -1v-2h17v2q-2 0 -3 1q-2 2 -2 5v8l8 12q1 2 4 3l1 1q1 1 2 1zM583 81h-15v-2q1 0 2 -1t0 -4l-9 -19l-5 10l4 8q1 2 3 3l1 1l2 2v2h-26l1 -2q1 0 2 -1l5 -5
l3 -5l-7 -13l-8 18q-2 3 0 5q1 1 2 1v2h-13v-2q1 0 2 -1l3 -3l1 -2l13 -27h1q1 -1 1 0l8 16l9 -16h1l12 27q1 2 4 4v1h1q1 1 2 1v2zM633 46v2q-1 -2 -3 0q-2 0 -2 5v21q0 3 2 5h3v2h-29l-2 -10l2 -1q0 2 2 4q1 4 7 4h4q4 0 4 -3v-10h-4q-3 0 -5 2q-1 1 -1 3h-2v-13h2
q0 2 1 3q3 3 5 3h4v-11q0 -3 -4 -3h-4q-4 0 -8 4q-2 2 -2 5l-2 -1l2 -11h30zM694 46v2q-2 0 -3 1q-3 1 -3 4v20q0 3 3 4l1 1q2 0 2 1v2h-10l-24 -26v18q0 3 3 5q1 1 3 1v2h-15v-2q2 0 3 -1q3 -3 3 -5v-28h3l25 28v-20q0 -1 -3 -4q-1 -1 -2 -1v-2h14zM827 127v6h-685v-6h685z
M307 171l-1 3q-3 0 -4 1q-5 2 -6 7l-7 35q-2 5 3 7q1 1 4 1l-1 3h-27q-20 0 -20 -15q0 -13 19 -15l-9 -16q-3 -5 -9 -7q-2 -1 -5 -1l1 -3h19l12 23q2 3 5 3l3 -15q2 -5 -3 -7q-1 -1 -4 -1l1 -3h29zM414 171l-1 4q-2 -2 -4 0q-5 1 -6 9l-8 31q-3 8 8 10l-1 3h-30
q-25 0 -25 -22q0 -15 11 -25t24 -10h32zM523 171l-1 3q-2 0 -3 1q-5 1 -6 9l-7 32q-2 6 3 8q1 1 5 1l-1 3h-14l-29 -42l-5 30q-2 6 3 8q1 1 4 1l-1 3h-21l1 -3q3 0 4 -1q3 -2 5 -8l8 -45l3 -1l30 44l6 -30q1 -7 -2 -9q-1 -1 -4 -1l1 -3h21zM621 225l-1 3h-29l1 -3q3 0 4 -1
q4 -1 6 -8l5 -21q3 -10 1 -15t-12 -5q-14 0 -20 22l-4 19q-2 8 3 9q2 2 4 0v3h-24l1 -3q3 0 5 -1q4 -1 6 -8l4 -19q7 -27 28 -27q26 0 19 24l-5 22q-4 7 3 9q2 2 5 0zM823 171l-1 3q-3 0 -4 1q-5 2 -6 7l-7 35q-2 5 3 7q1 1 4 1l-1 3h-45v-10v-7h4q-1 2 1 6q1 7 12 7h4
q5 0 6 -6l3 -16h-4q-5 0 -9 4q-1 1 -3 5h-3l5 -23h3q0 3 1 5q2 6 7 6h4l3 -17q2 -5 -3 -7q-1 -1 -4 -1l1 -3h29zM201 215l2 2q-7 13 -18 13q-16 0 -14 -23q-7 23 -21 23q-12 0 -12 -12l3 -1q0 6 8 6q16 0 24 -33q3 -9 -2 -14q-3 -2 -4 -1l1 -4h28l-1 4q-2 -2 -4 0q-5 1 -6 9
q-5 18 -5 25q0 13 9 13q5 0 12 -7zM728 192q0 15 -11.5 26.5t-25.5 11.5q-8 0 -15.5 -5.5t-7.5 -16.5q0 -16 11 -27t26 -11q8 0 15.5 5.5t7.5 16.5zM827 271v6h-685v-6h685zM283 308v33h-14v65h14v34h-141v-62h41v28h33v-20h-24v-24h24v-21h-33v28h-41v-61h141zM458 308v33
h-14v65h14v34h-96q-21 0 -34 -11t-13 -29t13 -29t34 -11h30v-19h-15v-33h81zM648 406v34h-81v-34h11l-15 -23l-15 23h10v34h-62v-34h12l37 -46v-19h-14v-33h81v33h-15v20l37 45h14zM827 378v62h-147v-62h36v28h11v-65h-14v-33h81v33h-14v65h11v-28h36zM827 475v6h-685v-6
h685zM400 521q0 8 -13 9q-4 2 -5 14.5t-5.5 23t-18.5 10.5q-5 0 -9 -3.5t-4 -6.5q0 -5 5 -5q4 0 4 6t5 6t7 -7.5t4.5 -19t9.5 -18.5q-8 0 -14 -6.5t-9 -6.5q-5 0 -5 4q0 1 1 2t1 3q0 5 -5 5t-5 -7q0 -12 15 -12q9 0 14.5 6.5t10.5 6.5q3 -7 12 -7q4 0 4 3zM203 519l-1 3
q-3 0 -4 1q-5 2 -6 7l-7 35q-2 5 3 7q1 1 4 1l-1 3h-27q-20 0 -20 -15q0 -13 19 -15l-9 -16q-3 -5 -9 -7q-2 -1 -5 -1l1 -3h19l12 23q2 3 5 3l3 -15q2 -5 -3 -7q-1 -1 -4 -1l1 -3h29zM498 519l-1 3q-3 0 -4 1q-5 2 -6 7l-7 35q-2 5 3 7q1 1 4 1l-1 3h-45v-10v-7h4q-1 2 1 6
q1 7 12 7h4q4 0 6 -6l3 -16h-4q-5 0 -9 4q-1 1 -3 5h-3l5 -23h3q0 3 1 5q1 6 7 6h4l3 -17q2 -5 -3 -7q-1 -1 -4 -1l1 -3h29zM821 519l-1 3q-3 0 -4 1q-5 2 -6 7l-7 35q-2 5 3 7q1 1 4 1l-1 3h-28l1 -3q3 0 4 -1q3 -1 5 -7l3 -15h-24l-3 15q-2 5 3 7q1 1 4 1l-1 3h-29l1 -3
q3 0 4 -1q4 -1 6 -7l7 -35q2 -5 -3 -7q-1 -1 -4 -1l1 -3h29l-1 3q-3 0 -4 1q-5 2 -6 7l-3 16h24l3 -16q2 -5 -3 -7q-1 -1 -4 -1l1 -3h29zM295 537q0 12 -14 17q5 3 5 9q0 15 -21 15q-13 0 -13 -11q0 -6 5 -6q4 0 4 3q0 2 -1.5 3.5t-1.5 2.5q0 5 7 5q10 0 10 -12q0 -4 -2 -6
q-16 1 -16 -6q0 -6 8 -6q6 0 11 5q6 -4 6 -15q0 -14 -12 -14t-12 9q0 3 3 3l1 -1q2 -1 4 -1q4 0 4 5t-7 5q-9 0 -9 -10q0 -13 16 -13q25 0 25 19zM589 537q0 12 -14 17q5 3 5 9q0 15 -21 15q-13 0 -13 -11q0 -6 5 -6q4 0 4 3q0 2 -1.5 3.5t-1.5 2.5q0 5 7 5q10 0 10 -12
q0 -4 -2 -6q-16 1 -16 -6q0 -6 8 -6q6 0 11 5q6 -4 6 -15q0 -14 -12 -14t-12 9q0 3 3 3l1 -1q2 -1 4 -1q4 0 4 5t-7 5q-9 0 -9 -10q0 -13 16 -13q25 0 25 19zM696 540q0 15 -11.5 26.5t-25.5 11.5q-8 0 -15.5 -5.5t-7.5 -16.5q0 -16 11 -27t26 -11q8 0 15.5 5.5t7.5 16.5z
M827 618v6h-685v-6h685zM439 662v2q-1 -2 -3 0q-2 0 -2 5v21q0 3 2 5h3v2h-29l-2 -10l2 -1q0 2 2 4q1 4 7 4h4q4 0 4 -3v-10h-4q-3 0 -5 2q-1 1 -1 3h-2v-13h2q0 2 1 3q3 3 5 3h4v-11q0 -3 -4 -3h-4q-4 0 -8 4q-2 2 -2 5l-2 -1l2 -11h30zM504 662v2q-2 -2 -3 0q-3 0 -3 5v21
q0 4 3 5h3v2h-18v-1v-1h2q3 -3 3 -5v-9h-17v9q0 3 2 5h3v1v1h-17v-2h2q3 -3 3 -5v-21q0 -1 -3 -4q-1 -1 -2 -1v-2h17v2q-2 0 -3 1q-2 2 -2 4v10h17v-10q0 -5 -3 -5q-1 -1 -2 0v-2h18zM557 686h2v4q0 2 -0.5 4t-0.5 4q-1 -1 -17 -1t-18 1q0 -2 -0.5 -4t-0.5 -4v-4h2l1 2
q1 2 2 2q5 5 7 5q3 0 3 -3v-23q0 -5 -3 -5q-1 -1 -2 0v-2h17v2q-1 -2 -3 0q-2 0 -2 5v23q0 3 3 3t8 -5q2 -2 2 -4zM284 -101q0 -4 -4 -4t-4 4t4 4t4 -4zM716 -101q0 -4 -4 -4t-4 4t4 4t4 -4zM155 -71l-12 -34h-1l-11 23l-10 -23h-1l-12 34l6 1l7 -23l10 23h1l10 -23l7 22h6z
M211 -71l-12 -34h-1l-11 23l-10 -23h-1l-12 34l6 1l7 -23l10 23h1l10 -23l7 22h6zM267 -71l-12 -34h-1l-11 23l-10 -23h-1l-12 34l6 1l7 -23l10 23h1l10 -23l7 22h6zM323 -71v-5h-12v-28h-6v28h-12v5h30zM364 -71l-13 -19v-14h-6v14l-14 19l6 1l11 -15l9 14h7zM400 -82
q0 -12 -17 -12v-10h-6v33q23 4 23 -11zM447 -87q0 -18 -17 -18t-17 17q0 18 18 18q7 0 11.5 -5t4.5 -12zM491 -86v-15q-5 -4 -13 -4q-18 0 -18 17q0 18 19 18q7 0 12 -4l-2 -5q-4 4 -11 4q-12 0 -12 -13q0 -12 13 -12l6 2v7h-9v5h15zM534 -104h-7l-8 11h-5v-11h-6v33
q23 4 23 -10q0 -7 -7 -10zM576 -104h-6l-4 8h-14l-3 -8h-6l15 34h2zM612 -82q0 -12 -17 -12v-10h-6v33q23 4 23 -11zM656 -104h-6v15h-16v-15h-6v33h6v-13h16v13h6v-33zM702 -71l-13 -19v-14h-6v14l-14 19l6 1l11 -15l9 14h7zM758 -96l-1 -6q-3 -3 -10 -3q-18 0 -18 17
q0 18 18 18q7 0 11 -3l-2 -5q-3 3 -9 3q-12 0 -12 -12q0 -13 13 -13q5 0 10 4zM806 -87q0 -18 -17 -18t-17 17q0 18 18 18q7 0 11.5 -5t4.5 -12zM859 -104h-6l-3 20l-10 -21h-2l-10 21l-3 -20h-6l6 34h1l13 -26l13 26h1zM868 0h-767v750h767v-750z" />
    </font>
</defs>
</svg>
