<?xml version="1.0" standalone="no"?>
<!DOCTYPE svg PUBLIC "-//W3C//DTD SVG 1.1//EN" "http://www.w3.org/Graphics/SVG/1.1/DTD/svg11.dtd" >
<svg xmlns="http://www.w3.org/2000/svg" xmlns:xlink="http://www.w3.org/1999/xlink" version="1.1">
<metadata>
Created by FontForge 20170731 at Thu Jan 24 02:08:09 2013
 By Aleksey,,,
Copyright (c) 2012 by Doan BC doanbc1502@gmail.com. All rights reserved.
</metadata>
<defs>
<font id="VNF-Gotham" horiz-adv-x="1618" >
  <font-face 
    font-family="VNF-Gotham"
    font-weight="400"
    font-stretch="normal"
    units-per-em="2048"
    panose-1="2 0 5 3 0 0 0 2 0 4"
    ascent="1638"
    descent="-410"
    x-height="1059"
    cap-height="1434"
    bbox="-297 -471 2372 2219.21"
    underline-thickness="50"
    underline-position="-150"
    unicode-range="U+000D-FB02"
  />
<missing-glyph horiz-adv-x="1024" 
 />
    <glyph glyph-name=".notdef" horiz-adv-x="1024" 
 />
    <glyph glyph-name=".null" horiz-adv-x="1024" 
 />
    <glyph glyph-name=".null" horiz-adv-x="1024" 
 />
    <glyph glyph-name="nonmarkingreturn" unicode="&#xd;" horiz-adv-x="1024" 
 />
    <glyph glyph-name="_32" unicode=" " horiz-adv-x="522" 
 />
    <glyph glyph-name="exclam" unicode="!" horiz-adv-x="555" 
d="M186 1317v117h185v-117l-49 -911h-89zM184 215h189v-215h-189v215z" />
    <glyph glyph-name="quotedbl" unicode="&#x22;" horiz-adv-x="901" 
d="M596 1434h188v-11l-166 -546h-86zM195 1434h190v-11l-166 -546h-86z" />
    <glyph glyph-name="numbersign" unicode="#" horiz-adv-x="1434" 
d="M315 362h-223v142h248l76 434h-244v141h266l62 355h143l-59 -355h389l61 355h144l-60 -355h221v-141h-245l-76 -434h242v-142h-265l-63 -362h-144l62 362h-389l-64 -362h-143zM874 504l74 434h-389l-74 -434h389z" />
    <glyph glyph-name="dollar" unicode="$" horiz-adv-x="1303" 
d="M598 4q-137 12 -256 65t-227 146l92 123q92 -83 187 -132.5t210 -62.5v512q-114 27 -196 62.5t-135.5 83.5t-79 110t-25.5 142v4q0 79 31.5 146t88.5 116.5t136 79.5t174 35v118h131v-122q115 -11 208.5 -53t182.5 -111l-88 -123q-74 63 -151 98t-158 49v-504
q117 -27 200.5 -63t137 -84.5t79 -110t25.5 -139.5v-4q0 -82 -32 -150t-89.5 -118.5t-137.5 -80.5t-177 -36v-201h-131v205zM604 1296q-65 -2 -116.5 -20.5t-87.5 -49.5t-55 -71.5t-19 -87.5v-4q0 -43 12 -79t43 -66.5t85 -56t138 -46.5v481zM723 137q65 3 118 22t90 50.5
t57 73.5t20 92v4q0 45 -12.5 81.5t-45 66.5t-87.5 54.5t-140 45.5v-490z" />
    <glyph glyph-name="percent" unicode="%" horiz-adv-x="1708" 
d="M430 717q-73 0 -132.5 29.5t-102 79.5t-66 115.5t-23.5 137.5v4q0 73 23.5 139.5t67 117t103.5 80.5t134 30q72 0 131.5 -29.5t102 -79.5t65.5 -116t23 -138v-4q0 -73 -23.5 -139t-66.5 -116.5t-103 -80.5t-133 -30zM1307 1434h145l-1051 -1434h-147zM1274 -16
q-72 0 -131.5 29.5t-102 79.5t-65.5 115.5t-23 137.5v4q0 73 23.5 139.5t66.5 117t103 80.5t133 30t132.5 -29.5t101.5 -79.5t64.5 -116t22.5 -138v-4q0 -73 -23 -139t-66 -116.5t-103 -80.5t-133 -30zM434 831q42 0 76 19.5t59 53t38.5 79t13.5 96.5v4q0 54 -15 100t-41 80
t-61 53t-74 19q-42 0 -76.5 -19.5t-59 -53.5t-37.5 -79t-13 -96v-4q0 -54 15 -100t40.5 -79.5t60 -53t74.5 -19.5zM1278 98q42 0 76.5 19.5t59 53t37.5 79t13 96.5v4q0 54 -15 100t-40.5 80t-60 53t-74.5 19q-42 0 -76 -20t-59 -53.5t-38.5 -78.5t-13.5 -96v-4
q0 -54 15 -100t40.5 -79.5t60.5 -53t75 -19.5z" />
    <glyph glyph-name="ampersand" unicode="&#x26;" horiz-adv-x="1425" 
d="M1012 203q-99 -107 -214 -165t-255 -58q-97 0 -179.5 29t-143 81.5t-94.5 126.5t-34 164v4q0 143 90.5 246t255.5 168q-37 43 -64 81.5t-44.5 76.5t-26 76.5t-8.5 80.5v4q0 71 27 133t77 108t119.5 72.5t155.5 26.5q75 0 138.5 -25.5t110 -69.5t73 -102.5t26.5 -125.5v-5
q0 -68 -23.5 -124.5t-67 -102.5t-106.5 -82t-141 -63l328 -334q48 69 91 149.5t81 169.5l133 -61q-48 -102 -98 -192.5t-109 -167.5l250 -256l-123 -95zM594 850q137 46 206.5 112.5t69.5 159.5v4q0 43 -15.5 79.5t-42.5 63t-64 41.5t-80 15q-48 0 -88 -16t-68.5 -43.5
t-44.5 -65.5t-16 -82v-4q0 -32 7 -60.5t23.5 -59t44 -65.5t68.5 -79zM555 117q102 0 191 49.5t167 136.5l-383 395q-71 -26 -123 -60t-85.5 -74t-49.5 -84t-16 -89v-4q0 -58 22 -107.5t61.5 -85.5t94.5 -56.5t121 -20.5z" />
    <glyph glyph-name="quotesingle" unicode="'" horiz-adv-x="502" 
d="M195 1434h192v-11l-166 -546h-88z" />
    <glyph glyph-name="parenleft" unicode="(" horiz-adv-x="889" 
d="M707 -289q-274 154 -421 374t-147 503t147 503t421 373l67 -104q-233 -149 -354 -338t-121 -434q0 -246 121 -435t354 -337l-67 -105v0z" />
    <glyph glyph-name="parenright" unicode=")" horiz-adv-x="889" 
d="M115 -184q233 148 354 337t121 435q0 245 -121 434t-354 338l67 104q274 -153 421 -373t147 -503t-147 -503t-421 -374z" />
    <glyph glyph-name="asterisk" unicode="*" horiz-adv-x="881" 
d="M408 1069l-211 -149l-56 96l238 108l-238 111l56 94l211 -147l-21 256h107l-21 -256l211 147l55 -94l-237 -111l237 -108l-55 -96l-211 149l21 -256h-107z" />
    <glyph glyph-name="plus" unicode="+" horiz-adv-x="1311" 
d="M580 647h-426v148h426v422h151v-422h426v-148h-426v-422h-151v422z" />
    <glyph glyph-name="comma" unicode="," horiz-adv-x="502" 
d="M94 -178q78 28 111 70t26 108h-73v215h188v-184q0 -62 -13.5 -109t-41.5 -80.5t-71 -56t-101 -35.5z" />
    <glyph glyph-name="hyphen" unicode="-" horiz-adv-x="836" 
d="M133 698h569v-166h-569v166z" />
    <glyph glyph-name="period" unicode="." horiz-adv-x="502" 
d="M158 215h188v-215h-188v215z" />
    <glyph glyph-name="slash" unicode="/" horiz-adv-x="1040" 
d="M907 1634h146l-951 -1896h-145z" />
    <glyph glyph-name="zero" unicode="0" horiz-adv-x="1464" 
d="M731 -25q-93 0 -173.5 27t-148 75t-120 116t-88.5 150t-55 175.5t-19 194.5v4q0 100 19.5 194t56.5 176.5t90 150.5t120.5 117t148.5 76t173 27t172.5 -26.5t147.5 -75t119.5 -116.5t88.5 -150t55 -175.5t19 -193.5v-4q0 -151 -43 -285.5t-122 -236t-191 -161t-250 -59.5
zM735 123q101 0 181.5 48t136.5 129t86 188t30 225v4q0 78 -14 152.5t-40.5 140.5t-65 121.5t-87 95t-107 62t-124.5 22.5q-101 0 -181.5 -48t-137 -129t-87 -188t-30.5 -225v-4q0 -118 31 -225.5t88.5 -189.5t138.5 -130.5t182 -48.5z" />
    <glyph glyph-name="one" unicode="1" horiz-adv-x="733" 
d="M367 1276l-271 -84l-39 131l351 121h118v-1444h-159v1276z" />
    <glyph glyph-name="two" unicode="2" horiz-adv-x="1227" 
d="M98 125l520 459q82 73 139.5 132.5t93 112t51.5 102t16 103.5q0 63 -23.5 114t-63 86.5t-92 55t-110.5 19.5q-62 0 -113.5 -16t-97.5 -47t-88.5 -77t-85.5 -106l-119 86q48 72 99.5 128.5t112.5 96t135 60t169 20.5q97 0 178.5 -30.5t140.5 -84.5t92 -128.5t33 -161.5v-5
q0 -78 -21 -144t-65.5 -130t-113 -132.5t-162.5 -150.5l-383 -340h760v-147h-1002v125z" />
    <glyph glyph-name="three" unicode="3" horiz-adv-x="1255" 
d="M637 -25q-90 0 -168.5 19t-145 52.5t-122 80.5t-99.5 104l117 105q83 -101 185.5 -157t234.5 -56q65 0 122 20t99.5 56t67 87.5t24.5 114.5v5q0 67 -29.5 118.5t-83 86.5t-127 53t-161.5 18h-92l-33 96l453 510h-701v146h916v-119l-451 -500q94 -8 179.5 -35t150.5 -76
t104 -121.5t39 -170.5v-4q0 -96 -37.5 -175.5t-102.5 -137t-152 -89t-187 -31.5z" />
    <glyph glyph-name="four" unicode="4" horiz-adv-x="1374" 
d="M885 340h-756l-41 117l811 987h141v-969h224v-135h-224v-340h-155v340zM885 475v739l-602 -739h602z" />
    <glyph glyph-name="five" unicode="5" horiz-adv-x="1253" 
d="M621 -25q-77 0 -148.5 17.5t-136 48t-122 72.5t-105.5 90l106 116q94 -91 196 -143.5t212 -52.5q76 0 140 24t109.5 66.5t71 100.5t25.5 126v4q0 67 -26.5 122.5t-73.5 95t-113 61.5t-144 22q-91 0 -164.5 -23.5t-136.5 -57.5l-108 71l41 699h825v-150h-684l-31 -459
q31 14 62.5 25.5t65.5 20t72 13.5t83 5q104 0 194.5 -30t157.5 -87t105.5 -138t38.5 -183v-5q0 -105 -38 -191.5t-106 -149t-162 -96.5t-206 -34z" />
    <glyph glyph-name="six" unicode="6" horiz-adv-x="1325" 
d="M682 -25q-119 0 -214 39t-163 107q-43 43 -76.5 94t-56.5 117t-35 150t-12 194v4q0 109 18 209t53 186.5t86.5 157t117.5 120.5t146.5 77.5t174.5 27.5q64 0 121 -11t108.5 -32t99.5 -51.5t95 -69.5l-94 -125q-80 68 -160 105t-178 37t-176 -46.5t-132.5 -130.5
t-83.5 -200.5t-28 -255.5q29 43 67 82.5t87.5 70t112 48.5t140.5 18q100 0 190 -31t158 -88.5t108 -139t40 -181.5v-4q0 -104 -39.5 -191.5t-108.5 -151.5t-163 -99.5t-203 -35.5zM684 119q79 0 143 25.5t109 69.5t69.5 104t24.5 128v5q0 66 -25.5 122t-72 97.5t-110.5 64.5
t-142 23q-81 0 -147 -26.5t-113 -70.5t-72.5 -100.5t-25.5 -116.5v-4q0 -68 27 -127t75 -102t114.5 -67.5t145.5 -24.5z" />
    <glyph glyph-name="seven" unicode="7" horiz-adv-x="1221" 
d="M928 1286h-789v148h973v-121l-651 -1313h-180z" />
    <glyph glyph-name="eight" unicode="8" horiz-adv-x="1290" 
d="M645 -20q-114 0 -212.5 29.5t-171 83t-114 128t-41.5 164.5v4q0 64 22 118.5t61 98.5t93 78t119 57q-50 23 -94.5 54t-78 71.5t-53 91.5t-19.5 113v4q0 83 39.5 152.5t106.5 120t156 78.5t187 28t187 -28t156.5 -78.5t107 -120t39.5 -152.5v-4q0 -62 -19.5 -113
t-53.5 -91.5t-78.5 -71.5t-94.5 -54q64 -24 118 -57.5t93.5 -77.5t61.5 -97.5t22 -117.5v-4q0 -92 -41.5 -167t-114 -128t-171 -82.5t-212.5 -29.5zM645 799q68 0 128 19t104.5 53.5t70 82.5t25.5 107v4q0 53 -25 98.5t-69 78.5t-104 52t-130 19t-130 -18.5t-104 -51.5
t-69 -78.5t-25 -99.5v-4q0 -59 25.5 -107t70 -82.5t104.5 -53.5t128 -19zM645 121q88 0 158 21.5t118 58t73.5 85.5t25.5 103v4q0 60 -29 110t-80 86.5t-119.5 56.5t-146.5 20t-146.5 -20t-119.5 -56.5t-80 -86.5t-29 -110v-4q0 -54 25.5 -103t74 -85.5t118 -58t157.5 -21.5
z" />
    <glyph glyph-name="nine" unicode="9" horiz-adv-x="1325" 
d="M604 -25q-70 0 -130.5 13.5t-114.5 37t-103 56t-94 70.5l94 124q88 -77 172 -115t180 -38q97 0 176.5 46.5t135.5 130t86 199t28 253.5q-29 -47 -68 -88.5t-89.5 -73t-112 -50t-135.5 -18.5q-111 0 -203 33t-158 92.5t-102.5 141t-36.5 178.5v4q0 102 37.5 191t106 154.5
t163.5 103.5t209 38q124 0 216 -39t161 -108q40 -41 73 -92.5t56.5 -118.5t36 -152t12.5 -192v-4q0 -171 -43.5 -313.5t-122 -245.5t-188 -160.5t-242.5 -57.5zM647 662q82 0 148 27.5t112.5 72.5t71.5 103t25 120v4q0 68 -27 127.5t-75 103.5t-115 69.5t-148 25.5
t-144.5 -27.5t-108 -74t-68 -107t-23.5 -127.5v-4q0 -68 25.5 -125.5t72 -99t111.5 -65t143 -23.5z" />
    <glyph glyph-name="colon" unicode=":" horiz-adv-x="522" 
d="M168 1059h188v-215h-188v215zM168 215h188v-215h-188v215z" />
    <glyph glyph-name="semicolon" unicode=";" horiz-adv-x="522" 
d="M168 1059h188v-215h-188v215zM104 -178q78 28 111 70t27 108h-74v215h188v-184q0 -62 -13.5 -109t-41.5 -80.5t-71 -56t-101 -35.5z" />
    <glyph glyph-name="less" unicode="&#x3c;" horiz-adv-x="1311" 
d="M147 653v135l961 478v-158l-789 -385l789 -387v-160z" />
    <glyph glyph-name="equal" unicode="=" horiz-adv-x="1311" 
d="M184 1036h942v-151h-942v151zM184 557h942v-151h-942v151z" />
    <glyph glyph-name="greater" unicode="&#x3e;" horiz-adv-x="1311" 
d="M203 334l788 385l-788 387v160l960 -478v-135l-960 -477v158z" />
    <glyph glyph-name="question" unicode="?" horiz-adv-x="1100" 
d="M420 737l10 11q201 5 304.5 81.5t103.5 206.5v4q0 55 -21 104t-59.5 85t-94 57t-124.5 21q-114 0 -204.5 -51t-168.5 -142l-105 100q44 53 94 97t109 75.5t128 48.5t151 17q103 0 187.5 -30.5t144.5 -84.5t93 -128.5t33 -161.5v-5q0 -96 -33.5 -168.5t-91.5 -123
t-135.5 -81t-165.5 -42.5l-20 -221h-104zM408 215h188v-215h-188v215z" />
    <glyph glyph-name="at" unicode="@" horiz-adv-x="2007" 
d="M1022 -332q-131 0 -249.5 32t-220 90.5t-183.5 140.5t-140 181t-89 213t-31 236t31.5 236.5t89.5 214t139.5 182t181 141t214.5 91t241 32.5q125 0 240 -30.5t214 -85t180 -129.5t138 -165.5t88.5 -192t31.5 -208.5q0 -131 -33.5 -225.5t-87.5 -156t-122.5 -91
t-138.5 -29.5q-113 0 -185.5 47.5t-101.5 124.5q-30 -35 -65 -66.5t-76.5 -55t-90.5 -37t-106 -13.5q-75 0 -142 26.5t-117 75.5t-79 118t-29 153q0 109 41.5 202.5t108.5 161.5t151.5 107t171.5 39q60 0 107.5 -14.5t84 -38.5t63 -54.5t44.5 -62.5l27 141l137 -18l-82 -465
q-8 -43 -11 -75.5t-3 -49.5q0 -78 45 -122t129 -44q54 0 106 25t92 77t64.5 131.5t24.5 188.5q0 94 -28 185.5t-80 174t-125.5 152.5t-164.5 121t-197.5 80t-223.5 29q-118 0 -224.5 -29.5t-198.5 -84t-166 -130t-126 -167.5t-80.5 -197.5t-28.5 -219.5t28 -219.5t80.5 -197
t127 -166.5t168 -128.5t203.5 -82.5t233 -29q77 0 144 9t128.5 26t120 43t117.5 61l33 -55q-119 -72 -251 -113t-292 -41zM922 272q66 0 126.5 30.5t107 82t74 118t27.5 138.5q0 56 -19 104t-52 82.5t-78.5 54t-99.5 19.5q-65 0 -125.5 -28.5t-107 -79t-75 -118.5
t-28.5 -147q0 -60 18.5 -107.5t51.5 -80.5t79 -50.5t101 -17.5z" />
    <glyph glyph-name="A" unicode="A" 
d="M733 1444h152l653 -1444h-174l-168 379h-780l-170 -379h-166zM1133 524l-326 731l-328 -731h654z" />
    <glyph glyph-name="B" unicode="B" horiz-adv-x="1479" 
d="M203 1434h610q124 0 218.5 -33.5t156.5 -93.5q45 -47 68.5 -104t23.5 -126v-4q0 -70 -19.5 -123.5t-52 -93.5t-73 -68t-82.5 -47q64 -19 120 -48t97.5 -70.5t65.5 -97.5t24 -130v-4q0 -92 -37 -165t-105.5 -123t-164.5 -76.5t-213 -26.5h-637v1434zM786 795
q73 0 134 16.5t104.5 48.5t67.5 80t24 111v4q0 53 -20.5 96t-61 73.5t-99.5 47t-136 16.5h-437v-493h424zM844 145q81 0 146.5 17.5t111 50.5t70 80.5t24.5 107.5v5q0 117 -96 181t-285 64h-453v-506h482z" />
    <glyph glyph-name="C" unicode="C" horiz-adv-x="1511" 
d="M858 -25q-103 0 -197 26t-173.5 73.5t-144 115t-110 149.5t-70 176.5t-24.5 197.5v4q0 152 54 286.5t150.5 235.5t229.5 160t291 59q97 0 176.5 -16.5t146.5 -46.5t124.5 -71.5t111.5 -92.5l-110 -119q-45 43 -94 79t-104 62.5t-117.5 41t-135.5 14.5
q-119 0 -220.5 -45.5t-176 -125t-116.5 -186.5t-42 -231v-4q0 -125 42.5 -233t117 -187.5t176 -125.5t219.5 -46q74 0 136 14t117.5 40.5t107 65t102.5 87.5l107 -105q-56 -57 -116.5 -103.5t-129.5 -79.5t-150 -51t-178 -18z" />
    <glyph glyph-name="D" unicode="D" horiz-adv-x="1602" 
d="M203 1434h497q169 0 309.5 -54.5t241 -150.5t156 -226.5t55.5 -281.5v-4q0 -152 -55.5 -282.5t-156 -227.5t-241 -152t-309.5 -55h-497v1434zM700 150q136 0 246 43t187 119t119 179t42 222v4q0 119 -42 222.5t-119 180t-187 120.5t-246 44h-335v-1134h335z" />
    <glyph glyph-name="E" unicode="E" horiz-adv-x="1372" 
d="M203 1434h1036v-148h-874v-489h782v-148h-782v-502h884v-147h-1046v1434z" />
    <glyph glyph-name="F" unicode="F" horiz-adv-x="1343" 
d="M203 1434h1030v-150h-868v-512h776v-147h-776v-625h-162v1434z" />
    <glyph glyph-name="G" unicode="G" horiz-adv-x="1606" 
d="M868 -25q-169 0 -304 57.5t-229.5 157.5t-145 234.5t-50.5 288.5v4q0 98 23.5 191t67.5 175.5t107.5 151.5t143 118.5t174.5 77t203 27.5q91 0 165.5 -12.5t138.5 -37t120.5 -60t110.5 -80.5l-105 -123q-41 36 -86 66t-97.5 52t-114.5 34t-138 12q-119 0 -219 -47
t-172.5 -127.5t-113 -187t-40.5 -226.5v-4q0 -128 39.5 -237.5t113.5 -189t178.5 -124.5t235.5 -45q61 0 120 11t112 30.5t99 45.5t83 56v357h-436v145h592v-571q-50 -45 -112 -85t-135 -70t-155.5 -47.5t-173.5 -17.5z" />
    <glyph glyph-name="H" unicode="H" horiz-adv-x="1556" 
d="M203 1434h162v-637h827v637h162v-1434h-162v645h-827v-645h-162v1434z" />
    <glyph glyph-name="I" unicode="I" horiz-adv-x="597" 
d="M218 1434h162v-1434h-162v1434z" />
    <glyph glyph-name="J" unicode="J" horiz-adv-x="1133" 
d="M506 -20q-81 0 -147.5 19t-120.5 52.5t-97.5 80t-77.5 101.5l117 101q33 -50 67.5 -88t73.5 -64t85 -39.5t102 -13.5q61 0 112 22t88.5 65t58.5 107.5t21 149.5v961h164v-959q0 -127 -34.5 -221t-96.5 -156q-60 -59 -139.5 -88.5t-175.5 -29.5z" />
    <glyph glyph-name="K" unicode="K" horiz-adv-x="1473" 
d="M203 1434h162v-856l823 856h209l-615 -627l641 -807h-202l-551 694l-305 -309v-385h-162v1434z" />
    <glyph glyph-name="L" unicode="L" horiz-adv-x="1268" 
d="M203 1434h162v-1284h806v-150h-968v1434z" />
    <glyph glyph-name="M" unicode="M" horiz-adv-x="1778" 
d="M203 1434h164l522 -783l522 783h164v-1434h-162v1161l-522 -768h-8l-523 766v-1159h-157v1434z" />
    <glyph glyph-name="N" unicode="N" 
d="M203 1434h151l903 -1149v1149h158v-1434h-129l-926 1176v-1176h-157v1434z" />
    <glyph glyph-name="O" unicode="O" horiz-adv-x="1741" 
d="M868 -25q-164 0 -298 59.5t-230 161t-148.5 235t-52.5 282.5v4q0 148 53 282.5t150 236.5t231.5 162t298.5 60q109 0 205.5 -27t178 -76t145.5 -117t109 -150t68.5 -175t23.5 -192q2 -2 0 -4q0 -99 -24 -192t-69 -175.5t-110 -151.5t-146.5 -118.5t-178.5 -77t-206 -27.5
zM872 125q123 0 226 46t178 125.5t116.5 187t41.5 229.5v4q0 122 -42.5 229.5t-117.5 188t-179 127.5t-227 47t-226 -46t-177.5 -125.5t-116 -187t-41.5 -229.5v-4q0 -122 42.5 -230t117.5 -188.5t178.5 -127t226.5 -46.5z" />
    <glyph glyph-name="P" unicode="P" horiz-adv-x="1368" 
d="M203 1434h536q121 0 220.5 -31.5t169.5 -90t108.5 -143t38.5 -190.5v-4q0 -116 -45 -203.5t-122 -146.5t-179.5 -89t-216.5 -30h-348v-506h-162v1434zM719 653q89 0 161.5 23t124 64.5t79.5 99.5t28 129v4q0 77 -27.5 135t-78 97t-121.5 59t-158 20h-362v-631h354z" />
    <glyph glyph-name="Q" unicode="Q" horiz-adv-x="1741" 
d="M1321 129q-91 -72 -204.5 -113t-248.5 -41q-164 0 -298 59.5t-230 161t-148.5 235t-52.5 282.5v4q0 148 53 282.5t150 236.5t231.5 162t298.5 60q109 0 205.5 -27t178 -76t145.5 -117t109 -150t68.5 -175t23.5 -192q2 -2 0 -4q0 -136 -44.5 -259t-127.5 -222l190 -158
l-111 -121zM872 125q96 0 180 28.5t150 79.5l-266 228l108 121l265 -240q58 75 91.5 169.5t33.5 201.5v4q0 122 -42.5 229.5t-117.5 188t-179 127.5t-227 47t-226 -46t-177.5 -125.5t-116 -187t-41.5 -229.5v-4q0 -122 42.5 -230t117.5 -188.5t178.5 -127t226.5 -46.5z" />
    <glyph glyph-name="R" unicode="R" horiz-adv-x="1481" 
d="M203 1434h616q133 0 236.5 -38t171.5 -106q52 -52 81 -124.5t29 -157.5v-4q0 -89 -29 -160t-81 -123t-123 -86t-156 -49l441 -586h-199l-416 557h-4h-405v-557h-162v1434zM805 702q81 0 148.5 20t116.5 58.5t76.5 93t27.5 123.5v4q0 66 -25 118.5t-72 89t-115 56
t-155 19.5h-442v-582h440z" />
    <glyph glyph-name="S" unicode="S" horiz-adv-x="1311" 
d="M694 -20q-170 0 -313 56.5t-272 172.5l100 119q56 -51 112 -89t115.5 -63.5t124.5 -38t139 -12.5q72 0 131 18t101 50.5t65 77.5t23 98v4q0 50 -16 90t-57.5 72.5t-114 59t-185.5 50.5q-124 27 -214.5 62t-150 83.5t-88 114t-28.5 154.5v4q0 84 35.5 156t98 124t149 81.5
t188.5 29.5q78 0 146 -11t129.5 -33t117.5 -55t111 -77l-94 -125q-101 82 -202 119t-212 37q-70 0 -126.5 -18t-96 -49.5t-61 -74t-21.5 -90.5v-4q0 -51 16.5 -91t59.5 -73.5t118.5 -61t194.5 -52.5q120 -26 207.5 -62t145.5 -85t86 -113t28 -146v-4q0 -92 -36.5 -167
t-101.5 -128t-155 -81.5t-197 -28.5z" />
    <glyph glyph-name="T" unicode="T" horiz-adv-x="1327" 
d="M582 1284h-482v150h1127v-150h-482v-1284h-163v1284z" />
    <glyph glyph-name="U" unicode="U" horiz-adv-x="1554" 
d="M776 -23q-133 0 -242.5 40.5t-188 119t-122 195t-43.5 268.5v834h162v-824q0 -116 30 -206t86.5 -151.5t137.5 -93.5t184 -32q99 0 179 30t136 89t86.5 148t30.5 206v834h162v-822q0 -156 -43 -275t-121.5 -199t-188.5 -120.5t-245 -40.5z" />
    <glyph glyph-name="V" unicode="V" horiz-adv-x="1536" 
d="M80 1434h180l510 -1235l512 1235h174l-616 -1444h-144z" />
    <glyph glyph-name="W" unicode="W" horiz-adv-x="2267" 
d="M92 1434h176l410 -1194l393 1198h133l393 -1198l410 1194h170l-512 -1444h-137l-393 1163l-396 -1163h-135z" />
    <glyph glyph-name="X" unicode="X" horiz-adv-x="1485" 
d="M645 731l-530 703h190l440 -586l437 586h188l-530 -701l551 -733h-193l-459 616l-458 -616h-187z" />
    <glyph glyph-name="Y" unicode="Y" horiz-adv-x="1466" 
d="M651 567l-596 867h197l483 -717l488 717h188l-596 -865v-569h-164v567z" />
    <glyph glyph-name="Z" unicode="Z" horiz-adv-x="1419" 
d="M137 109l928 1179h-897v146h1118v-109l-930 -1180h930v-145h-1149v109z" />
    <glyph glyph-name="bracketleft" unicode="[" horiz-adv-x="899" 
d="M193 1434h585v-123h-436v-1454h436v-123h-585v1700z" />
    <glyph glyph-name="backslash" unicode="\" horiz-adv-x="1040" 
d="M-12 1634h145l950 -1896h-145z" />
    <glyph glyph-name="bracketright" unicode="]" horiz-adv-x="899" 
d="M121 -143h438v1454h-438v123h586v-1700h-586v123z" />
    <glyph glyph-name="asciicircum" unicode="^" horiz-adv-x="1024" 
d="M451 1438h122l318 -428h-139l-242 315l-242 -315h-135z" />
    <glyph glyph-name="underscore" unicode="_" horiz-adv-x="1229" 
d="M-4 -199h1237v-129h-1237v129z" />
    <glyph glyph-name="grave" unicode="`" horiz-adv-x="1024" 
d="M295 1440l164 76l194 -297h-127z" />
    <glyph glyph-name="a" unicode="a" horiz-adv-x="1186" 
d="M492 -23q-75 0 -146 21t-126.5 62.5t-89.5 103.5t-34 143v4q0 85 33 150t93 108.5t143 65.5t184 22q51 0 94.5 -3t82.5 -9t75 -14.5t71 -18.5v33q0 143 -81.5 215t-231.5 72q-94 0 -170.5 -21t-150.5 -55l-48 129q44 20 88 36.5t90.5 28.5t97.5 18.5t109 6.5
q113 0 199.5 -30t143.5 -87q110 -110 110 -311v-647h-156v158q-27 -36 -64 -68.5t-84 -57.5t-104.5 -40t-127.5 -15zM522 104q73 0 137 21t112 58.5t75.5 90t27.5 115.5v98q-58 17 -135 31t-174 14q-74 0 -131 -15.5t-97 -43.5t-60.5 -67t-20.5 -87v-4q0 -50 21.5 -89
t58 -66t84.5 -41.5t102 -14.5z" />
    <glyph glyph-name="b" unicode="b" horiz-adv-x="1360" 
d="M739 -23q-74 0 -134.5 18.5t-110.5 50t-89.5 72t-70.5 85.5v-203h-158v1495h158v-649q32 48 72 90.5t90 74.5t110 51t133 19q95 0 186 -36.5t162 -107t114.5 -172.5t43.5 -233v-4q0 -130 -43 -232t-114 -173t-162 -108.5t-187 -37.5zM711 119q76 0 144 27.5t118.5 80
t80 128t29.5 171.5v4q0 94 -30 169.5t-81 129t-118.5 82.5t-142.5 29q-74 0 -143 -29.5t-122.5 -83.5t-85.5 -129t-32 -166v-4q0 -92 32 -167.5t85.5 -129t122.5 -83t143 -29.5z" />
    <glyph glyph-name="c" unicode="c" horiz-adv-x="1169" 
d="M653 -25q-116 0 -215 44t-172 119t-114 175t-41 211v4q0 112 41 212.5t114 176t172 120t215 44.5q75 0 137 -15t113.5 -40.5t94 -59.5t79.5 -73l-104 -111q-32 33 -66 62t-73 51t-84 34.5t-99 12.5q-81 0 -150 -32t-120 -87.5t-80 -130.5t-29 -160v-4q0 -86 29.5 -161
t82 -130.5t124 -87.5t154.5 -32q51 0 96 12t85 33t75 49.5t67 62.5l100 -94q-40 -45 -84.5 -82.5t-97 -64.5t-114 -42.5t-136.5 -15.5z" />
    <glyph glyph-name="d" unicode="d" horiz-adv-x="1360" 
d="M621 -23q-95 0 -186 37t-162 107t-114.5 172t-43.5 233v4q0 130 43.5 232.5t114.5 173t162 108t186 37.5q73 0 134 -18.5t111 -49.5t89.5 -71.5t70.5 -85.5v639h158v-1495h-158v213q-32 -48 -72 -90.5t-90 -75t-110 -51.5t-133 -19zM649 119q74 0 143 29.5t122.5 83.5
t85.5 129.5t32 166.5v4q0 91 -32 166.5t-85.5 129t-122.5 83t-143 29.5q-77 0 -145 -28t-118.5 -80.5t-80 -128t-29.5 -171.5v-4q0 -93 30 -169t81.5 -129t119 -82t142.5 -29z" />
    <glyph glyph-name="e" unicode="e" horiz-adv-x="1212" 
d="M270 465q9 -84 42 -149.5t83.5 -110.5t114 -68.5t133.5 -23.5q109 0 189 40.5t145 108.5l98 -88q-40 -45 -84.5 -81.5t-97.5 -62.5t-116 -40.5t-138 -14.5q-109 0 -205 40t-168 113t-113.5 175t-41.5 225q0 115 38 216t106 176t160.5 118t202.5 43q118 0 210 -44
t155 -120t96 -178t33 -219v-24t-2 -31h-840zM952 592q-7 72 -31 136.5t-66 113.5t-102.5 77.5t-138.5 28.5q-68 0 -127 -27t-104.5 -74.5t-74.5 -112.5t-38 -142h682z" />
    <glyph glyph-name="f" unicode="f" horiz-adv-x="752" 
d="M236 920h-146v137h146v92q0 182 92 272q40 41 97.5 61.5t129.5 20.5q56 0 96 -6t78 -20v-138q-43 13 -78 20t-76 7q-184 0 -184 -225v-86h336v-135h-334v-920h-157v920z" />
    <glyph glyph-name="g" unicode="g" horiz-adv-x="1360" 
d="M645 -332q-133 0 -254 36.5t-227 111.5l72 123q91 -67 192 -101.5t215 -34.5q88 0 159 24t121 71.5t77.5 118t27.5 163.5v125q-35 -46 -76.5 -86.5t-92.5 -71t-112.5 -48t-134.5 -17.5q-95 0 -184.5 34.5t-159 99t-111.5 156t-42 206.5v4q0 116 42 208.5t112 157t159 99
t184 34.5q75 0 136.5 -17t112.5 -46.5t92 -68t73 -81.5v191h158v-875q0 -124 -35 -216.5t-100 -157.5q-72 -72 -174.5 -107t-229.5 -35zM643 221q75 0 145.5 26t124.5 73.5t86.5 113.5t32.5 146v4q0 81 -32.5 147.5t-86.5 113t-124.5 72t-145.5 25.5t-142 -25t-117 -71.5
t-79 -112.5t-29 -147v-4q0 -80 29.5 -146.5t80 -114t117 -74t140.5 -26.5z" />
    <glyph glyph-name="h" unicode="h" horiz-adv-x="1262" 
d="M176 1495h158v-621q26 43 60 81t78.5 66t100 44t123.5 16q96 0 171.5 -31t127.5 -86.5t79.5 -134t27.5 -172.5v-657h-158v618q0 74 -19.5 133t-57 100.5t-92 64t-124.5 22.5q-68 0 -126 -24t-100.5 -67.5t-66.5 -104.5t-24 -136v-606h-158v1495z" />
    <glyph glyph-name="i" unicode="i" horiz-adv-x="539" 
d="M180 1464h180v-174h-180v174zM190 1059h158v-1059h-158v1059z" />
    <glyph glyph-name="j" unicode="j" horiz-adv-x="539" 
d="M180 1464h180v-174h-180v174zM90 -334q-28 0 -50 2t-48 8v129q18 -3 39.5 -4.5t38.5 -1.5q53 0 86.5 34t33.5 108v1118h158v-1120q0 -140 -69 -206.5t-189 -66.5z" />
    <glyph glyph-name="k" unicode="k" horiz-adv-x="1165" 
d="M176 1495h158v-1032l571 596h197l-445 -455l459 -604h-188l-379 494l-215 -218v-276h-158v1495z" />
    <glyph glyph-name="l" unicode="l" horiz-adv-x="539" 
d="M190 1495h158v-1495h-158v1495z" />
    <glyph glyph-name="m" unicode="m" horiz-adv-x="1948" 
d="M176 1059h158v-178q26 39 57.5 75t72.5 64t93 44.5t119 16.5q64 0 117.5 -16t95.5 -44.5t73.5 -67t53.5 -83.5q28 44 64 82.5t81.5 67t102 45t125.5 16.5q91 0 164 -29.5t124 -85t78 -134t27 -177.5v-655h-158v618q0 155 -72 237.5t-202 82.5q-60 0 -113.5 -22t-93 -64
t-63 -103t-23.5 -139v-610h-156v623q0 74 -19 132.5t-54 99t-85.5 62t-113.5 21.5t-117 -25t-93.5 -69t-62 -105.5t-22.5 -134.5v-604h-158v1059z" />
    <glyph glyph-name="n" unicode="n" horiz-adv-x="1262" 
d="M176 1059h158v-185q26 43 60 81t78.5 66t100 44t123.5 16q96 0 171.5 -31t127.5 -86.5t79.5 -134t27.5 -172.5v-657h-158v618q0 74 -19.5 133t-57 100.5t-92 64t-124.5 22.5q-68 0 -126 -24t-100.5 -67.5t-66.5 -104.5t-24 -136v-606h-158v1059z" />
    <glyph glyph-name="o" unicode="o" horiz-adv-x="1323" 
d="M659 -25q-119 0 -219.5 43.5t-173.5 118.5t-114 175t-41 212v4q0 112 41.5 212.5t115 176t175 120t221.5 44.5q119 0 219.5 -43.5t174 -118.5t115 -175t41.5 -212v-4q0 -112 -41.5 -212.5t-116 -176t-176 -120t-221.5 -44.5zM664 117q86 0 157.5 32t123 87.5t80 129.5
t28.5 158v4q0 85 -30 160.5t-83 132t-125 89t-156 32.5q-86 0 -157 -32.5t-122 -88.5t-79.5 -130.5t-28.5 -158.5v-4q0 -85 29.5 -160t82 -130.5t124.5 -88t156 -32.5z" />
    <glyph glyph-name="p" unicode="p" horiz-adv-x="1360" 
d="M176 1059h158v-213q32 48 72 90.5t90 74.5t110 51t133 19q95 0 186 -36.5t162 -107t114.5 -172.5t43.5 -233v-4q0 -130 -43 -232t-114 -173t-162 -108.5t-187 -37.5q-74 0 -134.5 18.5t-110.5 50t-89.5 72t-70.5 85.5v-531h-158v1387zM711 119q76 0 144 27.5t118.5 80
t80 128t29.5 171.5v4q0 94 -30 169.5t-81 129t-118.5 82.5t-142.5 29q-74 0 -143 -29.5t-122.5 -83.5t-85.5 -129t-32 -166v-4q0 -92 32 -167.5t85.5 -129t122.5 -83t143 -29.5z" />
    <glyph glyph-name="q" unicode="q" horiz-adv-x="1360" 
d="M1026 213q-32 -48 -72 -90.5t-90 -75t-110 -51.5t-133 -19q-95 0 -186 37t-162 107t-114.5 172t-43.5 233v4q0 130 43.5 232.5t114.5 173t162 108t186 37.5q73 0 134 -18.5t111 -49.5t89.5 -71.5t70.5 -85.5v203h158v-1387h-158v541zM649 119q74 0 143 29.5t122.5 83.5
t85.5 129.5t32 166.5v4q0 91 -32 166.5t-85.5 129t-122.5 83t-143 29.5q-77 0 -145 -28t-118.5 -80.5t-80 -128t-29.5 -171.5v-4q0 -93 30 -169t81.5 -129t119 -82t142.5 -29z" />
    <glyph glyph-name="r" unicode="r" horiz-adv-x="829" 
d="M176 1059h158v-277q29 66 72 121.5t98 95t121 60.5t141 18v-170h-12q-87 0 -163.5 -31t-133.5 -92t-90 -151.5t-33 -210.5v-422h-158v1059z" />
    <glyph glyph-name="s" unicode="s" horiz-adv-x="1020" 
d="M526 -20q-57 0 -115.5 10.5t-115.5 31t-109.5 49t-97.5 64.5l80 113q87 -65 180 -100t187 -35q48 0 88 12t69 33.5t45.5 52.5t16.5 70v4q0 40 -21.5 68.5t-58.5 49.5t-85 37t-100 31q-62 18 -124.5 39.5t-112.5 54.5t-81.5 82.5t-31.5 122.5v4q0 68 27 124t75 95.5
t114.5 61.5t144.5 22q48 0 98.5 -8t99.5 -23t95.5 -36.5t87.5 -48.5l-72 -119q-74 48 -155 75t-158 27q-47 0 -85 -11.5t-64.5 -32t-41 -48.5t-14.5 -61v-5q0 -38 22.5 -65t60.5 -47.5t87 -37t102 -32.5q61 -18 122 -41t109.5 -57.5t78.5 -83.5t30 -121v-4q0 -75 -29 -134
t-80 -99.5t-120 -62t-148 -21.5z" />
    <glyph glyph-name="t" unicode="t" horiz-adv-x="827" 
d="M530 -18q-64 0 -118.5 16.5t-94.5 52.5t-63 92.5t-23 137.5v639h-147v139h147v319h158v-319h336v-139h-336v-619q0 -48 13 -81.5t36.5 -54.5t56 -30.5t72.5 -9.5q41 0 76.5 8.5t77.5 28.5v-135q-42 -22 -88 -33.5t-103 -11.5z" />
    <glyph glyph-name="u" unicode="u" horiz-adv-x="1262" 
d="M565 -23q-96 0 -171.5 31t-127 87t-79 134t-27.5 172v658h157v-619q0 -74 19.5 -133t57 -100t92 -63.5t124.5 -22.5q68 0 126 24t101 67.5t67 104.5t24 136v606h155v-1059h-155v184q-27 -43 -61.5 -80.5t-78.5 -65.5t-99 -44.5t-124 -16.5z" />
    <glyph glyph-name="v" unicode="v" horiz-adv-x="1202" 
d="M72 1059h174l356 -879l359 879h169l-460 -1067h-140z" />
    <glyph glyph-name="w" unicode="w" horiz-adv-x="1763" 
d="M86 1059h168l278 -850l285 854h131l287 -854l278 850h164l-372 -1067h-138l-284 835l-287 -835h-139z" />
    <glyph glyph-name="x" unicode="x" horiz-adv-x="1176" 
d="M496 539l-400 520h180l314 -410l313 410h176l-401 -516l418 -543h-183l-327 432l-330 -432h-176z" />
    <glyph glyph-name="y" unicode="y" horiz-adv-x="1210" 
d="M340 -334q-66 0 -119 13.5t-106 39.5l53 125q38 -20 76.5 -29.5t89.5 -9.5q35 0 64.5 10t55.5 33.5t49.5 61.5t47.5 94l-481 1055h174l385 -883l340 883h168l-445 -1094q-34 -82 -70.5 -139t-79 -92.5t-92.5 -51.5t-110 -16z" />
    <glyph glyph-name="z" unicode="z" horiz-adv-x="1139" 
d="M115 100l702 826h-678v133h893v-101l-704 -825h704v-133h-917v100z" />
    <glyph glyph-name="braceleft" unicode="{" horiz-adv-x="989" 
d="M852 -289q-138 25 -225 63t-135.5 89.5t-66 116.5t-17.5 145q0 12 0.5 32.5t0.5 44t0.5 45t0.5 34.5q0 60 -12 105.5t-40 76.5t-74.5 47t-115.5 16h-53v123h53q69 0 115.5 16t74.5 47t40 77t12 106q0 13 -0.5 34.5t-0.5 45t-0.5 44t-0.5 32.5q0 80 17.5 145t66 116
t135.5 89t225 63l25 -104q-108 -28 -171.5 -57t-96.5 -66.5t-42.5 -87.5t-9.5 -119q0 -15 0.5 -35t0.5 -41t0.5 -41t0.5 -36q0 -65 -15 -112t-42.5 -81.5t-67 -57.5t-88.5 -38q51 -17 91 -40t67 -57t41 -81t14 -111q0 -16 -0.5 -36.5t-0.5 -41.5t-0.5 -41t-0.5 -35
q0 -69 9.5 -119t42.5 -87.5t96.5 -66.5t171.5 -56l-25 -105v0z" />
    <glyph glyph-name="bar" unicode="|" horiz-adv-x="621" 
d="M244 1634h133v-1896h-133v1896z" />
    <glyph glyph-name="braceright" unicode="}" horiz-adv-x="989" 
d="M111 -184q108 27 171.5 56t97 66.5t43 87.5t9.5 119q0 15 -0.5 35t-0.5 41t-0.5 41.5t-0.5 36.5q0 64 15 111.5t42.5 82t67 57.5t88.5 38q-51 17 -91 40t-67 57t-41 80.5t-14 111.5q0 16 0.5 36t0.5 41t0.5 41t0.5 35q0 69 -9.5 119t-43 87.5t-97 66.5t-171.5 57l26 104
q138 -25 225 -63t136 -89t66.5 -116t17.5 -145q0 -12 -0.5 -32.5t-0.5 -44t-0.5 -45t-0.5 -34.5q0 -60 11.5 -106t39.5 -77t74 -47t114 -16h53v-123h-53q-68 0 -114 -16t-74 -47t-39.5 -76.5t-11.5 -105.5q0 -13 0.5 -34.5t0.5 -45t0.5 -44t0.5 -32.5q0 -80 -17.5 -145
t-66.5 -116.5t-136 -89.5t-225 -63z" />
    <glyph glyph-name="asciitilde" unicode="~" horiz-adv-x="969" 
d="M150 512q15 58 33.5 99.5t42 67.5t52.5 38t66 12q34 0 71 -13t73 -29t69.5 -29t60.5 -13q40 0 62 23t45 80l94 -27q-15 -59 -33.5 -100t-41.5 -67t-51.5 -38t-65.5 -12q-35 0 -72 13t-73.5 29t-70 29t-59.5 13q-20 0 -35 -5.5t-27 -17.5t-22.5 -32t-21.5 -48z" />
    <glyph glyph-name="nonbreakingspace" unicode="&#xa0;" horiz-adv-x="614" 
 />
    <glyph glyph-name="exclamdown" unicode="&#xa1;" horiz-adv-x="555" 
d="M184 1434h189v-215h-189v215zM186 117l47 911h89l49 -911v-117h-185v117z" />
    <glyph glyph-name="cent" unicode="&#xa2;" horiz-adv-x="1190" 
d="M479 205q-80 28 -146 79.5t-113.5 119t-74 149t-26.5 170.5v4q0 112 41.5 212.5t114.5 176t172 120t215 44.5h26l31 166h133l-37 -184q86 -23 151.5 -69.5t118.5 -102.5l-102 -107q-43 45 -92 82t-109 55l-157 -803q11 -2 21.5 -2h21.5q51 0 96 12t85.5 33t76 50t67.5 63
l99 -92q-40 -45 -85 -83t-97.5 -65.5t-114.5 -43t-136 -15.5h-27.5t-27.5 2l-37 -188h-133zM666 1139h-9q-80 0 -149 -32t-120 -87t-80 -129.5t-29 -159.5v-4q0 -65 17 -123.5t47.5 -107.5t73.5 -87.5t95 -62.5z" />
    <glyph glyph-name="sterling" unicode="&#xa3;" horiz-adv-x="1319" 
d="M137 94l172 43v467h-172v141h172v222q0 114 33 207.5t96 156.5q59 59 140.5 91t183.5 32q81 0 146.5 -17t118 -46.5t95 -70t78.5 -87.5l-125 -98q-30 37 -62 68.5t-69.5 54t-82.5 35t-101 12.5q-63 0 -113 -19.5t-88 -56.5q-43 -45 -65.5 -111t-22.5 -151v-222h571v-141
h-571v-461h727v-143h-1061v94z" />
    <glyph glyph-name="currency" unicode="&#xa4;" horiz-adv-x="1475" 
d="M881 -25q-109 0 -203 37t-169 104.5t-128 161t-80 207.5h-186v129h166q-4 25 -4.5 49t-0.5 50v4q0 31 2 62t7 57h-170v127h192q29 107 82 198t126 157t162.5 103t192.5 37q91 0 164 -21t133 -58.5t108 -89t89 -111.5l-123 -88q-38 54 -77.5 95.5t-84 70t-97.5 43
t-118 14.5q-68 0 -129 -25.5t-111 -72t-88.5 -111t-62.5 -141.5h526v-127h-553q-5 -25 -6.5 -55.5t-1.5 -59.5v-4q0 -28 1 -53t3 -50h557v-129h-530q23 -82 62.5 -149t93 -115t120 -74t142.5 -26q61 0 111.5 16.5t94.5 47.5t82.5 74t75.5 97l117 -82q-42 -64 -91 -118.5
t-108 -94.5t-130 -63t-158 -23z" />
    <glyph glyph-name="yen" unicode="&#xa5;" horiz-adv-x="1405" 
d="M625 238h-420v127h420v180h-420v127h370l-520 762h193l457 -701l460 701h185l-523 -762h373v-127h-420v-180h420v-127h-420v-238h-155v238z" />
    <glyph glyph-name="brokenbar" unicode="&#xa6;" horiz-adv-x="672" 
d="M272 893v717h105v-717h-105zM272 -152v717h105v-717h-105z" />
    <glyph glyph-name="section" unicode="&#xa7;" horiz-adv-x="1294" 
d="M672 -20q-144 0 -263.5 53t-205.5 141l102 98q71 -69 164.5 -113t206.5 -44q107 0 159 39t52 96v4q0 28 -17 53t-56 47.5t-103 44t-158 43.5q-117 28 -198 57.5t-131.5 64t-73.5 76t-23 93.5v4q0 47 20 85.5t55.5 68t85 50t109.5 30.5q-69 35 -110 88t-41 119v4
q0 61 26.5 111.5t75.5 86t119 55t156 19.5q71 0 137 -14t125.5 -39.5t111.5 -61.5t95 -79l-103 -99q-71 69 -164.5 113.5t-206.5 44.5q-54 0 -93.5 -10t-65.5 -28t-38.5 -43t-12.5 -54v-4q0 -29 16 -53t54.5 -46.5t102.5 -44.5t160 -45q117 -27 198 -56t132 -63.5
t73.5 -76.5t22.5 -95v-4q0 -46 -19.5 -84.5t-55.5 -68.5t-85.5 -50t-109.5 -30q69 -34 110.5 -87.5t41.5 -119.5v-4q0 -62 -26.5 -112t-76 -85.5t-119 -55t-155.5 -19.5zM793 539q50 0 91 11.5t70.5 30.5t45.5 44.5t16 54.5v4q0 25 -14 48.5t-47.5 45.5t-89.5 42.5
t-140 41.5q-75 19 -129 26t-94 7q-50 0 -91 -11.5t-70.5 -31t-45.5 -45t-16 -53.5v-4q0 -26 13.5 -49t47 -45t89.5 -43t140 -42q75 -18 129 -25t95 -7z" />
    <glyph glyph-name="dieresis" unicode="&#xa8;" horiz-adv-x="1024" 
d="M600 1413h184v-194h-184v194zM240 1413h184v-194h-184v194z" />
    <glyph glyph-name="copyright" unicode="&#xa9;" horiz-adv-x="1700" 
d="M848 -25q-104 0 -199 26.5t-177.5 75t-149 116t-114 149.5t-73.5 176t-26 195v4q0 101 26 195t74 176.5t115.5 150.5t150 116.5t178 75.5t199.5 27t199 -26.5t177.5 -75t149 -116t114 -149.5t73.5 -175.5t26 -194.5v-4q0 -101 -26 -195t-74 -176.5t-115.5 -151t-150 -117
t-178 -75.5t-199.5 -27zM848 39q96 0 183.5 24.5t162.5 69t136 106.5t104 137.5t66.5 161.5t23.5 179v4q0 139 -51 262t-141 214.5t-213 144.5t-267 53t-268 -54t-214.5 -146.5t-142 -215.5t-51.5 -262v-4q0 -139 51 -262t141 -214.5t213 -144.5t267 -53zM858 334
q-81 0 -151 31t-121 84t-80 124t-29 152v4q0 80 29 151t80.5 124.5t122 84.5t153.5 31q51 0 93 -9t77.5 -25.5t65.5 -39t59 -49.5l-76 -82q-45 44 -99 73.5t-122 29.5q-57 0 -106 -23t-85 -62t-56.5 -91.5t-20.5 -110.5v-4q0 -59 21 -111.5t57.5 -92t85.5 -62.5t106 -23
q72 0 123.5 27.5t101.5 75.5l74 -72q-30 -31 -62 -56t-68.5 -42.5t-79 -27t-93.5 -9.5z" />
    <glyph glyph-name="ordfeminine" unicode="&#xaa;" horiz-adv-x="799" 
d="M344 836q-41 0 -80 11.5t-70 34.5t-50 57.5t-19 80.5v4q0 46 18.5 81.5t52 59.5t79.5 36.5t102 12.5q52 0 91 -6.5t73 -15.5v10q0 71 -42.5 108.5t-117.5 37.5q-48 0 -89.5 -12.5t-86.5 -32.5l-31 86q53 23 102.5 37t114.5 14q122 0 191 -66q59 -59 59 -172v-354h-100v78
q-34 -42 -83 -66t-114 -24zM119 688h532v-96h-532v96zM362 922q36 0 68.5 10t57 29t39 45.5t14.5 58.5v49q-31 9 -68.5 16t-87.5 7q-72 0 -113 -30.5t-41 -78.5v-4q0 -25 10.5 -44t28.5 -32t41.5 -19.5t50.5 -6.5z" />
    <glyph glyph-name="guillemotleft" unicode="&#xab;" horiz-adv-x="1126" 
d="M555 522v17l332 436l119 -68l-277 -375l277 -378l-119 -70zM98 522v17l332 436l121 -68l-277 -375l277 -378l-121 -70z" />
    <glyph glyph-name="logicalnot" unicode="&#xac;" horiz-adv-x="1053" 
d="M848 219v273h-739v96h835v-369h-96z" />
    <glyph glyph-name="registered" unicode="&#xae;" horiz-adv-x="1700" 
d="M848 -25q-104 0 -199 26.5t-177.5 75t-149 116t-114 149.5t-73.5 176t-26 195v4q0 101 26 195t74 176.5t115.5 150.5t150 116.5t178 75.5t199.5 27t199 -26.5t177.5 -75t149 -116t114 -149.5t73.5 -175.5t26 -194.5v-4q0 -101 -26 -195t-74 -176.5t-115.5 -151t-150 -117
t-178 -75.5t-199.5 -27zM848 39q96 0 183.5 24.5t162.5 69t136 106.5t104 137.5t66.5 161.5t23.5 179v4q0 139 -51 262t-141 214.5t-213 144.5t-267 53t-268 -54t-214.5 -146.5t-142 -215.5t-51.5 -262v-4q0 -139 51 -262t141 -214.5t213 -144.5t267 -53zM559 1118h340
q72 0 130 -21.5t95 -58.5q28 -26 45 -63.5t17 -83.5v-4q0 -46 -14.5 -83t-41 -65t-62.5 -46.5t-79 -28.5l236 -306h-140l-219 287h-4h-190v-287h-113v760zM889 745q40 0 73 9t57 26.5t37 43t13 57.5v4q0 60 -46 95.5t-128 35.5h-223v-271h217z" />
    <glyph glyph-name="macron" unicode="&#xaf;" horiz-adv-x="1024" 
d="M188 1366h648v-137h-648v137z" />
    <glyph glyph-name="degree" unicode="&#xb0;" horiz-adv-x="938" 
d="M469 819q-63 0 -121 25.5t-103 68t-71.5 99t-26.5 118.5v5q0 63 26.5 119.5t71.5 99t103 67.5t121 25t121 -25t103 -67.5t71.5 -99t26.5 -119.5v-5q0 -62 -26.5 -118.5t-71.5 -99t-103 -68t-121 -25.5zM469 926q44 0 81 17t64 45.5t42.5 65t15.5 76.5v5q0 40 -15.5 76.5
t-42.5 65t-64 45.5t-81 17t-81 -17t-64 -45.5t-42.5 -65t-15.5 -76.5v-5q0 -40 15.5 -76.5t42.5 -65t64 -45.5t81 -17z" />
    <glyph glyph-name="plusminus" unicode="&#xb1;" horiz-adv-x="1237" 
d="M627 -25q-87 0 -165.5 19.5t-146.5 54t-125 81.5t-102 103l119 103q78 -99 182.5 -156t241.5 -57q70 0 129.5 19t102.5 53.5t67 83.5t24 110v4q0 61 -26 109t-75 81.5t-120 51.5t-162 18h-147v140h151q74 0 136.5 18t107.5 52.5t70.5 83t25.5 110.5v4q0 54 -21.5 99.5
t-61.5 79t-97 52.5t-127 19q-119 0 -208 -53.5t-162 -151.5l-119 86q43 61 93.5 110t111 83.5t132 53.5t156.5 19q103 0 189 -29t147.5 -80t96 -121t34.5 -153v-4q0 -71 -21 -125t-56 -95t-80 -69.5t-93 -46.5q61 -20 114 -50.5t92 -72.5t61 -96.5t22 -122.5v-4
q0 -86 -35 -161.5t-99.5 -131.5t-155 -88.5t-201.5 -32.5z" />
    <glyph glyph-name="twosuperior" unicode="&#xb2;" horiz-adv-x="688" 
d="M102 584v82l344 436q25 32 36.5 62t11.5 65q0 71 -39.5 113t-110.5 42q-30 0 -57.5 -8.5t-48 -27t-33 -48t-12.5 -71.5h-91q0 52 17 95.5t48.5 75t76.5 49t100 17.5q54 0 98.5 -16.5t76.5 -47.5t49.5 -75t17.5 -98q0 -27 -4 -49.5t-12.5 -43.5t-22 -41.5t-31.5 -43.5
l-305 -385h375v-82h-484z" />
    <glyph glyph-name="threesuperior" unicode="&#xb3;" horiz-adv-x="721" 
d="M618 823q0 -60 -20 -107t-54.5 -78.5t-81 -48t-100.5 -16.5q-52 0 -98 14t-81.5 43t-56.5 73t-24 104h93q2 -41 17 -70t38 -47t52 -26.5t60 -8.5q36 0 66 11.5t52.5 33t35 52.5t12.5 71q0 79 -41 122.5t-131 43.5h-16v80h16q81 0 118.5 41.5t37.5 116.5q0 39 -12 68.5
t-32.5 49t-48.5 29.5t-59 10q-69 0 -109 -38.5t-46 -104.5h-90q4 53 24 94.5t52.5 70.5t75.5 44.5t93 15.5q54 0 98.5 -17t76.5 -48t49.5 -74.5t17.5 -97.5q0 -69 -29 -119t-88 -76q133 -50 133 -211z" />
    <glyph glyph-name="acute" unicode="&#xb4;" horiz-adv-x="1024" 
d="M565 1516l164 -76l-231 -221h-127z" />
    <glyph glyph-name="mu" unicode="&#xb5;" horiz-adv-x="1741" 
d="M1182 45q-69 -34 -147.5 -52t-166.5 -18q-164 0 -298 59.5t-230 161t-148.5 235t-52.5 282.5v4q0 148 53 282.5t150 236.5t231.5 162t298.5 60q109 0 205.5 -27t178 -76t145.5 -117t109 -150t68.5 -175t23.5 -192q2 -2 0 -4q0 -84 -18 -165.5t-51.5 -155.5t-83 -138.5
t-112.5 -116.5l353 -336v-12h-238zM872 125q123 0 226 46t178 125.5t116.5 187t41.5 229.5v4q0 122 -42.5 229.5t-117.5 188t-179 127.5t-227 47t-226 -46t-177.5 -125.5t-116 -187t-41.5 -229.5v-4q0 -122 42.5 -230t117.5 -188.5t178.5 -127t226.5 -46.5z" />
    <glyph glyph-name="paragraph" unicode="&#xb6;" horiz-adv-x="1044" 
d="M692 541h-22q-122 0 -226.5 29t-181 85.5t-120.5 139t-44 190.5v4q0 105 40 187.5t111.5 139.5t171 87.5t218.5 30.5h217v-1434h-164v541z" />
    <glyph glyph-name="periodcentered" unicode="&#xb7;" horiz-adv-x="502" 
d="M158 723h188v-215h-188v215z" />
    <glyph glyph-name="cedilla" unicode="&#xb8;" horiz-adv-x="1024" 
d="M307 -248l185 268h124l-155 -337z" />
    <glyph glyph-name="onesuperior" unicode="&#xb9;" horiz-adv-x="510" 
d="M256 584v774l-164 -146v105l164 141h90v-874h-90z" />
    <glyph glyph-name="ordmasculine" unicode="&#xba;" horiz-adv-x="799" 
d="M397 834q-65 0 -119.5 24t-94.5 65t-62.5 95.5t-22.5 116.5v4q0 62 23 117.5t63.5 97t96 66t120.5 24.5q64 0 119 -24t95 -65t62.5 -96t22.5 -116v-4q0 -62 -23 -117.5t-63.5 -97t-96 -66t-120.5 -24.5zM104 688h590v-96h-590v96zM401 932q42 0 77 16t60 44t38.5 64.5
t13.5 78.5v4q0 43 -14.5 80.5t-40.5 65.5t-61 44.5t-77 16.5t-76.5 -16.5t-59.5 -44t-38.5 -64.5t-13.5 -78v-4q0 -42 14.5 -80t40 -66t61 -44.5t76.5 -16.5z" />
    <glyph glyph-name="guillemotright" unicode="&#xbb;" horiz-adv-x="1126" 
d="M575 152l277 376l-277 377l121 70l332 -436v-17l-332 -438zM121 152l276 376l-276 377l119 70l331 -436v-17l-331 -438z" />
    <glyph glyph-name="onequarter" unicode="&#xbc;" horiz-adv-x="1548" 
d="M1360 137v-137h-90v137h-348v82l315 655h96l-313 -655h250v246h90v-246h106v-82h-106zM436 0h-92l680 1458h92zM256 584v774l-164 -146v105l164 141h90v-874h-90z" />
    <glyph glyph-name="onehalf" unicode="&#xbd;" horiz-adv-x="1565" 
d="M979 0v82l344 436q25 32 36 62t11 65q0 71 -39 113.5t-110 42.5q-30 0 -57.5 -8.5t-48.5 -27t-33.5 -48.5t-12.5 -72h-90q0 52 17 96t48.5 75.5t76 49t100.5 17.5q54 0 98 -16.5t76 -47.5t49.5 -75t17.5 -99q0 -27 -4 -49.5t-12.5 -43.5t-21.5 -41.5t-31 -43.5l-306 -385
h375v-82h-483zM406 0h-93l680 1458h92zM256 584v774l-164 -146v105l164 141h90v-874h-90z" />
    <glyph glyph-name="threequarters" unicode="&#xbe;" horiz-adv-x="1651" 
d="M1462 137v-137h-90v137h-348v82l315 655h97l-314 -655h250v246h90v-246h107v-82h-107zM559 0h-92l680 1458h92zM618 823q0 -60 -20 -107t-54.5 -78.5t-81 -48t-100.5 -16.5q-52 0 -98 14t-81.5 43t-56.5 73t-24 104h93q2 -41 17 -70t38 -47t52 -26.5t60 -8.5
q36 0 66 11.5t52.5 33t35 52.5t12.5 71q0 79 -41 122.5t-131 43.5h-16v80h16q81 0 118.5 41.5t37.5 116.5q0 39 -12 68.5t-32.5 49t-48.5 29.5t-59 10q-69 0 -109 -38.5t-46 -104.5h-90q4 53 24 94.5t52.5 70.5t75.5 44.5t93 15.5q54 0 98.5 -17t76.5 -48t49.5 -74.5
t17.5 -97.5q0 -69 -29 -119t-88 -76q133 -50 133 -211z" />
    <glyph glyph-name="questiondown" unicode="&#xbf;" horiz-adv-x="1100" 
d="M504 1434h188v-215h-188v215zM557 -18q-104 0 -189 30.5t-145 84.5t-92.5 128.5t-32.5 161.5v4q0 96 34 168.5t92 123.5t135.5 81.5t164.5 42.5l19 221h104l33 -332l-10 -10q-201 -5 -304.5 -82t-103.5 -207v-4q0 -55 21 -103.5t59.5 -84.5t94 -57t124.5 -21
q113 0 203 50.5t168 141.5l104 -100q-44 -53 -93 -96.5t-107.5 -75t-127.5 -48.5t-151 -17z" />
    <glyph glyph-name="Agrave" unicode="&#xc0;" 
d="M733 1444h152l653 -1444h-174l-168 379h-780l-170 -379h-166zM1133 524l-326 731l-328 -731h654zM512 1782l164 76l194 -297h-127z" />
    <glyph glyph-name="Aacute" unicode="&#xc1;" 
d="M733 1444h152l653 -1444h-174l-168 379h-780l-170 -379h-166zM1133 524l-326 731l-328 -731h654zM942 1858l164 -76l-232 -221h-126z" />
    <glyph glyph-name="Acircumflex" unicode="&#xc2;" 
d="M733 1444h152l653 -1444h-174l-168 379h-780l-170 -379h-166zM1133 524l-326 731l-328 -731h654zM739 1823h140l217 -269h-135l-154 138l-154 -138h-131z" />
    <glyph glyph-name="Atilde" unicode="&#xc3;" 
d="M733 1444h152l653 -1444h-174l-168 379h-780l-170 -379h-166zM1133 524l-326 731l-328 -731h654zM473 1569q15 57 33.5 98t42 67t53 38t66.5 12q34 0 71.5 -13t73.5 -28t69.5 -28t59.5 -13q20 0 35 5.5t27 17.5t22.5 31t22.5 46l96 -26q-15 -58 -33.5 -98.5t-42 -66.5
t-53 -38t-66.5 -12q-35 0 -72 12.5t-73.5 28t-69.5 28t-59 12.5q-20 0 -35 -5t-27 -17t-22.5 -31t-22.5 -47z" />
    <glyph glyph-name="Adieresis" unicode="&#xc4;" 
d="M733 1444h152l653 -1444h-174l-168 379h-780l-170 -379h-166zM1133 524l-326 731l-328 -731h654zM897 1755h184v-194h-184v194zM537 1755h184v-194h-184v194z" />
    <glyph glyph-name="Aring" unicode="&#xc5;" 
d="M709 1393q-50 26 -81.5 72.5t-31.5 103.5v4q0 41 17.5 78t46.5 64.5t68 44t81 16.5t81 -16.5t68 -44t46.5 -64.5t17.5 -78v-4q0 -57 -31.5 -103.5t-81.5 -72.5l629 -1393h-174l-168 379h-780l-170 -379h-166zM809 1444q25 0 48.5 10t40.5 27t27.5 39.5t10.5 48.5v4
q0 25 -10 47.5t-27.5 40t-40.5 27.5t-49 10t-49.5 -10t-40.5 -27.5t-27 -40t-10 -47.5v-4q0 -26 10.5 -48.5t27.5 -39.5t40 -27t49 -10zM1133 524l-326 731l-328 -731h654z" />
    <glyph glyph-name="AE" unicode="&#xc6;" horiz-adv-x="2140" 
d="M877 1434h1130v-148h-838v-489h746v-148h-746v-502h848v-147h-1011v379h-578l-223 -379h-170zM1006 524v766h-50l-446 -766h496z" />
    <glyph glyph-name="Ccedilla" unicode="&#xc7;" horiz-adv-x="1511" 
d="M602 -248l158 230q-136 18 -250 81t-196.5 160t-128.5 222.5t-46 267.5v4q0 152 54 286.5t150.5 235.5t229.5 160t291 59q97 0 176.5 -16.5t146.5 -46.5t124.5 -71.5t111.5 -92.5l-110 -119q-45 43 -94 79t-104 62.5t-117.5 41t-135.5 14.5q-119 0 -220.5 -45.5
t-176 -125t-116.5 -186.5t-42 -231v-4q0 -125 42.5 -233t117 -187.5t176 -125.5t219.5 -46q74 0 136 14t117.5 40.5t107 65t102.5 87.5l107 -105q-54 -54 -111.5 -99t-122.5 -77.5t-140.5 -52t-166.5 -23.5l-135 -292z" />
    <glyph glyph-name="Egrave" unicode="&#xc8;" horiz-adv-x="1372" 
d="M203 1434h1036v-148h-874v-489h782v-148h-782v-502h884v-147h-1046v1434zM465 1782l164 76l194 -297h-127z" />
    <glyph glyph-name="Eacute" unicode="&#xc9;" horiz-adv-x="1372" 
d="M203 1434h1036v-148h-874v-489h782v-148h-782v-502h884v-147h-1046v1434zM803 1858l164 -76l-232 -221h-127z" />
    <glyph glyph-name="Ecircumflex" unicode="&#xca;" horiz-adv-x="1372" 
d="M203 1434h1036v-148h-874v-489h782v-148h-782v-502h884v-147h-1046v1434zM643 1829h139l217 -268h-135l-153 137l-154 -137h-131z" />
    <glyph glyph-name="Edieresis" unicode="&#xcb;" horiz-adv-x="1372" 
d="M203 1434h1036v-148h-874v-489h782v-148h-782v-502h884v-147h-1046v1434zM801 1755h184v-194h-184v194zM440 1755h185v-194h-185v194z" />
    <glyph glyph-name="Igrave" unicode="&#xcc;" horiz-adv-x="597" 
d="M221 1434h162v-1434h-162v1434zM8 1782l164 76l194 -297h-126z" />
    <glyph glyph-name="Iacute" unicode="&#xcd;" horiz-adv-x="596" 
d="M217 1434h162v-1434h-162v1434zM428 1858l164 -76l-232 -221h-127z" />
    <glyph glyph-name="Icircumflex" unicode="&#xce;" horiz-adv-x="597" 
d="M423 1434h162v-1434h-162v1434zM435 1829h140l217 -268h-135l-154 137l-154 -137h-131z" />
    <glyph glyph-name="Idieresis" unicode="&#xcf;" horiz-adv-x="597" 
d="M408 1434h162v-1434h-162v1434zM578 1755h184v-194h-184v194zM218 1755h184v-194h-184v194z" />
    <glyph glyph-name="Eth" unicode="&#xd0;" horiz-adv-x="1663" 
d="M264 647h-153v148h153v639h498q112 0 212.5 -25t185 -70.5t152 -110t115 -143.5t72.5 -171t25 -193v-4q0 -152 -56 -282.5t-156.5 -227.5t-240.5 -152t-309 -55h-498v647zM762 150q136 0 245.5 43t187 119t119.5 179t42 222v4q0 119 -42 222.5t-119.5 180t-187 120.5
t-245.5 44h-336v-489h430v-148h-430v-497h336z" />
    <glyph glyph-name="Ntilde" unicode="&#xd1;" 
d="M203 1434h151l903 -1149v1149h158v-1434h-129l-926 1176v-1176h-157v1434zM473 1569q15 57 33.5 98t42 67t53 38t66.5 12q34 0 71.5 -13t73.5 -28t69.5 -28t59.5 -13q20 0 35 5.5t27 17.5t22.5 31t22.5 46l96 -26q-15 -58 -33.5 -98.5t-42 -66.5t-53 -38t-66.5 -12
q-35 0 -72 12.5t-73.5 28t-69.5 28t-59 12.5q-20 0 -35 -5t-27 -17t-22.5 -31t-22.5 -47z" />
    <glyph glyph-name="Ograve" unicode="&#xd2;" horiz-adv-x="1741" 
d="M868 -25q-164 0 -298 59.5t-230 161t-148.5 235t-52.5 282.5v4q0 148 53 282.5t150 236.5t231.5 162t298.5 60q109 0 205.5 -27t178 -76t145.5 -117t109 -150t68.5 -175t23.5 -192q2 -2 0 -4q0 -99 -24 -192t-69 -175.5t-110 -151.5t-146.5 -118.5t-178.5 -77t-206 -27.5
zM872 125q123 0 226 46t178 125.5t116.5 187t41.5 229.5v4q0 122 -42.5 229.5t-117.5 188t-179 127.5t-227 47t-226 -46t-177.5 -125.5t-116 -187t-41.5 -229.5v-4q0 -122 42.5 -230t117.5 -188.5t178.5 -127t226.5 -46.5zM565 1782l164 76l195 -297h-127z" />
    <glyph glyph-name="Oacute" unicode="&#xd3;" horiz-adv-x="1741" 
d="M868 -25q-164 0 -298 59.5t-230 161t-148.5 235t-52.5 282.5v4q0 148 53 282.5t150 236.5t231.5 162t298.5 60q109 0 205.5 -27t178 -76t145.5 -117t109 -150t68.5 -175t23.5 -192q2 -2 0 -4q0 -99 -24 -192t-69 -175.5t-110 -151.5t-146.5 -118.5t-178.5 -77t-206 -27.5
zM872 125q123 0 226 46t178 125.5t116.5 187t41.5 229.5v4q0 122 -42.5 229.5t-117.5 188t-179 127.5t-227 47t-226 -46t-177.5 -125.5t-116 -187t-41.5 -229.5v-4q0 -122 42.5 -230t117.5 -188.5t178.5 -127t226.5 -46.5zM1012 1858l164 -76l-232 -221h-127z" />
    <glyph glyph-name="Ocircumflex" unicode="&#xd4;" horiz-adv-x="1741" 
d="M868 -25q-164 0 -298 59.5t-230 161t-148.5 235t-52.5 282.5v4q0 148 53 282.5t150 236.5t231.5 162t298.5 60q109 0 205.5 -27t178 -76t145.5 -117t109 -150t68.5 -175t23.5 -192q2 -2 0 -4q0 -99 -24 -192t-69 -175.5t-110 -151.5t-146.5 -118.5t-178.5 -77t-206 -27.5
zM872 125q123 0 226 46t178 125.5t116.5 187t41.5 229.5v4q0 122 -42.5 229.5t-117.5 188t-179 127.5t-227 47t-226 -46t-177.5 -125.5t-116 -187t-41.5 -229.5v-4q0 -122 42.5 -230t117.5 -188.5t178.5 -127t226.5 -46.5zM801 1829h139l217 -268h-135l-154 137l-153 -137
h-131z" />
    <glyph glyph-name="Otilde" unicode="&#xd5;" horiz-adv-x="1741" 
d="M868 -25q-164 0 -298 59.5t-230 161t-148.5 235t-52.5 282.5v4q0 148 53 282.5t150 236.5t231.5 162t298.5 60q109 0 205.5 -27t178 -76t145.5 -117t109 -150t68.5 -175t23.5 -192q2 -2 0 -4q0 -99 -24 -192t-69 -175.5t-110 -151.5t-146.5 -118.5t-178.5 -77t-206 -27.5
zM872 125q123 0 226 46t178 125.5t116.5 187t41.5 229.5v4q0 122 -42.5 229.5t-117.5 188t-179 127.5t-227 47t-226 -46t-177.5 -125.5t-116 -187t-41.5 -229.5v-4q0 -122 42.5 -230t117.5 -188.5t178.5 -127t226.5 -46.5zM535 1569q15 57 33.5 98t42 67t52.5 38t66 12
q34 0 71.5 -13t74 -28t70 -28t59.5 -13q20 0 34.5 5.5t26.5 17.5t22.5 31t22.5 46l96 -26q-15 -58 -33.5 -98.5t-42 -66.5t-52.5 -38t-66 -12q-35 0 -72 12.5t-73.5 28t-70 28t-59.5 12.5q-20 0 -34.5 -5t-26.5 -17t-22.5 -31t-22.5 -47z" />
    <glyph glyph-name="Odieresis" unicode="&#xd6;" horiz-adv-x="1741" 
d="M868 -25q-164 0 -298 59.5t-230 161t-148.5 235t-52.5 282.5v4q0 148 53 282.5t150 236.5t231.5 162t298.5 60q109 0 205.5 -27t178 -76t145.5 -117t109 -150t68.5 -175t23.5 -192q2 -2 0 -4q0 -99 -24 -192t-69 -175.5t-110 -151.5t-146.5 -118.5t-178.5 -77t-206 -27.5
zM872 125q123 0 226 46t178 125.5t116.5 187t41.5 229.5v4q0 122 -42.5 229.5t-117.5 188t-179 127.5t-227 47t-226 -46t-177.5 -125.5t-116 -187t-41.5 -229.5v-4q0 -122 42.5 -230t117.5 -188.5t178.5 -127t226.5 -46.5zM958 1755h185v-194h-185v194zM598 1755h184v-194
h-184v194z" />
    <glyph glyph-name="multiply" unicode="&#xd7;" horiz-adv-x="1053" 
d="M844 160l-318 317l-317 -317l-64 63l318 318l-318 317l64 64l317 -318l318 318l63 -64l-317 -317l317 -318z" />
    <glyph glyph-name="Oslash" unicode="&#xd8;" horiz-adv-x="1741" 
d="M868 -25q-133 0 -245.5 39.5t-202.5 110.5l-127 -135h-170l203 221q-90 100 -138.5 229t-48.5 273v4q0 148 53 282.5t150 236.5t231.5 162t298.5 60q134 0 246.5 -39.5t202.5 -111.5l127 137h170l-203 -221q90 -100 138.5 -229.5t48.5 -272.5q2 -2 0 -4q0 -99 -24 -192
t-69 -175.5t-110 -151.5t-146.5 -118.5t-178.5 -77t-206 -27.5zM1217 1186q-70 59 -158 92t-191 33q-123 0 -226 -46.5t-177.5 -126.5t-116 -187.5t-41.5 -229.5v-4q0 -110 33.5 -207.5t95.5 -175.5zM872 123q123 0 226 46.5t178 126.5t116.5 187.5t41.5 229.5v4
q0 109 -34 206.5t-95 176.5l-781 -852q69 -59 157.5 -92t190.5 -33z" />
    <glyph glyph-name="Ugrave" unicode="&#xd9;" horiz-adv-x="1554" 
d="M776 -23q-133 0 -242.5 40.5t-188 119t-122 195t-43.5 268.5v834h162v-824q0 -116 30 -206t86.5 -151.5t137.5 -93.5t184 -32q99 0 179 30t136 89t86.5 148t30.5 206v834h162v-822q0 -156 -43 -275t-121.5 -199t-188.5 -120.5t-245 -40.5zM494 1772l163 75l195 -297h-127
z" />
    <glyph glyph-name="Uacute" unicode="&#xda;" horiz-adv-x="1554" 
d="M776 -23q-133 0 -242.5 40.5t-188 119t-122 195t-43.5 268.5v834h162v-824q0 -116 30 -206t86.5 -151.5t137.5 -93.5t184 -32q99 0 179 30t136 89t86.5 148t30.5 206v834h162v-822q0 -156 -43 -275t-121.5 -199t-188.5 -120.5t-245 -40.5zM897 1847l164 -75l-232 -222
h-127z" />
    <glyph glyph-name="Ucircumflex" unicode="&#xdb;" horiz-adv-x="1554" 
d="M776 -23q-133 0 -242.5 40.5t-188 119t-122 195t-43.5 268.5v834h162v-824q0 -116 30 -206t86.5 -151.5t137.5 -93.5t184 -32q99 0 179 30t136 89t86.5 148t30.5 206v834h162v-822q0 -156 -43 -275t-121.5 -199t-188.5 -120.5t-245 -40.5zM707 1823h139l217 -269h-135
l-154 138l-153 -138h-132z" />
    <glyph glyph-name="Udieresis" unicode="&#xdc;" horiz-adv-x="1554" 
d="M776 -23q-133 0 -242.5 40.5t-188 119t-122 195t-43.5 268.5v834h162v-824q0 -116 30 -206t86.5 -151.5t137.5 -93.5t184 -32q99 0 179 30t136 89t86.5 148t30.5 206v834h162v-822q0 -156 -43 -275t-121.5 -199t-188.5 -120.5t-245 -40.5zM864 1749h185v-195h-185v195z
M504 1749h184v-195h-184v195z" />
    <glyph glyph-name="Yacute" unicode="&#xdd;" horiz-adv-x="1466" 
d="M651 567l-596 867h197l483 -717l488 717h188l-596 -865v-569h-164v567zM868 1847l164 -75l-231 -222h-127z" />
    <glyph glyph-name="Thorn" unicode="&#xde;" horiz-adv-x="1378" 
d="M203 1434h162v-246h374q121 0 220.5 -31.5t169.5 -90.5t108.5 -143.5t38.5 -189.5v-4q0 -116 -45 -204t-122 -147.5t-179.5 -89.5t-216.5 -30h-348v-258h-162v1434zM719 406q89 0 161.5 23t124 65t79.5 100t28 129v4q0 77 -27.5 135t-78 97t-121.5 59t-158 20h-362v-632
h354z" />
    <glyph glyph-name="germandbls" unicode="&#xdf;" horiz-adv-x="1270" 
d="M598 123q91 2 163.5 20.5t123 52.5t77.5 83t27 114v4q0 61 -27.5 109.5t-78.5 83.5t-123.5 57t-161.5 31v117q64 24 119.5 55t96.5 71.5t64 91t23 113.5v4q0 53 -19.5 97.5t-54.5 76t-84.5 49t-109.5 17.5q-65 0 -120 -24t-95 -68.5t-62 -108t-22 -141.5v-1028h-158v1026
q0 108 32.5 197t93 152.5t146.5 98.5t193 35q97 0 175 -28.5t133 -78t84.5 -116.5t29.5 -145v-4q0 -72 -24.5 -131.5t-64 -106t-91 -80.5t-105.5 -57q72 -16 139.5 -45t119.5 -73.5t83 -105.5t31 -141v-4q0 -95 -38.5 -169.5t-110.5 -125.5t-174.5 -77.5t-229.5 -24.5v127z
" />
    <glyph glyph-name="agrave" unicode="&#xe0;" horiz-adv-x="1186" 
d="M492 -23q-75 0 -146 21t-126.5 62.5t-89.5 103.5t-34 143v4q0 85 33 150t93 108.5t143 65.5t184 22q51 0 94.5 -3t82.5 -9t75 -14.5t71 -18.5v33q0 143 -81.5 215t-231.5 72q-94 0 -170.5 -21t-150.5 -55l-48 129q44 20 88 36.5t90.5 28.5t97.5 18.5t109 6.5
q113 0 199.5 -30t143.5 -87q110 -110 110 -311v-647h-156v158q-27 -36 -64 -68.5t-84 -57.5t-104.5 -40t-127.5 -15zM522 104q73 0 137 21t112 58.5t75.5 90t27.5 115.5v98q-58 17 -135 31t-174 14q-74 0 -131 -15.5t-97 -43.5t-60.5 -67t-20.5 -87v-4q0 -50 21.5 -89
t58 -66t84.5 -41.5t102 -14.5zM303 1440l164 76l195 -297h-127z" />
    <glyph glyph-name="aacute" unicode="&#xe1;" horiz-adv-x="1186" 
d="M492 -23q-75 0 -146 21t-126.5 62.5t-89.5 103.5t-34 143v4q0 85 33 150t93 108.5t143 65.5t184 22q51 0 94.5 -3t82.5 -9t75 -14.5t71 -18.5v33q0 143 -81.5 215t-231.5 72q-94 0 -170.5 -21t-150.5 -55l-48 129q44 20 88 36.5t90.5 28.5t97.5 18.5t109 6.5
q113 0 199.5 -30t143.5 -87q110 -110 110 -311v-647h-156v158q-27 -36 -64 -68.5t-84 -57.5t-104.5 -40t-127.5 -15zM522 104q73 0 137 21t112 58.5t75.5 90t27.5 115.5v98q-58 17 -135 31t-174 14q-74 0 -131 -15.5t-97 -43.5t-60.5 -67t-20.5 -87v-4q0 -50 21.5 -89
t58 -66t84.5 -41.5t102 -14.5zM702 1516l164 -76l-231 -221h-127z" />
    <glyph glyph-name="acircumflex" unicode="&#xe2;" horiz-adv-x="1186" 
d="M492 -23q-75 0 -146 21t-126.5 62.5t-89.5 103.5t-34 143v4q0 85 33 150t93 108.5t143 65.5t184 22q51 0 94.5 -3t82.5 -9t75 -14.5t71 -18.5v33q0 143 -81.5 215t-231.5 72q-94 0 -170.5 -21t-150.5 -55l-48 129q44 20 88 36.5t90.5 28.5t97.5 18.5t109 6.5
q113 0 199.5 -30t143.5 -87q110 -110 110 -311v-647h-156v158q-27 -36 -64 -68.5t-84 -57.5t-104.5 -40t-127.5 -15zM522 104q73 0 137 21t112 58.5t75.5 90t27.5 115.5v98q-58 17 -135 31t-174 14q-74 0 -131 -15.5t-97 -43.5t-60.5 -67t-20.5 -87v-4q0 -50 21.5 -89
t58 -66t84.5 -41.5t102 -14.5zM526 1487h140l217 -268h-135l-154 137l-154 -137h-131z" />
    <glyph glyph-name="atilde" unicode="&#xe3;" horiz-adv-x="1186" 
d="M492 -23q-75 0 -146 21t-126.5 62.5t-89.5 103.5t-34 143v4q0 85 33 150t93 108.5t143 65.5t184 22q51 0 94.5 -3t82.5 -9t75 -14.5t71 -18.5v33q0 143 -81.5 215t-231.5 72q-94 0 -170.5 -21t-150.5 -55l-48 129q44 20 88 36.5t90.5 28.5t97.5 18.5t109 6.5
q113 0 199.5 -30t143.5 -87q110 -110 110 -311v-647h-156v158q-27 -36 -64 -68.5t-84 -57.5t-104.5 -40t-127.5 -15zM522 104q73 0 137 21t112 58.5t75.5 90t27.5 115.5v98q-58 17 -135 31t-174 14q-74 0 -131 -15.5t-97 -43.5t-60.5 -67t-20.5 -87v-4q0 -50 21.5 -89
t58 -66t84.5 -41.5t102 -14.5zM262 1227q15 57 33.5 98t42 67t53 38t66.5 12q34 0 71.5 -13t74 -28t69.5 -28t59 -13q20 0 35 5t27 17t22.5 31t22.5 47l96 -26q-15 -58 -33.5 -98.5t-42 -66.5t-53 -38t-66.5 -12q-35 0 -72 12.5t-73 28t-69.5 28t-59.5 12.5q-20 0 -35 -5
t-27 -17t-22.5 -31t-22.5 -47z" />
    <glyph glyph-name="adieresis" unicode="&#xe4;" horiz-adv-x="1186" 
d="M492 -23q-75 0 -146 21t-126.5 62.5t-89.5 103.5t-34 143v4q0 85 33 150t93 108.5t143 65.5t184 22q51 0 94.5 -3t82.5 -9t75 -14.5t71 -18.5v33q0 143 -81.5 215t-231.5 72q-94 0 -170.5 -21t-150.5 -55l-48 129q44 20 88 36.5t90.5 28.5t97.5 18.5t109 6.5
q113 0 199.5 -30t143.5 -87q110 -110 110 -311v-647h-156v158q-27 -36 -64 -68.5t-84 -57.5t-104.5 -40t-127.5 -15zM522 104q73 0 137 21t112 58.5t75.5 90t27.5 115.5v98q-58 17 -135 31t-174 14q-74 0 -131 -15.5t-97 -43.5t-60.5 -67t-20.5 -87v-4q0 -50 21.5 -89
t58 -66t84.5 -41.5t102 -14.5zM684 1413h184v-194h-184v194zM324 1413h184v-194h-184v194z" />
    <glyph glyph-name="aring" unicode="&#xe5;" horiz-adv-x="1186" 
d="M492 -23q-75 0 -146 21t-126.5 62.5t-89.5 103.5t-34 143v4q0 85 33 150t93 108.5t143 65.5t184 22q51 0 94.5 -3t82.5 -9t75 -14.5t71 -18.5v33q0 143 -81.5 215t-231.5 72q-94 0 -170.5 -21t-150.5 -55l-48 129q44 20 88 36.5t90.5 28.5t97.5 18.5t109 6.5
q113 0 199.5 -30t143.5 -87q110 -110 110 -311v-647h-156v158q-27 -36 -64 -68.5t-84 -57.5t-104.5 -40t-127.5 -15zM522 104q73 0 137 21t112 58.5t75.5 90t27.5 115.5v98q-58 17 -135 31t-174 14q-74 0 -131 -15.5t-97 -43.5t-60.5 -67t-20.5 -87v-4q0 -50 21.5 -89
t58 -66t84.5 -41.5t102 -14.5zM596 1214q-42 0 -81 16t-68 44t-46.5 65t-17.5 78v4q0 42 17.5 78.5t46.5 64.5t68 44t81 16t81 -16t68 -44t46.5 -64.5t17.5 -78.5v-4q0 -41 -17.5 -78t-46.5 -65t-68 -44t-81 -16zM596 1292q25 0 48.5 10t40.5 27.5t27.5 40t10.5 47.5v4
q0 25 -10 48t-27.5 40t-40.5 27t-49 10t-49.5 -10t-40.5 -27t-27 -40t-10 -48v-4q0 -25 10.5 -47.5t27.5 -40t40 -27.5t49 -10z" />
    <glyph glyph-name="ae" unicode="&#xe6;" horiz-adv-x="1952" 
d="M483 -23q-71 0 -140 21t-124 62.5t-89 103.5t-34 143v4q0 85 33 150t92.5 108.5t141 65.5t178.5 22q47 0 87 -3t77.5 -9t73.5 -14.5t75 -18.5v33q0 143 -81 215t-222 72q-87 0 -163 -21t-150 -55l-48 129q88 40 178 65t199 25q144 0 245.5 -57.5t141.5 -171.5
q31 53 74 96.5t95 74t112 47.5t125 17q117 0 208 -44t154 -120t96 -178t33 -219v-24t-2 -31h-839q8 -84 41 -149.5t83.5 -110.5t114 -68.5t133.5 -23.5q55 0 102 10.5t87.5 30t76.5 47t68 61.5l99 -88q-40 -45 -85 -81.5t-98 -62.5t-116 -40.5t-138 -14.5q-64 0 -124 14.5
t-114 42t-100 67t-82 89.5q-42 -44 -96.5 -82t-117 -67t-129 -45.5t-132.5 -16.5zM1692 592q-7 72 -31.5 136.5t-66.5 113.5t-102 77.5t-138 28.5q-69 0 -128 -27t-104.5 -74.5t-74.5 -112.5t-37 -142h682zM514 104q69 0 123.5 14t99.5 39t83 59.5t75 76.5q-37 90 -43 199
q-59 15 -132 27.5t-163 12.5q-70 0 -125.5 -15.5t-94.5 -43.5t-60 -67t-21 -87v-4q0 -50 21.5 -89t57.5 -66t82.5 -41.5t96.5 -14.5z" />
    <glyph glyph-name="ccedilla" unicode="&#xe7;" horiz-adv-x="1169" 
d="M395 -248l160 234q-97 17 -178.5 65.5t-140.5 120.5t-92 162t-33 190v4q0 112 41 212.5t114 176t172 120t215 44.5q75 0 137 -15t113.5 -40.5t94 -59.5t79.5 -73l-104 -111q-32 33 -66 62t-73 51t-84 34.5t-99 12.5q-81 0 -150 -32t-120 -87.5t-80 -130.5t-29 -160v-4
q0 -86 29.5 -161t82 -130.5t124 -87.5t154.5 -32q51 0 96 12t85 33t75 49.5t67 62.5l100 -94q-38 -42 -80 -77.5t-90.5 -62.5t-105.5 -44t-125 -21l-135 -292z" />
    <glyph glyph-name="egrave" unicode="&#xe8;" horiz-adv-x="1212" 
d="M270 465q9 -84 42 -149.5t83.5 -110.5t114 -68.5t133.5 -23.5q109 0 189 40.5t145 108.5l98 -88q-40 -45 -84.5 -81.5t-97.5 -62.5t-116 -40.5t-138 -14.5q-109 0 -205 40t-168 113t-113.5 175t-41.5 225q0 115 38 216t106 176t160.5 118t202.5 43q118 0 210 -44
t155 -120t96 -178t33 -219v-24t-2 -31h-840zM952 592q-7 72 -31 136.5t-66 113.5t-102.5 77.5t-138.5 28.5q-68 0 -127 -27t-104.5 -74.5t-74.5 -112.5t-38 -142h682zM334 1440l164 76l194 -297h-127z" />
    <glyph glyph-name="eacute" unicode="&#xe9;" horiz-adv-x="1212" 
d="M270 465q9 -84 42 -149.5t83.5 -110.5t114 -68.5t133.5 -23.5q109 0 189 40.5t145 108.5l98 -88q-40 -45 -84.5 -81.5t-97.5 -62.5t-116 -40.5t-138 -14.5q-109 0 -205 40t-168 113t-113.5 175t-41.5 225q0 115 38 216t106 176t160.5 118t202.5 43q118 0 210 -44
t155 -120t96 -178t33 -219v-24t-2 -31h-840zM952 592q-7 72 -31 136.5t-66 113.5t-102.5 77.5t-138.5 28.5q-68 0 -127 -27t-104.5 -74.5t-74.5 -112.5t-38 -142h682zM715 1516l164 -76l-232 -221h-127z" />
    <glyph glyph-name="ecircumflex" unicode="&#xea;" horiz-adv-x="1212" 
d="M270 465q9 -84 42 -149.5t83.5 -110.5t114 -68.5t133.5 -23.5q109 0 189 40.5t145 108.5l98 -88q-40 -45 -84.5 -81.5t-97.5 -62.5t-116 -40.5t-138 -14.5q-109 0 -205 40t-168 113t-113.5 175t-41.5 225q0 115 38 216t106 176t160.5 118t202.5 43q118 0 210 -44
t155 -120t96 -178t33 -219v-24t-2 -31h-840zM952 592q-7 72 -31 136.5t-66 113.5t-102.5 77.5t-138.5 28.5q-68 0 -127 -27t-104.5 -74.5t-74.5 -112.5t-38 -142h682zM543 1487h139l217 -268h-135l-154 137l-153 -137h-131z" />
    <glyph glyph-name="edieresis" unicode="&#xeb;" horiz-adv-x="1212" 
d="M270 465q9 -84 42 -149.5t83.5 -110.5t114 -68.5t133.5 -23.5q109 0 189 40.5t145 108.5l98 -88q-40 -45 -84.5 -81.5t-97.5 -62.5t-116 -40.5t-138 -14.5q-109 0 -205 40t-168 113t-113.5 175t-41.5 225q0 115 38 216t106 176t160.5 118t202.5 43q118 0 210 -44
t155 -120t96 -178t33 -219v-24t-2 -31h-840zM952 592q-7 72 -31 136.5t-66 113.5t-102.5 77.5t-138.5 28.5q-68 0 -127 -27t-104.5 -74.5t-74.5 -112.5t-38 -142h682zM700 1413h185v-194h-185v194zM340 1413h184v-194h-184v194z" />
    <glyph glyph-name="igrave" unicode="&#xec;" horiz-adv-x="539" 
d="M202 1059h158v-1059h-158v1059zM-11 1440l164 76l195 -297h-127z" />
    <glyph glyph-name="iacute" unicode="&#xed;" horiz-adv-x="539" 
d="M180 1059h158v-1059h-158v1059zM389 1516l164 -76l-231 -221h-127z" />
    <glyph glyph-name="icircumflex" unicode="&#xee;" horiz-adv-x="539" 
d="M388 1059h158v-1059h-158v1059zM397 1487h139l217 -268h-135l-154 137l-153 -137h-131z" />
    <glyph glyph-name="idieresis" unicode="&#xef;" horiz-adv-x="539" 
d="M374 1059h158v-1059h-158v1059zM540 1413h185v-194h-185v194zM180 1413h184v-194h-184v194z" />
    <glyph glyph-name="eth" unicode="&#xf0;" horiz-adv-x="1296" 
d="M639 -25q-114 0 -211 42t-167.5 114t-110 167.5t-39.5 203.5v4q0 110 39 200t105.5 154.5t154.5 99.5t186 35q54 0 100 -8.5t86.5 -23.5t76 -35.5t69.5 -44.5l-269 377l-262 -130l-73 97l268 125l-103 143h189l53 -80l203 98l72 -96l-209 -96l207 -305
q41 -60 74.5 -118.5t57 -119t36 -124.5t12.5 -136v-4q0 -108 -38 -205.5t-109 -171.5t-172 -118t-226 -44zM649 115q84 0 152.5 31t117.5 83.5t76 122t27 146.5v4q0 75 -29.5 142t-81.5 117t-123 79.5t-155 29.5t-151 -28.5t-114 -78t-72.5 -117.5t-25.5 -146v-4
q0 -74 28 -142.5t78.5 -121.5t120 -85t152.5 -32z" />
    <glyph glyph-name="ntilde" unicode="&#xf1;" horiz-adv-x="1262" 
d="M176 1059h158v-185q26 43 60 81t78.5 66t100 44t123.5 16q96 0 171.5 -31t127.5 -86.5t79.5 -134t27.5 -172.5v-657h-158v618q0 74 -19.5 133t-57 100.5t-92 64t-124.5 22.5q-68 0 -126 -24t-100.5 -67.5t-66.5 -104.5t-24 -136v-606h-158v1059zM303 1227q15 57 33.5 98
t42 67t53 38t66.5 12q34 0 71.5 -13t73.5 -28t69.5 -28t59.5 -13q20 0 35 5t27 17t22.5 31t22.5 47l96 -26q-15 -58 -33.5 -98.5t-42 -66.5t-53 -38t-66.5 -12q-35 0 -72 12.5t-73.5 28t-69.5 28t-59 12.5q-20 0 -35 -5t-27 -17t-22.5 -31t-22.5 -47z" />
    <glyph glyph-name="ograve" unicode="&#xf2;" horiz-adv-x="1323" 
d="M659 -25q-119 0 -219.5 43.5t-173.5 118.5t-114 175t-41 212v4q0 112 41.5 212.5t115 176t175 120t221.5 44.5q119 0 219.5 -43.5t174 -118.5t115 -175t41.5 -212v-4q0 -112 -41.5 -212.5t-116 -176t-176 -120t-221.5 -44.5zM664 117q86 0 157.5 32t123 87.5t80 129.5
t28.5 158v4q0 85 -30 160.5t-83 132t-125 89t-156 32.5q-86 0 -157 -32.5t-122 -88.5t-79.5 -130.5t-28.5 -158.5v-4q0 -85 29.5 -160t82 -130.5t124.5 -88t156 -32.5zM367 1440l163 76l195 -297h-127z" />
    <glyph glyph-name="oacute" unicode="&#xf3;" horiz-adv-x="1323" 
d="M659 -25q-119 0 -219.5 43.5t-173.5 118.5t-114 175t-41 212v4q0 112 41.5 212.5t115 176t175 120t221.5 44.5q119 0 219.5 -43.5t174 -118.5t115 -175t41.5 -212v-4q0 -112 -41.5 -212.5t-116 -176t-176 -120t-221.5 -44.5zM664 117q86 0 157.5 32t123 87.5t80 129.5
t28.5 158v4q0 85 -30 160.5t-83 132t-125 89t-156 32.5q-86 0 -157 -32.5t-122 -88.5t-79.5 -130.5t-28.5 -158.5v-4q0 -85 29.5 -160t82 -130.5t124.5 -88t156 -32.5zM795 1516l163 -76l-231 -221h-127z" />
    <glyph glyph-name="ocircumflex" unicode="&#xf4;" horiz-adv-x="1323" 
d="M659 -25q-119 0 -219.5 43.5t-173.5 118.5t-114 175t-41 212v4q0 112 41.5 212.5t115 176t175 120t221.5 44.5q119 0 219.5 -43.5t174 -118.5t115 -175t41.5 -212v-4q0 -112 -41.5 -212.5t-116 -176t-176 -120t-221.5 -44.5zM664 117q86 0 157.5 32t123 87.5t80 129.5
t28.5 158v4q0 85 -30 160.5t-83 132t-125 89t-156 32.5q-86 0 -157 -32.5t-122 -88.5t-79.5 -130.5t-28.5 -158.5v-4q0 -85 29.5 -160t82 -130.5t124.5 -88t156 -32.5zM592 1487h139l217 -268h-135l-154 137l-153 -137h-131z" />
    <glyph glyph-name="otilde" unicode="&#xf5;" horiz-adv-x="1323" 
d="M659 -25q-119 0 -219.5 43.5t-173.5 118.5t-114 175t-41 212v4q0 112 41.5 212.5t115 176t175 120t221.5 44.5q119 0 219.5 -43.5t174 -118.5t115 -175t41.5 -212v-4q0 -112 -41.5 -212.5t-116 -176t-176 -120t-221.5 -44.5zM664 117q86 0 157.5 32t123 87.5t80 129.5
t28.5 158v4q0 85 -30 160.5t-83 132t-125 89t-156 32.5q-86 0 -157 -32.5t-122 -88.5t-79.5 -130.5t-28.5 -158.5v-4q0 -85 29.5 -160t82 -130.5t124.5 -88t156 -32.5zM326 1227q15 57 33.5 98t42 67t52.5 38t66 12q34 0 71.5 -13t74 -28t70 -28t59.5 -13q20 0 34.5 5
t26.5 17t22.5 31t22.5 47l96 -26q-15 -58 -33.5 -98.5t-42 -66.5t-52.5 -38t-66 -12q-35 0 -72 12.5t-73.5 28t-70 28t-59.5 12.5q-20 0 -34.5 -5t-26.5 -17t-22.5 -31t-22.5 -47z" />
    <glyph glyph-name="odieresis" unicode="&#xf6;" horiz-adv-x="1323" 
d="M659 -25q-119 0 -219.5 43.5t-173.5 118.5t-114 175t-41 212v4q0 112 41.5 212.5t115 176t175 120t221.5 44.5q119 0 219.5 -43.5t174 -118.5t115 -175t41.5 -212v-4q0 -112 -41.5 -212.5t-116 -176t-176 -120t-221.5 -44.5zM664 117q86 0 157.5 32t123 87.5t80 129.5
t28.5 158v4q0 85 -30 160.5t-83 132t-125 89t-156 32.5q-86 0 -157 -32.5t-122 -88.5t-79.5 -130.5t-28.5 -158.5v-4q0 -85 29.5 -160t82 -130.5t124.5 -88t156 -32.5zM750 1413h184v-194h-184v194zM389 1413h184v-194h-184v194z" />
    <glyph glyph-name="divide" unicode="&#xf7;" horiz-adv-x="1053" 
d="M455 813v143h143v-143h-143zM109 492v96h835v-96h-835zM455 123v143h143v-143h-143z" />
    <glyph glyph-name="oslash" unicode="&#xf8;" horiz-adv-x="1323" 
d="M659 -25q-96 0 -178.5 29t-150.5 80l-92 -94h-158l162 174q-62 72 -96.5 165t-34.5 195v4q0 112 41.5 212.5t115 176t175 120t221.5 44.5q96 0 179.5 -29t149.5 -81l92 100h160q-40 -42 -73 -78q-14 -15 -28.5 -30.5t-27 -29t-22 -23.5t-13.5 -15q63 -72 98 -164.5
t35 -198.5v-4q0 -112 -41.5 -212.5t-116 -176t-176 -120t-221.5 -44.5zM897 858q-50 40 -109 63t-129 23q-86 0 -157.5 -32.5t-123 -88.5t-80 -131t-28.5 -160v-4q0 -71 20.5 -133t57.5 -116zM664 115q87 0 158.5 32.5t123.5 88.5t80.5 130t28.5 158v4q0 72 -21.5 135.5
t-58.5 114.5l-547 -579q48 -41 107.5 -62.5t128.5 -21.5z" />
    <glyph glyph-name="ugrave" unicode="&#xf9;" horiz-adv-x="1262" 
d="M565 -23q-96 0 -171.5 31t-127 87t-79 134t-27.5 172v658h157v-619q0 -74 19.5 -133t57 -100t92 -63.5t124.5 -22.5q68 0 126 24t101 67.5t67 104.5t24 136v606h155v-1059h-155v184q-27 -43 -61.5 -80.5t-78.5 -65.5t-99 -44.5t-124 -16.5zM350 1432l164 75l195 -297
h-127z" />
    <glyph glyph-name="uacute" unicode="&#xfa;" horiz-adv-x="1262" 
d="M565 -23q-96 0 -171.5 31t-127 87t-79 134t-27.5 172v658h157v-619q0 -74 19.5 -133t57 -100t92 -63.5t124.5 -22.5q68 0 126 24t101 67.5t67 104.5t24 136v606h155v-1059h-155v184q-27 -43 -61.5 -80.5t-78.5 -65.5t-99 -44.5t-124 -16.5zM739 1507l164 -75l-231 -222
h-127z" />
    <glyph glyph-name="ucircumflex" unicode="&#xfb;" horiz-adv-x="1262" 
d="M565 -23q-96 0 -171.5 31t-127 87t-79 134t-27.5 172v658h157v-619q0 -74 19.5 -133t57 -100t92 -63.5t124.5 -22.5q68 0 126 24t101 67.5t67 104.5t24 136v606h155v-1059h-155v184q-27 -43 -61.5 -80.5t-78.5 -65.5t-99 -44.5t-124 -16.5zM563 1487h139l218 -268h-136
l-153 137l-154 -137h-131z" />
    <glyph glyph-name="udieresis" unicode="&#xfc;" horiz-adv-x="1262" 
d="M565 -23q-96 0 -171.5 31t-127 87t-79 134t-27.5 172v658h157v-619q0 -74 19.5 -133t57 -100t92 -63.5t124.5 -22.5q68 0 126 24t101 67.5t67 104.5t24 136v606h155v-1059h-155v184q-27 -43 -61.5 -80.5t-78.5 -65.5t-99 -44.5t-124 -16.5zM721 1413h184v-194h-184v194z
M360 1413h185v-194h-185v194z" />
    <glyph glyph-name="yacute" unicode="&#xfd;" horiz-adv-x="1210" 
d="M340 -334q-66 0 -119 13.5t-106 39.5l53 125q38 -20 76.5 -29.5t89.5 -9.5q35 0 64.5 10t55.5 33.5t49.5 61.5t47.5 94l-481 1055h174l385 -883l340 883h168l-445 -1094q-34 -82 -70.5 -139t-79 -92.5t-92.5 -51.5t-110 -16zM741 1507l164 -75l-231 -222h-127z" />
    <glyph glyph-name="thorn" unicode="&#xfe;" horiz-adv-x="1360" 
d="M176 1495h158v-649q32 48 72 90.5t90 74.5t110 51t133 19q95 0 186 -36.5t162 -107t114.5 -172.5t43.5 -233v-4q0 -130 -43 -232t-114 -173t-162 -108.5t-187 -37.5q-74 0 -134.5 18.5t-110.5 50t-89.5 72t-70.5 85.5v-531h-158v1823zM711 119q76 0 144 27.5t118.5 80
t80 128t29.5 171.5v4q0 94 -30 169.5t-81 129t-118.5 82.5t-142.5 29q-74 0 -143 -29.5t-122.5 -83.5t-85.5 -129t-32 -166v-4q0 -92 32 -167.5t85.5 -129t122.5 -83t143 -29.5z" />
    <glyph glyph-name="ydieresis" unicode="&#xff;" horiz-adv-x="1210" 
d="M340 -334q-66 0 -119 13.5t-106 39.5l53 125q38 -20 76.5 -29.5t89.5 -9.5q35 0 64.5 10t55.5 33.5t49.5 61.5t47.5 94l-481 1055h174l385 -883l340 883h168l-445 -1094q-34 -82 -70.5 -139t-79 -92.5t-92.5 -51.5t-110 -16zM694 1413h185v-194h-185v194zM334 1413h184
v-194h-184v194z" />
    <glyph glyph-name="Abreve" unicode="&#x102;" 
d="M733 1444h152l653 -1444h-174l-168 379h-780l-170 -379h-166zM1133 524l-326 731l-328 -731h654zM807 1554q-64 0 -117.5 18.5t-93.5 53.5t-64 85.5t-28 115.5h114q19 -65 64.5 -103t124.5 -38q78 0 124 38t64 103h115q-5 -65 -29 -115.5t-63.5 -85.5t-93 -53.5
t-117.5 -18.5z" />
    <glyph glyph-name="abreve" unicode="&#x103;" horiz-adv-x="1186" 
d="M492 -23q-75 0 -146 21t-126.5 62.5t-89.5 103.5t-34 143v4q0 85 33 150t93 108.5t143 65.5t184 22q51 0 94.5 -3t82.5 -9t75 -14.5t71 -18.5v33q0 143 -81.5 215t-231.5 72q-94 0 -170.5 -21t-150.5 -55l-48 129q44 20 88 36.5t90.5 28.5t97.5 18.5t109 6.5
q113 0 199.5 -30t143.5 -87q110 -110 110 -311v-647h-156v158q-27 -36 -64 -68.5t-84 -57.5t-104.5 -40t-127.5 -15zM522 104q73 0 137 21t112 58.5t75.5 90t27.5 115.5v98q-58 17 -135 31t-174 14q-74 0 -131 -15.5t-97 -43.5t-60.5 -67t-20.5 -87v-4q0 -50 21.5 -89
t58 -66t84.5 -41.5t102 -14.5zM594 1217q-64 0 -117.5 18.5t-93.5 53t-64 85t-28 115.5h115q18 -65 63.5 -103t124.5 -38q78 0 124 38t64 103h115q-5 -65 -29 -115.5t-63.5 -85t-93 -53t-117.5 -18.5z" />
    <glyph glyph-name="Dcroat" unicode="&#x110;" horiz-adv-x="1663" 
d="M264 647h-153v148h153v639h498q112 0 212.5 -25t185 -70.5t152 -110t115 -143.5t72.5 -171t25 -193v-4q0 -152 -56 -282.5t-156.5 -227.5t-240.5 -152t-309 -55h-498v647zM762 150q136 0 245.5 43t187 119t119.5 179t42 222v4q0 119 -42 222.5t-119.5 180t-187 120.5
t-245.5 44h-336v-489h430v-148h-430v-497h336z" />
    <glyph glyph-name="dcroat" unicode="&#x111;" horiz-adv-x="1360" 
d="M721 1280h305v215h158v-215h176v-129h-176v-1151h-158v213q-32 -48 -72 -90.5t-90 -75t-110 -51.5t-133 -19q-95 0 -186 37t-162 107t-114.5 172t-43.5 233v4q0 130 43.5 232.5t114.5 173t162 108t186 37.5q73 0 134 -18.5t111 -49.5t89.5 -71.5t70.5 -85.5v295h-305v129
zM649 119q74 0 143 29.5t122.5 83.5t85.5 129.5t32 166.5v4q0 91 -32 166.5t-85.5 129t-122.5 83t-143 29.5q-77 0 -145 -28t-118.5 -80.5t-80 -128t-29.5 -171.5v-4q0 -93 30 -169t81.5 -129t119 -82t142.5 -29z" />
    <glyph glyph-name="Itilde" unicode="&#x128;" horiz-adv-x="596" 
d="M217 1434h162v-1434h-162v1434zM-6 1569q15 57 33.5 98t42 67t53 38t66.5 12q34 0 71.5 -13t73.5 -28t69.5 -28t59.5 -13q20 0 35 5.5t27 17.5t22.5 31t22.5 46l96 -26q-15 -58 -33.5 -98.5t-42 -66.5t-53 -38t-66.5 -12q-35 0 -72 12.5t-73.5 28t-69.5 28t-59 12.5
q-20 0 -35 -5t-27 -17t-22.5 -31t-22.5 -47z" />
    <glyph glyph-name="itilde" unicode="&#x129;" horiz-adv-x="539" 
d="M190 1059h158v-1059h-158v1059zM-66 1227q15 57 33.5 98t42 67t53 38t66.5 12q34 0 71.5 -13t73.5 -28t69.5 -28t59.5 -13q20 0 35 5t27 17t22.5 31t22.5 47l96 -26q-15 -58 -33.5 -98.5t-42 -66.5t-53 -38t-66.5 -12q-35 0 -72 12.5t-73 28t-69.5 28t-59.5 12.5
q-20 0 -35 -5t-27 -17t-22.5 -31t-22.5 -47z" />
    <glyph glyph-name="dotlessi" unicode="&#x131;" horiz-adv-x="539" 
d="M190 1059h158v-1059h-158v1059z" />
    <glyph glyph-name="IJ" unicode="&#x132;" horiz-adv-x="596" 
d="M217 1434h162v-1434h-162v1434zM1034 -20q-81 0 -147.5 19t-120.5 52.5t-97.5 80t-77.5 101.5l117 101q33 -50 67.5 -88t73.5 -64t85 -39.5t102 -13.5q61 0 112 22t88.5 65t58.5 107.5t21 149.5v961h164v-959q0 -127 -34.5 -221t-96.5 -156q-60 -59 -139.5 -88.5
t-175.5 -29.5z" />
    <glyph glyph-name="ij" unicode="&#x133;" horiz-adv-x="539" 
d="M180 1464h180v-174h-180v174zM190 1059h158v-1059h-158v1059zM631 1464h180v-174h-180v174zM541 -334q-28 0 -50 2t-48 8v129q18 -3 39.5 -4.5t38.5 -1.5q53 0 86.5 34t33.5 108v1118h158v-1120q0 -140 -69 -206.5t-189 -66.5z" />
    <glyph glyph-name="Lslash" unicode="&#x141;" horiz-adv-x="1329" 
d="M264 616l-153 -45v150l153 47v666h160v-617l442 135v-151l-442 -133v-518h809v-150h-969v616z" />
    <glyph glyph-name="lslash" unicode="&#x142;" horiz-adv-x="662" 
d="M254 657l-156 -49v154l156 47v686h156v-639l155 49v-153l-155 -50v-702h-156v657z" />
    <glyph glyph-name="OE" unicode="&#x152;" horiz-adv-x="2316" 
d="M901 0q-169 0 -309 54.5t-240.5 150.5t-156.5 226t-56 282v4q0 151 56 282t156.5 227.5t240.5 152t309 55.5h1282v-148h-837v-489h745v-148h-745v-502h847v-147h-1292zM1184 150v1134h-283q-136 0 -245.5 -43.5t-187 -119t-119.5 -178.5t-42 -222v-4q0 -119 42 -222.5
t119.5 -180t187 -120.5t245.5 -44h283z" />
    <glyph glyph-name="oe" unicode="&#x153;" horiz-adv-x="2148" 
d="M653 -25q-115 0 -214 43.5t-172 118.5t-114.5 175t-41.5 212v4q0 112 42 212.5t115.5 176t173.5 120t217 44.5q78 0 148 -20.5t129 -57.5t106.5 -88.5t79.5 -113.5q30 63 74.5 114.5t100 88.5t121 57t138.5 20q117 0 208.5 -44t154.5 -120t96 -178t33 -219v-24t-2 -31
h-840q9 -84 42 -149.5t83.5 -110.5t114 -68.5t133.5 -23.5q109 0 189 40.5t145 108.5l98 -88q-39 -45 -83.5 -81.5t-97.5 -62.5t-115.5 -40.5t-137.5 -14.5q-74 0 -142.5 20t-127.5 56.5t-107 89.5t-80 119q-32 -62 -79.5 -114.5t-107.5 -90.5t-131 -59t-149 -21zM1888 592
q-7 72 -31 136.5t-66 113.5t-102.5 77.5t-138.5 28.5q-68 0 -127 -27t-104.5 -74.5t-74.5 -112.5t-38 -142h682zM662 117q85 0 156 32t122 87.5t79 129.5t28 158v4q0 85 -29.5 160.5t-82 132t-124 89t-154.5 32.5q-85 0 -156 -32.5t-122 -88.5t-79 -130.5t-28 -158.5v-4
q0 -85 29.5 -160t82 -130.5t124 -88t154.5 -32.5z" />
    <glyph glyph-name="Scaron" unicode="&#x160;" horiz-adv-x="1311" 
d="M694 -20q-170 0 -313 56.5t-272 172.5l100 119q56 -51 112 -89t115.5 -63.5t124.5 -38t139 -12.5q72 0 131 18t101 50.5t65 77.5t23 98v4q0 50 -16 90t-57.5 72.5t-114 59t-185.5 50.5q-124 27 -214.5 62t-150 83.5t-88 114t-28.5 154.5v4q0 84 35.5 156t98 124t149 81.5
t188.5 29.5q78 0 146 -11t129.5 -33t117.5 -55t111 -77l-94 -125q-101 82 -202 119t-212 37q-70 0 -126.5 -18t-96 -49.5t-61 -74t-21.5 -90.5v-4q0 -51 16.5 -91t59.5 -73.5t118.5 -61t194.5 -52.5q120 -26 207.5 -62t145.5 -85t86 -113t28 -146v-4q0 -92 -36.5 -167
t-101.5 -128t-155 -81.5t-197 -28.5zM377 1829h135l154 -137l153 137h131l-217 -268h-139z" />
    <glyph glyph-name="scaron" unicode="&#x161;" horiz-adv-x="1020" 
d="M526 -20q-57 0 -115.5 10.5t-115.5 31t-109.5 49t-97.5 64.5l80 113q87 -65 180 -100t187 -35q48 0 88 12t69 33.5t45.5 52.5t16.5 70v4q0 40 -21.5 68.5t-58.5 49.5t-85 37t-100 31q-62 18 -124.5 39.5t-112.5 54.5t-81.5 82.5t-31.5 122.5v4q0 68 27 124t75 95.5
t114.5 61.5t144.5 22q48 0 98.5 -8t99.5 -23t95.5 -36.5t87.5 -48.5l-72 -119q-74 48 -155 75t-158 27q-47 0 -85 -11.5t-64.5 -32t-41 -48.5t-14.5 -61v-5q0 -38 22.5 -65t60.5 -47.5t87 -37t102 -32.5q61 -18 122 -41t109.5 -57.5t78.5 -83.5t30 -121v-4q0 -75 -29 -134
t-80 -99.5t-120 -62t-148 -21.5zM229 1487h136l153 -137l154 137h131l-217 -268h-140z" />
    <glyph glyph-name="Utilde" unicode="&#x168;" horiz-adv-x="1554" 
d="M776 -23q-133 0 -242.5 40.5t-188 119t-122 195t-43.5 268.5v834h162v-824q0 -116 30 -206t86.5 -151.5t137.5 -93.5t184 -32q99 0 179 30t136 89t86.5 148t30.5 206v834h162v-822q0 -156 -43 -275t-121.5 -199t-188.5 -120.5t-245 -40.5zM438 1569q15 57 33.5 98t42 67
t53 38t66.5 12q34 0 71.5 -13t73.5 -28t69.5 -28t59.5 -13q20 0 35 5.5t27 17.5t22.5 31t22.5 46l96 -26q-15 -58 -33.5 -98.5t-42 -66.5t-53 -38t-66.5 -12q-35 0 -72 12.5t-73.5 28t-69.5 28t-59 12.5q-20 0 -35 -5t-27 -17t-22.5 -31t-22.5 -47z" />
    <glyph glyph-name="utilde" unicode="&#x169;" horiz-adv-x="1262" 
d="M565 -23q-96 0 -171.5 31t-127 87t-79 134t-27.5 172v658h157v-619q0 -74 19.5 -133t57 -100t92 -63.5t124.5 -22.5q68 0 126 24t101 67.5t67 104.5t24 136v606h155v-1059h-155v184q-27 -43 -61.5 -80.5t-78.5 -65.5t-99 -44.5t-124 -16.5zM360 1227q15 57 33.5 98t42 67
t53 38t66.5 12q34 0 71.5 -13t73.5 -28t69.5 -28t59.5 -13q20 0 35 5t27 17t22.5 31t22.5 47l96 -26q-15 -58 -33.5 -98.5t-42 -66.5t-53 -38t-66.5 -12q-35 0 -72 12.5t-73 28t-69.5 28t-59.5 12.5q-20 0 -35 -5t-27 -17t-22.5 -31t-22.5 -47z" />
    <glyph glyph-name="Ydieresis" unicode="&#x178;" horiz-adv-x="1466" 
d="M651 567l-596 867h197l483 -717l488 717h188l-596 -865v-569h-164v567zM821 1749h185v-195h-185v195zM461 1749h184v-195h-184v195z" />
    <glyph glyph-name="Zcaron" unicode="&#x17d;" horiz-adv-x="1419" 
d="M137 109l928 1179h-897v146h1118v-109l-930 -1180h930v-145h-1149v109zM432 1829h135l154 -137l153 137h132l-218 -268h-139z" />
    <glyph glyph-name="zcaron" unicode="&#x17e;" horiz-adv-x="1139" 
d="M115 100l702 826h-678v133h893v-101l-704 -825h704v-133h-917v100zM301 1487h135l154 -137l153 137h131l-217 -268h-139z" />
    <glyph glyph-name="florin" unicode="&#x192;" horiz-adv-x="1053" 
d="M190 -10q-34 0 -59 2.5t-47 5.5v135q22 -5 43 -6.5t47 -1.5q65 0 105.5 37t54.5 119l90 483h-201v137h223l48 244q14 77 39.5 133.5t64.5 93t92 54.5t123 18q53 0 91 -5t75 -18v-135q-37 9 -73 15t-68 6q-80 0 -123 -43.5t-62 -141.5l-41 -221h295v-137h-319l-92 -500
q-28 -143 -101 -208.5t-205 -65.5z" />
    <glyph glyph-name="Ohorn" unicode="&#x1a0;" horiz-adv-x="1768" 
d="M868 -25q-164 0 -298 59.5t-230 161t-148.5 235t-52.5 282.5v4q0 148 53 282.5t150 236.5t231.5 162t298.5 60q166 0 301 -61t232 -164h37q54 0 87.5 33.5t33.5 107.5v60h157v-62q0 -129 -59 -195t-160 -75q48 -85 74.5 -181.5t26.5 -199.5q2 -2 0 -4q0 -99 -24 -192
t-69 -175.5t-110 -151.5t-146.5 -118.5t-178.5 -77t-206 -27.5zM872 125q123 0 226 46t178 125.5t116.5 187t41.5 229.5v4q0 122 -42.5 229.5t-117.5 188t-179 127.5t-227 47t-226 -46t-177.5 -125.5t-116 -187t-41.5 -229.5v-4q0 -122 42.5 -230t117.5 -188.5t178.5 -127
t226.5 -46.5z" />
    <glyph glyph-name="ohorn" unicode="&#x1a1;" horiz-adv-x="1323" 
d="M659 -25q-119 0 -219.5 43.5t-173.5 118.5t-114 175t-41 212v4q0 112 41.5 212.5t115 176t175 120t221.5 44.5q70 0 134.5 -16t121 -45t104 -69.5t84.5 -90.5q43 6 69.5 40t26.5 99v60h158v-62q0 -117 -49 -182t-135 -84q17 -46 26.5 -96t9.5 -103v-4
q0 -112 -41.5 -212.5t-116 -176t-176 -120t-221.5 -44.5zM664 117q86 0 157.5 32t123 87.5t80 129.5t28.5 158v4q0 85 -30 160.5t-83 132t-125 89t-156 32.5q-86 0 -157 -32.5t-122 -88.5t-79.5 -130.5t-28.5 -158.5v-4q0 -85 29.5 -160t82 -130.5t124.5 -88t156 -32.5z" />
    <glyph glyph-name="Uhorn" unicode="&#x1af;" horiz-adv-x="1648" 
d="M1374 1100v-488q0 -156 -43 -275t-121.5 -199t-188.5 -120.5t-245 -40.5q-133 0 -242.5 40.5t-188 119t-122 195t-43.5 268.5v834h162v-824q0 -116 30 -206t86.5 -151.5t137.5 -93.5t184 -32q99 0 179 30t136 89t86.5 148t30.5 206v834h162v-201h6q54 0 87.5 33.5
t33.5 107.5v60h158v-62q0 -140 -69 -206t-189 -66h-27z" />
    <glyph glyph-name="uhorn" unicode="&#x1b0;" horiz-adv-x="1344" 
d="M565 -23q-96 0 -171.5 31t-127 87t-79 134t-27.5 172v658h157v-619q0 -74 19.5 -133t57 -100t92 -63.5t124.5 -22.5q68 0 126 24t101 67.5t67 104.5t24 136v606h155v-201q45 6 72 40.5t27 100.5v60h157v-62q0 -70 -18 -121t-51 -84.5t-80.5 -50t-106.5 -16.5v-725h-155
v184q-27 -43 -61.5 -80.5t-78.5 -65.5t-99 -44.5t-124 -16.5z" />
    <glyph glyph-name="uni01E2" unicode="&#x1e2;" horiz-adv-x="2028" 
d="M877 1434h1130v-148h-838v-489h746v-148h-746v-502h848v-147h-1011v379h-578l-223 -379h-170zM1006 524v766h-50l-446 -766h496zM1067 1755h648v-137h-648v137z" />
    <glyph glyph-name="uni01E3" unicode="&#x1e3;" horiz-adv-x="1815" 
d="M483 -23q-71 0 -140 21t-124 62.5t-89 103.5t-34 143v4q0 85 33 150t92.5 108.5t141 65.5t178.5 22q47 0 87 -3t77.5 -9t73.5 -14.5t75 -18.5v33q0 143 -81 215t-222 72q-87 0 -163 -21t-150 -55l-48 129q88 40 178 65t199 25q144 0 245.5 -57.5t141.5 -171.5
q31 53 74 96.5t95 74t112 47.5t125 17q117 0 208 -44t154 -120t96 -178t33 -219v-24t-2 -31h-839q8 -84 41 -149.5t83.5 -110.5t114 -68.5t133.5 -23.5q55 0 102 10.5t87.5 30t76.5 47t68 61.5l99 -88q-40 -45 -85 -81.5t-98 -62.5t-116 -40.5t-138 -14.5q-64 0 -124 14.5
t-114 42t-100 67t-82 89.5q-42 -44 -96.5 -82t-117 -67t-129 -45.5t-132.5 -16.5zM1692 592q-7 72 -31.5 136.5t-66.5 113.5t-102 77.5t-138 28.5q-69 0 -128 -27t-104.5 -74.5t-74.5 -112.5t-37 -142h682zM514 104q69 0 123.5 14t99.5 39t83 59.5t75 76.5q-37 90 -43 199
q-59 15 -132 27.5t-163 12.5q-70 0 -125.5 -15.5t-94.5 -43.5t-60 -67t-21 -87v-4q0 -50 21.5 -89t57.5 -66t82.5 -41.5t96.5 -14.5zM770 1366h648v-137h-648v137z" />
    <glyph glyph-name="AEacute" unicode="&#x1fc;" horiz-adv-x="2028" 
d="M877 1434h1130v-148h-838v-489h746v-148h-746v-502h848v-147h-1011v379h-578l-223 -379h-170zM1006 524v766h-50l-446 -766h496zM1294 1905l164 -76l-231 -221h-127z" />
    <glyph glyph-name="aeacute" unicode="&#x1fd;" horiz-adv-x="1815" 
d="M483 -23q-71 0 -140 21t-124 62.5t-89 103.5t-34 143v4q0 85 33 150t92.5 108.5t141 65.5t178.5 22q47 0 87 -3t77.5 -9t73.5 -14.5t75 -18.5v33q0 143 -81 215t-222 72q-87 0 -163 -21t-150 -55l-48 129q88 40 178 65t199 25q144 0 245.5 -57.5t141.5 -171.5
q31 53 74 96.5t95 74t112 47.5t125 17q117 0 208 -44t154 -120t96 -178t33 -219v-24t-2 -31h-839q8 -84 41 -149.5t83.5 -110.5t114 -68.5t133.5 -23.5q55 0 102 10.5t87.5 30t76.5 47t68 61.5l99 -88q-40 -45 -85 -81.5t-98 -62.5t-116 -40.5t-138 -14.5q-64 0 -124 14.5
t-114 42t-100 67t-82 89.5q-42 -44 -96.5 -82t-117 -67t-129 -45.5t-132.5 -16.5zM1692 592q-7 72 -31.5 136.5t-66.5 113.5t-102 77.5t-138 28.5q-69 0 -128 -27t-104.5 -74.5t-74.5 -112.5t-37 -142h682zM514 104q69 0 123.5 14t99.5 39t83 59.5t75 76.5q-37 90 -43 199
q-59 15 -132 27.5t-163 12.5q-70 0 -125.5 -15.5t-94.5 -43.5t-60 -67t-21 -87v-4q0 -50 21.5 -89t57.5 -66t82.5 -41.5t96.5 -14.5zM1147 1516l164 -76l-231 -221h-127z" />
    <glyph glyph-name="hookabovecombHOA" unicode="&#x2bc;" horiz-adv-x="0" 
d="M-56 1523l-1 22q0 60 46 107l22 21q27 27 27 59q0 51 -54 51q-60 0 -65 -88h-95v18q0 42 14 76.5t39 58.5q23 20 50.5 32t56.5 13q77 3 123 -37q54 -45 54 -122q0 -36 -21 -69q-1 -4 -36 -42l-19 -19l-29 -29h1q-15 -17 -15 -28v-24h-98z" />
    <glyph glyph-name="circumflex" unicode="&#x2c6;" horiz-adv-x="1024" 
d="M442 1487h140l217 -268h-135l-154 137l-154 -137h-131z" />
    <glyph glyph-name="caron" unicode="&#x2c7;" horiz-adv-x="1024" 
d="M225 1487h135l154 -137l154 137h131l-217 -268h-140z" />
    <glyph glyph-name="breve" unicode="&#x2d8;" horiz-adv-x="1024" 
d="M512 1214q-64 0 -117.5 18.5t-93.5 53.5t-64 85.5t-28 115.5h115q18 -65 64 -103t124 -38t124 38t64 103h115q-5 -65 -29 -115.5t-63.5 -85.5t-93 -53.5t-117.5 -18.5z" />
    <glyph glyph-name="dotaccent" unicode="&#x2d9;" horiz-adv-x="1024" 
d="M416 1415h192v-196h-192v196z" />
    <glyph glyph-name="ring" unicode="&#x2da;" horiz-adv-x="1024" 
d="M512 1214q-42 0 -81 16t-68 44t-46.5 65t-17.5 78v4q0 42 17.5 78.5t46.5 64.5t68 44t81 16t81 -16t68 -44t46.5 -64.5t17.5 -78.5v-4q0 -41 -17.5 -78t-46.5 -65t-68 -44t-81 -16zM512 1292q25 0 48.5 10t40.5 27.5t27.5 40t10.5 47.5v4q0 25 -10 48t-27.5 40t-40.5 27
t-49 10t-49.5 -10t-40.5 -27t-27 -40t-10 -48v-4q0 -25 10.5 -47.5t27.5 -40t40 -27.5t49 -10z" />
    <glyph glyph-name="ogonek" unicode="&#x2db;" horiz-adv-x="1024" 
d="M737 -336q-90 -5 -157.5 9.5t-113 44t-68.5 72.5t-23 95q0 37 8 71.5t20 63.5h123q-6 -26 -9 -52.5t-3 -51.5q0 -78 54 -120t169 -48v-84v0z" />
    <glyph glyph-name="tilde" unicode="&#x2dc;" horiz-adv-x="1024" 
d="M176 1227q15 57 33.5 98t42 67t53 38t66.5 12q34 0 71.5 -13t73.5 -28t69.5 -28t59.5 -13q20 0 35 5t27 17t22.5 31t22.5 47l96 -26q-15 -58 -33.5 -98.5t-42 -66.5t-53 -38t-66.5 -12q-35 0 -72 12.5t-73 28t-69.5 28t-59.5 12.5q-20 0 -35 -5t-27 -17t-22.5 -31
t-22.5 -47z" />
    <glyph glyph-name="hungarumlaut" unicode="&#x2dd;" horiz-adv-x="1024" 
d="M702 1516l154 -76l-223 -221h-125zM367 1516l153 -76l-221 -221h-127z" />
    <glyph glyph-name="gravecomb" unicode="&#x300;" horiz-adv-x="0" 
d="M-121 1782l164 76l194 -297h-127z" />
    <glyph glyph-name="acutecomb" unicode="&#x301;" horiz-adv-x="0" 
d="M337 1858l164 -76l-232 -221h-126z" />
    <glyph glyph-name="tildecomb" unicode="&#x303;" horiz-adv-x="1024" 
d="M-297 1569q15 57 33.5 98t42 67t53 38t66.5 12q34 0 71.5 -13t73.5 -28t69.5 -28t59.5 -13q20 0 35 5.5t27 17.5t22.5 31t22.5 46l96 -26q-15 -58 -33.5 -98.5t-42 -66.5t-53 -38t-66.5 -12q-35 0 -72 12.5t-73.5 28t-69.5 28t-59 12.5q-20 0 -35 -5t-27 -17t-22.5 -31
t-22.5 -47z" />
    <glyph glyph-name="hookabovecomb" unicode="&#x309;" horiz-adv-x="0" 
d="M-46 1161l-1 22q0 60 46 107l22 21q27 27 27 59q0 51 -54 51q-60 0 -65 -88h-95v18q0 42 14 76.5t39 58.5q23 20 50.5 32t56.5 13q77 3 123 -37q54 -45 54 -122q0 -36 -21 -69q-1 -4 -36 -42l-19 -19l-29 -29h1q-15 -17 -15 -28v-24h-98z" />
    <glyph glyph-name="dotbelowcomb" unicode="&#x323;" horiz-adv-x="0" 
d="M-102 -157h192v-196h-192v196z" />
    <glyph glyph-name="pi" unicode="&#x3c0;" horiz-adv-x="1700" 
d="M848 -25q-104 0 -199 26.5t-177.5 75t-149 116t-114 149.5t-73.5 176t-26 195v4q0 101 26 195t74 176.5t115.5 150.5t150 116.5t178 75.5t199.5 27t199 -26.5t177.5 -75t149 -116t114 -149.5t73.5 -175.5t26 -194.5v-4q0 -101 -26 -195t-74 -176.5t-115.5 -151t-150 -117
t-178 -75.5t-199.5 -27zM848 39q96 0 183.5 24.5t162.5 69t136 106.5t104 137.5t66.5 161.5t23.5 179v4q0 139 -51 262t-141 214.5t-213 144.5t-267 53t-268 -54t-214.5 -146.5t-142 -215.5t-51.5 -262v-4q0 -139 51 -262t141 -214.5t213 -144.5t267 -53zM598 1112h299
q67 0 121.5 -16.5t93 -48t59.5 -77.5t21 -104v-4q0 -64 -25 -111.5t-68 -79t-99 -47.5t-117 -16h-170v-256h-115v760zM885 711q88 0 140 39t52 110v4q0 75 -51 110.5t-139 35.5h-174v-299h172z" />
    <glyph glyph-name="uni1EA0" unicode="&#x1ea0;" 
d="M733 1444h152l653 -1444h-174l-168 379h-780l-170 -379h-166zM1133 524l-326 731l-328 -731h654zM713 -157h192v-196h-192v196z" />
    <glyph glyph-name="uni1EA1" unicode="&#x1ea1;" horiz-adv-x="1186" 
d="M492 -23q-75 0 -146 21t-126.5 62.5t-89.5 103.5t-34 143v4q0 85 33 150t93 108.5t143 65.5t184 22q51 0 94.5 -3t82.5 -9t75 -14.5t71 -18.5v33q0 143 -81.5 215t-231.5 72q-94 0 -170.5 -21t-150.5 -55l-48 129q44 20 88 36.5t90.5 28.5t97.5 18.5t109 6.5
q113 0 199.5 -30t143.5 -87q110 -110 110 -311v-647h-156v158q-27 -36 -64 -68.5t-84 -57.5t-104.5 -40t-127.5 -15zM522 104q73 0 137 21t112 58.5t75.5 90t27.5 115.5v98q-58 17 -135 31t-174 14q-74 0 -131 -15.5t-97 -43.5t-60.5 -67t-20.5 -87v-4q0 -50 21.5 -89
t58 -66t84.5 -41.5t102 -14.5zM497 -157h192v-196h-192v196z" />
    <glyph glyph-name="uni1EA2" unicode="&#x1ea2;" 
d="M733 1444h152l653 -1444h-174l-168 379h-780l-170 -379h-166zM1133 524l-326 731l-328 -731h654zM759 1523l-1 22q0 60 46 107l22 21q27 27 27 59q0 51 -54 51q-60 0 -65 -88h-95v18q0 42 14 76.5t39 58.5q23 20 50.5 32t56.5 13q77 3 123 -37q54 -45 54 -122
q0 -36 -21 -69q-1 -4 -36 -42l-19 -19l-29 -29h1q-15 -17 -15 -28v-24h-98z" />
    <glyph glyph-name="uni1EA3" unicode="&#x1ea3;" horiz-adv-x="1186" 
d="M492 -23q-75 0 -146 21t-126.5 62.5t-89.5 103.5t-34 143v4q0 85 33 150t93 108.5t143 65.5t184 22q51 0 94.5 -3t82.5 -9t75 -14.5t71 -18.5v33q0 143 -81.5 215t-231.5 72q-94 0 -170.5 -21t-150.5 -55l-48 129q44 20 88 36.5t90.5 28.5t97.5 18.5t109 6.5
q113 0 199.5 -30t143.5 -87q110 -110 110 -311v-647h-156v158q-27 -36 -64 -68.5t-84 -57.5t-104.5 -40t-127.5 -15zM522 104q73 0 137 21t112 58.5t75.5 90t27.5 115.5v98q-58 17 -135 31t-174 14q-74 0 -131 -15.5t-97 -43.5t-60.5 -67t-20.5 -87v-4q0 -50 21.5 -89
t58 -66t84.5 -41.5t102 -14.5zM570 1161l-1 22q0 60 46 107l22 21q27 27 27 59q0 51 -54 51q-60 0 -65 -88h-95v18q0 42 14 76.5t39 58.5q23 20 50.5 32t56.5 13q77 3 123 -37q54 -45 54 -122q0 -36 -21 -69q-1 -4 -36 -42l-19 -19l-29 -29h1q-15 -17 -15 -28v-24h-98z" />
    <glyph glyph-name="uni1EA4" unicode="&#x1ea4;" 
d="M733 1444h152l653 -1444h-174l-168 379h-780l-170 -379h-166zM1133 524l-326 731l-328 -731h654zM739 1823h140l217 -269h-135l-154 138l-154 -138h-131zM1208 2033l164 -76l-232 -221h-126z" />
    <glyph glyph-name="uni1EA5" unicode="&#x1ea5;" horiz-adv-x="1186" 
d="M492 -23q-75 0 -146 21t-126.5 62.5t-89.5 103.5t-34 143v4q0 85 33 150t93 108.5t143 65.5t184 22q51 0 94.5 -3t82.5 -9t75 -14.5t71 -18.5v33q0 143 -81.5 215t-231.5 72q-94 0 -170.5 -21t-150.5 -55l-48 129q44 20 88 36.5t90.5 28.5t97.5 18.5t109 6.5
q113 0 199.5 -30t143.5 -87q110 -110 110 -311v-647h-156v158q-27 -36 -64 -68.5t-84 -57.5t-104.5 -40t-127.5 -15zM522 104q73 0 137 21t112 58.5t75.5 90t27.5 115.5v98q-58 17 -135 31t-174 14q-74 0 -131 -15.5t-97 -43.5t-60.5 -67t-20.5 -87v-4q0 -50 21.5 -89
t58 -66t84.5 -41.5t102 -14.5zM526 1487h140l217 -268h-135l-154 137l-154 -137h-131zM1005 1676l164 -76l-231 -221h-127z" />
    <glyph glyph-name="uni1EA6" unicode="&#x1ea6;" 
d="M733 1444h152l653 -1444h-174l-168 379h-780l-170 -379h-166zM1133 524l-326 731l-328 -731h654zM739 1823h140l217 -269h-135l-154 138l-154 -138h-131zM871 1957l164 76l194 -297h-127z" />
    <glyph glyph-name="uni1EA7" unicode="&#x1ea7;" horiz-adv-x="1186" 
d="M492 -23q-75 0 -146 21t-126.5 62.5t-89.5 103.5t-34 143v4q0 85 33 150t93 108.5t143 65.5t184 22q51 0 94.5 -3t82.5 -9t75 -14.5t71 -18.5v33q0 143 -81.5 215t-231.5 72q-94 0 -170.5 -21t-150.5 -55l-48 129q44 20 88 36.5t90.5 28.5t97.5 18.5t109 6.5
q113 0 199.5 -30t143.5 -87q110 -110 110 -311v-647h-156v158q-27 -36 -64 -68.5t-84 -57.5t-104.5 -40t-127.5 -15zM522 104q73 0 137 21t112 58.5t75.5 90t27.5 115.5v98q-58 17 -135 31t-174 14q-74 0 -131 -15.5t-97 -43.5t-60.5 -67t-20.5 -87v-4q0 -50 21.5 -89
t58 -66t84.5 -41.5t102 -14.5zM526 1487h140l217 -268h-135l-154 137l-154 -137h-131zM665 1600l164 76l194 -297h-127z" />
    <glyph glyph-name="uni1EA8" unicode="&#x1ea8;" 
d="M733 1444h152l653 -1444h-174l-168 379h-780l-170 -379h-166zM1133 524l-326 731l-328 -731h654zM739 1823h140l217 -269h-135l-154 138l-154 -138h-131zM1065 1706l-1 22q0 60 46 107l22 21q27 27 27 59q0 51 -54 51q-60 0 -65 -88h-95v18q0 42 14 76.5t39 58.5
q23 20 50.5 32t56.5 13q77 3 123 -37q54 -45 54 -122q0 -36 -21 -69q-1 -4 -36 -42l-19 -19l-29 -29h1q-15 -17 -15 -28v-24h-98z" />
    <glyph glyph-name="uni1EA9" unicode="&#x1ea9;" horiz-adv-x="1186" 
d="M492 -23q-75 0 -146 21t-126.5 62.5t-89.5 103.5t-34 143v4q0 85 33 150t93 108.5t143 65.5t184 22q51 0 94.5 -3t82.5 -9t75 -14.5t71 -18.5v33q0 143 -81.5 215t-231.5 72q-94 0 -170.5 -21t-150.5 -55l-48 129q44 20 88 36.5t90.5 28.5t97.5 18.5t109 6.5
q113 0 199.5 -30t143.5 -87q110 -110 110 -311v-647h-156v158q-27 -36 -64 -68.5t-84 -57.5t-104.5 -40t-127.5 -15zM522 104q73 0 137 21t112 58.5t75.5 90t27.5 115.5v98q-58 17 -135 31t-174 14q-74 0 -131 -15.5t-97 -43.5t-60.5 -67t-20.5 -87v-4q0 -50 21.5 -89
t58 -66t84.5 -41.5t102 -14.5zM526 1487h140l217 -268h-135l-154 137l-154 -137h-131zM844 1384l-1 22q0 60 46 107l22 21q27 27 27 59q0 51 -54 51q-60 0 -65 -88h-95v18q0 42 14 76.5t39 58.5q23 20 50.5 32t56.5 13q77 3 123 -37q54 -45 54 -122q0 -36 -21 -69
q-1 -4 -36 -42l-19 -19l-29 -29h1q-15 -17 -15 -28v-24h-98z" />
    <glyph glyph-name="uni1EAA" unicode="&#x1eaa;" 
d="M733 1444h152l653 -1444h-174l-168 379h-780l-170 -379h-166zM1133 524l-326 731l-328 -731h654zM739 1823h140l217 -269h-135l-154 138l-154 -138h-131zM467 1878q15 57 33.5 98t42 67t53 38t66.5 12q34 0 71.5 -13t73.5 -28t69.5 -28t59.5 -13q20 0 35 5.5t27 17.5
t22.5 31t22.5 46l96 -26q-15 -58 -33.5 -98.5t-42 -66.5t-53 -38t-66.5 -12q-35 0 -72 12.5t-73.5 28t-69.5 28t-59 12.5q-20 0 -35 -5t-27 -17t-22.5 -31t-22.5 -47z" />
    <glyph glyph-name="uni1EAB" unicode="&#x1eab;" horiz-adv-x="1186" 
d="M492 -23q-75 0 -146 21t-126.5 62.5t-89.5 103.5t-34 143v4q0 85 33 150t93 108.5t143 65.5t184 22q51 0 94.5 -3t82.5 -9t75 -14.5t71 -18.5v33q0 143 -81.5 215t-231.5 72q-94 0 -170.5 -21t-150.5 -55l-48 129q44 20 88 36.5t90.5 28.5t97.5 18.5t109 6.5
q113 0 199.5 -30t143.5 -87q110 -110 110 -311v-647h-156v158q-27 -36 -64 -68.5t-84 -57.5t-104.5 -40t-127.5 -15zM522 104q73 0 137 21t112 58.5t75.5 90t27.5 115.5v98q-58 17 -135 31t-174 14q-74 0 -131 -15.5t-97 -43.5t-60.5 -67t-20.5 -87v-4q0 -50 21.5 -89
t58 -66t84.5 -41.5t102 -14.5zM526 1487h140l217 -268h-135l-154 137l-154 -137h-131zM254 1540q15 57 33.5 98t42 67t53 38t66.5 12q34 0 71.5 -13t73.5 -28t69.5 -28t59.5 -13q20 0 35 5t27 17t22.5 31t22.5 47l96 -26q-15 -58 -33.5 -98.5t-42 -66.5t-53 -38t-66.5 -12
q-35 0 -72 12.5t-73 28t-69.5 28t-59.5 12.5q-20 0 -35 -5t-27 -17t-22.5 -31t-22.5 -47z" />
    <glyph glyph-name="uni1EAC" unicode="&#x1eac;" 
d="M733 1444h152l653 -1444h-174l-168 379h-780l-170 -379h-166zM1133 524l-326 731l-328 -731h654zM739 1823h140l217 -269h-135l-154 138l-154 -138h-131zM713 -157h192v-196h-192v196z" />
    <glyph glyph-name="uni1EAD" unicode="&#x1ead;" horiz-adv-x="1186" 
d="M492 -23q-75 0 -146 21t-126.5 62.5t-89.5 103.5t-34 143v4q0 85 33 150t93 108.5t143 65.5t184 22q51 0 94.5 -3t82.5 -9t75 -14.5t71 -18.5v33q0 143 -81.5 215t-231.5 72q-94 0 -170.5 -21t-150.5 -55l-48 129q44 20 88 36.5t90.5 28.5t97.5 18.5t109 6.5
q113 0 199.5 -30t143.5 -87q110 -110 110 -311v-647h-156v158q-27 -36 -64 -68.5t-84 -57.5t-104.5 -40t-127.5 -15zM522 104q73 0 137 21t112 58.5t75.5 90t27.5 115.5v98q-58 17 -135 31t-174 14q-74 0 -131 -15.5t-97 -43.5t-60.5 -67t-20.5 -87v-4q0 -50 21.5 -89
t58 -66t84.5 -41.5t102 -14.5zM526 1487h140l217 -268h-135l-154 137l-154 -137h-131zM497 -157h192v-196h-192v196z" />
    <glyph glyph-name="uni1EAE" unicode="&#x1eae;" 
d="M733 1444h152l653 -1444h-174l-168 379h-780l-170 -379h-166zM1133 524l-326 731l-328 -731h654zM807 1554q-64 0 -117.5 18.5t-93.5 53.5t-64 85.5t-28 115.5h114q19 -65 64.5 -103t124.5 -38q78 0 124 38t64 103h115q-5 -65 -29 -115.5t-63.5 -85.5t-93 -53.5
t-117.5 -18.5zM900 2135l164 -76l-232 -221h-126z" />
    <glyph glyph-name="uni1EAF" unicode="&#x1eaf;" horiz-adv-x="1186" 
d="M492 -23q-75 0 -146 21t-126.5 62.5t-89.5 103.5t-34 143v4q0 85 33 150t93 108.5t143 65.5t184 22q51 0 94.5 -3t82.5 -9t75 -14.5t71 -18.5v33q0 143 -81.5 215t-231.5 72q-94 0 -170.5 -21t-150.5 -55l-48 129q44 20 88 36.5t90.5 28.5t97.5 18.5t109 6.5
q113 0 199.5 -30t143.5 -87q110 -110 110 -311v-647h-156v158q-27 -36 -64 -68.5t-84 -57.5t-104.5 -40t-127.5 -15zM522 104q73 0 137 21t112 58.5t75.5 90t27.5 115.5v98q-58 17 -135 31t-174 14q-74 0 -131 -15.5t-97 -43.5t-60.5 -67t-20.5 -87v-4q0 -50 21.5 -89
t58 -66t84.5 -41.5t102 -14.5zM594 1217q-64 0 -117.5 18.5t-93.5 53t-64 85t-28 115.5h115q18 -65 63.5 -103t124.5 -38q78 0 124 38t64 103h115q-5 -65 -29 -115.5t-63.5 -85t-93 -53t-117.5 -18.5zM685 1778l164 -76l-231 -221h-127z" />
    <glyph glyph-name="uni1EB0" unicode="&#x1eb0;" 
d="M733 1444h152l653 -1444h-174l-168 379h-780l-170 -379h-166zM1133 524l-326 731l-328 -731h654zM807 1554q-64 0 -117.5 18.5t-93.5 53.5t-64 85.5t-28 115.5h114q19 -65 64.5 -103t124.5 -38q78 0 124 38t64 103h115q-5 -65 -29 -115.5t-63.5 -85.5t-93 -53.5
t-117.5 -18.5zM541 2059l164 76l194 -297h-127z" />
    <glyph glyph-name="uni1EB1" unicode="&#x1eb1;" horiz-adv-x="1186" 
d="M492 -23q-75 0 -146 21t-126.5 62.5t-89.5 103.5t-34 143v4q0 85 33 150t93 108.5t143 65.5t184 22q51 0 94.5 -3t82.5 -9t75 -14.5t71 -18.5v33q0 143 -81.5 215t-231.5 72q-94 0 -170.5 -21t-150.5 -55l-48 129q44 20 88 36.5t90.5 28.5t97.5 18.5t109 6.5
q113 0 199.5 -30t143.5 -87q110 -110 110 -311v-647h-156v158q-27 -36 -64 -68.5t-84 -57.5t-104.5 -40t-127.5 -15zM522 104q73 0 137 21t112 58.5t75.5 90t27.5 115.5v98q-58 17 -135 31t-174 14q-74 0 -131 -15.5t-97 -43.5t-60.5 -67t-20.5 -87v-4q0 -50 21.5 -89
t58 -66t84.5 -41.5t102 -14.5zM594 1217q-64 0 -117.5 18.5t-93.5 53t-64 85t-28 115.5h115q18 -65 63.5 -103t124.5 -38q78 0 124 38t64 103h115q-5 -65 -29 -115.5t-63.5 -85t-93 -53t-117.5 -18.5zM297 1702l164 76l194 -297h-127z" />
    <glyph glyph-name="uni1EB2" unicode="&#x1eb2;" 
d="M733 1444h152l653 -1444h-174l-168 379h-780l-170 -379h-166zM1133 524l-326 731l-328 -731h654zM807 1554q-64 0 -117.5 18.5t-93.5 53.5t-64 85.5t-28 115.5h114q19 -65 64.5 -103t124.5 -38q78 0 124 38t64 103h115q-5 -65 -29 -115.5t-63.5 -85.5t-93 -53.5
t-117.5 -18.5zM759 1849l-1 22q0 60 46 107l22 21q27 27 27 59q0 51 -54 51q-60 0 -65 -88h-95v18q0 42 14 76.5t39 58.5q23 20 50.5 32t56.5 13q77 3 123 -37q54 -45 54 -122q0 -36 -21 -69q-1 -4 -36 -42l-19 -19l-29 -29h1q-15 -17 -15 -28v-24h-98z" />
    <glyph glyph-name="uni1EB3" unicode="&#x1eb3;" horiz-adv-x="1186" 
d="M492 -23q-75 0 -146 21t-126.5 62.5t-89.5 103.5t-34 143v4q0 85 33 150t93 108.5t143 65.5t184 22q51 0 94.5 -3t82.5 -9t75 -14.5t71 -18.5v33q0 143 -81.5 215t-231.5 72q-94 0 -170.5 -21t-150.5 -55l-48 129q44 20 88 36.5t90.5 28.5t97.5 18.5t109 6.5
q113 0 199.5 -30t143.5 -87q110 -110 110 -311v-647h-156v158q-27 -36 -64 -68.5t-84 -57.5t-104.5 -40t-127.5 -15zM522 104q73 0 137 21t112 58.5t75.5 90t27.5 115.5v98q-58 17 -135 31t-174 14q-74 0 -131 -15.5t-97 -43.5t-60.5 -67t-20.5 -87v-4q0 -50 21.5 -89
t58 -66t84.5 -41.5t102 -14.5zM594 1217q-64 0 -117.5 18.5t-93.5 53t-64 85t-28 115.5h115q18 -65 63.5 -103t124.5 -38q78 0 124 38t64 103h115q-5 -65 -29 -115.5t-63.5 -85t-93 -53t-117.5 -18.5zM565 1468l-1 22q0 60 46 107l22 21q27 27 27 59q0 51 -54 51
q-60 0 -65 -88h-95v18q0 42 14 76.5t39 58.5q23 20 50.5 32t56.5 13q77 3 123 -37q54 -45 54 -122q0 -36 -21 -69q-1 -4 -36 -42l-19 -19l-29 -29h1q-15 -17 -15 -28v-24h-98z" />
    <glyph glyph-name="uni1EB4" unicode="&#x1eb4;" 
d="M733 1444h152l653 -1444h-174l-168 379h-780l-170 -379h-166zM1133 524l-326 731l-328 -731h654zM807 1554q-64 0 -117.5 18.5t-93.5 53.5t-64 85.5t-28 115.5h114q19 -65 64.5 -103t124.5 -38q78 0 124 38t64 103h115q-5 -65 -29 -115.5t-63.5 -85.5t-93 -53.5
t-117.5 -18.5zM472 1913q15 57 33.5 98t42 67t53 38t66.5 12q34 0 71.5 -13t73.5 -28t69.5 -28t59.5 -13q20 0 35 5.5t27 17.5t22.5 31t22.5 46l96 -26q-15 -58 -33.5 -98.5t-42 -66.5t-53 -38t-66.5 -12q-35 0 -72 12.5t-73.5 28t-69.5 28t-59 12.5q-20 0 -35 -5t-27 -17
t-22.5 -31t-22.5 -47z" />
    <glyph glyph-name="uni1EB5" unicode="&#x1eb5;" horiz-adv-x="1186" 
d="M492 -23q-75 0 -146 21t-126.5 62.5t-89.5 103.5t-34 143v4q0 85 33 150t93 108.5t143 65.5t184 22q51 0 94.5 -3t82.5 -9t75 -14.5t71 -18.5v33q0 143 -81.5 215t-231.5 72q-94 0 -170.5 -21t-150.5 -55l-48 129q44 20 88 36.5t90.5 28.5t97.5 18.5t109 6.5
q113 0 199.5 -30t143.5 -87q110 -110 110 -311v-647h-156v158q-27 -36 -64 -68.5t-84 -57.5t-104.5 -40t-127.5 -15zM522 104q73 0 137 21t112 58.5t75.5 90t27.5 115.5v98q-58 17 -135 31t-174 14q-74 0 -131 -15.5t-97 -43.5t-60.5 -67t-20.5 -87v-4q0 -50 21.5 -89
t58 -66t84.5 -41.5t102 -14.5zM594 1217q-64 0 -117.5 18.5t-93.5 53t-64 85t-28 115.5h115q18 -65 63.5 -103t124.5 -38q78 0 124 38t64 103h115q-5 -65 -29 -115.5t-63.5 -85t-93 -53t-117.5 -18.5zM311 1573q15 57 33.5 98t42 67t53 38t66.5 12q34 0 71.5 -13t73.5 -28
t69.5 -28t59.5 -13q20 0 35 5t27 17t22.5 31t22.5 47l96 -26q-15 -58 -33.5 -98.5t-42 -66.5t-53 -38t-66.5 -12q-35 0 -72 12.5t-73 28t-69.5 28t-59.5 12.5q-20 0 -35 -5t-27 -17t-22.5 -31t-22.5 -47z" />
    <glyph glyph-name="uni1EB6" unicode="&#x1eb6;" 
d="M733 1444h152l653 -1444h-174l-168 379h-780l-170 -379h-166zM1133 524l-326 731l-328 -731h654zM807 1554q-64 0 -117.5 18.5t-93.5 53.5t-64 85.5t-28 115.5h114q19 -65 64.5 -103t124.5 -38q78 0 124 38t64 103h115q-5 -65 -29 -115.5t-63.5 -85.5t-93 -53.5
t-117.5 -18.5zM713 -157h192v-196h-192v196z" />
    <glyph glyph-name="uni1EB7" unicode="&#x1eb7;" horiz-adv-x="1186" 
d="M492 -23q-75 0 -146 21t-126.5 62.5t-89.5 103.5t-34 143v4q0 85 33 150t93 108.5t143 65.5t184 22q51 0 94.5 -3t82.5 -9t75 -14.5t71 -18.5v33q0 143 -81.5 215t-231.5 72q-94 0 -170.5 -21t-150.5 -55l-48 129q44 20 88 36.5t90.5 28.5t97.5 18.5t109 6.5
q113 0 199.5 -30t143.5 -87q110 -110 110 -311v-647h-156v158q-27 -36 -64 -68.5t-84 -57.5t-104.5 -40t-127.5 -15zM522 104q73 0 137 21t112 58.5t75.5 90t27.5 115.5v98q-58 17 -135 31t-174 14q-74 0 -131 -15.5t-97 -43.5t-60.5 -67t-20.5 -87v-4q0 -50 21.5 -89
t58 -66t84.5 -41.5t102 -14.5zM594 1217q-64 0 -117.5 18.5t-93.5 53t-64 85t-28 115.5h115q18 -65 63.5 -103t124.5 -38q78 0 124 38t64 103h115q-5 -65 -29 -115.5t-63.5 -85t-93 -53t-117.5 -18.5zM497 -157h192v-196h-192v196z" />
    <glyph glyph-name="uni1EB8" unicode="&#x1eb8;" horiz-adv-x="1372" 
d="M203 1434h1036v-148h-874v-489h782v-148h-782v-502h884v-147h-1046v1434zM590 -157h192v-196h-192v196z" />
    <glyph glyph-name="uni1EB9" unicode="&#x1eb9;" horiz-adv-x="1212" 
d="M270 465q9 -84 42 -149.5t83.5 -110.5t114 -68.5t133.5 -23.5q109 0 189 40.5t145 108.5l98 -88q-40 -45 -84.5 -81.5t-97.5 -62.5t-116 -40.5t-138 -14.5q-109 0 -205 40t-168 113t-113.5 175t-41.5 225q0 115 38 216t106 176t160.5 118t202.5 43q118 0 210 -44
t155 -120t96 -178t33 -219v-24t-2 -31h-840zM952 592q-7 72 -31 136.5t-66 113.5t-102.5 77.5t-138.5 28.5q-68 0 -127 -27t-104.5 -74.5t-74.5 -112.5t-38 -142h682zM511 -157h192v-196h-192v196z" />
    <glyph glyph-name="uni1EBA" unicode="&#x1eba;" horiz-adv-x="1372" 
d="M203 1434h1036v-148h-874v-489h782v-148h-782v-502h884v-147h-1046v1434zM637 1523l-1 22q0 60 46 107l22 21q27 27 27 59q0 51 -54 51q-60 0 -65 -88h-95v18q0 42 14 76.5t39 58.5q23 20 50.5 32t56.5 13q77 3 123 -37q54 -45 54 -122q0 -36 -21 -69q-1 -4 -36 -42
l-19 -19l-29 -29h1q-15 -17 -15 -28v-24h-98z" />
    <glyph glyph-name="uni1EBB" unicode="&#x1ebb;" horiz-adv-x="1212" 
d="M270 465q9 -84 42 -149.5t83.5 -110.5t114 -68.5t133.5 -23.5q109 0 189 40.5t145 108.5l98 -88q-40 -45 -84.5 -81.5t-97.5 -62.5t-116 -40.5t-138 -14.5q-109 0 -205 40t-168 113t-113.5 175t-41.5 225q0 115 38 216t106 176t160.5 118t202.5 43q118 0 210 -44
t155 -120t96 -178t33 -219v-24t-2 -31h-840zM952 592q-7 72 -31 136.5t-66 113.5t-102.5 77.5t-138.5 28.5q-68 0 -127 -27t-104.5 -74.5t-74.5 -112.5t-38 -142h682zM570 1161l-1 22q0 60 46 107l22 21q27 27 27 59q0 51 -54 51q-60 0 -65 -88h-95v18q0 42 14 76.5t39 58.5
q23 20 50.5 32t56.5 13q77 3 123 -37q54 -45 54 -122q0 -36 -21 -69q-1 -4 -36 -42l-19 -19l-29 -29h1q-15 -17 -15 -28v-24h-98z" />
    <glyph glyph-name="uni1EBC" unicode="&#x1ebc;" horiz-adv-x="1372" 
d="M203 1434h1036v-148h-874v-489h782v-148h-782v-502h884v-147h-1046v1434zM376 1569q15 57 33.5 98t42 67t53 38t66.5 12q34 0 71.5 -13t73.5 -28t69.5 -28t59.5 -13q20 0 35 5.5t27 17.5t22.5 31t22.5 46l96 -26q-15 -58 -33.5 -98.5t-42 -66.5t-53 -38t-66.5 -12
q-35 0 -72 12.5t-73.5 28t-69.5 28t-59 12.5q-20 0 -35 -5t-27 -17t-22.5 -31t-22.5 -47z" />
    <glyph glyph-name="uni1EBD" unicode="&#x1ebd;" horiz-adv-x="1212" 
d="M270 465q9 -84 42 -149.5t83.5 -110.5t114 -68.5t133.5 -23.5q109 0 189 40.5t145 108.5l98 -88q-40 -45 -84.5 -81.5t-97.5 -62.5t-116 -40.5t-138 -14.5q-109 0 -205 40t-168 113t-113.5 175t-41.5 225q0 115 38 216t106 176t160.5 118t202.5 43q118 0 210 -44
t155 -120t96 -178t33 -219v-24t-2 -31h-840zM952 592q-7 72 -31 136.5t-66 113.5t-102.5 77.5t-138.5 28.5q-68 0 -127 -27t-104.5 -74.5t-74.5 -112.5t-38 -142h682zM360 1227q15 57 33.5 98t42 67t53 38t66.5 12q34 0 71.5 -13t73.5 -28t69.5 -28t59.5 -13q20 0 35 5
t27 17t22.5 31t22.5 47l96 -26q-15 -58 -33.5 -98.5t-42 -66.5t-53 -38t-66.5 -12q-35 0 -72 12.5t-73 28t-69.5 28t-59.5 12.5q-20 0 -35 -5t-27 -17t-22.5 -31t-22.5 -47z" />
    <glyph glyph-name="uni1EBE" unicode="&#x1ebe;" horiz-adv-x="1372" 
d="M203 1434h1036v-148h-874v-489h782v-148h-782v-502h884v-147h-1046v1434zM643 1829h139l217 -268h-135l-153 137l-154 -137h-131zM1104 2033l164 -76l-232 -221h-126z" />
    <glyph glyph-name="uni1EBF" unicode="&#x1ebf;" horiz-adv-x="1212" 
d="M270 465q9 -84 42 -149.5t83.5 -110.5t114 -68.5t133.5 -23.5q109 0 189 40.5t145 108.5l98 -88q-40 -45 -84.5 -81.5t-97.5 -62.5t-116 -40.5t-138 -14.5q-109 0 -205 40t-168 113t-113.5 175t-41.5 225q0 115 38 216t106 176t160.5 118t202.5 43q118 0 210 -44
t155 -120t96 -178t33 -219v-24t-2 -31h-840zM952 592q-7 72 -31 136.5t-66 113.5t-102.5 77.5t-138.5 28.5q-68 0 -127 -27t-104.5 -74.5t-74.5 -112.5t-38 -142h682zM543 1487h139l217 -268h-135l-154 137l-153 -137h-131zM1019 1676l164 -76l-231 -221h-127z" />
    <glyph glyph-name="uni1EC0" unicode="&#x1ec0;" horiz-adv-x="1372" 
d="M203 1434h1036v-148h-874v-489h782v-148h-782v-502h884v-147h-1046v1434zM643 1829h139l217 -268h-135l-153 137l-154 -137h-131zM777 1957l164 76l194 -297h-127z" />
    <glyph glyph-name="uni1EC1" unicode="&#x1ec1;" horiz-adv-x="1212" 
d="M270 465q9 -84 42 -149.5t83.5 -110.5t114 -68.5t133.5 -23.5q109 0 189 40.5t145 108.5l98 -88q-40 -45 -84.5 -81.5t-97.5 -62.5t-116 -40.5t-138 -14.5q-109 0 -205 40t-168 113t-113.5 175t-41.5 225q0 115 38 216t106 176t160.5 118t202.5 43q118 0 210 -44
t155 -120t96 -178t33 -219v-24t-2 -31h-840zM952 592q-7 72 -31 136.5t-66 113.5t-102.5 77.5t-138.5 28.5q-68 0 -127 -27t-104.5 -74.5t-74.5 -112.5t-38 -142h682zM543 1487h139l217 -268h-135l-154 137l-153 -137h-131zM684 1600l164 76l194 -297h-127z" />
    <glyph glyph-name="uni1EC2" unicode="&#x1ec2;" horiz-adv-x="1372" 
d="M203 1434h1036v-148h-874v-489h782v-148h-782v-502h884v-147h-1046v1434zM643 1829h139l217 -268h-135l-153 137l-154 -137h-131zM978 1706l-1 22q0 60 46 107l22 21q27 27 27 59q0 51 -54 51q-60 0 -65 -88h-95v18q0 42 14 76.5t39 58.5q23 20 50.5 32t56.5 13
q77 3 123 -37q54 -45 54 -122q0 -36 -21 -69q-1 -4 -36 -42l-19 -19l-29 -29h1q-15 -17 -15 -28v-24h-98z" />
    <glyph glyph-name="uni1EC3" unicode="&#x1ec3;" horiz-adv-x="1212" 
d="M270 465q9 -84 42 -149.5t83.5 -110.5t114 -68.5t133.5 -23.5q109 0 189 40.5t145 108.5l98 -88q-40 -45 -84.5 -81.5t-97.5 -62.5t-116 -40.5t-138 -14.5q-109 0 -205 40t-168 113t-113.5 175t-41.5 225q0 115 38 216t106 176t160.5 118t202.5 43q118 0 210 -44
t155 -120t96 -178t33 -219v-24t-2 -31h-840zM952 592q-7 72 -31 136.5t-66 113.5t-102.5 77.5t-138.5 28.5q-68 0 -127 -27t-104.5 -74.5t-74.5 -112.5t-38 -142h682zM543 1487h139l217 -268h-135l-154 137l-153 -137h-131zM848 1384l-1 22q0 60 46 107l22 21q27 27 27 59
q0 51 -54 51q-60 0 -65 -88h-95v18q0 42 14 76.5t39 58.5q23 20 50.5 32t56.5 13q77 3 123 -37q54 -45 54 -122q0 -36 -21 -69q-1 -4 -36 -42l-19 -19l-29 -29h1q-15 -17 -15 -28v-24h-98z" />
    <glyph glyph-name="uni1EC4" unicode="&#x1ec4;" horiz-adv-x="1372" 
d="M203 1434h1036v-148h-874v-489h782v-148h-782v-502h884v-147h-1046v1434zM643 1829h139l217 -268h-135l-153 137l-154 -137h-131zM378 1878q15 57 33.5 98t42 67t53 38t66.5 12q34 0 71.5 -13t73.5 -28t69.5 -28t59.5 -13q20 0 35 5.5t27 17.5t22.5 31t22.5 46l96 -26
q-15 -58 -33.5 -98.5t-42 -66.5t-53 -38t-66.5 -12q-35 0 -72 12.5t-73.5 28t-69.5 28t-59 12.5q-20 0 -35 -5t-27 -17t-22.5 -31t-22.5 -47z" />
    <glyph glyph-name="uni1EC5" unicode="&#x1ec5;" horiz-adv-x="1212" 
d="M270 465q9 -84 42 -149.5t83.5 -110.5t114 -68.5t133.5 -23.5q109 0 189 40.5t145 108.5l98 -88q-40 -45 -84.5 -81.5t-97.5 -62.5t-116 -40.5t-138 -14.5q-109 0 -205 40t-168 113t-113.5 175t-41.5 225q0 115 38 216t106 176t160.5 118t202.5 43q118 0 210 -44
t155 -120t96 -178t33 -219v-24t-2 -31h-840zM952 592q-7 72 -31 136.5t-66 113.5t-102.5 77.5t-138.5 28.5q-68 0 -127 -27t-104.5 -74.5t-74.5 -112.5t-38 -142h682zM543 1487h139l217 -268h-135l-154 137l-153 -137h-131zM274 1540q15 57 33.5 98t42 67t53 38t66.5 12
q34 0 71.5 -13t73.5 -28t69.5 -28t59.5 -13q20 0 35 5t27 17t22.5 31t22.5 47l96 -26q-15 -58 -33.5 -98.5t-42 -66.5t-53 -38t-66.5 -12q-35 0 -72 12.5t-73 28t-69.5 28t-59.5 12.5q-20 0 -35 -5t-27 -17t-22.5 -31t-22.5 -47z" />
    <glyph glyph-name="uni1EC6" unicode="&#x1ec6;" horiz-adv-x="1372" 
d="M590 -157h192v-196h-192v196zM203 1434h1036v-148h-874v-489h782v-148h-782v-502h884v-147h-1046v1434zM643 1829h139l217 -268h-135l-153 137l-154 -137h-131z" />
    <glyph glyph-name="uni1EC7" unicode="&#x1ec7;" horiz-adv-x="1212" 
d="M270 465q9 -84 42 -149.5t83.5 -110.5t114 -68.5t133.5 -23.5q109 0 189 40.5t145 108.5l98 -88q-40 -45 -84.5 -81.5t-97.5 -62.5t-116 -40.5t-138 -14.5q-109 0 -205 40t-168 113t-113.5 175t-41.5 225q0 115 38 216t106 176t160.5 118t202.5 43q118 0 210 -44
t155 -120t96 -178t33 -219v-24t-2 -31h-840zM952 592q-7 72 -31 136.5t-66 113.5t-102.5 77.5t-138.5 28.5q-68 0 -127 -27t-104.5 -74.5t-74.5 -112.5t-38 -142h682zM543 1487h139l217 -268h-135l-154 137l-153 -137h-131zM511 -157h192v-196h-192v196zM511 -157h192v-196
h-192v196z" />
    <glyph glyph-name="uni1EC8" unicode="&#x1ec8;" horiz-adv-x="597" 
d="M217 1434h162v-1434h-162v1434zM249 1523l-1 22q0 60 46 107l22 21q27 27 27 59q0 51 -54 51q-60 0 -65 -88h-95v18q0 42 14 76.5t39 58.5q23 20 50.5 32t56.5 13q77 3 123 -37q54 -45 54 -122q0 -36 -21 -69q-1 -4 -36 -42l-19 -19l-29 -29h1q-15 -17 -15 -28v-24h-98z
" />
    <glyph glyph-name="uni1EC9" unicode="&#x1ec9;" horiz-adv-x="539" 
d="M190 1059h158v-1059h-158v1059zM221 1161l-1 22q0 60 46 107l22 21q27 27 27 59q0 51 -54 51q-60 0 -65 -88h-95v18q0 42 14 76.5t39 58.5q23 20 50.5 32t56.5 13q77 3 123 -37q54 -45 54 -122q0 -36 -21 -69q-1 -4 -36 -42l-19 -19l-29 -29h1q-15 -17 -15 -28v-24h-98z
" />
    <glyph glyph-name="uni1ECA" unicode="&#x1eca;" horiz-adv-x="597" 
d="M217 1434h162v-1434h-162v1434zM202 -157h192v-196h-192v196z" />
    <glyph glyph-name="uni1ECB" unicode="&#x1ecb;" horiz-adv-x="539" 
d="M179 1464h180v-174h-180v174zM189 1059h158v-1059h-158v1059zM173 -157h192v-196h-192v196z" />
    <glyph glyph-name="uni1ECC" unicode="&#x1ecc;" horiz-adv-x="1741" 
d="M868 -25q-164 0 -298 59.5t-230 161t-148.5 235t-52.5 282.5v4q0 148 53 282.5t150 236.5t231.5 162t298.5 60q109 0 205.5 -27t178 -76t145.5 -117t109 -150t68.5 -175t23.5 -192q2 -2 0 -4q0 -99 -24 -192t-69 -175.5t-110 -151.5t-146.5 -118.5t-178.5 -77t-206 -27.5
zM872 125q123 0 226 46t178 125.5t116.5 187t41.5 229.5v4q0 122 -42.5 229.5t-117.5 188t-179 127.5t-227 47t-226 -46t-177.5 -125.5t-116 -187t-41.5 -229.5v-4q0 -122 42.5 -230t117.5 -188.5t178.5 -127t226.5 -46.5zM774 -157h192v-196h-192v196z" />
    <glyph glyph-name="uni1ECD" unicode="&#x1ecd;" horiz-adv-x="1323" 
d="M659 -25q-119 0 -219.5 43.5t-173.5 118.5t-114 175t-41 212v4q0 112 41.5 212.5t115 176t175 120t221.5 44.5q119 0 219.5 -43.5t174 -118.5t115 -175t41.5 -212v-4q0 -112 -41.5 -212.5t-116 -176t-176 -120t-221.5 -44.5zM664 117q86 0 157.5 32t123 87.5t80 129.5
t28.5 158v4q0 85 -30 160.5t-83 132t-125 89t-156 32.5q-86 0 -157 -32.5t-122 -88.5t-79.5 -130.5t-28.5 -158.5v-4q0 -85 29.5 -160t82 -130.5t124.5 -88t156 -32.5zM565 -157h192v-196h-192v196z" />
    <glyph glyph-name="uni1ECE" unicode="&#x1ece;" horiz-adv-x="1741" 
d="M868 -25q-164 0 -298 59.5t-230 161t-148.5 235t-52.5 282.5v4q0 148 53 282.5t150 236.5t231.5 162t298.5 60q109 0 205.5 -27t178 -76t145.5 -117t109 -150t68.5 -175t23.5 -192q2 -2 0 -4q0 -99 -24 -192t-69 -175.5t-110 -151.5t-146.5 -118.5t-178.5 -77t-206 -27.5
zM872 125q123 0 226 46t178 125.5t116.5 187t41.5 229.5v4q0 122 -42.5 229.5t-117.5 188t-179 127.5t-227 47t-226 -46t-177.5 -125.5t-116 -187t-41.5 -229.5v-4q0 -122 42.5 -230t117.5 -188.5t178.5 -127t226.5 -46.5zM821 1523l-1 22q0 60 46 107l22 21q27 27 27 59
q0 51 -54 51q-60 0 -65 -88h-95v18q0 42 14 76.5t39 58.5q23 20 50.5 32t56.5 13q77 3 123 -37q54 -45 54 -122q0 -36 -21 -69q-1 -4 -36 -42l-19 -19l-29 -29h1q-15 -17 -15 -28v-24h-98z" />
    <glyph glyph-name="uni1ECF" unicode="&#x1ecf;" horiz-adv-x="1323" 
d="M659 -25q-119 0 -219.5 43.5t-173.5 118.5t-114 175t-41 212v4q0 112 41.5 212.5t115 176t175 120t221.5 44.5q119 0 219.5 -43.5t174 -118.5t115 -175t41.5 -212v-4q0 -112 -41.5 -212.5t-116 -176t-176 -120t-221.5 -44.5zM664 117q86 0 157.5 32t123 87.5t80 129.5
t28.5 158v4q0 85 -30 160.5t-83 132t-125 89t-156 32.5q-86 0 -157 -32.5t-122 -88.5t-79.5 -130.5t-28.5 -158.5v-4q0 -85 29.5 -160t82 -130.5t124.5 -88t156 -32.5zM613 1161l-1 22q0 60 46 107l22 21q27 27 27 59q0 51 -54 51q-60 0 -65 -88h-95v18q0 42 14 76.5
t39 58.5q23 20 50.5 32t56.5 13q77 3 123 -37q54 -45 54 -122q0 -36 -21 -69q-1 -4 -36 -42l-19 -19l-29 -29h1q-15 -17 -15 -28v-24h-98z" />
    <glyph glyph-name="uni1ED0" unicode="&#x1ed0;" horiz-adv-x="1741" 
d="M868 -25q-164 0 -298 59.5t-230 161t-148.5 235t-52.5 282.5v4q0 148 53 282.5t150 236.5t231.5 162t298.5 60q109 0 205.5 -27t178 -76t145.5 -117t109 -150t68.5 -175t23.5 -192q2 -2 0 -4q0 -99 -24 -192t-69 -175.5t-110 -151.5t-146.5 -118.5t-178.5 -77t-206 -27.5
zM872 125q123 0 226 46t178 125.5t116.5 187t41.5 229.5v4q0 122 -42.5 229.5t-117.5 188t-179 127.5t-227 47t-226 -46t-177.5 -125.5t-116 -187t-41.5 -229.5v-4q0 -122 42.5 -230t117.5 -188.5t178.5 -127t226.5 -46.5zM801 1829h139l217 -268h-135l-154 137l-153 -137
h-131zM1284 2033l164 -76l-232 -221h-126z" />
    <glyph glyph-name="uni1ED1" unicode="&#x1ed1;" horiz-adv-x="1323" 
d="M659 -25q-119 0 -219.5 43.5t-173.5 118.5t-114 175t-41 212v4q0 112 41.5 212.5t115 176t175 120t221.5 44.5q119 0 219.5 -43.5t174 -118.5t115 -175t41.5 -212v-4q0 -112 -41.5 -212.5t-116 -176t-176 -120t-221.5 -44.5zM664 117q86 0 157.5 32t123 87.5t80 129.5
t28.5 158v4q0 85 -30 160.5t-83 132t-125 89t-156 32.5q-86 0 -157 -32.5t-122 -88.5t-79.5 -130.5t-28.5 -158.5v-4q0 -85 29.5 -160t82 -130.5t124.5 -88t156 -32.5zM592 1487h139l217 -268h-135l-154 137l-153 -137h-131zM1062 1676l164 -76l-231 -221h-127z" />
    <glyph glyph-name="uni1ED2" unicode="&#x1ed2;" horiz-adv-x="1741" 
d="M868 -25q-164 0 -298 59.5t-230 161t-148.5 235t-52.5 282.5v4q0 148 53 282.5t150 236.5t231.5 162t298.5 60q109 0 205.5 -27t178 -76t145.5 -117t109 -150t68.5 -175t23.5 -192q2 -2 0 -4q0 -99 -24 -192t-69 -175.5t-110 -151.5t-146.5 -118.5t-178.5 -77t-206 -27.5
zM872 125q123 0 226 46t178 125.5t116.5 187t41.5 229.5v4q0 122 -42.5 229.5t-117.5 188t-179 127.5t-227 47t-226 -46t-177.5 -125.5t-116 -187t-41.5 -229.5v-4q0 -122 42.5 -230t117.5 -188.5t178.5 -127t226.5 -46.5zM801 1829h139l217 -268h-135l-154 137l-153 -137
h-131zM933 1957l164 76l194 -297h-127z" />
    <glyph glyph-name="uni1ED3" unicode="&#x1ed3;" horiz-adv-x="1323" 
d="M659 -25q-119 0 -219.5 43.5t-173.5 118.5t-114 175t-41 212v4q0 112 41.5 212.5t115 176t175 120t221.5 44.5q119 0 219.5 -43.5t174 -118.5t115 -175t41.5 -212v-4q0 -112 -41.5 -212.5t-116 -176t-176 -120t-221.5 -44.5zM664 117q86 0 157.5 32t123 87.5t80 129.5
t28.5 158v4q0 85 -30 160.5t-83 132t-125 89t-156 32.5q-86 0 -157 -32.5t-122 -88.5t-79.5 -130.5t-28.5 -158.5v-4q0 -85 29.5 -160t82 -130.5t124.5 -88t156 -32.5zM592 1487h139l217 -268h-135l-154 137l-153 -137h-131zM741 1600l164 76l194 -297h-127z" />
    <glyph glyph-name="uni1ED4" unicode="&#x1ed4;" horiz-adv-x="1741" 
d="M868 -25q-164 0 -298 59.5t-230 161t-148.5 235t-52.5 282.5v4q0 148 53 282.5t150 236.5t231.5 162t298.5 60q109 0 205.5 -27t178 -76t145.5 -117t109 -150t68.5 -175t23.5 -192q2 -2 0 -4q0 -99 -24 -192t-69 -175.5t-110 -151.5t-146.5 -118.5t-178.5 -77t-206 -27.5
zM872 125q123 0 226 46t178 125.5t116.5 187t41.5 229.5v4q0 122 -42.5 229.5t-117.5 188t-179 127.5t-227 47t-226 -46t-177.5 -125.5t-116 -187t-41.5 -229.5v-4q0 -122 42.5 -230t117.5 -188.5t178.5 -127t226.5 -46.5zM801 1829h139l217 -268h-135l-154 137l-153 -137
h-131zM1129 1706l-1 22q0 60 46 107l22 21q27 27 27 59q0 51 -54 51q-60 0 -65 -88h-95v18q0 42 14 76.5t39 58.5q23 20 50.5 32t56.5 13q77 3 123 -37q54 -45 54 -122q0 -36 -21 -69q-1 -4 -36 -42l-19 -19l-29 -29h1q-15 -17 -15 -28v-24h-98z" />
    <glyph glyph-name="uni1ED5" unicode="&#x1ed5;" horiz-adv-x="1323" 
d="M659 -25q-119 0 -219.5 43.5t-173.5 118.5t-114 175t-41 212v4q0 112 41.5 212.5t115 176t175 120t221.5 44.5q119 0 219.5 -43.5t174 -118.5t115 -175t41.5 -212v-4q0 -112 -41.5 -212.5t-116 -176t-176 -120t-221.5 -44.5zM664 117q86 0 157.5 32t123 87.5t80 129.5
t28.5 158v4q0 85 -30 160.5t-83 132t-125 89t-156 32.5q-86 0 -157 -32.5t-122 -88.5t-79.5 -130.5t-28.5 -158.5v-4q0 -85 29.5 -160t82 -130.5t124.5 -88t156 -32.5zM592 1487h139l217 -268h-135l-154 137l-153 -137h-131zM898 1384l-1 22q0 60 46 107l22 21q27 27 27 59
q0 51 -54 51q-60 0 -65 -88h-95v18q0 42 14 76.5t39 58.5q23 20 50.5 32t56.5 13q77 3 123 -37q54 -45 54 -122q0 -36 -21 -69q-1 -4 -36 -42l-19 -19l-29 -29h1q-15 -17 -15 -28v-24h-98z" />
    <glyph glyph-name="uni1ED6" unicode="&#x1ed6;" horiz-adv-x="1741" 
d="M868 -25q-164 0 -298 59.5t-230 161t-148.5 235t-52.5 282.5v4q0 148 53 282.5t150 236.5t231.5 162t298.5 60q109 0 205.5 -27t178 -76t145.5 -117t109 -150t68.5 -175t23.5 -192q2 -2 0 -4q0 -99 -24 -192t-69 -175.5t-110 -151.5t-146.5 -118.5t-178.5 -77t-206 -27.5
zM872 125q123 0 226 46t178 125.5t116.5 187t41.5 229.5v4q0 122 -42.5 229.5t-117.5 188t-179 127.5t-227 47t-226 -46t-177.5 -125.5t-116 -187t-41.5 -229.5v-4q0 -122 42.5 -230t117.5 -188.5t178.5 -127t226.5 -46.5zM801 1829h139l217 -268h-135l-154 137l-153 -137
h-131zM536 1878q15 57 33.5 98t42 67t53 38t66.5 12q34 0 71.5 -13t73.5 -28t69.5 -28t59.5 -13q20 0 35 5.5t27 17.5t22.5 31t22.5 46l96 -26q-15 -58 -33.5 -98.5t-42 -66.5t-53 -38t-66.5 -12q-35 0 -72 12.5t-73.5 28t-69.5 28t-59 12.5q-20 0 -35 -5t-27 -17t-22.5 -31
t-22.5 -47z" />
    <glyph glyph-name="uni1ED7" unicode="&#x1ed7;" horiz-adv-x="1323" 
d="M659 -25q-119 0 -219.5 43.5t-173.5 118.5t-114 175t-41 212v4q0 112 41.5 212.5t115 176t175 120t221.5 44.5q119 0 219.5 -43.5t174 -118.5t115 -175t41.5 -212v-4q0 -112 -41.5 -212.5t-116 -176t-176 -120t-221.5 -44.5zM664 117q86 0 157.5 32t123 87.5t80 129.5
t28.5 158v4q0 85 -30 160.5t-83 132t-125 89t-156 32.5q-86 0 -157 -32.5t-122 -88.5t-79.5 -130.5t-28.5 -158.5v-4q0 -85 29.5 -160t82 -130.5t124.5 -88t156 -32.5zM592 1487h139l217 -268h-135l-154 137l-153 -137h-131zM324 1540q15 57 33.5 98t42 67t53 38t66.5 12
q34 0 71.5 -13t73.5 -28t69.5 -28t59.5 -13q20 0 35 5t27 17t22.5 31t22.5 47l96 -26q-15 -58 -33.5 -98.5t-42 -66.5t-53 -38t-66.5 -12q-35 0 -72 12.5t-73 28t-69.5 28t-59.5 12.5q-20 0 -35 -5t-27 -17t-22.5 -31t-22.5 -47z" />
    <glyph glyph-name="uni1ED8" unicode="&#x1ed8;" horiz-adv-x="1741" 
d="M868 -25q-164 0 -298 59.5t-230 161t-148.5 235t-52.5 282.5v4q0 148 53 282.5t150 236.5t231.5 162t298.5 60q109 0 205.5 -27t178 -76t145.5 -117t109 -150t68.5 -175t23.5 -192q2 -2 0 -4q0 -99 -24 -192t-69 -175.5t-110 -151.5t-146.5 -118.5t-178.5 -77t-206 -27.5
zM872 125q123 0 226 46t178 125.5t116.5 187t41.5 229.5v4q0 122 -42.5 229.5t-117.5 188t-179 127.5t-227 47t-226 -46t-177.5 -125.5t-116 -187t-41.5 -229.5v-4q0 -122 42.5 -230t117.5 -188.5t178.5 -127t226.5 -46.5zM801 1829h139l217 -268h-135l-154 137l-153 -137
h-131zM774 -157h192v-196h-192v196z" />
    <glyph glyph-name="uni1ED9" unicode="&#x1ed9;" horiz-adv-x="1323" 
d="M659 -25q-119 0 -219.5 43.5t-173.5 118.5t-114 175t-41 212v4q0 112 41.5 212.5t115 176t175 120t221.5 44.5q119 0 219.5 -43.5t174 -118.5t115 -175t41.5 -212v-4q0 -112 -41.5 -212.5t-116 -176t-176 -120t-221.5 -44.5zM664 117q86 0 157.5 32t123 87.5t80 129.5
t28.5 158v4q0 85 -30 160.5t-83 132t-125 89t-156 32.5q-86 0 -157 -32.5t-122 -88.5t-79.5 -130.5t-28.5 -158.5v-4q0 -85 29.5 -160t82 -130.5t124.5 -88t156 -32.5zM592 1487h139l217 -268h-135l-154 137l-153 -137h-131zM565 -157h192v-196h-192v196z" />
    <glyph glyph-name="uni1EDA" unicode="&#x1eda;" horiz-adv-x="1768" 
d="M868 -25q-164 0 -298 59.5t-230 161t-148.5 235t-52.5 282.5v4q0 148 53 282.5t150 236.5t231.5 162t298.5 60q166 0 301 -61t232 -164h37q54 0 87.5 33.5t33.5 107.5v60h157v-62q0 -129 -59 -195t-160 -75q48 -85 74.5 -181.5t26.5 -199.5q2 -2 0 -4q0 -99 -24 -192
t-69 -175.5t-110 -151.5t-146.5 -118.5t-178.5 -77t-206 -27.5zM872 125q123 0 226 46t178 125.5t116.5 187t41.5 229.5v4q0 122 -42.5 229.5t-117.5 188t-179 127.5t-227 47t-226 -46t-177.5 -125.5t-116 -187t-41.5 -229.5v-4q0 -122 42.5 -230t117.5 -188.5t178.5 -127
t226.5 -46.5zM946 1858l164 -76l-232 -221h-126z" />
    <glyph glyph-name="uni1EDB" unicode="&#x1edb;" horiz-adv-x="1323" 
d="M659 -25q-119 0 -219.5 43.5t-173.5 118.5t-114 175t-41 212v4q0 112 41.5 212.5t115 176t175 120t221.5 44.5q70 0 134.5 -16t121 -45t104 -69.5t84.5 -90.5q43 6 69.5 40t26.5 99v60h158v-62q0 -117 -49 -182t-135 -84q17 -46 26.5 -96t9.5 -103v-4
q0 -112 -41.5 -212.5t-116 -176t-176 -120t-221.5 -44.5zM664 117q86 0 157.5 32t123 87.5t80 129.5t28.5 158v4q0 85 -30 160.5t-83 132t-125 89t-156 32.5q-86 0 -157 -32.5t-122 -88.5t-79.5 -130.5t-28.5 -158.5v-4q0 -85 29.5 -160t82 -130.5t124.5 -88t156 -32.5z
M777 1516l164 -76l-231 -221h-127z" />
    <glyph glyph-name="uni1EDC" unicode="&#x1edc;" horiz-adv-x="1768" 
d="M868 -25q-164 0 -298 59.5t-230 161t-148.5 235t-52.5 282.5v4q0 148 53 282.5t150 236.5t231.5 162t298.5 60q166 0 301 -61t232 -164h37q54 0 87.5 33.5t33.5 107.5v60h157v-62q0 -129 -59 -195t-160 -75q48 -85 74.5 -181.5t26.5 -199.5q2 -2 0 -4q0 -99 -24 -192
t-69 -175.5t-110 -151.5t-146.5 -118.5t-178.5 -77t-206 -27.5zM872 125q123 0 226 46t178 125.5t116.5 187t41.5 229.5v4q0 122 -42.5 229.5t-117.5 188t-179 127.5t-227 47t-226 -46t-177.5 -125.5t-116 -187t-41.5 -229.5v-4q0 -122 42.5 -230t117.5 -188.5t178.5 -127
t226.5 -46.5zM509 1782l164 76l194 -297h-127z" />
    <glyph glyph-name="uni1EDD" unicode="&#x1edd;" horiz-adv-x="1323" 
d="M659 -25q-119 0 -219.5 43.5t-173.5 118.5t-114 175t-41 212v4q0 112 41.5 212.5t115 176t175 120t221.5 44.5q70 0 134.5 -16t121 -45t104 -69.5t84.5 -90.5q43 6 69.5 40t26.5 99v60h158v-62q0 -117 -49 -182t-135 -84q17 -46 26.5 -96t9.5 -103v-4
q0 -112 -41.5 -212.5t-116 -176t-176 -120t-221.5 -44.5zM664 117q86 0 157.5 32t123 87.5t80 129.5t28.5 158v4q0 85 -30 160.5t-83 132t-125 89t-156 32.5q-86 0 -157 -32.5t-122 -88.5t-79.5 -130.5t-28.5 -158.5v-4q0 -85 29.5 -160t82 -130.5t124.5 -88t156 -32.5z
M446 1440l164 76l194 -297h-127z" />
    <glyph glyph-name="uni1EDE" unicode="&#x1ede;" horiz-adv-x="1768" 
d="M868 -25q-164 0 -298 59.5t-230 161t-148.5 235t-52.5 282.5v4q0 148 53 282.5t150 236.5t231.5 162t298.5 60q166 0 301 -61t232 -164h37q54 0 87.5 33.5t33.5 107.5v60h157v-62q0 -129 -59 -195t-160 -75q48 -85 74.5 -181.5t26.5 -199.5q2 -2 0 -4q0 -99 -24 -192
t-69 -175.5t-110 -151.5t-146.5 -118.5t-178.5 -77t-206 -27.5zM872 125q123 0 226 46t178 125.5t116.5 187t41.5 229.5v4q0 122 -42.5 229.5t-117.5 188t-179 127.5t-227 47t-226 -46t-177.5 -125.5t-116 -187t-41.5 -229.5v-4q0 -122 42.5 -230t117.5 -188.5t178.5 -127
t226.5 -46.5zM835 1523l-1 22q0 60 46 107l22 21q27 27 27 59q0 51 -54 51q-60 0 -65 -88h-95v18q0 42 14 76.5t39 58.5q23 20 50.5 32t56.5 13q77 3 123 -37q54 -45 54 -122q0 -36 -21 -69q-1 -4 -36 -42l-19 -19l-29 -29h1q-15 -17 -15 -28v-24h-98z" />
    <glyph glyph-name="uni1EDF" unicode="&#x1edf;" horiz-adv-x="1323" 
d="M659 -25q-119 0 -219.5 43.5t-173.5 118.5t-114 175t-41 212v4q0 112 41.5 212.5t115 176t175 120t221.5 44.5q70 0 134.5 -16t121 -45t104 -69.5t84.5 -90.5q43 6 69.5 40t26.5 99v60h158v-62q0 -117 -49 -182t-135 -84q17 -46 26.5 -96t9.5 -103v-4
q0 -112 -41.5 -212.5t-116 -176t-176 -120t-221.5 -44.5zM664 117q86 0 157.5 32t123 87.5t80 129.5t28.5 158v4q0 85 -30 160.5t-83 132t-125 89t-156 32.5q-86 0 -157 -32.5t-122 -88.5t-79.5 -130.5t-28.5 -158.5v-4q0 -85 29.5 -160t82 -130.5t124.5 -88t156 -32.5z
M613 1161l-1 22q0 60 46 107l22 21q27 27 27 59q0 51 -54 51q-60 0 -65 -88h-95v18q0 42 14 76.5t39 58.5q23 20 50.5 32t56.5 13q77 3 123 -37q54 -45 54 -122q0 -36 -21 -69q-1 -4 -36 -42l-19 -19l-29 -29h1q-15 -17 -15 -28v-24h-98z" />
    <glyph glyph-name="uni1EE0" unicode="&#x1ee0;" horiz-adv-x="1768" 
d="M868 -25q-164 0 -298 59.5t-230 161t-148.5 235t-52.5 282.5v4q0 148 53 282.5t150 236.5t231.5 162t298.5 60q166 0 301 -61t232 -164h37q54 0 87.5 33.5t33.5 107.5v60h157v-62q0 -129 -59 -195t-160 -75q48 -85 74.5 -181.5t26.5 -199.5q2 -2 0 -4q0 -99 -24 -192
t-69 -175.5t-110 -151.5t-146.5 -118.5t-178.5 -77t-206 -27.5zM872 125q123 0 226 46t178 125.5t116.5 187t41.5 229.5v4q0 122 -42.5 229.5t-117.5 188t-179 127.5t-227 47t-226 -46t-177.5 -125.5t-116 -187t-41.5 -229.5v-4q0 -122 42.5 -230t117.5 -188.5t178.5 -127
t226.5 -46.5zM551 1569q15 57 33.5 98t42 67t53 38t66.5 12q34 0 71.5 -13t73.5 -28t69.5 -28t59.5 -13q20 0 35 5.5t27 17.5t22.5 31t22.5 46l96 -26q-15 -58 -33.5 -98.5t-42 -66.5t-53 -38t-66.5 -12q-35 0 -72 12.5t-73.5 28t-69.5 28t-59 12.5q-20 0 -35 -5t-27 -17
t-22.5 -31t-22.5 -47z" />
    <glyph glyph-name="uni1EE1" unicode="&#x1ee1;" horiz-adv-x="1323" 
d="M659 -25q-119 0 -219.5 43.5t-173.5 118.5t-114 175t-41 212v4q0 112 41.5 212.5t115 176t175 120t221.5 44.5q70 0 134.5 -16t121 -45t104 -69.5t84.5 -90.5q43 6 69.5 40t26.5 99v60h158v-62q0 -117 -49 -182t-135 -84q17 -46 26.5 -96t9.5 -103v-4
q0 -112 -41.5 -212.5t-116 -176t-176 -120t-221.5 -44.5zM664 117q86 0 157.5 32t123 87.5t80 129.5t28.5 158v4q0 85 -30 160.5t-83 132t-125 89t-156 32.5q-86 0 -157 -32.5t-122 -88.5t-79.5 -130.5t-28.5 -158.5v-4q0 -85 29.5 -160t82 -130.5t124.5 -88t156 -32.5z
M387 1227q15 57 33.5 98t42 67t53 38t66.5 12q34 0 71.5 -13t73.5 -28t69.5 -28t59.5 -13q20 0 35 5t27 17t22.5 31t22.5 47l96 -26q-15 -58 -33.5 -98.5t-42 -66.5t-53 -38t-66.5 -12q-35 0 -72 12.5t-73 28t-69.5 28t-59.5 12.5q-20 0 -35 -5t-27 -17t-22.5 -31t-22.5 -47
z" />
    <glyph glyph-name="uni1EE2" unicode="&#x1ee2;" horiz-adv-x="1768" 
d="M868 -25q-164 0 -298 59.5t-230 161t-148.5 235t-52.5 282.5v4q0 148 53 282.5t150 236.5t231.5 162t298.5 60q166 0 301 -61t232 -164h37q54 0 87.5 33.5t33.5 107.5v60h157v-62q0 -129 -59 -195t-160 -75q48 -85 74.5 -181.5t26.5 -199.5q2 -2 0 -4q0 -99 -24 -192
t-69 -175.5t-110 -151.5t-146.5 -118.5t-178.5 -77t-206 -27.5zM872 125q123 0 226 46t178 125.5t116.5 187t41.5 229.5v4q0 122 -42.5 229.5t-117.5 188t-179 127.5t-227 47t-226 -46t-177.5 -125.5t-116 -187t-41.5 -229.5v-4q0 -122 42.5 -230t117.5 -188.5t178.5 -127
t226.5 -46.5zM788 -157h192v-196h-192v196z" />
    <glyph glyph-name="uni1EE3" unicode="&#x1ee3;" horiz-adv-x="1323" 
d="M659 -25q-119 0 -219.5 43.5t-173.5 118.5t-114 175t-41 212v4q0 112 41.5 212.5t115 176t175 120t221.5 44.5q70 0 134.5 -16t121 -45t104 -69.5t84.5 -90.5q43 6 69.5 40t26.5 99v60h158v-62q0 -117 -49 -182t-135 -84q17 -46 26.5 -96t9.5 -103v-4
q0 -112 -41.5 -212.5t-116 -176t-176 -120t-221.5 -44.5zM664 117q86 0 157.5 32t123 87.5t80 129.5t28.5 158v4q0 85 -30 160.5t-83 132t-125 89t-156 32.5q-86 0 -157 -32.5t-122 -88.5t-79.5 -130.5t-28.5 -158.5v-4q0 -85 29.5 -160t82 -130.5t124.5 -88t156 -32.5z
M565 -157h192v-196h-192v196z" />
    <glyph glyph-name="uni1EE4" unicode="&#x1ee4;" horiz-adv-x="1554" 
d="M776 -23q-133 0 -242.5 40.5t-188 119t-122 195t-43.5 268.5v834h162v-824q0 -116 30 -206t86.5 -151.5t137.5 -93.5t184 -32q99 0 179 30t136 89t86.5 148t30.5 206v834h162v-822q0 -156 -43 -275t-121.5 -199t-188.5 -120.5t-245 -40.5zM681 -157h192v-196h-192v196z
" />
    <glyph glyph-name="uni1EE5" unicode="&#x1ee5;" horiz-adv-x="1262" 
d="M565 -23q-96 0 -171.5 31t-127 87t-79 134t-27.5 172v658h157v-619q0 -74 19.5 -133t57 -100t92 -63.5t124.5 -22.5q68 0 126 24t101 67.5t67 104.5t24 136v606h155v-1059h-155v184q-27 -43 -61.5 -80.5t-78.5 -65.5t-99 -44.5t-124 -16.5zM521 -157h192v-196h-192v196z
" />
    <glyph glyph-name="uni1EE6" unicode="&#x1ee6;" horiz-adv-x="1554" 
d="M776 -23q-133 0 -242.5 40.5t-188 119t-122 195t-43.5 268.5v834h162v-824q0 -116 30 -206t86.5 -151.5t137.5 -93.5t184 -32q99 0 179 30t136 89t86.5 148t30.5 206v834h162v-822q0 -156 -43 -275t-121.5 -199t-188.5 -120.5t-245 -40.5zM728 1523l-1 22q0 60 46 107
l22 21q27 27 27 59q0 51 -54 51q-60 0 -65 -88h-95v18q0 42 14 76.5t39 58.5q23 20 50.5 32t56.5 13q77 3 123 -37q54 -45 54 -122q0 -36 -21 -69q-1 -4 -36 -42l-19 -19l-29 -29h1q-15 -17 -15 -28v-24h-98z" />
    <glyph glyph-name="uni1EE7" unicode="&#x1ee7;" horiz-adv-x="1262" 
d="M565 -23q-96 0 -171.5 31t-127 87t-79 134t-27.5 172v658h157v-619q0 -74 19.5 -133t57 -100t92 -63.5t124.5 -22.5q68 0 126 24t101 67.5t67 104.5t24 136v606h155v-1059h-155v184q-27 -43 -61.5 -80.5t-78.5 -65.5t-99 -44.5t-124 -16.5zM583 1161l-1 22q0 60 46 107
l22 21q27 27 27 59q0 51 -54 51q-60 0 -65 -88h-95v18q0 42 14 76.5t39 58.5q23 20 50.5 32t56.5 13q77 3 123 -37q54 -45 54 -122q0 -36 -21 -69q-1 -4 -36 -42l-19 -19l-29 -29h1q-15 -17 -15 -28v-24h-98z" />
    <glyph glyph-name="uni1EE8" unicode="&#x1ee8;" horiz-adv-x="1648" 
d="M1374 1100v-488q0 -156 -43 -275t-121.5 -199t-188.5 -120.5t-245 -40.5q-133 0 -242.5 40.5t-188 119t-122 195t-43.5 268.5v834h162v-824q0 -116 30 -206t86.5 -151.5t137.5 -93.5t184 -32q99 0 179 30t136 89t86.5 148t30.5 206v834h162v-201h6q54 0 87.5 33.5
t33.5 107.5v60h158v-62q0 -140 -69 -206t-189 -66h-27zM946 1858l164 -76l-232 -221h-126z" />
    <glyph glyph-name="uni1EE9" unicode="&#x1ee9;" horiz-adv-x="1344" 
d="M565 -23q-96 0 -171.5 31t-127 87t-79 134t-27.5 172v658h157v-619q0 -74 19.5 -133t57 -100t92 -63.5t124.5 -22.5q68 0 126 24t101 67.5t67 104.5t24 136v606h155v-201q45 6 72 40.5t27 100.5v60h157v-62q0 -70 -18 -121t-51 -84.5t-80.5 -50t-106.5 -16.5v-725h-155
v184q-27 -43 -61.5 -80.5t-78.5 -65.5t-99 -44.5t-124 -16.5zM687 1516l164 -76l-231 -221h-127z" />
    <glyph glyph-name="uni1EEA" unicode="&#x1eea;" horiz-adv-x="1648" 
d="M1374 1100v-488q0 -156 -43 -275t-121.5 -199t-188.5 -120.5t-245 -40.5q-133 0 -242.5 40.5t-188 119t-122 195t-43.5 268.5v834h162v-824q0 -116 30 -206t86.5 -151.5t137.5 -93.5t184 -32q99 0 179 30t136 89t86.5 148t30.5 206v834h162v-201h6q54 0 87.5 33.5
t33.5 107.5v60h158v-62q0 -140 -69 -206t-189 -66h-27zM509 1782l164 76l194 -297h-127z" />
    <glyph glyph-name="uni1EEB" unicode="&#x1eeb;" horiz-adv-x="1344" 
d="M565 -23q-96 0 -171.5 31t-127 87t-79 134t-27.5 172v658h157v-619q0 -74 19.5 -133t57 -100t92 -63.5t124.5 -22.5q68 0 126 24t101 67.5t67 104.5t24 136v606h155v-201q45 6 72 40.5t27 100.5v60h157v-62q0 -70 -18 -121t-51 -84.5t-80.5 -50t-106.5 -16.5v-725h-155
v184q-27 -43 -61.5 -80.5t-78.5 -65.5t-99 -44.5t-124 -16.5zM353 1440l164 76l194 -297h-127z" />
    <glyph glyph-name="uni1EEC" unicode="&#x1eec;" horiz-adv-x="1648" 
d="M1374 1100v-488q0 -156 -43 -275t-121.5 -199t-188.5 -120.5t-245 -40.5q-133 0 -242.5 40.5t-188 119t-122 195t-43.5 268.5v834h162v-824q0 -116 30 -206t86.5 -151.5t137.5 -93.5t184 -32q99 0 179 30t136 89t86.5 148t30.5 206v834h162v-201h6q54 0 87.5 33.5
t33.5 107.5v60h158v-62q0 -140 -69 -206t-189 -66h-27zM731 1523l-1 22q0 60 46 107l22 21q27 27 27 59q0 51 -54 51q-60 0 -65 -88h-95v18q0 42 14 76.5t39 58.5q23 20 50.5 32t56.5 13q77 3 123 -37q54 -45 54 -122q0 -36 -21 -69q-1 -4 -36 -42l-19 -19l-29 -29h1
q-15 -17 -15 -28v-24h-98z" />
    <glyph glyph-name="uni1EED" unicode="&#x1eed;" horiz-adv-x="1344" 
d="M565 -23q-96 0 -171.5 31t-127 87t-79 134t-27.5 172v658h157v-619q0 -74 19.5 -133t57 -100t92 -63.5t124.5 -22.5q68 0 126 24t101 67.5t67 104.5t24 136v606h155v-201q45 6 72 40.5t27 100.5v60h157v-62q0 -70 -18 -121t-51 -84.5t-80.5 -50t-106.5 -16.5v-725h-155
v184q-27 -43 -61.5 -80.5t-78.5 -65.5t-99 -44.5t-124 -16.5zM624 1161l-1 22q0 60 46 107l22 21q27 27 27 59q0 51 -54 51q-60 0 -65 -88h-95v18q0 42 14 76.5t39 58.5q23 20 50.5 32t56.5 13q77 3 123 -37q54 -45 54 -122q0 -36 -21 -69q-1 -4 -36 -42l-19 -19l-29 -29h1
q-15 -17 -15 -28v-24h-98z" />
    <glyph glyph-name="uni1EEE" unicode="&#x1eee;" horiz-adv-x="1648" 
d="M1374 1100v-488q0 -156 -43 -275t-121.5 -199t-188.5 -120.5t-245 -40.5q-133 0 -242.5 40.5t-188 119t-122 195t-43.5 268.5v834h162v-824q0 -116 30 -206t86.5 -151.5t137.5 -93.5t184 -32q99 0 179 30t136 89t86.5 148t30.5 206v834h162v-201h6q54 0 87.5 33.5
t33.5 107.5v60h158v-62q0 -140 -69 -206t-189 -66h-27zM448 1569q15 57 33.5 98t42 67t53 38t66.5 12q34 0 71.5 -13t73.5 -28t69.5 -28t59.5 -13q20 0 35 5.5t27 17.5t22.5 31t22.5 46l96 -26q-15 -58 -33.5 -98.5t-42 -66.5t-53 -38t-66.5 -12q-35 0 -72 12.5t-73.5 28
t-69.5 28t-59 12.5q-20 0 -35 -5t-27 -17t-22.5 -31t-22.5 -47z" />
    <glyph glyph-name="uni1EEF" unicode="&#x1eef;" horiz-adv-x="1344" 
d="M565 -23q-96 0 -171.5 31t-127 87t-79 134t-27.5 172v658h157v-619q0 -74 19.5 -133t57 -100t92 -63.5t124.5 -22.5q68 0 126 24t101 67.5t67 104.5t24 136v606h155v-201q45 6 72 40.5t27 100.5v60h157v-62q0 -70 -18 -121t-51 -84.5t-80.5 -50t-106.5 -16.5v-725h-155
v184q-27 -43 -61.5 -80.5t-78.5 -65.5t-99 -44.5t-124 -16.5zM360 1227q15 57 33.5 98t42 67t53 38t66.5 12q34 0 71.5 -13t73.5 -28t69.5 -28t59.5 -13q20 0 35 5t27 17t22.5 31t22.5 47l96 -26q-15 -58 -33.5 -98.5t-42 -66.5t-53 -38t-66.5 -12q-35 0 -72 12.5t-73 28
t-69.5 28t-59.5 12.5q-20 0 -35 -5t-27 -17t-22.5 -31t-22.5 -47z" />
    <glyph glyph-name="uni1EF0" unicode="&#x1ef0;" horiz-adv-x="1648" 
d="M1374 1100v-488q0 -156 -43 -275t-121.5 -199t-188.5 -120.5t-245 -40.5q-133 0 -242.5 40.5t-188 119t-122 195t-43.5 268.5v834h162v-824q0 -116 30 -206t86.5 -151.5t137.5 -93.5t184 -32q99 0 179 30t136 89t86.5 148t30.5 206v834h162v-201h6q54 0 87.5 33.5
t33.5 107.5v60h158v-62q0 -140 -69 -206t-189 -66h-27zM709 -157h192v-196h-192v196z" />
    <glyph glyph-name="uni1EF1" unicode="&#x1ef1;" horiz-adv-x="1344" 
d="M565 -23q-96 0 -171.5 31t-127 87t-79 134t-27.5 172v658h157v-619q0 -74 19.5 -133t57 -100t92 -63.5t124.5 -22.5q68 0 126 24t101 67.5t67 104.5t24 136v606h155v-201q45 6 72 40.5t27 100.5v60h157v-62q0 -70 -18 -121t-51 -84.5t-80.5 -50t-106.5 -16.5v-725h-155
v184q-27 -43 -61.5 -80.5t-78.5 -65.5t-99 -44.5t-124 -16.5zM521 -157h192v-196h-192v196z" />
    <glyph glyph-name="Ygrave" unicode="&#x1ef2;" horiz-adv-x="1466" 
d="M651 567l-596 867h197l483 -717l488 717h188l-596 -865v-569h-164v567zM429 1782l164 76l194 -297h-127z" />
    <glyph glyph-name="ygrave" unicode="&#x1ef3;" horiz-adv-x="1210" 
d="M340 -334q-66 0 -119 13.5t-106 39.5l53 125q38 -20 76.5 -29.5t89.5 -9.5q35 0 64.5 10t55.5 33.5t49.5 61.5t47.5 94l-481 1055h174l385 -883l340 883h168l-445 -1094q-34 -82 -70.5 -139t-79 -92.5t-92.5 -51.5t-110 -16zM295 1440l164 76l194 -297h-127z" />
    <glyph glyph-name="uni1EF4" unicode="&#x1ef4;" horiz-adv-x="1466" 
d="M651 567l-596 867h197l483 -717l488 717h188l-596 -865v-569h-164v567zM637 -157h192v-196h-192v196z" />
    <glyph glyph-name="uni1EF5" unicode="&#x1ef5;" horiz-adv-x="1210" 
d="M340 -334q-66 0 -119 13.5t-106 39.5l53 125q38 -20 76.5 -29.5t89.5 -9.5q35 0 64.5 10t55.5 33.5t49.5 61.5t47.5 94l-481 1055h174l385 -883l340 883h168l-445 -1094q-34 -82 -70.5 -139t-79 -92.5t-92.5 -51.5t-110 -16zM688 -157h192v-196h-192v196z" />
    <glyph glyph-name="uni1EF6" unicode="&#x1ef6;" horiz-adv-x="1466" 
d="M651 567l-596 867h197l483 -717l488 717h188l-596 -865v-569h-164v567zM684 1523l-1 22q0 60 46 107l22 21q27 27 27 59q0 51 -54 51q-60 0 -65 -88h-95v18q0 42 14 76.5t39 58.5q23 20 50.5 32t56.5 13q77 3 123 -37q54 -45 54 -122q0 -36 -21 -69q-1 -4 -36 -42
l-19 -19l-29 -29h1q-15 -17 -15 -28v-24h-98z" />
    <glyph glyph-name="uni1EF7" unicode="&#x1ef7;" horiz-adv-x="1210" 
d="M340 -334q-66 0 -119 13.5t-106 39.5l53 125q38 -20 76.5 -29.5t89.5 -9.5q35 0 64.5 10t55.5 33.5t49.5 61.5t47.5 94l-481 1055h174l385 -883l340 883h168l-445 -1094q-34 -82 -70.5 -139t-79 -92.5t-92.5 -51.5t-110 -16zM584 1161l-1 22q0 60 46 107l22 21
q27 27 27 59q0 51 -54 51q-60 0 -65 -88h-95v18q0 42 14 76.5t39 58.5q23 20 50.5 32t56.5 13q77 3 123 -37q54 -45 54 -122q0 -36 -21 -69q-1 -4 -36 -42l-19 -19l-29 -29h1q-15 -17 -15 -28v-24h-98z" />
    <glyph glyph-name="uni1EF8" unicode="&#x1ef8;" horiz-adv-x="1466" 
d="M651 567l-596 867h197l483 -717l488 717h188l-596 -865v-569h-164v567zM394 1569q15 57 33.5 98t42 67t53 38t66.5 12q34 0 71.5 -13t73.5 -28t69.5 -28t59.5 -13q20 0 35 5.5t27 17.5t22.5 31t22.5 46l96 -26q-15 -58 -33.5 -98.5t-42 -66.5t-53 -38t-66.5 -12
q-35 0 -72 12.5t-73.5 28t-69.5 28t-59 12.5q-20 0 -35 -5t-27 -17t-22.5 -31t-22.5 -47z" />
    <glyph glyph-name="uni1EF9" unicode="&#x1ef9;" horiz-adv-x="1210" 
d="M340 -334q-66 0 -119 13.5t-106 39.5l53 125q38 -20 76.5 -29.5t89.5 -9.5q35 0 64.5 10t55.5 33.5t49.5 61.5t47.5 94l-481 1055h174l385 -883l340 883h168l-445 -1094q-34 -82 -70.5 -139t-79 -92.5t-92.5 -51.5t-110 -16zM248 1227q15 57 33.5 98t42 67t53 38t66.5 12
q34 0 71.5 -13t73.5 -28t69.5 -28t59.5 -13q20 0 35 5t27 17t22.5 31t22.5 47l96 -26q-15 -58 -33.5 -98.5t-42 -66.5t-53 -38t-66.5 -12q-35 0 -72 12.5t-73 28t-69.5 28t-59.5 12.5q-20 0 -35 -5t-27 -17t-22.5 -31t-22.5 -47z" />
    <glyph glyph-name="uni2007" unicode="&#x2007;" horiz-adv-x="1139" 
 />
    <glyph glyph-name="endash" unicode="&#x2013;" horiz-adv-x="1081" 
d="M133 694h815v-157h-815v157z" />
    <glyph glyph-name="emdash" unicode="&#x2014;" horiz-adv-x="1839" 
d="M133 694h1573v-157h-1573v157z" />
    <glyph glyph-name="quoteleft" unicode="&#x2018;" horiz-adv-x="502" 
d="M147 1163q0 124 54.5 189.5t171.5 91.5l24 -72q-77 -28 -109.5 -70t-27.5 -108h76v-215h-189v184z" />
    <glyph glyph-name="quoteright" unicode="&#x2019;" horiz-adv-x="502" 
d="M104 1040q78 28 111 70t27 109h-74v215h188v-185q0 -62 -13.5 -108.5t-41.5 -80.5t-71 -56t-101 -35z" />
    <glyph glyph-name="quotesinglbase" unicode="&#x201a;" horiz-adv-x="502" 
d="M94 -178q78 28 111 70t26 108h-73v215h188v-184q0 -62 -13.5 -109t-41.5 -80.5t-71 -56t-101 -35.5z" />
    <glyph glyph-name="quotedblleft" unicode="&#x201c;" horiz-adv-x="911" 
d="M557 1163q0 124 54.5 189.5t170.5 91.5l25 -72q-77 -28 -109.5 -70t-27.5 -108h73v-215h-186v184zM147 1163q0 124 54.5 189.5t171.5 91.5l24 -72q-77 -28 -109.5 -70t-27.5 -108h76v-215h-189v184z" />
    <glyph glyph-name="quotedblright" unicode="&#x201d;" horiz-adv-x="911" 
d="M514 1040q77 28 110 70t27 109h-73v215h186v-185q0 -62 -13.5 -108.5t-41 -80.5t-70 -56t-100.5 -35zM104 1040q78 28 111 70t27 109h-74v215h188v-185q0 -62 -13.5 -108.5t-41.5 -80.5t-71 -56t-101 -35z" />
    <glyph glyph-name="quotedblbase" unicode="&#x201e;" horiz-adv-x="911" 
d="M504 -178q77 28 110 70t27 108h-74v215h187v-184q0 -62 -13.5 -109t-41 -80.5t-70.5 -56t-101 -35.5zM94 -178q78 28 111 70t26 108h-73v215h188v-184q0 -62 -13.5 -109t-41.5 -80.5t-71 -56t-101 -35.5z" />
    <glyph glyph-name="dagger" unicode="&#x2020;" horiz-adv-x="840" 
d="M377 1065l-254 -16v112l252 -16l-19 289h127l-18 -289l252 16v-112l-254 16l12 -578h-110z" />
    <glyph glyph-name="daggerdbl" unicode="&#x2021;" horiz-adv-x="881" 
d="M395 289l-252 -17v113l254 -16l-12 348l12 348l-254 -16v112l252 -16l-18 289h127l-19 -289l252 16v-112l-254 16l13 -348l-13 -348l254 16v-113l-252 17l19 -289h-127z" />
    <glyph glyph-name="bullet" unicode="&#x2022;" horiz-adv-x="979" 
d="M489 453q-55 0 -104 20.5t-85.5 56.5t-57.5 84.5t-21 104.5v4q0 55 22 103.5t58.5 84.5t85 57t102.5 21q53 0 102 -21t86 -57t59 -84.5t22 -103.5v-4q0 -56 -21 -104.5t-58 -84.5t-86 -56.5t-104 -20.5z" />
    <glyph glyph-name="ellipsis" unicode="&#x2026;" horiz-adv-x="1481" 
d="M1141 211h184v-211h-184v211zM649 211h182v-211h-182v211zM158 211h182v-211h-182v211z" />
    <glyph glyph-name="perthousand" unicode="&#x2030;" horiz-adv-x="2480" 
d="M430 717q-73 0 -132.5 29.5t-102 79.5t-66 115.5t-23.5 137.5v4q0 73 23.5 139.5t67 117t103.5 80.5t134 30q72 0 131.5 -29.5t102 -79.5t65.5 -116t23 -138v-4q0 -73 -23.5 -139t-66.5 -116.5t-103 -80.5t-133 -30zM1307 1434h145l-1051 -1434h-147zM2046 -16
q-72 0 -131.5 29.5t-102 79.5t-65.5 115.5t-23 137.5v4q0 73 23.5 139.5t66.5 117t103 80.5t133 30t132.5 -29.5t101.5 -79.5t65 -116t23 -138v-4q0 -73 -23 -139t-66 -116.5t-103 -80.5t-134 -30zM1274 -16q-72 0 -131.5 29.5t-102 79.5t-65.5 115.5t-23 137.5v4
q0 73 23.5 139.5t66.5 117t103 80.5t133 30t132.5 -29.5t101.5 -79.5t64.5 -116t22.5 -138v-4q0 -73 -23 -139t-66 -116.5t-103 -80.5t-133 -30zM434 831q42 0 76 19.5t59 53t38.5 79t13.5 96.5v4q0 54 -15 100t-41 80t-61 53t-74 19q-42 0 -76.5 -19.5t-59 -53.5t-37.5 -79
t-13 -96v-4q0 -54 15 -100t40.5 -79.5t60 -53t74.5 -19.5zM2050 98q42 0 76.5 19.5t59 53t37.5 79t13 96.5v4q0 54 -15 100t-40.5 80t-60 53t-74.5 19q-42 0 -76 -20t-58.5 -53.5t-38 -78.5t-13.5 -96v-4q0 -54 15 -100t40.5 -79.5t60 -53t74.5 -19.5zM1278 98
q42 0 76.5 19.5t59 53t37.5 79t13 96.5v4q0 54 -15 100t-40.5 80t-60 53t-74.5 19q-42 0 -76 -20t-59 -53.5t-38.5 -78.5t-13.5 -96v-4q0 -54 15 -100t40.5 -79.5t60.5 -53t75 -19.5z" />
    <glyph glyph-name="guilsinglleft" unicode="&#x2039;" horiz-adv-x="672" 
d="M98 522v17l332 436l121 -68l-277 -375l277 -378l-121 -70z" />
    <glyph glyph-name="guilsinglright" unicode="&#x203a;" horiz-adv-x="672" 
d="M121 152l276 376l-276 377l119 70l331 -436v-17l-331 -438z" />
    <glyph glyph-name="fraction" unicode="&#x2044;" horiz-adv-x="879" 
d="M817 1552h156l-957 -1753h-155z" />
    <glyph glyph-name="trademark" unicode="&#x2122;" horiz-adv-x="1413" 
d="M688 1434h96l226 -347l223 347h94v-631h-88v483l-225 -342h-13l-223 342v-483h-90v631zM256 1348h-203v86h496v-86h-203v-545h-90v545z" />
    <glyph glyph-name="Omega" unicode="&#x2126;" horiz-adv-x="1505" 
d="M989 920h-145v137h145v92q0 182 90 272q85 82 228 82q55 0 96 -6t78 -20v-138q-42 13 -77 20t-75 7q-94 0 -139 -55.5t-45 -169.5v-86h334v-135h-334v-920h-156v920zM236 920h-146v137h146v92q0 182 92 272q40 41 97.5 61.5t129.5 20.5q56 0 96 -6t78 -20v-138
q-43 13 -78 20t-76 7q-184 0 -184 -225v-86h336v-135h-334v-920h-157v920z" />
    <glyph glyph-name="partialdiff" unicode="&#x2202;" horiz-adv-x="1106" 
d="M907 494q0 -53 -4.5 -107t-17 -105.5t-36 -99t-61.5 -86.5q-51 -52 -117 -80t-147 -28q-80 0 -146.5 28t-117.5 80q-38 39 -61 86.5t-36 99t-17.5 105.5t-4.5 107q0 58 4.5 114t17.5 108t36 97.5t61 83.5q42 42 105.5 72t144.5 30q42 0 80.5 -5.5t75 -21t71 -42.5
t66.5 -70v176q0 73 -17.5 135.5t-54.5 108.5t-93 72t-134 26q-47 0 -82 -7t-64 -21t-55 -34t-55 -46l-68 67q39 35 74 60t72 41.5t79.5 24t98.5 7.5q97 0 172 -31t126.5 -87.5t78 -135.5t26.5 -174v-548zM803 494q0 43 -2 88t-10.5 88.5t-25.5 82.5t-46 70q-38 41 -88 62.5
t-107 21.5t-106.5 -21.5t-87.5 -62.5q-29 -31 -46 -70t-25.5 -82.5t-10.5 -88.5t-2 -88t2 -88.5t10.5 -89t25.5 -82.5t46 -70q38 -40 87.5 -62t106.5 -22t107 22t88 62q29 31 46 70t25.5 82.5t10.5 89t2 88.5z" />
    <glyph glyph-name="uni2206" unicode="&#x2206;" horiz-adv-x="1235" 
d="M16 0l537 1458h129l535 -1458h-1201zM618 1235l-397 -1100h793z" />
    <glyph glyph-name="product" unicode="&#x220f;" horiz-adv-x="1432" 
d="M1096 -471v1929h-760v-1929h-111v2027h981v-2027h-110z" />
    <glyph glyph-name="summation" unicode="&#x2211;" horiz-adv-x="1128" 
d="M129 -471v98l424 944l-424 887v98h885v-98h-760l399 -837v-99l-399 -895h760v-98h-885z" />
    <glyph glyph-name="radical" unicode="&#x221a;" horiz-adv-x="2044" 
d="M989 920h-145v137h145v92q0 182 90 272q85 82 228 82q55 0 96 -6t78 -20v-138q-42 13 -77 20t-75 7q-94 0 -139 -55.5t-45 -169.5v-86h334v-135h-334v-920h-156v920zM236 920h-146v137h146v92q0 182 92 272q40 41 97.5 61.5t129.5 20.5q56 0 96 -6t78 -20v-138
q-43 13 -78 20t-76 7q-184 0 -184 -225v-86h336v-135h-334v-920h-157v920zM1696 1495h157v-1495h-157v1495z" />
    <glyph glyph-name="infinity" unicode="&#x221e;" horiz-adv-x="1622" 
d="M1475 532q0 -65 -22.5 -120.5t-62 -96t-95 -63.5t-121.5 -23q-53 0 -98.5 12.5t-88.5 39.5t-85.5 69t-90.5 101q-48 -59 -91 -101.5t-85.5 -69.5t-87.5 -40t-96 -13q-66 0 -122 23t-96.5 64t-63 97t-22.5 121q0 66 22.5 122t63 97.5t96.5 65t122 23.5q50 0 94.5 -13
t87.5 -40.5t86.5 -70.5t91.5 -102q48 59 90 102t85 70.5t88.5 40.5t99.5 13q66 0 121.5 -23.5t95 -65t62 -97.5t22.5 -122zM1376 532q0 47 -15.5 86t-43 66.5t-66.5 43t-86 15.5q-41 0 -77 -14.5t-70.5 -42t-70 -66.5t-75.5 -88q40 -48 75.5 -86.5t70 -65.5t70.5 -41.5
t77 -14.5q47 0 86 15t66.5 42.5t43 65.5t15.5 85zM750 532q-40 49 -75.5 88.5t-70 68t-70.5 44t-77 15.5q-47 0 -86 -16t-66.5 -45t-43 -68.5t-15.5 -86.5t15.5 -85t43 -65.5t66.5 -42.5t86 -15q41 0 77 14.5t70.5 41.5t70 65.5t75.5 86.5z" />
    <glyph glyph-name="integral" unicode="&#x222b;" horiz-adv-x="674" 
d="M541 1366q-79 0 -115.5 -43t-36.5 -121v-1415q0 -56 -15 -103t-45 -81.5t-74.5 -54t-102.5 -19.5h-91v92h72q79 0 115.5 43.5t36.5 120.5v1415q0 56 15 103.5t45 82t74.5 53.5t102.5 19h90v-92h-71z" />
    <glyph glyph-name="approxequal" unicode="&#x2248;" horiz-adv-x="2044" 
d="M1686 1464h178v-174h-178v174zM989 920h-145v137h145v92q0 182 90 272q85 82 228 82q55 0 96 -6t78 -20v-138q-42 13 -77 20t-75 7q-94 0 -139 -55.5t-45 -169.5v-86h334v-135h-334v-920h-156v920zM236 920h-146v137h146v92q0 182 92 272q40 41 97.5 61.5t129.5 20.5
q56 0 96 -6t78 -20v-138q-43 13 -78 20t-76 7q-184 0 -184 -225v-86h336v-135h-334v-920h-157v920zM1696 1059h157v-1059h-157v1059z" />
    <glyph glyph-name="notequal" unicode="&#x2260;" horiz-adv-x="1053" 
d="M389 334l-213 -213l-67 67l145 146h-145v96h241l217 217h-458v96h555l213 213l67 -67l-145 -146h145v-96h-242l-217 -217h459v-96h-555z" />
    <glyph glyph-name="lessequal" unicode="&#x2264;" horiz-adv-x="2103" 
d="M1677 -158l-1188 1186v-1098l-98 99v1171h1170l100 -100h-1098l1186 -1186z" />
    <glyph glyph-name="greaterequal" unicode="&#x2265;" horiz-adv-x="2103" 
d="M1614 -70v1098l-1188 -1186l-72 72l1186 1186h-1098l101 100h1169v-1171z" />
    <glyph glyph-name="lozenge" unicode="&#x25ca;" horiz-adv-x="1339" 
d="M670 -14l-523 743l523 744l522 -744zM670 1313l-406 -584l406 -588l405 588z" />
    <glyph glyph-name="apple" unicode="&#xf8ff;" horiz-adv-x="1980" 
d="M207 0v1536h1571v-1536h-1571zM1747 -213l-6 41l-21 -43h-4l-20 43l-6 -41h-13l13 70h2l26 -54l27 54h2l12 -70h-12zM1651 -178q0 -16 -10 -26.5t-25 -10.5q-16 0 -25.5 10.5t-9.5 24.5q0 15 10 26t27 11q14 0 23.5 -10.5t9.5 -24.5zM1550 -209q-6 -6 -20 -6
q-17 0 -27 9.5t-10 25.5q0 15 10.5 26t26.5 11q14 0 22 -7l-4 -10q-3 3 -8 4.5t-10 1.5q-9 0 -17 -6.5t-8 -17.5q0 -14 8 -20.5t19 -6.5q5 0 10 2.5t10 5.5zM1411 -184v-29h-12v29l-29 39l12 2l23 -31l18 29h15zM1331 -213v31h-33v-31h-12v68h12v-27h33v27h12v-68h-12z
M1253 -168q0 -12 -9.5 -18.5t-24.5 -6.5v-20h-13v68q28 3 37.5 -4.5t9.5 -18.5zM1167 -213l-8 16h-29l-6 -16h-12l31 70h4l33 -70h-13zM1079 -213l-16 23h-10v-23h-13v68q28 3 37.5 -4.5t9.5 -16.5q0 -13 -14 -20l21 -27h-15zM1006 -207q-5 -3 -12 -5.5t-15 -2.5
q-16 0 -26.5 9.5t-10.5 25.5q0 15 11 26t28 11q6 0 13 -2.5t12 -6.5l-5 -10q-3 3 -9.5 5.5t-12.5 2.5q-11 0 -18 -7t-7 -19q0 -11 8 -18t19 -7q4 0 12 4v15h-18v10h31v-31zM915 -178q0 -16 -9.5 -26.5t-24.5 -10.5q-16 0 -25.5 10.5t-9.5 24.5q0 15 10 26t27 11
q14 0 23 -10.5t9 -24.5zM819 -168q0 -12 -9.5 -18.5t-25.5 -6.5v-20h-12v68q28 3 37.5 -4.5t9.5 -18.5zM719 -184v-29h-12v29l-29 39l12 2l23 -31l18 29h14zM662 -156h-25v-57h-12v57h-25v11h62v-11zM522 -215h-2l-22 47l-21 -47h-2l-24 70l12 2l14 -47l21 47h2l20 -47
l15 45h12zM408 -215h-2l-23 47l-21 -47h-2l-24 70l12 2l14 -47l21 47h2l21 -47l14 45h12zM293 -215h-2l-23 47l-20 -47h-2l-25 70l12 2l15 -47l20 47h2l21 -47l14 45h12zM1466 -207q0 -8 -8 -8t-8 8t8 8t8 -8zM582 -207q0 -8 -9 -8q-8 0 -8 8t8 8q9 0 9 -8zM1145 1414
q0 6 -2 16q-3 -2 -12 -2.5t-23 -0.5q-16 0 -24 0.5t-13 2.5q0 -4 -0.5 -8t-0.5 -8q-1 -4 -1 -9h4q2 5 6 9q3 3 6.5 6t8.5 3t5.5 -1.5t0.5 -4.5v-47q0 -8 -5 -10q-3 -1 -5 0v-4h34v4q-3 -1 -5 0q-5 2 -5 10v47q0 6 6 6q5 0 9.5 -3t6.5 -6q3 -4 5 -9h4v9zM1032 1360
q-3 -1 -6 0q-6 2 -6 10v43q0 7 6 9q3 1 6 1v4h-37v-2v-2q2 0 5 -1q6 -2 6 -9v-18h-35v18q0 7 5 9q2 1 5 1v2v2h-35v-4q2 0 5 -1q2 -1 3.5 -2.5t1.5 -6.5v-43q0 -7 -5 -9q-3 -1 -5 -1v-4h35v4q-3 0 -5 1q-5 2 -5 9v21h35v-21q0 -8 -6 -10q-3 -1 -5 0v-4h37v4zM899 1360
q-3 -1 -5 0q-5 2 -5 10v43q0 7 5 9q2 1 5 1v4h-59l-4 -20l4 -2q1 4 4 8q6 8 14 8h8q3 0 5.5 -0.5t2.5 -5.5v-20h-8q-9 0 -11 5q-2 2 -1 5h-4v-27h4q-1 3 1 6q2 7 11 7h8v-23q0 -5 -2.5 -5.5t-5.5 -0.5h-8q-10 0 -15 9q-3 4 -5 9l-4 -2l4 -22h61v4zM1694 1278h-1403v-12h1403
v12zM1425 1106q0 15 -6 29.5t-16.5 25t-24 17t-28.5 6.5q-14 0 -30.5 -10.5t-16.5 -34.5q0 -16 6 -30.5t16.5 -25t24 -16.5t28.5 -6q14 0 30.5 10t16.5 35zM1206 1100q0 11 -7 20.5t-21 14.5q10 7 10 18q0 9 -10 20t-33 11q-13 0 -20 -6.5t-7 -16.5q0 -5 2.5 -8.5t7.5 -3.5
t7 2t2 4q0 6 -3.5 6.5t-3.5 5.5t4.5 8t10.5 3q11 0 15.5 -7t4.5 -18q0 -6 -1 -8t-3 -4q-14 2 -23.5 -0.5t-9.5 -12.5q0 -5 5.5 -8.5t11.5 -3.5q8 0 12.5 2.5t9.5 7.5q13 -9 13 -30q0 -14 -7 -21.5t-18 -7.5t-18 5t-7 13q0 7 7 7q2 0 3.5 -2.5t6.5 -2.5q8 0 8 11q0 10 -14 10
q-8 0 -13.5 -6.5t-5.5 -14.5q0 -11 9.5 -18.5t23.5 -7.5q26 0 38.5 11.5t12.5 27.5zM604 1100q0 11 -7.5 20.5t-21.5 14.5q11 6 11 18q0 9 -10 20t-33 11q-13 0 -20 -6.5t-7 -16.5q0 -5 2.5 -8.5t7.5 -3.5t7 2t2 4q0 6 -3.5 6.5t-3.5 5.5t4.5 8t10.5 3q11 0 15.5 -7t4.5 -18
q0 -6 -1 -8t-3 -4q-14 2 -23.5 -0.5t-9.5 -12.5q0 -5 5.5 -8.5t11.5 -3.5q8 0 12.5 2.5t9.5 7.5q13 -10 13 -30q0 -14 -7 -21.5t-18 -7.5t-18 5t-7 13q0 7 7 7q2 0 3.5 -2.5t6.5 -2.5q8 0 8 11q0 10 -14 10q-8 0 -13.5 -6.5t-5.5 -14.5q0 -11 9.5 -18.5t23.5 -7.5
q26 0 38.5 11.5t12.5 27.5zM1679 1069q-5 -1 -9 1q-8 3 -11 15l-14 72q-2 7 0 10.5t5 5.5q4 2 9 1l-2 6h-58l3 -6q3 1 7 -1q8 -4 11 -16l6 -31h-49l-6 31q-3 12 5 16q4 2 9 1l-2 6h-59l2 -6q4 1 8 -1q3 -2 6.5 -5.5t5.5 -10.5l15 -72q2 -11 -6 -15q-4 -2 -9 -1l2 -6h60l-2 6
q-5 -1 -9 1q-10 4 -12 15l-6 33h49l6 -33q2 -11 -6 -15q-4 -2 -8 -1l2 -6h59zM1018 1069q-5 -1 -9 1q-10 4 -12 15l-14 72q-3 12 5 16q4 2 9 1l-2 6h-92q1 -4 1 -9.5v-11.5q0 -7 -1 -14h8q0 7 3 13q2 5 7.5 9t16.5 4h8q5 0 7.5 -2t4.5 -10l7 -33h-9q-12 0 -19 9q-4 4 -5 10
h-6l10 -47h6q-1 6 1 11q2 4 5 7.5t10 3.5h9l6 -35q2 -11 -6 -15q-4 -2 -9 -1l3 -6h59zM414 1069q-5 -1 -9 1q-10 4 -12 15l-14 72q-3 12 5 16q4 2 9 1l-2 6h-55q-19 0 -30 -8t-11 -23q0 -12 11.5 -20.5t27.5 -10.5l-19 -33q-4 -7 -8.5 -10t-9.5 -5t-10 -1l2 -6h39l24 47
q3 6 10 6l7 -31q2 -11 -6 -15q-4 -2 -9 -1l2 -6h60zM819 1067q0 5 -6 10.5t-20 7.5q-8 6 -9.5 22t-4.5 33t-12.5 30.5t-33.5 13.5q-11 0 -18.5 -7.5t-7.5 -13.5q0 -10 10 -10q6 0 7 3t1 9q0 5 2 9t8 4q10 0 13 -10t5.5 -24.5t7 -30.5t17.5 -28q-11 0 -17.5 -4t-11.5 -9
l-9 -9t-9 -4q-10 0 -10 8q0 5 2 6t2 4q0 10 -10 10q-6 0 -8 -4.5t-2 -9.5q0 -9 9.5 -16.5t20.5 -7.5q14 0 20.5 4t10.5 9t8 9t12 4q9 -14 25 -14q8 0 8 6zM1694 985h-1403v-12h1403v12zM1694 901h-301v-127h73v57h23v-133h-29v-67h166v67h-29v133h23v-57h74v127zM1327 901
h-166v-70h23l-31 -47l-31 47h21v70h-127v-70h24l76 -94v-39h-29v-67h166v67h-30v41l75 92h29v70zM938 698h-29v133h29v70h-197q-45 0 -70.5 -24t-25.5 -58q0 -35 25.5 -58.5t70.5 -23.5h62v-39h-31v-67h166v67zM580 698h-29v133h29v70h-289v-127h84v57h67v-40h-49v-50h49
v-43h-67v58h-84v-125h289v67zM1694 567h-1403v-12h1403v12zM1491 393q0 15 -6.5 29.5t-17 25t-24 17t-28.5 6.5q-7 0 -15 -2.5t-15 -7.5t-12 -14t-5 -21q0 -16 6.5 -30.5t17 -25t24 -16.5t28.5 -6q7 0 15 2.5t15 7.5t12 14t5 21zM416 444q-6 11 -14 19t-23 8
q-14 0 -22.5 -11t-6.5 -36q-6 20 -16 33.5t-27 13.5q-9 0 -16.5 -6t-7.5 -19l6 -2q0 13 16 13q20 0 31.5 -21.5t17.5 -46.5q3 -14 1.5 -20.5t-4.5 -8.5q-4 -3 -9 -2l2 -8h57l-2 8q-4 -1 -8 1q-3 2 -6.5 5.5t-5.5 12.5q-5 15 -7.5 29t-2.5 22q0 12 4.5 19.5t13.5 7.5t14.5 -5
t10.5 -10zM1683 356q-5 -1 -9 1q-8 3 -11 16l-14 71q-3 12 5 16q4 2 9 1l-2 6h-92q1 -3 1 -9v-12q0 -7 -1 -14h8q0 7 3 13q2 5 7.5 9.5t16.5 4.5h8q5 0 7.5 -2.5t4.5 -10.5l6 -32h-8q-12 0 -19 9q-4 4 -6 9h-6l11 -47h6q-1 6 1 11t5 8.5t10 3.5h8l6 -35q2 -8 -0.5 -11
t-5.5 -5q-4 -2 -8 -1l2 -6h60zM1270 467h-60l2 -6q5 0 9 -2q9 -4 12 -17l10 -43q5 -20 2 -30.5t-24 -10.5q-17 0 -26.5 13.5t-14.5 31.5l-9 39q-2 8 0.5 12t5.5 6q4 2 9 1v6h-49l2 -6q5 0 9 -2q10 -4 13 -17l8 -39q2 -8 6 -18t11 -18t17 -13.5t24 -5.5q18 0 26.5 5t12 12
t2.5 15.5t-2 16.5l-11 45q-4 14 6 18q4 2 11 1zM1069 356q-3 0 -7 3q-3 2 -6 6t-5 12l-15 65q-3 13 7 17q4 2 10 2l-2 6h-29l-59 -86l-11 61q-2 7 0.5 11t5.5 6q4 2 9 2l-2 6h-43l2 -6q3 0 7 -2q8 -4 11 -17l16 -92l7 -2l61 90l12 -61q2 -9 -0.5 -13t-4.5 -6q-4 -2 -7 -2
l2 -6h43zM846 358q-4 -1 -8 1t-7.5 5.5t-5.5 12.5l-16 63q-6 18 16 21l-2 6h-61q-19 0 -35 -11t-16 -34q0 -16 6.5 -29.5t16.5 -23t22.5 -14.5t25.5 -5h66zM627 356q-5 -1 -9 1t-7 5t-5 11l-14 71q-3 12 5 16q4 2 9 1l-2 6h-55q-19 0 -30 -7.5t-11 -23.5q0 -12 11.5 -20
t27.5 -10l-19 -33q-4 -8 -8.5 -11t-9.5 -5t-10 -1l2 -6h39l24 47q3 6 10 6l7 -30q2 -8 -0.5 -11t-5.5 -5q-4 -2 -9 -1l2 -6h60zM1694 272h-1403v-12h1403v12zM1421 98q-3 0 -6 2q-6 4 -6 9v41q0 4 6 8l6 4v4h-20l-49 -53v37q0 6 6 10q3 2 6 2v4h-31v-4q3 0 6 -2q2 -2 4.5 -4
t2.5 -6v-58h6l51 58v-41q0 -4 -1.5 -5.5l-3.5 -3.5q-3 -2 -5 -2v-4h28v4zM1296 98q-3 0 -5 1q-5 2 -5 10v43q0 7 5 9q2 1 5 1v4h-59l-4 -21l4 -2q1 4 4 8q2 3 5.5 6t8.5 3h9q3 0 5.5 -0.5t2.5 -5.5v-21h-8q-8 0 -11 5q-2 2 -2 5h-4v-26h4q0 3 2 6l4 4t7 2h8v-23
q0 -5 -2.5 -5.5t-5.5 -0.5h-9q-10 0 -15 9q-3 4 -5 10l-4 -2l4 -23h61v4zM1163 166v-4q1 -1 3 -2q1 -2 2 -3.5t-1 -4.5l-18 -39l-10 20l8 17q3 6 7 9q2 2 5 3v4h-53l2 -4q1 -1 4 -2q2 -2 4.5 -3.5t5.5 -6.5l6 -11l-14 -26l-16 37q-3 7 0 10q1 2 4 2v4h-27v-4q1 0 4 -2l4 -4
t4 -6l27 -56h2q0 -1 1 -1l1 1l17 33l18 -33h2l25 56q2 5 4.5 6.5t4.5 3.5q3 1 5 2v4h-31zM983 166h-31v-4q3 0 4 -1q2 -2 -2 -9l-12 -19l-12 19q-4 7 1 9q2 1 5 1v4h-31v-4q3 0 6 -1q5 -2 11 -9l16 -25v-16q0 -5 -1.5 -7t-3.5 -4q-3 -2 -5 -2v-4h35v4q-3 0 -6 2q-5 3 -5 11
v16l17 25q4 7 9 9q3 1 5 1v4zM870 131q0 16 -10.5 26.5t-30.5 10.5t-30.5 -10.5t-10.5 -26.5q0 -15 10.5 -27t30.5 -12t30.5 12t10.5 27zM745 98q-3 0 -5 1q-5 2 -5 10v41q0 7 5 10q2 1 5 2v4h-36q-27 0 -27 -19q0 -6 5 -10.5t13 -7.5l-14 -20q-5 -8 -11 -10q-3 -1 -5 -1v-4
h22l15 25q5 6 6.5 7t7.5 1v-18q0 -8 -5 -10q-3 -1 -5 -1v-4h34v4zM633 98q-3 0 -6 2q-6 4 -6 11v41q0 7 6 9q3 1 6 1v4h-37v-4q3 0 6 -1q6 -2 6 -9v-19q-4 0 -8 4l-16 17q-4 3 -1 6q1 1 3 2v4h-29v-4l6 -2q6 -2 10 -6l21 -19l-27 -26q-2 -2 -4.5 -3.5t-4.5 -3.5q-3 -2 -5 -4
v-4h35v4q-3 0 -5 1q-5 3 1 10l16 16q4 4 8 4v-18q0 -5 -2 -7l-4 -4q-3 -2 -6 -2v-4h37v4zM1241 -170q0 17 -22 14v-26q9 0 15.5 2t6.5 10zM1075 -168q0 8 -6.5 11t-15.5 1v-24q14 -2 18 2.5t4 9.5zM807 -170q0 17 -23 14v-26q10 0 16.5 3t6.5 9zM1145 -164l-10 -24h20z
M1638 -180q0 14 -6.5 20t-15.5 6t-16 -6.5t-7 -17.5q0 -13 7 -20t16 -7t15.5 7t6.5 18zM903 -180q0 14 -6.5 20t-15.5 6q-10 0 -16.5 -6.5t-6.5 -17.5q0 -13 6.5 -20t16.5 -7q9 0 15.5 7t6.5 18zM350 1122q-17 0 -24 11t-7 20q0 18 17 18q9 0 12.5 -2t5.5 -8l6 -39h-10z
M1159 1133q-3 -5 -7 -7t-7 -2q-8 0 -8 4q0 7 8 7h7t7 -2zM557 1133q-3 -5 -7 -7t-7 -2q-8 0 -8 4q0 7 8 7h7t7 -2zM1401 1096q0 -27 -23 -27q-9 0 -18 6.5t-16.5 17t-12 25t-4.5 29.5q0 29 23 29q9 0 18 -6.5t16.5 -17.5t12 -25.5t4.5 -30.5zM780 786q-14 0 -20 7t-6 16
t6 15.5t20 6.5h23v-45h-23zM563 410q-17 0 -24 10.5t-7 19.5q0 19 17 19q9 0 12.5 -2t5.5 -8l6 -39h-10zM1466 383q0 -27 -22 -27q-19 0 -35 23.5t-16 54.5q0 29 22 29q9 0 18.5 -6.5t16.5 -17.5t11.5 -25.5t4.5 -30.5zM805 373q0 -10 -1.5 -12.5t-6.5 -2.5h-11
q-23 0 -38 20.5t-15 45.5q0 35 29 35h12q6 -2 7.5 -3.5t4.5 -11.5zM1133 162q6 0 5.5 -4.5t-5.5 -14.5q-7 11 -5.5 15t5.5 4zM715 131q-6 0 -11.5 3.5t-5.5 12.5q0 13 15 13q8 0 8 -8v-21h-6zM854 131q0 -14 -5.5 -24.5t-19.5 -10.5q-12 0 -18 10.5t-6 24.5t6 23.5t18 9.5
q14 0 19.5 -9.5t5.5 -23.5z" />
    <glyph glyph-name="fi" unicode="&#xfb01;" horiz-adv-x="1292" 
d="M932 1464h180v-174h-180v174zM236 920h-146v137h146v92q0 182 92 272q40 41 97.5 61.5t129.5 20.5q56 0 96 -6t78 -20v-138q-43 13 -78 20t-76 7q-184 0 -184 -225v-86h336v-135h-334v-920h-157v920zM944 1059h156v-1059h-156v1059z" />
    <glyph glyph-name="fl" unicode="&#xfb02;" horiz-adv-x="1292" 
d="M236 920h-146v137h146v92q0 182 92 272q40 41 97.5 61.5t129.5 20.5q56 0 96 -6t78 -20v-138q-43 13 -78 20t-76 7q-184 0 -184 -225v-86h336v-135h-334v-920h-157v920zM944 1495h156v-1495h-156v1495z" />
    <glyph glyph-name="space" horiz-adv-x="614" 
 />
    <glyph glyph-name="uni00B5" horiz-adv-x="1139" 
d="M836 0v117q-111 -129 -291 -129q-82 0 -147 23.5t-113 68.5v-551h-105v1458h105v-612q0 -144 69.5 -219.5t202.5 -75.5t206 77t73 218v612h104v-987h-104z" />
    <glyph glyph-name="uniF8FF" horiz-adv-x="0" 
 />
    <glyph glyph-name="_45" horiz-adv-x="872" 
d="M168 492v96h537v-96h-537z" />
    <glyph glyph-name="NUL" horiz-adv-x="0" 
 />
    </font>
</defs>
</svg>
